<svg width="51" height="66" viewBox="0 0 51 66" fill="none" xmlns="http://www.w3.org/2000/svg">
<g filter="url(#filter0_d)">
<path d="M26.4871 19.3716C31.8364 19.3716 36.1729 15.0351 36.1729 9.6858C36.1729 4.33648 31.8364 0 26.4871 0C21.1377 0 16.8013 4.33648 16.8013 9.6858C16.8013 15.0351 21.1377 19.3716 26.4871 19.3716Z" fill="white"/>
<path d="M26.4891 29.9222C28.6637 29.9222 31 30.1554 33 27.9998C35 25.8441 34.0243 24.3453 34.0243 22.387C34.0243 22.387 30.1205 23.8533 27.5 23.9998C24.1084 24.1894 18.9526 22.387 18.9526 22.387C18.9526 24.3453 20.4632 25.4833 22 26.9998C23.489 28.469 24.3138 29.9222 26.4891 29.9222Z" fill="white"/>
<path d="M37.7716 22.4644C37.7481 25.5212 39 28 35 31C33.3761 32.6376 30.7554 33.0899 28.3882 33.4873C28.3882 33.4873 30.3882 39.0808 29 41.5C27.6118 43.9192 26.8706 43.7479 25 45C23.1322 46.2502 21.4123 49.9299 20 51C16.9943 53.2773 10.976 50 10.976 43.493C9.69391 42.747 8.89665 41.2487 9.20781 39.6029C9.48397 38.1359 10.6986 36.94 12.1719 36.6913C14.4887 36.2989 16.4943 38.0709 16.4943 40.3127C16.4943 41.6523 15.7771 42.8245 14.7049 43.4668C14 45.5 14.2382 47.9042 16.4943 48.7502C20 50.0648 21.3856 43.7993 25 42C28.6144 40.2007 25.5 33.4873 25.5 33.4873C22.881 33.048 21.1771 30.9269 19.5 29C17.7947 27.0407 15.2524 25.2535 15.231 22.4619C10.0138 23.1355 9.20781 27.1004 9.20781 32.5C9.20781 37.8996 4.00003 43.7297 4 50C3.99997 56.2703 8.0919 57.1801 10.6699 57.1801C10.6699 57.1801 20.1944 56.4999 26.5 56.5C32.8051 56.5001 41.5 57.1801 41.5 57.1801C44.5 57.1801 47 54.5 47 50C47 45.5 43.9963 42.8996 44 37.5C44.0038 32.1004 42.9887 23.138 37.7716 22.4644Z" fill="white"/>
</g>
<defs>
<filter id="filter0_d" x="0" y="0" width="51" height="65.1801" filterUnits="userSpaceOnUse" color-interpolation-filters="sRGB">
<feFlood flood-opacity="0" result="BackgroundImageFix"/>
<feColorMatrix in="SourceAlpha" type="matrix" values="0 0 0 0 0 0 0 0 0 0 0 0 0 0 0 0 0 0 127 0"/>
<feOffset dy="4"/>
<feGaussianBlur stdDeviation="2"/>
<feColorMatrix type="matrix" values="0 0 0 0 0 0 0 0 0 0 0 0 0 0 0 0 0 0 0.25 0"/>
<feBlend mode="normal" in2="BackgroundImageFix" result="effect1_dropShadow"/>
<feBlend mode="normal" in="SourceGraphic" in2="effect1_dropShadow" result="shape"/>
</filter>
</defs>
</svg>
