<svg width="14" height="7" viewBox="0 0 14 7" fill="none" xmlns="http://www.w3.org/2000/svg">
<path d="M0.160163 3.89959C0.159971 3.89942 0.160327 3.89976 0.160163 3.89959L3.01824 6.83562C3.23231 7.05552 3.57857 7.0547 3.79167 6.8337C4.00473 6.61272 4.00391 6.25529 3.78983 6.03536L1.87125 4.06452L13.4531 4.06452C13.7552 4.06452 14 3.81178 14 3.5C14 3.18822 13.7552 2.93548 13.4531 2.93548L1.87128 2.93548L3.78981 0.964643C4.00388 0.744708 4.0047 0.387284 3.79164 0.166304C3.57854 -0.0547324 3.23226 -0.0554943 3.01821 0.164385L0.160628 3.09987C0.160819 3.0997 0.160463 3.10004 0.160628 3.09987C-0.0535596 3.32054 -0.0533679 3.67966 0.160163 3.89959Z" fill="#33386F"/>
</svg>
