<svg width="422" height="418" fill="none" xmlns="http://www.w3.org/2000/svg"><g clip-path="url(#clip0)"><g filter="url(#filter0_f)"><path d="M214.02 126.26h45.727l-12.643 39.271 12.643 66.707-45.727 27.974V126.26z" fill="#000" fill-opacity=".5"/></g><g filter="url(#filter1_f)"><path d="M98.359 228.584l31.863-13.56 6.569 39.884 34.931 57.631-20.909 39.3-52.454-123.255z" fill="#000" fill-opacity=".5"/></g><g filter="url(#filter2_f)"><path d="M222.893 160.959l14.794-34.154 26.091-16.179h78.645l54.501-11.533-74.239 84.729-99.792-22.863z" fill="#000" fill-opacity=".5"/></g><g filter="url(#filter3_f)"><path d="M90.182 60.116l38.872-24.081 9.935 40.041 45.878 50.049-24.139 47.862-70.546-113.87z" fill="#000" fill-opacity=".5"/></g><g filter="url(#filter4_d)"><path d="M41.008 353.652c1.57 2.307 3.987 7.143 3.987 7.143s-4.038-2.936-6.338-3.908c-3.217-1.359-5.867 1.556-8.94-.101-4.515-2.435-.113-9.342-4.197-12.445-2.593-1.97-8.001-2.349-8.001-2.349s6.596-1.719 10.049.147c3.73 2.015 2.187 6.863 5.697 9.241 2.61 1.767 5.97-.332 7.743 2.272z" fill="#6CB2C3"/></g><g filter="url(#filter5_d)"><path d="M44.543 339.385c.414 1.59.796 4.752.796 4.752s-1.658-2.429-2.742-3.424c-1.515-1.391-3.563-.3-4.94-1.828-2.021-2.246 1.79-5.205.14-7.736-1.049-1.607-3.974-2.889-3.974-2.889s4 .354 5.546 2.073c1.67 1.858-.147 4.241 1.329 6.256 1.097 1.498 3.377.999 3.845 2.796z" fill="#6CB2C3"/></g><g filter="url(#filter6_d)"><path d="M28.063 260.128c1.098 1.415 2.84 4.418 2.84 4.418s-2.705-1.721-4.218-2.251c-2.115-.742-3.698 1.231-5.734.292-2.99-1.379-.445-5.982-3.187-7.807-1.74-1.159-5.22-1.185-5.22-1.185s4.157-1.366 6.445-.309c2.47 1.143 1.676 4.311 4.02 5.695 1.743 1.028 3.813-.452 5.053 1.147z" fill="#6CB2C3"/></g><path d="M181.535 351.935s22.728 5.906 32.242.538c8.703-4.91 14.256-21.249 14.256-21.249m-184.79-55.141s23.737-9.633 29.32 0c13.717 23.67-46.324 74.816-13.988 103.827 32.62 29.265 109.207-25.823 109.207-25.823m34.428-101.405s-32.769 12.373-42.229 40.616c-9.461 28.243 0 53.796 0 53.796M102.69 151.813s-46.541 20.629-43.844 47.879c1.913 19.324 15.361 15.981 22.864 33.892 4.792 11.439 5.917 31.201 5.917 31.201" stroke="#fff"/><g filter="url(#filter7_d)"><path d="M35.73 217.381c2.477-1.284 7.567-3.107 7.567-3.107s-3.397 3.659-4.635 5.827c-1.733 3.032.845 6.011-1.166 8.865-2.955 4.192-9.29-1.001-12.857 2.683-2.265 2.34-3.285 7.664-3.285 7.664s-.92-6.753 1.343-9.959c2.445-3.464 7.075-1.354 9.854-4.556 2.066-2.38.382-5.966 3.18-7.417z" fill="#6CB2C3"/></g><g filter="url(#filter8_d)"><path d="M267.344 285.11c2.477-1.284 7.567-3.107 7.567-3.107s-3.397 3.659-4.636 5.827c-1.732 3.032.846 6.011-1.166 8.865-2.955 4.192-9.289-1.002-12.856 2.683-2.266 2.339-3.286 7.664-3.286 7.664s-.92-6.754 1.343-9.96c2.445-3.463 7.075-1.354 9.854-4.555 2.066-2.38.382-5.967 3.18-7.417z" fill="#6CB2C3"/></g><g filter="url(#filter9_d)"><path d="M367.073 290.152c1.866-.448 5.567-.824 5.567-.824s-2.874 1.882-4.06 3.125c-1.658 1.738-.429 4.154-2.244 5.727-2.667 2.311-6.038-2.205-9.03-.334-1.899 1.188-3.461 4.575-3.461 4.575s.502-4.663 2.544-6.43c2.205-1.908 4.948.266 7.334-1.412 1.773-1.248 1.241-3.921 3.35-4.427z" fill="#6CB2C3"/></g><path d="M184.452 342.252s5.261-23.852 18.022-31.471c20.378-12.166 49.492 8.608 82.308-7.531 29.095-14.309 16.139-77.467 16.139-77.467" stroke="#fff"/><g filter="url(#filter10_d)"><path d="M297.669 217.596l-3.378-1.712s-.369 4.587 1.022 8.551c1.282 3.654 4.543 4.39 6.412 4.099 2.659-.413 4.623-2.033 4.85-5.444.265-3.982-1.021-8.551-1.021-8.551l-2.88 2.459-2.543-1.812-2.462 2.41z" fill="#FF9090"/></g><g filter="url(#filter11_d)"><path d="M34.642 279.667l-1.785 3.339s4.578.47 8.571-.834c3.682-1.202 4.489-4.446 4.239-6.321-.355-2.667-1.931-4.666-5.337-4.968-3.975-.352-8.571.834-8.571.834l2.395 2.933-1.867 2.503 2.355 2.514z" fill="#FF9090"/></g><g filter="url(#filter12_d)"><path d="M228.67 323.003l-2.223-3.065s-2.423 3.912-2.996 8.073c-.529 3.837 2.036 5.981 3.832 6.576 2.554.846 5.041.303 6.801-2.629 2.054-3.421 2.997-8.073 2.997-8.073l-3.685.873-1.435-2.774-3.291 1.019z" fill="#FF9090"/></g><g filter="url(#filter13_d)"><path d="M312.525 246.974c-2.263 1.634-7.03 4.183-7.03 4.183s2.824-4.118 3.732-6.444c1.269-3.252-1.717-5.822-.146-8.94 2.309-4.58 9.336-.37 12.325-4.537 1.898-2.647 2.127-8.063 2.127-8.063s1.9 6.546.131 10.049c-1.912 3.784-6.801 2.376-9.081 5.95-1.695 2.657.497 5.958-2.058 7.802z" fill="#6CB2C3"/></g><g filter="url(#filter14_d)"><path d="M164.587 312.606c-2.263 1.633-7.03 4.182-7.03 4.182s2.824-4.117 3.732-6.443c1.269-3.253-1.717-5.822-.146-8.94 2.309-4.58 9.336-.37 12.325-4.538 1.898-2.646 2.127-8.062 2.127-8.062s1.9 6.546.131 10.049c-1.912 3.784-6.801 2.376-9.081 5.95-1.695 2.656.497 5.958-2.058 7.802z" fill="#6CB2C3"/></g><g filter="url(#filter15_d)"><path d="M298.581 263.191c.498 2.745.74 8.146.74 8.146s-2.496-4.324-4.202-6.146c-2.387-2.549-5.994-.963-8.128-3.726-3.136-4.059 3.693-8.582 1.223-13.077-1.569-2.853-6.356-5.397-6.356-5.397s6.725 1.11 9.122 4.217c2.589 3.357-.79 7.16 1.45 10.759 1.666 2.676 5.589 2.123 6.151 5.224z" fill="#6CB2C3"/></g><g filter="url(#filter16_d)"><path d="M62.119 155.661c1.521.946 4.197 3.158 4.197 3.158s-3.134-.675-4.737-.648c-2.242.039-3.04 2.439-5.276 2.265-3.283-.256-2.494-5.456-5.698-6.216-2.035-.483-5.308.701-5.308.701s3.425-2.724 5.938-2.526c2.714.213 3.068 3.461 5.747 3.944 1.991.36 3.418-1.746 5.137-.678z" fill="#6CB2C3"/></g><path d="M156.487 348.17s-20.157 13.493-39.272 9.952c-37.39-6.925-26.439-56.44-55.948-80.425-14.656-11.913-31.047-15.008-39.809-31.74-9.366-17.886 7.532-48.147 7.532-48.147" stroke="#fff"/><g filter="url(#filter17_d)"><path d="M30.575 187.629l-2.147-3.119s-2.518 3.852-3.192 7.999c-.621 3.823 1.891 6.028 3.672 6.666 2.533.908 5.032.425 6.863-2.463 2.136-3.37 3.191-7.998 3.191-7.998l-3.705.783-1.367-2.807-3.315.939z" fill="#FF9090"/></g><g filter="url(#filter18_d)"><path d="M129.192 119.839l5.667-21.616 12.172-13.011 3.803 38.896-21.642-4.269z" fill="#2A3068"/></g><g filter="url(#filter19_d)"><path d="M155.281 124.22c-9.711-6.102-19.562 2.714-19.562 2.714l-3.924 22.852 52.353 67.875-39.176 10.051s-24.228 6.619-40.505 12.611c-5.999 2.208-13.301 4.251-16.611 9.72-4.89 8.081-5.283 17.054-2.847 24.767 3.332 10.55 11.12 14.986 19.219 22.524 10.255 9.544 30.111 23.131 43.495 42.642 6.312 9.2 8.291 14.291 14.791 23.359 6.321 8.818 14.045 12.967 18.698 21.866 1.474 2.821-2.316 4.046-1.568 7.139.617 2.549 1.199 3.224 3.523 4.438 2.324 1.215 9.388-3.7 11.835-9.394 1.221-2.841.011-4.91-.888-7.869-2.493-8.204-6.175-11.71-6.676-19.888-.291-4.744.093-7.308 1.094-12.122 1.065-5.119-.088-9.613-4.376-12.602-3.946-2.752-9.073.858-13.467-1.1-7.036-3.137-8.986-7.758-12.99-14.34-5.277-8.672-7.893-24.694-17.196-37.527-2.405-3.318-6.524-8.219-6.524-8.219s44.214.004 71.506-6.119c14.963-3.358 25.811-5.319 35.169-17.467 7.617-9.888 9.107-23.038 6.995-29.668-4.636-14.553-10.189-27.525-27.969-39.961-8.434-5.899-19.55-13.151-33.555-27.757-10.52-10.97-17.975-20.437-30.844-28.525z" fill="#2B3068"/></g><g filter="url(#filter20_d)"><path d="M162.773 81.435l-18.468 3.357 4.617 43.232 19.727-26.023-5.876-20.566z" fill="#373C76"/></g><g filter="url(#filter21_d)"><path d="M99.391 81.854c-2.195-2.346-3.48-4.008-4.826-6.925-1.2-2.6-1.68-4.198-1.68-7.136 0-2.91 1.302-5.175 3.988-6.295 3.387-1.413 5.267-.17 8.728 1.049 3.337 1.174 8.575 3.661 12.122 0 1.448-1.495 2.015-3.237 2.338-5.5.223-1.557.668-3.557 2.002-4.894 2.306-2.309 4.706-1.778 7.968-1.778 12.802 0 19.877-.602 31.899 2.728 12.635 3.5 16.194 4.348 24.648 9.283 7.27 4.246 11.438 6.736 17.535 12.543 3.944 3.757 9.863 9.863 9.863 9.863l-32.948 28.542-33.153 12.926s8.021-11.325 9.019-12.926c2.364-3.796 3.777-5.247 5.456-10.074.876-2.518 1.343-7.242-.42-11.123-1.852-4.08-4.407-6.505-8.394-7.764-1.485-.47-2.975-.193-4.407.42-2.765 1.182-2.938 3.567-3.358 6.925-.496 3.965-.951 8.048-4.827 9.024-2.967.747-4.617-2.561-6.296-2.309-1.204.181-1.782 1.434-2.938 1.05-.936-.312-1.679-1.89-1.679-1.89s-1.351.907-2.308.84c-1.392-.097-1.378-1.956-2.728-2.308-2.692-.701-1.349 3.737-3.988 4.617-2.639.88-8.394-9.444-11.542-13.431-.965-1.223-1.006-.26-2.519-.63-2.988-.731-5.452-2.58-7.555-4.827z" fill="#33386F"/></g><mask id="a" maskUnits="userSpaceOnUse" x="92" y="50" width="122" height="77"><path d="M99.393 81.853c-2.196-2.346-3.48-4.008-4.827-6.925-1.2-2.6-1.678-4.197-1.678-7.135 0-2.91 1.3-5.176 3.987-6.296 3.387-1.413 5.266-.17 8.728 1.049 3.337 1.174 8.574 3.661 12.122 0 1.448-1.495 2.015-3.237 2.338-5.5.222-1.557.667-3.557 2.002-4.894 2.305-2.309 4.705-1.778 7.968-1.778 12.802 0 19.877-.602 31.899 2.728 12.634 3.5 16.194 4.348 24.647 9.284 7.271 4.245 11.439 6.735 17.536 12.542 3.944 3.757 9.863 9.863 9.863 9.863l-32.948 28.542-33.153 12.926s8.021-11.325 9.018-12.926c2.365-3.796 3.778-5.247 5.457-10.074.876-2.518 1.342-7.242-.42-11.123-1.853-4.08-4.407-6.505-8.394-7.764-1.485-.47-2.976-.193-4.407.42-2.765 1.182-2.939 3.567-3.358 6.925-.496 3.966-.951 8.048-4.827 9.024-2.967.747-4.617-2.561-6.296-2.309-1.205.181-1.782 1.434-2.938 1.05-.936-.312-1.679-1.89-1.679-1.89s-1.351.907-2.308.84c-1.393-.097-1.378-1.956-2.729-2.308-2.692-.701-1.348 3.737-3.987 4.617-2.639.88-8.394-9.444-11.542-13.431-.965-1.222-1.006-.26-2.519-.63-2.988-.731-5.453-2.58-7.555-4.827z" fill="#465775"/></mask><g mask="url(#a)"><g filter="url(#filter22_f)"><path d="M273.761 75.884l-13.839 43.582-33.603-23.934-67.406-8.139-12.823-52.048 127.671 40.539z" fill="#000" fill-opacity=".5"/></g><g filter="url(#filter23_f)"><path d="M159.875 147.884l-36.213 27.92-13.967-38.82-50.742-45.11L78.085 41.8l81.79 106.084z" fill="#fff" fill-opacity=".2"/></g></g><g filter="url(#filter24_d)"><path d="M230.85 113.998c-3.812-10.818-11.835-22.49-11.835-22.49L196.56 119.42v79.747l-41.972-18.258s-23.305-8.624-39.874-10.283c-6.361-.637-8.908-2.226-14.9 0-8.855 3.289-14.742 10.073-17.629 17.628-3.95 10.335-.608 18.652 1.05 29.591 2.098 13.851 9.201 36.838 7.554 60.44-.776 11.13-2.39 16.349-2.938 27.492-.531 10.837 2.938 18.888 1.05 28.751-.599 3.126-4.33 1.729-5.667 4.617-1.101 2.38-1.065 3.27 0 5.667 1.066 2.396 9.654 2.938 15.11 0 2.723-1.467 3.062-3.839 4.198-6.716 3.148-7.975 2.443-13.011 7.135-19.727 2.722-3.897 4.617-5.666 8.394-8.814 4.017-3.347 5.908-7.584 4.408-12.592-1.381-4.608-7.64-4.968-9.864-9.234-3.561-6.831-2.215-11.663-1.259-19.307 1.259-10.074 9.171-24.249 9.863-40.084.18-4.094 0-10.493 0-10.493s34.628 27.492 59.811 39.664c13.807 6.673 23.522 11.881 38.405 8.185 12.114-3.009 20.928-12.608 23.924-18.888 5.923-12.416 7.545-26.844 1.351-47.639-2.938-9.863-8.333-23.172-10.222-43.319-1.418-15.133 1.413-27.515-3.638-41.85z" fill="#33386F"/></g><mask id="b" maskUnits="userSpaceOnUse" x="80" y="91" width="169" height="256"><path d="M230.85 113.998c-3.812-10.818-11.835-22.49-11.835-22.49L196.56 119.42v79.747l-41.972-18.258s-23.305-8.624-39.874-10.283c-6.361-.637-8.908-2.226-14.9 0-8.855 3.289-14.742 10.073-17.629 17.628-3.95 10.335-.608 18.652 1.05 29.591 2.098 13.851 9.201 36.838 7.554 60.44-.776 11.13-2.39 16.349-2.938 27.492-.531 10.837 2.938 18.888 1.05 28.751-.599 3.126-4.33 1.729-5.667 4.617-1.101 2.38-1.065 3.27 0 5.667 1.066 2.396 9.654 2.938 15.11 0 2.723-1.467 3.062-3.839 4.198-6.716 3.148-7.975 2.443-13.011 7.135-19.727 2.722-3.897 4.617-5.666 8.394-8.814 4.017-3.347 5.908-7.584 4.408-12.592-1.381-4.608-7.64-4.968-9.864-9.234-3.561-6.831-2.215-11.663-1.259-19.307 1.259-10.074 9.171-24.249 9.863-40.084.18-4.094 0-10.493 0-10.493s34.628 27.492 59.811 39.664c13.807 6.673 23.522 11.881 38.405 8.185 12.114-3.009 20.928-12.608 23.924-18.888 5.923-12.416 7.545-26.844 1.351-47.639-2.938-9.863-8.333-23.172-10.222-43.319-1.418-15.133 1.413-27.515-3.638-41.85z" fill="#465775"/></mask><g mask="url(#b)"><g filter="url(#filter25_f)"><path d="M271.846 259.341l-2.641 45.65-38.475-14.889-67.326 8.769-25.287-47.266 133.729 7.736z" fill="#000" fill-opacity=".5"/></g><g filter="url(#filter26_f)"><path d="M141.125 336.808l-2.641 45.65-38.475-14.889-67.326 8.769-25.287-47.266 133.729 7.736z" fill="#000" fill-opacity=".5"/></g><g filter="url(#filter27_f)"><path d="M161.563 214.69l-2.64 45.651-38.476-14.889-67.326 8.769-25.286-47.266 133.728 7.735z" fill="#fff" fill-opacity=".1"/></g></g><path d="M181.535 352.742s22.043 4.573 28.745-14.794c6.703-19.366-21.885-36.282-13.18-45.995 19.045-21.25 64.256 49.263 125.076 41.154 40.348-5.38 27.974-55.679 27.974-55.679" stroke="#fff"/><g filter="url(#filter28_d)"><path d="M346.693 267.198l-3.378-1.712s-.369 4.587 1.021 8.551c1.283 3.655 4.544 4.39 6.413 4.1 2.659-.414 4.623-2.033 4.85-5.445.265-3.982-1.021-8.551-1.021-8.551l-2.88 2.459-2.543-1.811-2.462 2.409z" fill="#FF9090"/></g><g filter="url(#filter29_i)"><path d="M86.278 180.594c4.162-5.648 11.028-8.876 11.028-8.876l5.111 18.29s-3.497-1.344-6.725 2.421c-2.91 3.396.673 7.627-1.883 11.297-1.753 2.518-5.566 2.755-7.531 5.111-2.9 3.475-2.96 9.952-2.96 9.952s-2.958-12.104-2.689-18.29c.254-5.841 1.883-14.794 5.649-19.905z" fill="#32425D"/></g><g filter="url(#filter30_i)"><path d="M85.208 180.863c3.488-5.028 12.104-9.952 12.104-9.952l3.497 12.373c-2.455.421-5.733.43-7.532 2.152-3.646 3.491-.595 10.025-4.303 13.449-1.658 1.53-3.427 1.19-5.111 2.69-1.459 1.3-2.96 4.035-2.96 4.035s-.834-4.574-.806-7.532c.068-7.012 1.114-11.452 5.11-17.215z" fill="#2B3068"/></g><g filter="url(#filter31_i)"><path d="M93.544 185.167c2.311-1.801 6.455-1.883 6.455-1.883l1.883 6.456s-3.093.248-4.841 1.345c-4.19 2.628-1.076 9.414-2.96 12.373-1.924 3.025-5.379 2.69-7.8 5.11-2.796 2.796-2.958 10.222-2.958 10.222l-2.69-13.987s1.635-2.258 3.228-3.497c2.42-1.883 4.268-1.023 5.917-3.497 2.152-3.228-.037-9.679 3.766-12.642z" fill="#33386F"/></g><g filter="url(#filter32_d)"><path d="M100.862 119.015c14.933-8.603 27.888 3.186 45.121 3.358 17.949.178 26.647-11.979 42.392-3.358 18.319 10.03 9.461 32.22 5.246 52.675-4.183 20.305-10.703 54.774-26.652 54.774-12.172 0-5.706-41.983-20.986-42.182-15.424-.2-9.864 42.182-22.665 42.182-12.802 0-21.461-35.295-26.023-54.774-4.702-20.075-14.299-42.383 3.567-52.675z" fill="#fff"/></g><mask id="c" maskUnits="userSpaceOnUse" x="90" y="116" width="110" height="111"><path d="M100.677 119.178c14.933-8.603 27.888 3.186 45.121 3.358 17.949.179 26.647-11.979 42.392-3.358 18.319 10.03 9.461 32.22 5.246 52.675-4.183 20.305-10.703 54.774-26.652 54.774-12.172 0-5.706-41.983-20.986-42.182-15.424-.2-9.864 42.182-22.666 42.182-12.801 0-21.46-35.295-26.022-54.774-4.702-20.075-14.299-42.383 3.567-52.675z" fill="#fff"/></mask><g filter="url(#filter33_f)" mask="url(#c)"><path d="M132.787 82.581l37.437-26.256 12.199 39.411 48.653 47.356-21.375 49.159-76.914-109.67z" fill="#000" fill-opacity=".5"/></g><g filter="url(#filter34_d)"><path d="M102.32 143.573c-1.707-1.133-3.348-.902-4.598-2.526-3.123-4.056-6.084-7.557-8.044-10.693-1.547-2.475-.16-7.53 3.833-11.195 4.21-3.868 9.683-5.72 12.104-3.868 1.408 1.078 2.643 2.265 4.131 3.868 4.37 4.709 7.234 7.232 10.111 12.977 2.777 5.544 5.082 13.298 4.292 15.288-.624 1.572-2.712-.293-2.712-.293s3.016 4.224 1.29 5.497c-1.122.827-2.628-.374-3.513-1.451-2.87-3.492-6.689-9.181-6.689-9.181s5.155 12.409 2.774 13.256c-2.174.774-3.412-1.634-4.562-3.464-1.512-2.405-3.331-6.14-3.331-6.14s-.525.926-1.075 1.086c-1.425.414-2.349-2.058-4.011-3.161z" fill="#33386F"/></g><g filter="url(#filter35_f)"><path d="M94.886 135.406l1.883 5.918 25.285 6.455-.538-5.379-26.63-6.994z" fill="#354259"/></g><g filter="url(#filter36_i)"><path d="M166.438 344.942c-1.696-4.513 2.42-12.104 2.42-12.104s1.096.762 1.883 1.076c.9.358 2.421.538 2.421.538s-3.675 5.612-2.421 9.145c1.502 4.229 7.118 2.505 9.684 6.187 2.013 2.889.102 6.218 2.689 8.607 1.312 1.212 4.035 2.152 4.035 2.152l1.614 6.724s-5.811-1.851-8.338-4.572c-2.921-3.144-1.501-6.758-4.035-10.222-2.878-3.933-8.238-2.968-9.952-7.531z" fill="#33386F"/></g><g filter="url(#filter37_i)"><path d="M185.263 335.528c-4.842-3.795-12.104-1.076-12.104-1.076s-3.668 5.668-2.421 9.145c1.428 3.987 6.816 2.036 9.414 5.38 2.426 3.123-.04 7.106 2.959 9.683 1.496 1.287 4.573 2.69 4.573 2.69s-.479-2.925-.269-5.648c.537-6.994 4.303-15.113-2.152-20.174z" fill="#2B3068"/></g><g filter="url(#filter38_i)"><path d="M229.921 136.685c2.586-9.038-6.128-44.127-6.128-44.127l7.772 25.267 7.175 16.552s.401 5.302-.446 8.529c-1.62 6.175-7.862 6.943-9.968 12.971-3.108 8.895 5.254 14.608 3.497 23.862-1.773 9.335-9.636 12.923-12.171 21.081-2.026 6.519-.329 11.12 4.088 16.327 5.779 6.813 25.004 9.174 25.004 9.174s0 1.345-.269 4.035c-.206 2.06-1.026 5.111-1.026 5.111s-23.899-3.284-30.94-9.812c-7.147-6.628-10.849-13.252-9.805-22.938 1.15-10.663 12.032-14.658 13.151-25.963.747-7.551-4.042-11.734-2.817-19.222 1.544-9.44 10.252-11.65 12.883-20.847z" fill="#33386F"/></g><g filter="url(#filter39_i)"><path d="M227.809 156.971c1.865-5.806 6.139-9.192 6.139-9.192.538 13.718 4.572 32.009 9.683 48.148 6.254 19.749 5.11 30.395 5.11 30.395s-23.18-.727-29.292-15.722c-6.112-14.994 12.211-18.966 12.457-32.592.151-8.368-6.656-13.069-4.097-21.037z" fill="#2B3068"/></g><g filter="url(#filter40_d)"><path d="M188.796 75.35c6.112-3.057 12.212-2.748 17.419 1.678 8.394 7.135 12.801 14.48 12.801 14.48s-7.256 8.278-10.073 14.061c-2.429 4.987-3.479 8.003-4.617 13.431-1.884 8.984-.927 14.117-1.049 23.295-.262 19.603 2.938 30.011-1.05 50.367-.804 4.105-4.728 6.98-8.814 6.086-6.716-1.469-16.734-5.142-27.072-9.444-14.654-6.097-23.505-12.801-36.097-18.677-5.728-2.674-9.74-1.787-15.739-3.778-6.098-2.023-9.823-2.856-15.11-6.506-5.104-3.522-10.858-9.209-11.123-11.332-.21-1.679 2.518-1.05 2.518-1.05s-4.678-2.25-3.777-4.197c.584-1.264 2.484-.937 3.777-.42 4.198 1.679 10.284 4.827 10.284 4.827s-10.494-8.394-8.815-10.283c1.534-1.725 3.778-.21 5.667.84 2.483 1.379 5.876 3.777 5.876 3.777s.014-1.063.419-1.469c1.05-1.049 3.05.673 5.037.839 2.042.172 3.37-.821 5.247 0 6.715 2.939 12.591 5.037 15.739 7.975 2.386 2.227 3.676 4.725 6.086 6.926 4.827 4.407 10.913 7.345 20.777 11.542 8.981 3.822 24.344 5.666 24.344 5.666s.687-11.288 0-18.467c-.872-9.106-2.214-14.012-6.163-22.263-4.12-8.607-6.111-18.829-5.38-27.685.624-7.55 2.442-12.284 6.506-18.677 3.546-5.58 7.765-9.234 12.382-11.543z" fill="#33386F"/></g><mask id="d" maskUnits="userSpaceOnUse" x="86" y="73" width="134" height="126"><path d="M188.794 75.346c6.113-3.056 12.212-2.747 17.419 1.68 8.394 7.134 12.802 14.48 12.802 14.48s-7.257 8.277-10.074 14.06c-2.429 4.987-3.478 8.003-4.617 13.432-1.884 8.983-.927 14.116-1.049 23.294-.262 19.603 2.938 30.011-1.05 50.367-.804 4.105-4.727 6.98-8.814 6.086-6.715-1.469-16.734-5.142-27.072-9.444-14.654-6.097-23.505-12.801-36.096-18.677-5.729-2.673-9.74-1.787-15.74-3.778-6.098-2.023-9.823-2.856-15.11-6.506-5.104-3.522-10.857-9.208-11.123-11.332-.21-1.679 2.519-1.049 2.519-1.049s-4.678-2.251-3.778-4.198c.585-1.264 2.484-.937 3.778-.419 4.197 1.678 10.283 4.826 10.283 4.826s-10.493-8.394-8.814-10.283c1.533-1.725 3.777-.21 5.666.84 2.484 1.379 5.876 3.777 5.876 3.777s.014-1.063.42-1.469c1.049-1.049 3.049.673 5.036.84 2.042.171 3.37-.822 5.247 0 6.716 2.938 12.592 5.036 15.74 7.974 2.386 2.227 3.675 4.725 6.086 6.926 4.827 4.407 10.913 7.345 20.776 11.542 8.982 3.822 24.344 5.666 24.344 5.666s.688-11.288 0-18.467c-.872-9.106-2.213-14.012-6.163-22.263-4.12-8.607-6.111-18.829-5.379-27.685.623-7.55 2.441-12.283 6.505-18.677 3.547-5.58 7.765-9.234 12.382-11.543z" fill="#465775"/></mask><g mask="url(#d)"><g filter="url(#filter41_f)"><path d="M236.915 190.915l-24.642 38.519-26.268-31.813L123 172.323l1.077-53.594 112.838 72.186z" fill="#000" fill-opacity=".2"/></g><g filter="url(#filter42_f)"><path d="M127.172 141.961L102.53 180.48l-26.268-31.813-63.005-25.299 1.078-53.594 112.837 72.187z" fill="#fff" fill-opacity=".2"/></g></g><ellipse cx="211.894" cy="105.28" rx="12.911" ry="18.829" fill="#33386F"/><g filter="url(#filter43_d)"><path d="M271.468 166.465c-7.065-4.748-10.411-9.059-13.816-16.861-6.256-14.332-34.995-33.778-34.995-33.778l41.231 17.809s3.082 8.179 5.718 13.099c3.124 5.83 4.587 9.546 9.383 14.101 7.544 7.163 24.511 10.432 24.511 10.432s-21.533 2.254-32.032-4.802z" fill="#FF5959"/></g><g filter="url(#filter44_d)"><path d="M222.66 138.364c-7.903-9.19-18.829-43.306-18.829-43.306l19.636 7.8s13.302 29.261 20.173 35.506c6.888 6.259 17.993 9.292 27.167 11.028 9.953 1.883 26.982.92 38.734 15.063 3.707 4.462 8.338 16.407 8.338 16.407s-7.191-9.345-12.104-11.835c-4.949-2.507-8.064-3.242-13.449-4.572-7.501-1.853-12.003-1.224-19.636-2.421-4.743-.744-7.452-.964-12.104-2.152-16.499-4.215-26.823-8.607-37.926-21.518z" fill="#FF7373"/></g><g filter="url(#filter45_d)"><path d="M282.909 76.768c-20.971-13.519-41.424-24.746-41.424-24.746l25.328 37.42 60.386 15.854s14.618-9.255 24.313-13.018c7.443-2.889 13.167-6.163 21.151-6.1 7.668.062 17.314 5.951 17.314 5.951s-3.994-2.793-6.796-4.53c-4.031-2.498-9.478-4.63-16.511-4.871-17.213-.591-35.025 5.337-46.373 5.337-10.49 0-31.118-7.255-37.388-11.297z" fill="#FF5959"/></g><g filter="url(#filter46_d)"><path d="M283.689 77.067C263.021 63.09 242.294 49.33 242.294 49.33l14.169 33.211 62.891 36.216 31.375-14.84s4.71-3.834 8.124-5.64c5.896-3.121 26.538-3.217 26.538-3.217s-18.497-3.672-27.167-1.474c-8.669 2.198-27.314 3.299-40.616 0-14.221-3.527-25.822-11.045-33.919-16.52z" fill="#FF7373"/></g><g filter="url(#filter47_d)"><path d="M171.819 32.117c-16.939-3.328-19.904-6.993-38.464-9.683-18.368-2.662-26.655-1.476-37.12 5.648-7.826 5.329-10.758 14.794-10.758 21.52-.001 18.043 10.759 28.511 10.759 28.511s-6.094-10.515-1.883-15.063c4.95-5.345 13.282 2.958 20.442 1.614 8.183-1.535 18.56-11.028 18.56-11.028s16.308 1.311 27.436 12.41c7.971 7.95 10.309 14.398 18.56 22.057 17.871 16.589 39.91 10.482 59.713 24.709 10.476 7.525 13.424 14.256 20.981 25.321 13.17 19.284 31.923 25.627 55.141 23.133 9.414-1.012 23.133-7.263 23.133-7.263s-14.257 1.539-23.133-.575c-5.73-1.365-12.911-7.225-12.911-7.225s9.683 2.421 16.946 2.421c9.979 0 25.918-3.366 34.698-8.107 13.449-7.263 27.436-23.633 27.436-23.633s-12.543 9.44-22.056 12.335c-11.255 3.426-29.857-2.151-29.857-2.151s15.057-.474 24.477-6.149c10.823-6.521 15.941-19.318 27.974-23.17 7.503-2.402 16.677.306 16.677.306s-7.493-3.338-12.911-4.304c-6.555-1.167-11.297 0-17.484 2.69-17.137 7.451-28.87 11.178-47.34 8.339-18.86-2.899-26.699-13.932-42.23-25.016-13.925-9.937-25.065-23.468-39.541-32.584-11.976-7.541.723-.24-11.566-7.262-17.422-9.955-35.99-3.931-55.679-7.8z" fill="#FF9090"/></g><mask id="e" maskUnits="userSpaceOnUse" x="85" y="21" width="314" height="141"><path d="M171.821 32.115c-16.94-3.33-19.904-6.994-38.464-9.684-18.368-2.662-26.655-1.476-37.12 5.648C88.412 33.408 85.48 42.873 85.48 49.6c-.003 18.041 10.757 28.51 10.757 28.51s-6.094-10.515-1.883-15.063c4.95-5.345 13.282 2.958 20.442 1.614 8.183-1.535 18.56-11.028 18.56-11.028s16.308 1.311 27.436 12.41c7.971 7.95 10.309 14.398 18.56 22.057 17.871 16.589 39.91 10.482 59.713 24.709 10.475 7.525 13.424 14.256 20.981 25.321 13.17 19.284 31.923 25.627 55.141 23.133 9.414-1.012 23.132-7.263 23.132-7.263s-14.256 1.539-23.132-.575c-5.73-1.365-12.911-7.225-12.911-7.225s9.683 2.421 16.946 2.421c9.979 0 25.918-3.366 34.698-8.107 13.449-7.263 27.436-23.633 27.436-23.633s-12.543 9.44-22.056 12.335c-11.256 3.426-29.857-2.151-29.857-2.151s15.057-.474 24.477-6.149c10.823-6.52 15.941-19.318 27.974-23.17 7.503-2.402 16.677.306 16.677.306s-7.493-3.338-12.911-4.303c-6.555-1.168-11.297 0-17.484 2.69-17.137 7.45-28.87 11.177-47.34 8.338-18.86-2.899-26.699-13.932-42.23-25.016-13.925-9.937-25.065-23.468-39.541-32.584-11.976-7.541.723-.24-11.566-7.262-17.422-9.955-35.99-3.931-55.679-7.8z" fill="#DE552E"/></mask><g mask="url(#e)"><g filter="url(#filter48_f)"><path d="M200.071 118.527l-24.642 38.519-26.269-31.812-63.005-25.3 1.078-53.593 112.838 72.186z" fill="#000" fill-opacity=".2"/></g><g filter="url(#filter49_f)"><path d="M349.217 182.283l-38.356-24.895 31.984-26.058 25.713-62.837 53.586 1.43-72.927 112.36z" fill="#000" fill-opacity=".2"/></g><g filter="url(#filter50_f)"><path d="M224.944 160.227l-38.356-24.895 31.985-26.059 25.713-62.837 53.585 1.43-72.927 112.361z" fill="#000" fill-opacity=".2"/></g><g filter="url(#filter51_f)"><path d="M260.453 183.358l-38.356-24.895 31.985-26.058 25.713-62.837 53.586 1.43-72.928 112.36z" fill="#fff" fill-opacity=".2"/></g><g filter="url(#filter52_f)"><path d="M112.353 22.856L122.72-21.68 158.103-.463l67.836 2.811 16.878 50.878-130.464-30.37z" fill="#fff" fill-opacity=".2"/></g></g><g filter="url(#filter53_d)"><path d="M225.886 112.542c-8.339-11.667-25.285-26.629-25.285-26.629s26.243 16.51 38.734 31.471c7.637 9.147 9.154 16.311 16.676 25.553 5.488 6.742 15.332 16.139 15.332 16.139s-9.948-4.345-15.332-8.608c-4.776-3.781-10.759-11.297-10.759-11.297s4.588 8.25 8.07 13.18c4.344 6.153 12.373 14.794 12.373 14.794s-13.603-7.7-20.443-14.794c-12-12.445-9.314-25.744-19.366-39.809z" fill="#FF9090"/></g><g filter="url(#filter54_d)"><path d="M203.828 54.21c-9.439-3.462-23.132-11.297-23.132-11.297s14.418 11.568 24.477 17.753c9.285 5.709 15.108 7.819 24.746 12.91 11.593 6.126 29.588 15.87 29.588 15.87l-15.332-12.641s11.905 7.157 19.905 11.028c9.885 4.783 26.091 10.49 26.091 10.49s-16.23-8.473-26.091-14.794c-12.329-7.902-16.714-16.448-30.126-22.325-11.063-4.848-18.787-2.834-30.126-6.994z" fill="#FF9090"/></g><g filter="url(#filter55_d)"><path d="M216.741 68.198c-9.655-4.99-26.091-9.683-26.091-9.683s14.916 6.252 23.939 11.297c16.907 9.453 39.809 29.588 39.809 29.588s-20.691-22.433-37.657-31.202z" fill="#FF9090"/></g><g filter="url(#filter56_d)"><path d="M120.689 54.837c-.806 2.532 1.335 6.674 1.335 6.674l15.127 8.008s1.455-3.881 1.335-6.451c-.178-3.807-1.393-6.345-4.004-9.121-2.215-2.355-4.335-3.494-7.564-3.337-3.228.157-5.248 1.147-6.229 4.227z" fill="#33386F"/></g><g filter="url(#filter57_d)"><path d="M58.194 137.533c.648 2.714 1.185 8.094 1.185 8.094s-2.728-4.181-4.532-5.907c-2.523-2.414-6.038-.633-8.32-3.275-3.354-3.881 3.218-8.771.505-13.124-1.722-2.764-6.642-5.041-6.642-5.041s6.776.74 9.34 3.712c2.769 3.21-.398 7.192 2.037 10.663 1.81 2.58 5.697 1.813 6.427 4.878z" fill="#6CB2C3"/></g></g><defs><filter id="filter0_f" x="114.02" y="26.26" width="245.727" height="333.952" filterUnits="userSpaceOnUse" color-interpolation-filters="sRGB"><feFlood flood-opacity="0" result="BackgroundImageFix"/><feBlend in="SourceGraphic" in2="BackgroundImageFix" result="shape"/><feGaussianBlur stdDeviation="50" result="effect1_foregroundBlur"/></filter><filter id="filter1_f" x="-1.641" y="115.023" width="284.317" height="336.815" filterUnits="userSpaceOnUse" color-interpolation-filters="sRGB"><feFlood flood-opacity="0" result="BackgroundImageFix"/><feBlend in="SourceGraphic" in2="BackgroundImageFix" result="shape"/><feGaussianBlur stdDeviation="50" result="effect1_foregroundBlur"/></filter><filter id="filter2_f" x="116.252" y="-9.73" width="391.725" height="308.075" filterUnits="userSpaceOnUse" color-interpolation-filters="sRGB"><feFlood flood-opacity="0" result="BackgroundImageFix"/><feBlend in="SourceGraphic" in2="BackgroundImageFix" result="shape"/><feGaussianBlur stdDeviation="50" result="effect1_foregroundBlur"/></filter><filter id="filter3_f" x="-9.818" y="-63.966" width="309.417" height="337.953" filterUnits="userSpaceOnUse" color-interpolation-filters="sRGB"><feFlood flood-opacity="0" result="BackgroundImageFix"/><feBlend in="SourceGraphic" in2="BackgroundImageFix" result="shape"/><feGaussianBlur stdDeviation="50" result="effect1_foregroundBlur"/></filter><filter id="filter4_d" x="10.461" y="339.293" width="42.228" height="30.034" filterUnits="userSpaceOnUse" color-interpolation-filters="sRGB"><feFlood flood-opacity="0" result="BackgroundImageFix"/><feColorMatrix in="SourceAlpha" values="0 0 0 0 0 0 0 0 0 0 0 0 0 0 0 0 0 0 127 0"/><feOffset dy="4"/><feGaussianBlur stdDeviation="2"/><feColorMatrix values="0 0 0 0 0 0 0 0 0 0 0 0 0 0 0 0 0 0 0.25 0"/><feBlend in2="BackgroundImageFix" result="effect1_dropShadow"/><feBlend in="SourceGraphic" in2="effect1_dropShadow" result="shape"/></filter><filter id="filter5_d" x="26.062" y="326.92" width="27.821" height="25.481" filterUnits="userSpaceOnUse" color-interpolation-filters="sRGB"><feFlood flood-opacity="0" result="BackgroundImageFix"/><feColorMatrix in="SourceAlpha" values="0 0 0 0 0 0 0 0 0 0 0 0 0 0 0 0 0 0 127 0"/><feOffset dy="4"/><feGaussianBlur stdDeviation="2"/><feColorMatrix values="0 0 0 0 0 0 0 0 0 0 0 0 0 0 0 0 0 0 0.25 0"/><feBlend in2="BackgroundImageFix" result="effect1_dropShadow"/><feBlend in="SourceGraphic" in2="effect1_dropShadow" result="shape"/></filter><filter id="filter6_d" x="7" y="251.833" width="29.767" height="21.059" filterUnits="userSpaceOnUse" color-interpolation-filters="sRGB"><feFlood flood-opacity="0" result="BackgroundImageFix"/><feColorMatrix in="SourceAlpha" values="0 0 0 0 0 0 0 0 0 0 0 0 0 0 0 0 0 0 127 0"/><feOffset dy="4"/><feGaussianBlur stdDeviation="2"/><feColorMatrix values="0 0 0 0 0 0 0 0 0 0 0 0 0 0 0 0 0 0 0.25 0"/><feBlend in2="BackgroundImageFix" result="effect1_dropShadow"/><feBlend in="SourceGraphic" in2="effect1_dropShadow" result="shape"/></filter><filter id="filter7_d" x="14.768" y="209.106" width="33.038" height="42.484" filterUnits="userSpaceOnUse" color-interpolation-filters="sRGB"><feFlood flood-opacity="0" result="BackgroundImageFix"/><feColorMatrix in="SourceAlpha" values="0 0 0 0 0 0 0 0 0 0 0 0 0 0 0 0 0 0 127 0"/><feOffset dy="4"/><feGaussianBlur stdDeviation="2"/><feColorMatrix values="0 0 0 0 0 0 0 0 0 0 0 0 0 0 0 0 0 0 0.25 0"/><feBlend in2="BackgroundImageFix" result="effect1_dropShadow"/><feBlend in="SourceGraphic" in2="effect1_dropShadow" result="shape"/></filter><filter id="filter8_d" x="246.382" y="276.835" width="33.038" height="42.484" filterUnits="userSpaceOnUse" color-interpolation-filters="sRGB"><feFlood flood-opacity="0" result="BackgroundImageFix"/><feColorMatrix in="SourceAlpha" values="0 0 0 0 0 0 0 0 0 0 0 0 0 0 0 0 0 0 127 0"/><feOffset dy="4"/><feGaussianBlur stdDeviation="2"/><feColorMatrix values="0 0 0 0 0 0 0 0 0 0 0 0 0 0 0 0 0 0 0.25 0"/><feBlend in2="BackgroundImageFix" result="effect1_dropShadow"/><feBlend in="SourceGraphic" in2="effect1_dropShadow" result="shape"/></filter><filter id="filter9_d" x="348.302" y="283.883" width="28.642" height="31.044" filterUnits="userSpaceOnUse" color-interpolation-filters="sRGB"><feFlood flood-opacity="0" result="BackgroundImageFix"/><feColorMatrix in="SourceAlpha" values="0 0 0 0 0 0 0 0 0 0 0 0 0 0 0 0 0 0 127 0"/><feOffset dy="4"/><feGaussianBlur stdDeviation="2"/><feColorMatrix values="0 0 0 0 0 0 0 0 0 0 0 0 0 0 0 0 0 0 0.25 0"/><feBlend in2="BackgroundImageFix" result="effect1_dropShadow"/><feBlend in="SourceGraphic" in2="effect1_dropShadow" result="shape"/></filter><filter id="filter10_d" x="288.889" y="213.5" width="23.583" height="24.782" filterUnits="userSpaceOnUse" color-interpolation-filters="sRGB"><feFlood flood-opacity="0" result="BackgroundImageFix"/><feColorMatrix in="SourceAlpha" values="0 0 0 0 0 0 0 0 0 0 0 0 0 0 0 0 0 0 127 0"/><feOffset dy="4"/><feGaussianBlur stdDeviation="2.5"/><feColorMatrix values="0 0 0 0 0 0 0 0 0 0 0 0 0 0 0 0 0 0 0.3 0"/><feBlend in2="BackgroundImageFix" result="effect1_dropShadow"/><feBlend in="SourceGraphic" in2="effect1_dropShadow" result="shape"/></filter><filter id="filter11_d" x="26.727" y="269.09" width="24.552" height="23.32" filterUnits="userSpaceOnUse" color-interpolation-filters="sRGB"><feFlood flood-opacity="0" result="BackgroundImageFix"/><feColorMatrix in="SourceAlpha" values="0 0 0 0 0 0 0 0 0 0 0 0 0 0 0 0 0 0 127 0"/><feOffset dy="4"/><feGaussianBlur stdDeviation="2.5"/><feColorMatrix values="0 0 0 0 0 0 0 0 0 0 0 0 0 0 0 0 0 0 0.3 0"/><feBlend in2="BackgroundImageFix" result="effect1_dropShadow"/><feBlend in="SourceGraphic" in2="effect1_dropShadow" result="shape"/></filter><filter id="filter12_d" x="216.389" y="318.797" width="25.998" height="26.807" filterUnits="userSpaceOnUse" color-interpolation-filters="sRGB"><feFlood flood-opacity="0" result="BackgroundImageFix"/><feColorMatrix in="SourceAlpha" values="0 0 0 0 0 0 0 0 0 0 0 0 0 0 0 0 0 0 127 0"/><feOffset dy="4"/><feGaussianBlur stdDeviation="2.5"/><feColorMatrix values="0 0 0 0 0 0 0 0 0 0 0 0 0 0 0 0 0 0 0.3 0"/><feBlend in2="BackgroundImageFix" result="effect1_dropShadow"/><feBlend in="SourceGraphic" in2="effect1_dropShadow" result="shape"/></filter><filter id="filter13_d" x="300.959" y="220.403" width="29.294" height="42.099" filterUnits="userSpaceOnUse" color-interpolation-filters="sRGB"><feFlood flood-opacity="0" result="BackgroundImageFix"/><feColorMatrix in="SourceAlpha" values="0 0 0 0 0 0 0 0 0 0 0 0 0 0 0 0 0 0 127 0"/><feOffset dy="4"/><feGaussianBlur stdDeviation="2"/><feColorMatrix values="0 0 0 0 0 0 0 0 0 0 0 0 0 0 0 0 0 0 0.25 0"/><feBlend in2="BackgroundImageFix" result="effect1_dropShadow"/><feBlend in="SourceGraphic" in2="effect1_dropShadow" result="shape"/></filter><filter id="filter14_d" x="153.021" y="286.035" width="29.294" height="42.099" filterUnits="userSpaceOnUse" color-interpolation-filters="sRGB"><feFlood flood-opacity="0" result="BackgroundImageFix"/><feColorMatrix in="SourceAlpha" values="0 0 0 0 0 0 0 0 0 0 0 0 0 0 0 0 0 0 127 0"/><feOffset dy="4"/><feGaussianBlur stdDeviation="2"/><feColorMatrix values="0 0 0 0 0 0 0 0 0 0 0 0 0 0 0 0 0 0 0.25 0"/><feBlend in2="BackgroundImageFix" result="effect1_dropShadow"/><feBlend in="SourceGraphic" in2="effect1_dropShadow" result="shape"/></filter><filter id="filter15_d" x="270.83" y="240.847" width="40.981" height="38.913" filterUnits="userSpaceOnUse" color-interpolation-filters="sRGB"><feFlood flood-opacity="0" result="BackgroundImageFix"/><feColorMatrix in="SourceAlpha" values="0 0 0 0 0 0 0 0 0 0 0 0 0 0 0 0 0 0 127 0"/><feOffset dy="4"/><feGaussianBlur stdDeviation="2"/><feColorMatrix values="0 0 0 0 0 0 0 0 0 0 0 0 0 0 0 0 0 0 0.25 0"/><feBlend in2="BackgroundImageFix" result="effect1_dropShadow"/><feBlend in="SourceGraphic" in2="effect1_dropShadow" result="shape"/></filter><filter id="filter16_d" x="41.06" y="150.469" width="29.303" height="19.363" filterUnits="userSpaceOnUse" color-interpolation-filters="sRGB"><feFlood flood-opacity="0" result="BackgroundImageFix"/><feColorMatrix in="SourceAlpha" values="0 0 0 0 0 0 0 0 0 0 0 0 0 0 0 0 0 0 127 0"/><feOffset dy="4"/><feGaussianBlur stdDeviation="2"/><feColorMatrix values="0 0 0 0 0 0 0 0 0 0 0 0 0 0 0 0 0 0 0.25 0"/><feBlend in2="BackgroundImageFix" result="effect1_dropShadow"/><feBlend in="SourceGraphic" in2="effect1_dropShadow" result="shape"/></filter><filter id="filter17_d" x="18.069" y="183.36" width="26.197" height="26.963" filterUnits="userSpaceOnUse" color-interpolation-filters="sRGB"><feFlood flood-opacity="0" result="BackgroundImageFix"/><feColorMatrix in="SourceAlpha" values="0 0 0 0 0 0 0 0 0 0 0 0 0 0 0 0 0 0 127 0"/><feOffset dy="4"/><feGaussianBlur stdDeviation="2.5"/><feColorMatrix values="0 0 0 0 0 0 0 0 0 0 0 0 0 0 0 0 0 0 0.3 0"/><feBlend in2="BackgroundImageFix" result="effect1_dropShadow"/><feBlend in="SourceGraphic" in2="effect1_dropShadow" result="shape"/></filter><filter id="filter18_d" x="119.192" y="79.212" width="41.642" height="58.896" filterUnits="userSpaceOnUse" color-interpolation-filters="sRGB"><feFlood flood-opacity="0" result="BackgroundImageFix"/><feColorMatrix in="SourceAlpha" values="0 0 0 0 0 0 0 0 0 0 0 0 0 0 0 0 0 0 127 0"/><feOffset dy="4"/><feGaussianBlur stdDeviation="5"/><feColorMatrix values="0 0 0 0 0 0 0 0 0 0 0 0 0 0 0 0 0 0 0.4 0"/><feBlend in2="BackgroundImageFix" result="effect1_dropShadow"/><feBlend in="SourceGraphic" in2="effect1_dropShadow" result="shape"/></filter><filter id="filter19_d" x="21.142" y="98.742" width="303.511" height="315.411" filterUnits="userSpaceOnUse" color-interpolation-filters="sRGB"><feFlood flood-opacity="0" result="BackgroundImageFix"/><feColorMatrix in="SourceAlpha" values="0 0 0 0 0 0 0 0 0 0 0 0 0 0 0 0 0 0 127 0"/><feOffset dy="4"/><feGaussianBlur stdDeviation="5"/><feColorMatrix values="0 0 0 0 0 0 0 0 0 0 0 0 0 0 0 0 0 0 0.4 0"/><feBlend in2="BackgroundImageFix" result="effect1_dropShadow"/><feBlend in="SourceGraphic" in2="effect1_dropShadow" result="shape"/></filter><filter id="filter20_d" x="134.305" y="75.435" width="44.344" height="66.59" filterUnits="userSpaceOnUse" color-interpolation-filters="sRGB"><feFlood flood-opacity="0" result="BackgroundImageFix"/><feColorMatrix in="SourceAlpha" values="0 0 0 0 0 0 0 0 0 0 0 0 0 0 0 0 0 0 127 0"/><feOffset dy="4"/><feGaussianBlur stdDeviation="5"/><feColorMatrix values="0 0 0 0 0 0 0 0 0 0 0 0 0 0 0 0 0 0 0.4 0"/><feBlend in2="BackgroundImageFix" result="effect1_dropShadow"/><feBlend in="SourceGraphic" in2="effect1_dropShadow" result="shape"/></filter><filter id="filter21_d" x="82.886" y="44.322" width="141.091" height="95.938" filterUnits="userSpaceOnUse" color-interpolation-filters="sRGB"><feFlood flood-opacity="0" result="BackgroundImageFix"/><feColorMatrix in="SourceAlpha" values="0 0 0 0 0 0 0 0 0 0 0 0 0 0 0 0 0 0 127 0"/><feOffset dy="4"/><feGaussianBlur stdDeviation="5"/><feColorMatrix values="0 0 0 0 0 0 0 0 0 0 0 0 0 0 0 0 0 0 0.4 0"/><feBlend in2="BackgroundImageFix" result="effect1_dropShadow"/><feBlend in="SourceGraphic" in2="effect1_dropShadow" result="shape"/></filter><filter id="filter22_f" x="32.251" y="-64.655" width="341.509" height="284.121" filterUnits="userSpaceOnUse" color-interpolation-filters="sRGB"><feFlood flood-opacity="0" result="BackgroundImageFix"/><feBlend in="SourceGraphic" in2="BackgroundImageFix" result="shape"/><feGaussianBlur stdDeviation="50" result="effect1_foregroundBlur"/></filter><filter id="filter23_f" x="-58.128" y="-58.199" width="318.003" height="334.004" filterUnits="userSpaceOnUse" color-interpolation-filters="sRGB"><feFlood flood-opacity="0" result="BackgroundImageFix"/><feBlend in="SourceGraphic" in2="BackgroundImageFix" result="shape"/><feGaussianBlur stdDeviation="50" result="effect1_foregroundBlur"/></filter><filter id="filter24_d" x="70.332" y="85.508" width="188.314" height="275.31" filterUnits="userSpaceOnUse" color-interpolation-filters="sRGB"><feFlood flood-opacity="0" result="BackgroundImageFix"/><feColorMatrix in="SourceAlpha" values="0 0 0 0 0 0 0 0 0 0 0 0 0 0 0 0 0 0 127 0"/><feOffset dy="4"/><feGaussianBlur stdDeviation="5"/><feColorMatrix values="0 0 0 0 0 0 0 0 0 0 0 0 0 0 0 0 0 0 0.4 0"/><feBlend in2="BackgroundImageFix" result="effect1_dropShadow"/><feBlend in="SourceGraphic" in2="effect1_dropShadow" result="shape"/></filter><filter id="filter25_f" x="35.476" y="151.605" width="336.37" height="253.386" filterUnits="userSpaceOnUse" color-interpolation-filters="sRGB"><feFlood flood-opacity="0" result="BackgroundImageFix"/><feBlend in="SourceGraphic" in2="BackgroundImageFix" result="shape"/><feGaussianBlur stdDeviation="50" result="effect1_foregroundBlur"/></filter><filter id="filter26_f" x="-95.245" y="229.072" width="336.37" height="253.386" filterUnits="userSpaceOnUse" color-interpolation-filters="sRGB"><feFlood flood-opacity="0" result="BackgroundImageFix"/><feBlend in="SourceGraphic" in2="BackgroundImageFix" result="shape"/><feGaussianBlur stdDeviation="50" result="effect1_foregroundBlur"/></filter><filter id="filter27_f" x="-74.806" y="106.955" width="336.37" height="253.386" filterUnits="userSpaceOnUse" color-interpolation-filters="sRGB"><feFlood flood-opacity="0" result="BackgroundImageFix"/><feBlend in="SourceGraphic" in2="BackgroundImageFix" result="shape"/><feGaussianBlur stdDeviation="50" result="effect1_foregroundBlur"/></filter><filter id="filter28_d" x="337.913" y="263.103" width="23.583" height="24.782" filterUnits="userSpaceOnUse" color-interpolation-filters="sRGB"><feFlood flood-opacity="0" result="BackgroundImageFix"/><feColorMatrix in="SourceAlpha" values="0 0 0 0 0 0 0 0 0 0 0 0 0 0 0 0 0 0 127 0"/><feOffset dy="4"/><feGaussianBlur stdDeviation="2.5"/><feColorMatrix values="0 0 0 0 0 0 0 0 0 0 0 0 0 0 0 0 0 0 0.3 0"/><feBlend in2="BackgroundImageFix" result="effect1_dropShadow"/><feBlend in="SourceGraphic" in2="effect1_dropShadow" result="shape"/></filter><filter id="filter29_i" x="77.612" y="171.718" width="24.805" height="47.072" filterUnits="userSpaceOnUse" color-interpolation-filters="sRGB"><feFlood flood-opacity="0" result="BackgroundImageFix"/><feBlend in="SourceGraphic" in2="BackgroundImageFix" result="shape"/><feColorMatrix in="SourceAlpha" values="0 0 0 0 0 0 0 0 0 0 0 0 0 0 0 0 0 0 127 0" result="hardAlpha"/><feOffset dx="-3"/><feGaussianBlur stdDeviation="3"/><feComposite in2="hardAlpha" operator="arithmetic" k2="-1" k3="1"/><feColorMatrix values="0 0 0 0 0 0 0 0 0 0 0 0 0 0 0 0 0 0 0.3 0"/><feBlend in2="shape" result="effect1_innerShadow"/></filter><filter id="filter30_i" x="77.096" y="170.911" width="23.712" height="34.699" filterUnits="userSpaceOnUse" color-interpolation-filters="sRGB"><feFlood flood-opacity="0" result="BackgroundImageFix"/><feBlend in="SourceGraphic" in2="BackgroundImageFix" result="shape"/><feColorMatrix in="SourceAlpha" values="0 0 0 0 0 0 0 0 0 0 0 0 0 0 0 0 0 0 127 0" result="hardAlpha"/><feOffset dx="-3"/><feGaussianBlur stdDeviation="3"/><feComposite in2="hardAlpha" operator="arithmetic" k2="-1" k3="1"/><feColorMatrix values="0 0 0 0 0 0 0 0 0 0 0 0 0 0 0 0 0 0 0.3 0"/><feBlend in2="shape" result="effect1_innerShadow"/></filter><filter id="filter31_i" x="80.633" y="179.284" width="21.25" height="39.505" filterUnits="userSpaceOnUse" color-interpolation-filters="sRGB"><feFlood flood-opacity="0" result="BackgroundImageFix"/><feBlend in="SourceGraphic" in2="BackgroundImageFix" result="shape"/><feColorMatrix in="SourceAlpha" values="0 0 0 0 0 0 0 0 0 0 0 0 0 0 0 0 0 0 127 0" result="hardAlpha"/><feOffset dy="-4"/><feGaussianBlur stdDeviation="2"/><feComposite in2="hardAlpha" operator="arithmetic" k2="-1" k3="1"/><feColorMatrix values="0 0 0 0 0 0 0 0 0 0 0 0 0 0 0 0 0 0 0.4 0"/><feBlend in2="shape" result="effect1_innerShadow"/></filter><filter id="filter32_d" x="80.473" y="109.876" width="129.027" height="130.588" filterUnits="userSpaceOnUse" color-interpolation-filters="sRGB"><feFlood flood-opacity="0" result="BackgroundImageFix"/><feColorMatrix in="SourceAlpha" values="0 0 0 0 0 0 0 0 0 0 0 0 0 0 0 0 0 0 127 0"/><feOffset dy="4"/><feGaussianBlur stdDeviation="5"/><feColorMatrix values="0 0 0 0 0 0 0 0 0 0 0 0 0 0 0 0 0 0 0.4 0"/><feBlend in2="BackgroundImageFix" result="effect1_dropShadow"/><feBlend in="SourceGraphic" in2="effect1_dropShadow" result="shape"/></filter><filter id="filter33_f" x="32.787" y="-43.675" width="314.352" height="335.926" filterUnits="userSpaceOnUse" color-interpolation-filters="sRGB"><feFlood flood-opacity="0" result="BackgroundImageFix"/><feBlend in="SourceGraphic" in2="BackgroundImageFix" result="shape"/><feGaussianBlur stdDeviation="50" result="effect1_foregroundBlur"/></filter><filter id="filter34_d" x="72.243" y="104.66" width="72.39" height="67.86" filterUnits="userSpaceOnUse" color-interpolation-filters="sRGB"><feFlood flood-opacity="0" result="BackgroundImageFix"/><feColorMatrix in="SourceAlpha" values="0 0 0 0 0 0 0 0 0 0 0 0 0 0 0 0 0 0 127 0"/><feOffset dy="4"/><feGaussianBlur stdDeviation="5"/><feColorMatrix values="0 0 0 0 0 0 0 0 0 0 0 0 0 0 0 0 0 0 0.4 0"/><feBlend in2="BackgroundImageFix" result="effect1_dropShadow"/><feBlend in="SourceGraphic" in2="effect1_dropShadow" result="shape"/></filter><filter id="filter35_f" x="74.886" y="115.406" width="67.167" height="52.373" filterUnits="userSpaceOnUse" color-interpolation-filters="sRGB"><feFlood flood-opacity="0" result="BackgroundImageFix"/><feBlend in="SourceGraphic" in2="BackgroundImageFix" result="shape"/><feGaussianBlur stdDeviation="10" result="effect1_foregroundBlur"/></filter><filter id="filter36_i" x="166.028" y="328.838" width="22.735" height="38.429" filterUnits="userSpaceOnUse" color-interpolation-filters="sRGB"><feFlood flood-opacity="0" result="BackgroundImageFix"/><feBlend in="SourceGraphic" in2="BackgroundImageFix" result="shape"/><feColorMatrix in="SourceAlpha" values="0 0 0 0 0 0 0 0 0 0 0 0 0 0 0 0 0 0 127 0" result="hardAlpha"/><feOffset dy="-4"/><feGaussianBlur stdDeviation="2"/><feComposite in2="hardAlpha" operator="arithmetic" k2="-1" k3="1"/><feColorMatrix values="0 0 0 0 0 0 0 0 0 0 0 0 0 0 0 0 0 0 0.25 0"/><feBlend in2="shape" result="effect1_innerShadow"/></filter><filter id="filter37_i" x="170.479" y="329.509" width="18.515" height="31.841" filterUnits="userSpaceOnUse" color-interpolation-filters="sRGB"><feFlood flood-opacity="0" result="BackgroundImageFix"/><feBlend in="SourceGraphic" in2="BackgroundImageFix" result="shape"/><feColorMatrix in="SourceAlpha" values="0 0 0 0 0 0 0 0 0 0 0 0 0 0 0 0 0 0 127 0" result="hardAlpha"/><feOffset dy="-4"/><feGaussianBlur stdDeviation="2"/><feComposite in2="hardAlpha" operator="arithmetic" k2="-1" k3="1"/><feColorMatrix values="0 0 0 0 0 0 0 0 0 0 0 0 0 0 0 0 0 0 0.25 0"/><feBlend in2="shape" result="effect1_innerShadow"/></filter><filter id="filter38_i" x="190.375" y="91.293" width="67.052" height="153.461" filterUnits="userSpaceOnUse" color-interpolation-filters="sRGB"><feFlood flood-opacity="0" result="BackgroundImageFix"/><feBlend in="SourceGraphic" in2="BackgroundImageFix" result="shape"/><feColorMatrix in="SourceAlpha" values="0 0 0 0 0 0 0 0 0 0 0 0 0 0 0 0 0 0 127 0" result="hardAlpha"/><feOffset dx="4" dy="4"/><feGaussianBlur stdDeviation="2"/><feComposite in2="hardAlpha" operator="arithmetic" k2="-1" k3="1"/><feColorMatrix values="0 0 0 0 0 0 0 0 0 0 0 0 0 0 0 0 0 0 0.25 0"/><feBlend in2="shape" result="effect1_innerShadow"/></filter><filter id="filter39_i" x="210.219" y="147.16" width="43.529" height="87.11" filterUnits="userSpaceOnUse" color-interpolation-filters="sRGB"><feFlood flood-opacity="0" result="BackgroundImageFix"/><feBlend in="SourceGraphic" in2="BackgroundImageFix" result="shape"/><feColorMatrix in="SourceAlpha" values="0 0 0 0 0 0 0 0 0 0 0 0 0 0 0 0 0 0 127 0" result="hardAlpha"/><feOffset dx="5" dy="4"/><feGaussianBlur stdDeviation="2"/><feComposite in2="hardAlpha" operator="arithmetic" k2="-1" k3="1"/><feColorMatrix values="0 0 0 0 0 0 0 0 0 0 0 0 0 0 0 0 0 0 0.25 0"/><feBlend in2="shape" result="effect1_innerShadow"/></filter><filter id="filter40_d" x="76.898" y="67.333" width="152.119" height="145.579" filterUnits="userSpaceOnUse" color-interpolation-filters="sRGB"><feFlood flood-opacity="0" result="BackgroundImageFix"/><feColorMatrix in="SourceAlpha" values="0 0 0 0 0 0 0 0 0 0 0 0 0 0 0 0 0 0 127 0"/><feOffset dy="4"/><feGaussianBlur stdDeviation="5"/><feColorMatrix values="0 0 0 0 0 0 0 0 0 0 0 0 0 0 0 0 0 0 0.4 0"/><feBlend in2="BackgroundImageFix" result="effect1_dropShadow"/><feBlend in="SourceGraphic" in2="effect1_dropShadow" result="shape"/></filter><filter id="filter41_f" x="-.565" y="18.729" width="337.48" height="310.705" filterUnits="userSpaceOnUse" color-interpolation-filters="sRGB"><feFlood flood-opacity="0" result="BackgroundImageFix"/><feBlend in="SourceGraphic" in2="BackgroundImageFix" result="shape"/><feGaussianBlur stdDeviation="50" result="effect1_foregroundBlur"/></filter><filter id="filter42_f" x="-110.307" y="-30.226" width="337.48" height="310.705" filterUnits="userSpaceOnUse" color-interpolation-filters="sRGB"><feFlood flood-opacity="0" result="BackgroundImageFix"/><feBlend in="SourceGraphic" in2="BackgroundImageFix" result="shape"/><feGaussianBlur stdDeviation="50" result="effect1_foregroundBlur"/></filter><filter id="filter43_d" x="212.657" y="89.059" width="100.843" height="116.976" filterUnits="userSpaceOnUse" color-interpolation-filters="sRGB"><feFlood flood-opacity="0" result="BackgroundImageFix"/><feColorMatrix in="SourceAlpha" values="0 0 0 0 0 0 0 0 0 0 0 0 0 0 0 0 0 0 127 0"/><feOffset dy="4"/><feGaussianBlur stdDeviation="5"/><feColorMatrix values="0 0 0 0 0 0 0 0 0 0 0 0 0 0 0 0 0 0 0.4 0"/><feBlend in2="BackgroundImageFix" result="effect1_dropShadow"/><feBlend in="SourceGraphic" in2="effect1_dropShadow" result="shape"/></filter><filter id="filter44_d" x="193.831" y="89.058" width="134.048" height="105.805" filterUnits="userSpaceOnUse" color-interpolation-filters="sRGB"><feFlood flood-opacity="0" result="BackgroundImageFix"/><feColorMatrix in="SourceAlpha" values="0 0 0 0 0 0 0 0 0 0 0 0 0 0 0 0 0 0 127 0"/><feOffset dy="4"/><feGaussianBlur stdDeviation="5"/><feColorMatrix values="0 0 0 0 0 0 0 0 0 0 0 0 0 0 0 0 0 0 0.4 0"/><feBlend in2="BackgroundImageFix" result="effect1_dropShadow"/><feBlend in="SourceGraphic" in2="effect1_dropShadow" result="shape"/></filter><filter id="filter45_d" x="223.357" y="39.199" width="177.628" height="97.888" filterUnits="userSpaceOnUse" color-interpolation-filters="sRGB"><feFlood flood-opacity="0" result="BackgroundImageFix"/><feColorMatrix in="SourceAlpha" values="0 0 0 0 0 0 0 0 0 0 0 0 0 0 0 0 0 0 127 0"/><feOffset dy="4"/><feGaussianBlur stdDeviation="5"/><feColorMatrix values="0 0 0 0 0 0 0 0 0 0 0 0 0 0 0 0 0 0 0.4 0"/><feBlend in2="BackgroundImageFix" result="effect1_dropShadow"/><feBlend in="SourceGraphic" in2="effect1_dropShadow" result="shape"/></filter><filter id="filter46_d" x="222.594" y="43.331" width="176.278" height="100.216" filterUnits="userSpaceOnUse" color-interpolation-filters="sRGB"><feFlood flood-opacity="0" result="BackgroundImageFix"/><feColorMatrix in="SourceAlpha" values="0 0 0 0 0 0 0 0 0 0 0 0 0 0 0 0 0 0 127 0"/><feOffset dy="4"/><feGaussianBlur stdDeviation="5"/><feColorMatrix values="0 0 0 0 0 0 0 0 0 0 0 0 0 0 0 0 0 0 0.4 0"/><feBlend in2="BackgroundImageFix" result="effect1_dropShadow"/><feBlend in="SourceGraphic" in2="effect1_dropShadow" result="shape"/></filter><filter id="filter47_d" x="75.477" y="15.129" width="333.094" height="160.654" filterUnits="userSpaceOnUse" color-interpolation-filters="sRGB"><feFlood flood-opacity="0" result="BackgroundImageFix"/><feColorMatrix in="SourceAlpha" values="0 0 0 0 0 0 0 0 0 0 0 0 0 0 0 0 0 0 127 0"/><feOffset dy="4"/><feGaussianBlur stdDeviation="5"/><feColorMatrix values="0 0 0 0 0 0 0 0 0 0 0 0 0 0 0 0 0 0 0.4 0"/><feBlend in2="BackgroundImageFix" result="effect1_dropShadow"/><feBlend in="SourceGraphic" in2="effect1_dropShadow" result="shape"/></filter><filter id="filter48_f" x="-37.409" y="-53.659" width="337.48" height="310.705" filterUnits="userSpaceOnUse" color-interpolation-filters="sRGB"><feFlood flood-opacity="0" result="BackgroundImageFix"/><feBlend in="SourceGraphic" in2="BackgroundImageFix" result="shape"/><feGaussianBlur stdDeviation="50" result="effect1_foregroundBlur"/></filter><filter id="filter49_f" x="210.861" y="-54.972" width="311.283" height="337.255" filterUnits="userSpaceOnUse" color-interpolation-filters="sRGB"><feFlood flood-opacity="0" result="BackgroundImageFix"/><feBlend in="SourceGraphic" in2="BackgroundImageFix" result="shape"/><feGaussianBlur stdDeviation="50" result="effect1_foregroundBlur"/></filter><filter id="filter50_f" x="86.588" y="-77.028" width="311.283" height="337.255" filterUnits="userSpaceOnUse" color-interpolation-filters="sRGB"><feFlood flood-opacity="0" result="BackgroundImageFix"/><feBlend in="SourceGraphic" in2="BackgroundImageFix" result="shape"/><feGaussianBlur stdDeviation="50" result="effect1_foregroundBlur"/></filter><filter id="filter51_f" x="122.097" y="-53.897" width="311.283" height="337.255" filterUnits="userSpaceOnUse" color-interpolation-filters="sRGB"><feFlood flood-opacity="0" result="BackgroundImageFix"/><feBlend in="SourceGraphic" in2="BackgroundImageFix" result="shape"/><feGaussianBlur stdDeviation="50" result="effect1_foregroundBlur"/></filter><filter id="filter52_f" x="12.353" y="-121.68" width="340.831" height="274.906" filterUnits="userSpaceOnUse" color-interpolation-filters="sRGB"><feFlood flood-opacity="0" result="BackgroundImageFix"/><feBlend in="SourceGraphic" in2="BackgroundImageFix" result="shape"/><feGaussianBlur stdDeviation="50" result="effect1_foregroundBlur"/></filter><filter id="filter53_d" x="190.601" y="79.913" width="90.742" height="101.232" filterUnits="userSpaceOnUse" color-interpolation-filters="sRGB"><feFlood flood-opacity="0" result="BackgroundImageFix"/><feColorMatrix in="SourceAlpha" values="0 0 0 0 0 0 0 0 0 0 0 0 0 0 0 0 0 0 127 0"/><feOffset dy="4"/><feGaussianBlur stdDeviation="5"/><feColorMatrix values="0 0 0 0 0 0 0 0 0 0 0 0 0 0 0 0 0 0 0.4 0"/><feBlend in2="BackgroundImageFix" result="effect1_dropShadow"/><feBlend in="SourceGraphic" in2="effect1_dropShadow" result="shape"/></filter><filter id="filter54_d" x="170.696" y="36.913" width="129.475" height="75.41" filterUnits="userSpaceOnUse" color-interpolation-filters="sRGB"><feFlood flood-opacity="0" result="BackgroundImageFix"/><feColorMatrix in="SourceAlpha" values="0 0 0 0 0 0 0 0 0 0 0 0 0 0 0 0 0 0 127 0"/><feOffset dy="4"/><feGaussianBlur stdDeviation="5"/><feColorMatrix values="0 0 0 0 0 0 0 0 0 0 0 0 0 0 0 0 0 0 0.4 0"/><feBlend in2="BackgroundImageFix" result="effect1_dropShadow"/><feBlend in="SourceGraphic" in2="effect1_dropShadow" result="shape"/></filter><filter id="filter55_d" x="180.65" y="52.515" width="83.749" height="60.885" filterUnits="userSpaceOnUse" color-interpolation-filters="sRGB"><feFlood flood-opacity="0" result="BackgroundImageFix"/><feColorMatrix in="SourceAlpha" values="0 0 0 0 0 0 0 0 0 0 0 0 0 0 0 0 0 0 127 0"/><feOffset dy="4"/><feGaussianBlur stdDeviation="5"/><feColorMatrix values="0 0 0 0 0 0 0 0 0 0 0 0 0 0 0 0 0 0 0.4 0"/><feBlend in2="BackgroundImageFix" result="effect1_dropShadow"/><feBlend in="SourceGraphic" in2="effect1_dropShadow" result="shape"/></filter><filter id="filter56_d" x="117.508" y="44.596" width="23.986" height="24.924" filterUnits="userSpaceOnUse" color-interpolation-filters="sRGB"><feFlood flood-opacity="0" result="BackgroundImageFix"/><feColorMatrix in="SourceAlpha" values="0 0 0 0 0 0 0 0 0 0 0 0 0 0 0 0 0 0 127 0"/><feOffset dy="-3"/><feGaussianBlur stdDeviation="1.5"/><feColorMatrix values="0 0 0 0 0 0 0 0 0 0 0 0 0 0 0 0 0 0 0.4 0"/><feBlend in2="BackgroundImageFix" result="effect1_dropShadow"/><feBlend in="SourceGraphic" in2="effect1_dropShadow" result="shape"/></filter><filter id="filter57_d" x="29.826" y="116.039" width="41.483" height="38.029" filterUnits="userSpaceOnUse" color-interpolation-filters="sRGB"><feFlood flood-opacity="0" result="BackgroundImageFix"/><feColorMatrix in="SourceAlpha" values="0 0 0 0 0 0 0 0 0 0 0 0 0 0 0 0 0 0 127 0"/><feOffset dy="4"/><feGaussianBlur stdDeviation="2"/><feColorMatrix values="0 0 0 0 0 0 0 0 0 0 0 0 0 0 0 0 0 0 0.25 0"/><feBlend in2="BackgroundImageFix" result="effect1_dropShadow"/><feBlend in="SourceGraphic" in2="effect1_dropShadow" result="shape"/></filter><clipPath id="clip0"><path fill="#fff" d="M0 0h422v418H0z"/></clipPath></defs></svg>