<svg width="422" height="418" viewBox="0 0 422 418" fill="none" xmlns="http://www.w3.org/2000/svg">
<g clip-path="url(#clip0)">
<g filter="url(#filter0_f)">
<path d="M214.02 126.26H259.747L247.104 165.531L259.747 232.238L214.02 260.212V126.26Z" fill="black" fill-opacity="0.5"/>
</g>
<g filter="url(#filter1_f)">
<path d="M98.3589 228.584L130.222 215.024L136.791 254.908L171.722 312.539L150.813 351.839L98.3589 228.584Z" fill="black" fill-opacity="0.5"/>
</g>
<g filter="url(#filter2_f)">
<path d="M222.893 160.959L237.687 126.805L263.778 110.626L342.423 110.626L396.924 99.0929L322.685 183.822L222.893 160.959Z" fill="black" fill-opacity="0.5"/>
</g>
<g filter="url(#filter3_f)">
<path d="M90.1824 60.1162L129.054 36.0345L138.989 76.0762L184.867 126.125L160.728 173.987L90.1824 60.1162Z" fill="black" fill-opacity="0.5"/>
</g>
<g filter="url(#filter4_d)">
<path d="M41.008 353.652C42.5782 355.959 44.9947 360.795 44.9947 360.795C44.9947 360.795 40.957 357.859 38.657 356.887C35.4403 355.528 32.7897 358.443 29.7162 356.786C25.2018 354.351 29.6035 347.444 25.5198 344.341C22.9271 342.371 17.5189 341.992 17.5189 341.992C17.5189 341.992 24.1147 340.273 27.5678 342.139C31.298 344.154 29.7553 349.002 33.2652 351.38C35.8741 353.147 39.2345 351.048 41.008 353.652Z" fill="#6CB2C3"/>
</g>
<g filter="url(#filter5_d)">
<path d="M44.5427 339.385C44.9567 340.975 45.3386 344.137 45.3386 344.137C45.3386 344.137 43.6808 341.708 42.5973 340.713C41.0822 339.322 39.0341 340.413 37.6575 338.885C35.6356 336.639 39.4466 333.68 37.7963 331.149C36.7484 329.542 33.8233 328.26 33.8233 328.26C33.8233 328.26 37.823 328.614 39.3689 330.333C41.0389 332.191 39.222 334.574 40.6978 336.589C41.7948 338.087 44.0752 337.588 44.5427 339.385Z" fill="#6CB2C3"/>
</g>
<g filter="url(#filter6_d)">
<path d="M28.0625 260.128C29.161 261.543 30.9031 264.546 30.9031 264.546C30.9031 264.546 28.1981 262.825 26.6852 262.295C24.5695 261.553 22.9873 263.526 20.9514 262.587C17.9609 261.208 20.5056 256.605 17.7644 254.78C16.024 253.621 12.5431 253.595 12.5431 253.595C12.5431 253.595 16.7012 252.229 18.9888 253.286C21.4599 254.429 20.6651 257.597 23.0096 258.981C24.7523 260.009 26.8218 258.529 28.0625 260.128Z" fill="#6CB2C3"/>
</g>
<path d="M181.535 351.935C181.535 351.935 204.263 357.841 213.777 352.473C222.48 347.563 228.033 331.224 228.033 331.224" stroke="white"/>
<path d="M43.2434 276.083C43.2434 276.083 66.9796 266.45 72.5623 276.083C86.2803 299.753 26.2389 350.899 58.5753 379.91C91.1955 409.175 167.782 354.087 167.782 354.087" stroke="white"/>
<path d="M202.21 252.682C202.21 252.682 169.441 265.055 159.981 293.298C150.52 321.541 159.981 347.094 159.981 347.094" stroke="white"/>
<path d="M102.69 151.813C102.69 151.813 56.1487 172.442 58.8463 199.692C60.7592 219.016 74.207 215.673 81.7097 233.584C86.5016 245.023 87.6273 264.785 87.6273 264.785" stroke="white"/>
<g filter="url(#filter7_d)">
<path d="M35.7304 217.381C38.2074 216.097 43.2972 214.274 43.2972 214.274C43.2972 214.274 39.9004 217.933 38.6617 220.101C36.9293 223.133 39.5072 226.112 37.4955 228.966C34.5407 233.158 28.2069 227.965 24.6393 231.649C22.3742 233.989 21.3541 239.313 21.3541 239.313C21.3541 239.313 20.4333 232.56 22.6969 229.354C25.1421 225.89 29.7718 228 32.5512 224.798C34.617 222.418 32.9327 218.832 35.7304 217.381Z" fill="#6CB2C3"/>
</g>
<g filter="url(#filter8_d)">
<path d="M267.344 285.11C269.821 283.826 274.911 282.003 274.911 282.003C274.911 282.003 271.514 285.662 270.275 287.83C268.543 290.862 271.121 293.841 269.109 296.695C266.154 300.887 259.82 295.693 256.253 299.378C253.987 301.717 252.967 307.042 252.967 307.042C252.967 307.042 252.047 300.288 254.31 297.082C256.755 293.619 261.385 295.728 264.164 292.527C266.23 290.147 264.546 286.56 267.344 285.11Z" fill="#6CB2C3"/>
</g>
<g filter="url(#filter9_d)">
<path d="M367.073 290.152C368.939 289.704 372.64 289.328 372.64 289.328C372.64 289.328 369.766 291.21 368.58 292.453C366.922 294.191 368.151 296.607 366.336 298.18C363.669 300.491 360.298 295.975 357.306 297.846C355.407 299.034 353.845 302.421 353.845 302.421C353.845 302.421 354.347 297.758 356.389 295.991C358.594 294.083 361.337 296.257 363.723 294.579C365.496 293.331 364.964 290.658 367.073 290.152Z" fill="#6CB2C3"/>
</g>
<path d="M184.452 342.252C184.452 342.252 189.713 318.4 202.474 310.781C222.852 298.615 251.966 319.389 284.782 303.25C313.877 288.941 300.921 225.783 300.921 225.783" stroke="white"/>
<g filter="url(#filter10_d)">
<path d="M297.669 217.596L294.291 215.884C294.291 215.884 293.922 220.471 295.313 224.435C296.595 228.089 299.856 228.825 301.725 228.534C304.384 228.121 306.348 226.501 306.575 223.09C306.84 219.108 305.554 214.539 305.554 214.539L302.674 216.998L300.131 215.186L297.669 217.596Z" fill="#FF9090"/>
</g>
<g filter="url(#filter11_d)">
<path d="M34.6425 279.667L32.857 283.006C32.857 283.006 37.4349 283.476 41.4283 282.172C45.1099 280.97 45.9168 277.726 45.667 275.851C45.3117 273.184 43.7358 271.185 40.3299 270.883C36.3546 270.531 31.7586 271.717 31.7586 271.717L34.1543 274.65L32.2875 277.153L34.6425 279.667Z" fill="#FF9090"/>
</g>
<g filter="url(#filter12_d)">
<path d="M228.67 323.003L226.447 319.938C226.447 319.938 224.024 323.85 223.451 328.011C222.922 331.848 225.487 333.992 227.283 334.587C229.837 335.433 232.324 334.89 234.084 331.958C236.138 328.537 237.081 323.885 237.081 323.885L233.396 324.758L231.961 321.984L228.67 323.003Z" fill="#FF9090"/>
</g>
<g filter="url(#filter13_d)">
<path d="M312.525 246.974C310.262 248.608 305.495 251.157 305.495 251.157C305.495 251.157 308.319 247.039 309.227 244.713C310.496 241.461 307.51 238.891 309.081 235.773C311.39 231.193 318.417 235.403 321.406 231.236C323.304 228.589 323.533 223.173 323.533 223.173C323.533 223.173 325.433 229.719 323.664 233.222C321.752 237.006 316.863 235.598 314.583 239.172C312.888 241.829 315.08 245.13 312.525 246.974Z" fill="#6CB2C3"/>
</g>
<g filter="url(#filter14_d)">
<path d="M164.587 312.606C162.324 314.239 157.557 316.788 157.557 316.788C157.557 316.788 160.381 312.671 161.289 310.345C162.558 307.092 159.572 304.523 161.143 301.405C163.452 296.825 170.479 301.035 173.468 296.867C175.366 294.221 175.595 288.805 175.595 288.805C175.595 288.805 177.495 295.351 175.726 298.854C173.814 302.638 168.925 301.23 166.645 304.804C164.95 307.46 167.142 310.762 164.587 312.606Z" fill="#6CB2C3"/>
</g>
<g filter="url(#filter15_d)">
<path d="M298.581 263.191C299.079 265.936 299.321 271.337 299.321 271.337C299.321 271.337 296.825 267.013 295.119 265.191C292.732 262.642 289.125 264.228 286.991 261.465C283.855 257.406 290.684 252.883 288.214 248.388C286.645 245.535 281.858 242.991 281.858 242.991C281.858 242.991 288.583 244.101 290.98 247.208C293.569 250.565 290.19 254.368 292.43 257.967C294.096 260.643 298.019 260.09 298.581 263.191Z" fill="#6CB2C3"/>
</g>
<g filter="url(#filter16_d)">
<path d="M62.1187 155.661C63.6401 156.607 66.3161 158.819 66.3161 158.819C66.3161 158.819 63.1821 158.144 61.5791 158.171C59.3373 158.21 58.5386 160.61 56.3033 160.436C53.02 160.18 53.8089 154.98 50.6046 154.22C48.5702 153.737 45.2965 154.921 45.2965 154.921C45.2965 154.921 48.7223 152.197 51.2346 152.395C53.9485 152.608 54.3029 155.856 56.9819 156.339C58.9731 156.699 60.4003 154.593 62.1187 155.661Z" fill="#6CB2C3"/>
</g>
<path d="M156.487 348.17C156.487 348.17 136.33 361.663 117.215 358.122C79.8243 351.197 90.7763 301.682 61.2673 277.697C46.6111 265.784 30.2204 262.689 21.4585 245.957C12.0919 228.071 28.9899 197.81 28.9899 197.81" stroke="white"/>
<g filter="url(#filter17_d)">
<path d="M30.5754 187.629L28.4276 184.51C28.4276 184.51 25.9096 188.362 25.236 192.509C24.615 196.332 27.1274 198.537 28.908 199.175C31.4408 200.083 33.9399 199.6 35.7706 196.712C37.9074 193.342 38.9622 188.714 38.9622 188.714L35.2575 189.497L33.89 186.69L30.5754 187.629Z" fill="#FF9090"/>
</g>
<g filter="url(#filter18_d)">
<path d="M129.192 119.839L134.859 98.2234L147.031 85.2119L150.834 124.108L129.192 119.839Z" fill="#2A3068"/>
</g>
<g filter="url(#filter19_d)">
<path d="M155.281 124.22C145.57 118.118 135.719 126.934 135.719 126.934L131.795 149.786L184.148 217.661L144.972 227.712C144.972 227.712 120.744 234.331 104.467 240.323C98.4682 242.531 91.1658 244.574 87.856 250.043C82.9654 258.124 82.5732 267.097 85.009 274.81C88.3411 285.36 96.1288 289.796 104.228 297.334C114.483 306.878 134.339 320.465 147.723 339.976C154.035 349.176 156.014 354.267 162.514 363.335C168.835 372.153 176.559 376.302 181.212 385.201C182.686 388.022 178.896 389.247 179.644 392.34C180.261 394.889 180.843 395.564 183.167 396.778C185.491 397.993 192.555 393.078 195.002 387.384C196.223 384.543 195.013 382.474 194.114 379.515C191.621 371.311 187.939 367.805 187.438 359.627C187.147 354.883 187.531 352.319 188.532 347.505C189.597 342.386 188.444 337.892 184.156 334.903C180.21 332.151 175.083 335.761 170.689 333.803C163.653 330.666 161.703 326.045 157.699 319.463C152.422 310.791 149.806 294.769 140.503 281.936C138.098 278.618 133.979 273.717 133.979 273.717C133.979 273.717 178.193 273.721 205.485 267.598C220.448 264.24 231.296 262.279 240.654 250.131C248.271 240.243 249.761 227.093 247.649 220.463C243.013 205.91 237.46 192.938 219.68 180.502C211.246 174.603 200.13 167.351 186.125 152.745C175.605 141.775 168.15 132.308 155.281 124.22Z" fill="#2B3068"/>
</g>
<g filter="url(#filter20_d)">
<path d="M162.773 81.4346L144.305 84.7924L148.922 128.024L168.649 102.001L162.773 81.4346Z" fill="#373C76"/>
</g>
<g filter="url(#filter21_d)">
<path d="M99.3914 81.8542C97.1957 79.5085 95.9111 77.8461 94.5646 74.9288C93.365 72.3296 92.8858 70.7315 92.8857 67.7934C92.8857 64.8831 94.1871 62.6179 96.8731 61.4976C100.26 60.0849 102.14 61.3286 105.601 62.5469C108.938 63.7212 114.176 66.2081 117.723 62.5469C119.171 61.0517 119.738 59.3104 120.061 57.0474C120.284 55.4902 120.729 53.4901 122.063 52.1532C124.369 49.8442 126.769 50.3749 130.031 50.3749C142.833 50.3749 149.908 49.7733 161.93 53.1031C174.565 56.6024 178.124 57.4506 186.578 62.3864C193.848 66.6316 198.016 69.1222 204.113 74.9288C208.057 78.6858 213.976 84.7923 213.976 84.7923L181.028 113.334L147.875 126.26C147.875 126.26 155.896 114.935 156.894 113.334C159.258 109.538 160.671 108.087 162.35 103.26C163.226 100.742 163.693 96.0178 161.93 92.1375C160.078 88.0578 157.523 85.6318 153.536 84.3726C152.051 83.9037 150.561 84.18 149.129 84.7923C146.364 85.9746 146.191 88.36 145.771 91.7178C145.275 95.6835 144.82 99.7661 140.944 100.742C137.977 101.489 136.327 98.1809 134.648 98.4333C133.444 98.6145 132.866 99.8674 131.71 99.4827C130.774 99.171 130.031 97.5939 130.031 97.5939C130.031 97.5939 128.68 98.5001 127.723 98.4333C126.331 98.3362 126.345 96.4766 124.995 96.1249C122.303 95.4239 123.646 99.8622 121.007 100.742C118.368 101.622 112.613 91.2981 109.465 87.3107C108.5 86.0885 108.459 87.0512 106.946 86.6811C103.958 85.9498 101.494 84.1002 99.3914 81.8542Z" fill="#33386F"/>
</g>
<mask id="mask0" mask-type="alpha" maskUnits="userSpaceOnUse" x="92" y="50" width="122" height="77">
<path d="M99.3931 81.8532C97.1974 79.5075 95.9129 77.8451 94.5664 74.9278C93.3667 72.3287 92.8875 70.7305 92.8875 67.7925C92.8874 64.8821 94.1888 62.6169 96.8748 61.4966C100.262 60.0839 102.141 61.3277 105.603 62.5459C108.94 63.7202 114.177 66.2071 117.725 62.5459C119.173 61.0507 119.74 59.3094 120.063 57.0464C120.285 55.4892 120.73 53.4891 122.065 52.1522C124.37 49.8432 126.77 50.3739 130.033 50.3739C142.835 50.3739 149.91 49.7723 161.932 53.1021C174.566 56.6014 178.126 57.4496 186.579 62.3855C193.85 66.6306 198.018 69.1212 204.115 74.9278C208.059 78.6848 213.978 84.7913 213.978 84.7913L181.03 113.333L147.877 126.259C147.877 126.259 155.898 114.934 156.895 113.333C159.26 109.537 160.673 108.086 162.352 103.259C163.228 100.741 163.694 96.0168 161.932 92.1365C160.079 88.0568 157.525 85.6308 153.538 84.3716C152.053 83.9027 150.562 84.179 149.131 84.7913C146.366 85.9736 146.192 88.359 145.773 91.7168C145.277 95.6825 144.822 99.7651 140.946 100.741C137.979 101.488 136.329 98.18 134.65 98.4324C133.445 98.6135 132.868 99.8664 131.712 99.4817C130.776 99.17 130.033 97.5929 130.033 97.5929C130.033 97.5929 128.682 98.4992 127.725 98.4324C126.332 98.3352 126.347 96.4756 124.996 96.1239C122.304 95.4229 123.648 99.8613 121.009 100.741C118.37 101.621 112.615 91.2971 109.467 87.3097C108.502 86.0875 108.461 87.0502 106.948 86.6801C103.96 85.9488 101.495 84.0992 99.3931 81.8532Z" fill="#465775"/>
</mask>
<g mask="url(#mask0)">
<g filter="url(#filter22_f)">
<path d="M273.761 75.8838L259.922 119.466L226.319 95.5321L158.913 87.3934L146.09 35.345L273.761 75.8838Z" fill="black" fill-opacity="0.5"/>
</g>
<g filter="url(#filter23_f)">
<path d="M159.875 147.884L123.662 175.804L109.695 136.984L58.9526 91.8746L78.0852 41.8004L159.875 147.884Z" fill="white" fill-opacity="0.2"/>
</g>
</g>
<g filter="url(#filter24_d)">
<path d="M230.85 113.998C227.038 103.18 219.015 91.5078 219.015 91.5078L196.56 119.42V199.167L154.588 180.909C154.588 180.909 131.283 172.285 114.714 170.626C108.353 169.989 105.806 168.4 99.8135 170.626C90.9586 173.915 85.0723 180.699 82.185 188.254C78.2353 198.589 81.5769 206.906 83.2343 217.845C85.3329 231.696 92.4362 254.683 90.7894 278.285C90.0128 289.415 88.3981 294.634 87.8513 305.777C87.3196 316.614 90.7894 324.665 88.9006 334.528C88.3021 337.654 84.5714 336.257 83.2343 339.145C82.1326 341.525 82.1692 342.415 83.2343 344.812C84.2995 347.208 92.888 347.75 98.3444 344.812C101.067 343.345 101.406 340.973 102.542 338.096C105.69 330.121 104.985 325.085 109.677 318.369C112.399 314.472 114.294 312.703 118.071 309.555C122.088 306.208 123.979 301.971 122.479 296.963C121.098 292.355 114.839 291.995 112.615 287.729C109.054 280.898 110.4 276.066 111.356 268.422C112.615 258.348 120.527 244.173 121.219 228.338C121.399 224.244 121.219 217.845 121.219 217.845C121.219 217.845 155.847 245.337 181.03 257.509C194.837 264.182 204.552 269.39 219.435 265.694C231.549 262.685 240.363 253.086 243.359 246.806C249.282 234.39 250.904 219.962 244.71 199.167C241.772 189.304 236.377 175.995 234.488 155.848C233.07 140.715 235.901 128.333 230.85 113.998Z" fill="#33386F"/>
</g>
<mask id="mask1" mask-type="alpha" maskUnits="userSpaceOnUse" x="80" y="91" width="169" height="256">
<path d="M230.85 113.998C227.038 103.18 219.015 91.5078 219.015 91.5078L196.56 119.42V199.167L154.588 180.909C154.588 180.909 131.283 172.285 114.714 170.626C108.353 169.989 105.806 168.4 99.8135 170.626C90.9586 173.915 85.0723 180.699 82.185 188.254C78.2353 198.589 81.5769 206.906 83.2343 217.845C85.3329 231.696 92.4362 254.683 90.7894 278.285C90.0128 289.415 88.3981 294.634 87.8513 305.777C87.3196 316.614 90.7894 324.665 88.9006 334.528C88.3021 337.654 84.5714 336.257 83.2343 339.145C82.1326 341.525 82.1692 342.415 83.2343 344.812C84.2995 347.208 92.888 347.75 98.3444 344.812C101.067 343.345 101.406 340.973 102.542 338.096C105.69 330.121 104.985 325.085 109.677 318.369C112.399 314.472 114.294 312.703 118.071 309.555C122.088 306.208 123.979 301.971 122.479 296.963C121.098 292.355 114.839 291.995 112.615 287.729C109.054 280.898 110.4 276.066 111.356 268.422C112.615 258.348 120.527 244.173 121.219 228.338C121.399 224.244 121.219 217.845 121.219 217.845C121.219 217.845 155.847 245.337 181.03 257.509C194.837 264.182 204.552 269.39 219.435 265.694C231.549 262.685 240.363 253.086 243.359 246.806C249.282 234.39 250.904 219.962 244.71 199.167C241.772 189.304 236.377 175.995 234.488 155.848C233.07 140.715 235.901 128.333 230.85 113.998Z" fill="#465775"/>
</mask>
<g mask="url(#mask1)">
<g filter="url(#filter25_f)">
<path d="M271.846 259.341L269.205 304.991L230.73 290.102L163.404 298.871L138.117 251.605L271.846 259.341Z" fill="black" fill-opacity="0.5"/>
</g>
<g filter="url(#filter26_f)">
<path d="M141.125 336.808L138.484 382.458L100.009 367.569L32.6827 376.338L7.39613 329.072L141.125 336.808Z" fill="black" fill-opacity="0.5"/>
</g>
<g filter="url(#filter27_f)">
<path d="M161.563 214.69L158.923 260.341L120.447 245.452L53.1212 254.221L27.8346 206.955L161.563 214.69Z" fill="white" fill-opacity="0.1"/>
</g>
</g>
<path d="M181.535 352.742C181.535 352.742 203.578 357.315 210.28 337.948C216.983 318.582 188.395 301.666 197.1 291.953C216.145 270.703 261.356 341.216 322.176 333.107C362.524 327.727 350.15 277.428 350.15 277.428" stroke="white"/>
<g filter="url(#filter28_d)">
<path d="M346.693 267.198L343.315 265.486C343.315 265.486 342.946 270.073 344.336 274.037C345.619 277.692 348.88 278.427 350.749 278.137C353.408 277.723 355.372 276.104 355.599 272.692C355.864 268.71 354.578 264.141 354.578 264.141L351.698 266.6L349.155 264.789L346.693 267.198Z" fill="#FF9090"/>
</g>
<g filter="url(#filter29_i)">
<path d="M86.2778 180.594C90.4399 174.946 97.306 171.718 97.306 171.718L102.417 190.008C102.417 190.008 98.9197 188.664 95.6921 192.429C92.7814 195.825 96.3651 200.056 93.8093 203.726C92.0562 206.244 88.2431 206.481 86.2778 208.837C83.3788 212.312 83.3188 218.789 83.3188 218.789C83.3188 218.789 80.36 206.685 80.6292 200.499C80.8833 194.658 82.5121 185.705 86.2778 180.594Z" fill="#32425D"/>
</g>
<g filter="url(#filter30_i)">
<path d="M85.2078 180.863C88.6956 175.835 97.3119 170.911 97.3119 170.911L100.809 183.284C98.3542 183.705 95.0756 183.714 93.277 185.436C89.6313 188.927 92.6823 195.461 88.9735 198.885C87.3163 200.415 85.5469 200.075 83.8629 201.575C82.404 202.875 80.9034 205.61 80.9034 205.61C80.9034 205.61 80.0686 201.036 80.0972 198.078C80.1649 191.066 81.2109 186.626 85.2078 180.863Z" fill="#2B3068"/>
</g>
<g filter="url(#filter31_i)">
<path d="M93.5439 185.167C95.8552 183.366 99.9994 183.284 99.9994 183.284L101.882 189.74C101.882 189.74 98.7889 189.988 97.0406 191.085C92.8519 193.713 95.9647 200.499 94.0819 203.458C92.157 206.483 88.7022 206.148 86.2814 208.568C83.4854 211.364 83.3226 218.79 83.3226 218.79L80.6328 204.803C80.6328 204.803 82.2678 202.545 83.8606 201.306C86.2814 199.423 88.1291 200.283 89.7782 197.809C91.93 194.581 89.7411 188.13 93.5439 185.167Z" fill="#33386F"/>
</g>
<g filter="url(#filter32_d)">
<path d="M100.862 119.015C115.795 110.412 128.75 122.201 145.983 122.373C163.932 122.551 172.63 110.394 188.375 119.015C206.694 129.045 197.836 151.235 193.621 171.69C189.438 191.995 182.918 226.464 166.969 226.464C154.797 226.464 161.263 184.481 145.983 184.282C130.559 184.082 136.119 226.464 123.318 226.464C110.516 226.464 101.857 191.169 97.2946 171.69C92.593 151.615 82.9965 129.307 100.862 119.015Z" fill="white"/>
</g>
<mask id="mask2" mask-type="alpha" maskUnits="userSpaceOnUse" x="90" y="116" width="110" height="111">
<path d="M100.677 119.178C115.61 110.575 128.565 122.364 145.798 122.536C163.747 122.715 172.445 110.557 188.19 119.178C206.509 129.208 197.651 151.398 193.436 171.853C189.253 192.158 182.733 226.627 166.784 226.627C154.612 226.627 161.078 184.644 145.798 184.445C130.374 184.245 135.934 226.627 123.132 226.627C110.331 226.627 101.672 191.332 97.1096 171.853C92.4079 151.778 82.8114 129.47 100.677 119.178Z" fill="white"/>
</mask>
<g mask="url(#mask2)">
<g filter="url(#filter33_f)">
<path d="M132.787 82.5811L170.224 56.3252L182.423 95.7364L231.076 143.092L209.701 192.251L132.787 82.5811Z" fill="black" fill-opacity="0.5"/>
</g>
</g>
<g filter="url(#filter34_d)">
<path d="M102.32 143.573C100.613 142.44 98.9717 142.671 97.7219 141.047C94.5993 136.991 91.6385 133.49 89.6784 130.354C88.1311 127.879 89.5188 122.824 93.5107 119.159C97.7219 115.291 103.194 113.439 105.615 115.291C107.023 116.369 108.258 117.556 109.746 119.159C114.116 123.868 116.98 126.391 119.857 132.136C122.634 137.68 124.939 145.434 124.149 147.424C123.525 148.996 121.437 147.131 121.437 147.131C121.437 147.131 124.453 151.355 122.727 152.628C121.605 153.455 120.099 152.254 119.214 151.177C116.344 147.685 112.525 141.996 112.525 141.996C112.525 141.996 117.68 154.405 115.299 155.252C113.125 156.026 111.887 153.618 110.737 151.788C109.225 149.383 107.406 145.648 107.406 145.648C107.406 145.648 106.881 146.574 106.331 146.734C104.906 147.148 103.982 144.676 102.32 143.573Z" fill="#33386F"/>
</g>
<g filter="url(#filter35_f)">
<path d="M94.8865 135.406L96.7693 141.324L122.054 147.779L121.516 142.4L94.8865 135.406Z" fill="#354259"/>
</g>
<g filter="url(#filter36_i)">
<path d="M166.438 344.942C164.742 340.429 168.858 332.838 168.858 332.838C168.858 332.838 169.954 333.6 170.741 333.914C171.641 334.272 173.162 334.452 173.162 334.452C173.162 334.452 169.487 340.064 170.741 343.597C172.243 347.826 177.859 346.102 180.425 349.784C182.438 352.673 180.527 356.002 183.114 358.391C184.426 359.603 187.149 360.543 187.149 360.543L188.763 367.267C188.763 367.267 182.952 365.416 180.425 362.695C177.504 359.551 178.924 355.937 176.39 352.473C173.512 348.54 168.152 349.505 166.438 344.942Z" fill="#33386F"/>
</g>
<g filter="url(#filter37_i)">
<path d="M185.263 335.528C180.421 331.733 173.159 334.452 173.159 334.452C173.159 334.452 169.491 340.12 170.738 343.597C172.166 347.584 177.554 345.633 180.152 348.977C182.578 352.1 180.112 356.083 183.111 358.66C184.607 359.947 187.684 361.35 187.684 361.35C187.684 361.35 187.205 358.425 187.415 355.702C187.952 348.708 191.718 340.589 185.263 335.528Z" fill="#2B3068"/>
</g>
<g filter="url(#filter38_i)">
<path d="M229.921 136.685C232.507 127.647 223.793 92.5583 223.793 92.5583L231.565 117.825L238.74 134.377C238.74 134.377 239.141 139.679 238.294 142.906C236.674 149.081 230.432 149.849 228.326 155.877C225.218 164.772 233.58 170.485 231.823 179.739C230.05 189.074 222.187 192.662 219.652 200.82C217.626 207.339 219.323 211.94 223.74 217.147C229.519 223.96 248.744 226.321 248.744 226.321C248.744 226.321 248.744 227.666 248.475 230.356C248.269 232.416 247.449 235.467 247.449 235.467C247.449 235.467 223.55 232.183 216.509 225.655C209.362 219.027 205.66 212.403 206.704 202.717C207.854 192.054 218.736 188.059 219.855 176.754C220.602 169.203 215.813 165.02 217.038 157.532C218.582 148.092 227.29 145.882 229.921 136.685Z" fill="#33386F"/>
</g>
<g filter="url(#filter39_i)">
<path d="M227.809 156.971C229.674 151.165 233.948 147.779 233.948 147.779C234.486 161.497 238.52 179.788 243.631 195.927C249.885 215.676 248.741 226.322 248.741 226.322C248.741 226.322 225.561 225.595 219.449 210.6C213.337 195.606 231.66 191.634 231.906 178.008C232.057 169.64 225.25 164.939 227.809 156.971Z" fill="#2B3068"/>
</g>
<g filter="url(#filter40_d)">
<path d="M188.796 75.3491C194.908 72.2929 201.008 72.6021 206.215 77.028C214.609 84.1633 219.016 91.5085 219.016 91.5085C219.016 91.5085 211.76 99.7859 208.943 105.569C206.514 110.556 205.464 113.572 204.326 119C202.442 127.984 203.399 133.117 203.277 142.295C203.015 161.898 206.215 172.306 202.227 192.662C201.423 196.767 197.499 199.642 193.413 198.748C186.697 197.279 176.679 193.606 166.341 189.304C151.687 183.207 142.836 176.503 130.244 170.627C124.516 167.953 120.504 168.84 114.505 166.849C108.407 164.826 104.682 163.993 99.3946 160.343C94.2911 156.821 88.5373 151.134 88.2719 149.011C88.0621 147.332 90.7903 147.961 90.7903 147.961C90.7903 147.961 86.1125 145.711 87.0128 143.764C87.5975 142.5 89.4967 142.827 90.7903 143.344C94.9876 145.023 101.074 148.171 101.074 148.171C101.074 148.171 90.5804 139.777 92.2593 137.888C93.7926 136.163 96.0368 137.678 97.9256 138.728C100.409 140.107 103.802 142.505 103.802 142.505C103.802 142.505 103.816 141.442 104.221 141.036C105.271 139.987 107.271 141.709 109.258 141.875C111.3 142.047 112.628 141.054 114.505 141.875C121.22 144.814 127.096 146.912 130.244 149.85C132.63 152.077 133.92 154.575 136.33 156.776C141.157 161.183 147.243 164.121 157.107 168.318C166.088 172.14 181.451 173.984 181.451 173.984C181.451 173.984 182.138 162.696 181.451 155.517C180.579 146.411 179.237 141.505 175.288 133.254C171.168 124.647 169.177 114.425 169.908 105.569C170.532 98.0186 172.35 93.2855 176.414 86.8916C179.96 81.3127 184.179 77.6576 188.796 75.3491Z" fill="#33386F"/>
</g>
<mask id="mask3" mask-type="alpha" maskUnits="userSpaceOnUse" x="86" y="73" width="134" height="126">
<path d="M188.794 75.3462C194.907 72.29 201.006 72.5991 206.213 77.0251C214.607 84.1604 219.015 91.5056 219.015 91.5056C219.015 91.5056 211.758 99.783 208.941 105.566C206.512 110.553 205.463 113.569 204.324 118.998C202.44 127.981 203.397 133.114 203.275 142.292C203.013 161.895 206.213 172.303 202.225 192.659C201.421 196.764 197.498 199.639 193.411 198.745C186.696 197.276 176.677 193.603 166.339 189.301C151.685 183.204 142.834 176.5 130.243 170.624C124.514 167.951 120.503 168.837 114.503 166.846C108.405 164.823 104.68 163.99 99.3929 160.34C94.2894 156.818 88.5356 151.132 88.2702 149.008C88.0604 147.329 90.7886 147.959 90.7886 147.959C90.7886 147.959 86.1108 145.708 87.0111 143.761C87.5958 142.497 89.495 142.824 90.7886 143.342C94.9858 145.02 101.072 148.168 101.072 148.168C101.072 148.168 90.5787 139.774 92.2576 137.885C93.7909 136.16 96.0351 137.675 97.9239 138.725C100.408 140.104 103.8 142.502 103.8 142.502C103.8 142.502 103.814 141.439 104.22 141.033C105.269 139.984 107.269 141.706 109.256 141.873C111.298 142.044 112.626 141.051 114.503 141.873C121.219 144.811 127.095 146.909 130.243 149.847C132.629 152.074 133.918 154.572 136.329 156.773C141.156 161.18 147.242 164.118 157.105 168.315C166.087 172.137 181.449 173.981 181.449 173.981C181.449 173.981 182.137 162.693 181.449 155.514C180.577 146.408 179.236 141.502 175.286 133.251C171.166 124.644 169.175 114.422 169.907 105.566C170.53 98.0157 172.348 93.2826 176.412 86.8886C179.959 81.3098 184.177 77.6547 188.794 75.3462Z" fill="#465775"/>
</mask>
<g mask="url(#mask3)">
<g filter="url(#filter41_f)">
<path d="M236.915 190.915L212.273 229.434L186.005 197.621L123 172.323L124.077 118.729L236.915 190.915Z" fill="black" fill-opacity="0.2"/>
</g>
<g filter="url(#filter42_f)">
<path d="M127.172 141.961L102.53 180.48L76.2622 148.667L13.2571 123.368L14.3346 69.7744L127.172 141.961Z" fill="white" fill-opacity="0.2"/>
</g>
</g>
<ellipse cx="211.894" cy="105.28" rx="12.9111" ry="18.8287" fill="#33386F"/>
<g filter="url(#filter43_d)">
<path d="M271.468 166.465C264.403 161.717 261.057 157.406 257.652 149.604C251.396 135.272 222.657 115.826 222.657 115.826L263.888 133.635C263.888 133.635 266.97 141.814 269.606 146.734C272.73 152.564 274.193 156.28 278.989 160.835C286.533 167.998 303.5 171.267 303.5 171.267C303.5 171.267 281.967 173.521 271.468 166.465Z" fill="#FF5959"/>
</g>
<g filter="url(#filter44_d)">
<path d="M222.66 138.364C214.757 129.174 203.831 95.0576 203.831 95.0576L223.467 102.858C223.467 102.858 236.769 132.119 243.64 138.364C250.528 144.623 261.633 147.656 270.807 149.392C280.76 151.275 297.789 150.312 309.541 164.455C313.248 168.917 317.879 180.862 317.879 180.862C317.879 180.862 310.688 171.517 305.775 169.027C300.826 166.52 297.711 165.785 292.326 164.455C284.825 162.602 280.323 163.231 272.69 162.034C267.947 161.29 265.238 161.07 260.586 159.882C244.087 155.667 233.763 151.275 222.66 138.364Z" fill="#FF7373"/>
</g>
<g filter="url(#filter45_d)">
<path d="M282.909 76.7677C261.938 63.2495 241.485 52.0215 241.485 52.0215L266.813 89.4426L327.199 105.296C327.199 105.296 341.817 96.0413 351.512 92.2781C358.955 89.3891 364.679 86.1154 372.663 86.1788C380.331 86.2397 389.977 92.129 389.977 92.129C389.977 92.129 385.983 89.3365 383.181 87.5995C379.15 85.1011 373.703 82.9696 366.67 82.728C349.457 82.1366 331.645 88.0649 320.297 88.0649C309.807 88.0649 289.179 80.8097 282.909 76.7677Z" fill="#FF5959"/>
</g>
<g filter="url(#filter46_d)">
<path d="M283.689 77.0667C263.021 63.0904 242.294 49.3311 242.294 49.3311L256.463 82.542L319.354 118.758L350.729 103.918C350.729 103.918 355.439 100.084 358.853 98.2773C364.749 95.1569 385.391 95.0613 385.391 95.0613C385.391 95.0613 366.894 91.3889 358.224 93.587C349.555 95.7851 330.91 96.8859 317.608 93.587C303.387 90.0599 291.786 82.542 283.689 77.0667Z" fill="#FF7373"/>
</g>
<g filter="url(#filter47_d)">
<path d="M171.819 32.1175C154.88 28.7886 151.915 25.124 133.355 22.434C114.987 19.7718 106.7 20.9578 96.2358 28.0823C88.4093 33.4109 85.4768 42.8764 85.4766 49.6013C85.4759 67.645 96.2358 78.1132 96.2358 78.1132C96.2358 78.1132 90.1422 67.598 94.3527 63.0503C99.3021 57.7045 107.635 66.0076 114.795 64.664C122.978 63.1285 133.355 53.636 133.355 53.636C133.355 53.636 149.663 54.9471 160.791 66.0464C168.762 73.9961 171.1 80.4442 179.351 88.1028C197.222 104.692 219.261 98.5847 239.064 112.812C249.54 120.337 252.488 127.068 260.045 138.133C273.215 157.417 291.968 163.76 315.186 161.266C324.6 160.254 338.319 154.003 338.319 154.003C338.319 154.003 324.062 155.542 315.186 153.428C309.456 152.063 302.275 146.203 302.275 146.203C302.275 146.203 311.958 148.624 319.221 148.624C329.2 148.624 345.139 145.258 353.919 140.517C367.368 133.254 381.355 116.884 381.355 116.884C381.355 116.884 368.812 126.324 359.299 129.219C348.044 132.645 329.442 127.068 329.442 127.068C329.442 127.068 344.499 126.594 353.919 120.919C364.742 114.398 369.86 101.601 381.893 97.7486C389.396 95.3468 398.57 98.0551 398.57 98.0551C398.57 98.0551 391.077 94.7166 385.659 93.7514C379.104 92.5837 374.362 93.7514 368.175 96.4412C351.038 103.892 339.305 107.619 320.835 104.78C301.975 101.881 294.136 90.8482 278.605 79.7644C264.68 69.8273 253.54 56.2959 239.064 47.1802C227.088 39.6385 239.787 46.9395 227.498 39.9177C210.076 29.9627 191.508 35.9867 171.819 32.1175Z" fill="#FF9090"/>
</g>
<mask id="mask4" mask-type="alpha" maskUnits="userSpaceOnUse" x="85" y="21" width="314" height="141">
<path d="M171.821 32.1146C154.881 28.7857 151.917 25.1211 133.357 22.4311C114.989 19.7688 106.702 20.9549 96.2377 28.0794C88.4113 33.408 85.4788 42.8735 85.4785 49.5983C85.4778 67.6421 96.2377 78.1103 96.2377 78.1103C96.2377 78.1103 90.1441 67.5951 94.3546 63.0474C99.3041 57.7016 107.637 66.0046 114.797 64.661C122.98 63.1255 133.357 53.633 133.357 53.633C133.357 53.633 149.665 54.9442 160.793 66.0435C168.764 73.9932 171.102 80.4413 179.353 88.0999C197.224 104.689 219.263 98.5818 239.066 112.809C249.541 120.334 252.49 127.065 260.047 138.13C273.217 157.414 291.97 163.757 315.188 161.263C324.602 160.251 338.32 154 338.32 154C338.32 154 324.064 155.539 315.188 153.425C309.458 152.06 302.277 146.2 302.277 146.2C302.277 146.2 311.96 148.621 319.223 148.621C329.202 148.621 345.141 145.255 353.921 140.514C367.37 133.251 381.357 116.881 381.357 116.881C381.357 116.881 368.814 126.321 359.301 129.216C348.045 132.642 329.444 127.065 329.444 127.065C329.444 127.065 344.501 126.591 353.921 120.916C364.744 114.396 369.862 101.598 381.895 97.7457C389.398 95.3438 398.572 98.0522 398.572 98.0522C398.572 98.0522 391.079 94.7137 385.661 93.7485C379.106 92.5808 374.364 93.7485 368.177 96.4383C351.04 103.889 339.307 107.616 320.837 104.777C301.977 101.878 294.138 90.8453 278.607 79.7615C264.682 69.8244 253.542 56.293 239.066 47.1773C227.09 39.6356 239.789 46.9365 227.5 39.9148C210.078 29.9597 191.51 35.9838 171.821 32.1146Z" fill="#DE552E"/>
</mask>
<g mask="url(#mask4)">
<g filter="url(#filter48_f)">
<path d="M200.071 118.527L175.429 157.046L149.16 125.234L86.1553 99.9348L87.2328 46.3408L200.071 118.527Z" fill="black" fill-opacity="0.2"/>
</g>
<g filter="url(#filter49_f)">
<path d="M349.217 182.283L310.861 157.388L342.845 131.33L368.558 68.4928L422.144 69.9229L349.217 182.283Z" fill="black" fill-opacity="0.2"/>
</g>
<g filter="url(#filter50_f)">
<path d="M224.944 160.227L186.588 135.332L218.573 109.273L244.286 46.4361L297.871 47.8662L224.944 160.227Z" fill="black" fill-opacity="0.2"/>
</g>
<g filter="url(#filter51_f)">
<path d="M260.453 183.358L222.097 158.463L254.082 132.405L279.795 69.568L333.381 70.9981L260.453 183.358Z" fill="white" fill-opacity="0.2"/>
</g>
<g filter="url(#filter52_f)">
<path d="M112.353 22.8564L122.72 -21.6796L158.103 -0.463041L225.939 2.34802L242.817 53.2263L112.353 22.8564Z" fill="white" fill-opacity="0.2"/>
</g>
</g>
<g filter="url(#filter53_d)">
<path d="M225.886 112.542C217.547 100.875 200.601 85.9131 200.601 85.9131C200.601 85.9131 226.844 102.423 239.335 117.384C246.972 126.531 248.489 133.695 256.011 142.937C261.499 149.679 271.343 159.076 271.343 159.076C271.343 159.076 261.395 154.731 256.011 150.468C251.235 146.687 245.252 139.171 245.252 139.171C245.252 139.171 249.84 147.421 253.322 152.351C257.666 158.504 265.695 167.145 265.695 167.145C265.695 167.145 252.092 159.445 245.252 152.351C233.252 139.906 235.938 126.607 225.886 112.542Z" fill="#FF9090"/>
</g>
<g filter="url(#filter54_d)">
<path d="M203.828 54.2103C194.389 50.7479 180.696 42.9131 180.696 42.9131C180.696 42.9131 195.114 54.4811 205.173 60.6658C214.458 66.3749 220.281 68.4847 229.919 73.5769C241.512 79.7023 259.507 89.4468 259.507 89.4468L244.175 76.8047C244.175 76.8047 256.08 83.9624 264.08 87.8329C273.965 92.616 290.171 98.3231 290.171 98.3231C290.171 98.3231 273.941 89.85 264.08 83.5292C251.751 75.6272 247.366 67.0809 233.954 61.2038C222.891 56.3564 215.167 58.3697 203.828 54.2103Z" fill="#FF9090"/>
</g>
<g filter="url(#filter55_d)">
<path d="M216.741 68.198C207.086 63.2079 190.65 58.5146 190.65 58.5146C190.65 58.5146 205.566 64.7669 214.589 69.8118C231.496 79.2648 254.398 99.3997 254.398 99.3997C254.398 99.3997 233.707 76.9668 216.741 68.198Z" fill="#FF9090"/>
</g>
<g filter="url(#filter56_d)">
<path d="M120.689 54.8368C119.883 57.3694 122.024 61.5106 122.024 61.5106L137.151 69.5193C137.151 69.5193 138.606 65.6379 138.486 63.0679C138.308 59.2613 137.093 56.7226 134.482 53.9469C132.267 51.5918 130.147 50.453 126.918 50.61C123.69 50.767 121.67 51.7571 120.689 54.8368Z" fill="#33386F"/>
</g>
<g filter="url(#filter57_d)">
<path d="M58.1944 137.533C58.8415 140.247 59.3794 145.627 59.3794 145.627C59.3794 145.627 56.6505 141.446 54.8465 139.72C52.3236 137.306 48.8095 139.087 46.5266 136.445C43.1734 132.564 49.7445 127.674 47.0319 123.321C45.3096 120.557 40.3898 118.28 40.3898 118.28C40.3898 118.28 47.1656 119.02 49.7293 121.992C52.4987 125.202 49.3321 129.184 51.7666 132.655C53.5761 135.235 57.4635 134.468 58.1944 137.533Z" fill="#6CB2C3"/>
</g>
</g>
<defs>
<filter id="filter0_f" x="114.02" y="26.2598" width="245.727" height="333.952" filterUnits="userSpaceOnUse" color-interpolation-filters="sRGB">
<feFlood flood-opacity="0" result="BackgroundImageFix"/>
<feBlend mode="normal" in="SourceGraphic" in2="BackgroundImageFix" result="shape"/>
<feGaussianBlur stdDeviation="50" result="effect1_foregroundBlur"/>
</filter>
<filter id="filter1_f" x="-1.64111" y="115.023" width="284.317" height="336.815" filterUnits="userSpaceOnUse" color-interpolation-filters="sRGB">
<feFlood flood-opacity="0" result="BackgroundImageFix"/>
<feBlend mode="normal" in="SourceGraphic" in2="BackgroundImageFix" result="shape"/>
<feGaussianBlur stdDeviation="50" result="effect1_foregroundBlur"/>
</filter>
<filter id="filter2_f" x="116.252" y="-9.73047" width="391.725" height="308.075" filterUnits="userSpaceOnUse" color-interpolation-filters="sRGB">
<feFlood flood-opacity="0" result="BackgroundImageFix"/>
<feBlend mode="normal" in="SourceGraphic" in2="BackgroundImageFix" result="shape"/>
<feGaussianBlur stdDeviation="50" result="effect1_foregroundBlur"/>
</filter>
<filter id="filter3_f" x="-9.81763" y="-63.9658" width="309.417" height="337.953" filterUnits="userSpaceOnUse" color-interpolation-filters="sRGB">
<feFlood flood-opacity="0" result="BackgroundImageFix"/>
<feBlend mode="normal" in="SourceGraphic" in2="BackgroundImageFix" result="shape"/>
<feGaussianBlur stdDeviation="50" result="effect1_foregroundBlur"/>
</filter>
<filter id="filter4_d" x="10.4612" y="339.293" width="42.2278" height="30.0336" filterUnits="userSpaceOnUse" color-interpolation-filters="sRGB">
<feFlood flood-opacity="0" result="BackgroundImageFix"/>
<feColorMatrix in="SourceAlpha" type="matrix" values="0 0 0 0 0 0 0 0 0 0 0 0 0 0 0 0 0 0 127 0"/>
<feOffset dy="4"/>
<feGaussianBlur stdDeviation="2"/>
<feColorMatrix type="matrix" values="0 0 0 0 0 0 0 0 0 0 0 0 0 0 0 0 0 0 0.25 0"/>
<feBlend mode="normal" in2="BackgroundImageFix" result="effect1_dropShadow"/>
<feBlend mode="normal" in="SourceGraphic" in2="effect1_dropShadow" result="shape"/>
</filter>
<filter id="filter5_d" x="26.062" y="326.92" width="27.8206" height="25.4812" filterUnits="userSpaceOnUse" color-interpolation-filters="sRGB">
<feFlood flood-opacity="0" result="BackgroundImageFix"/>
<feColorMatrix in="SourceAlpha" type="matrix" values="0 0 0 0 0 0 0 0 0 0 0 0 0 0 0 0 0 0 127 0"/>
<feOffset dy="4"/>
<feGaussianBlur stdDeviation="2"/>
<feColorMatrix type="matrix" values="0 0 0 0 0 0 0 0 0 0 0 0 0 0 0 0 0 0 0.25 0"/>
<feBlend mode="normal" in2="BackgroundImageFix" result="effect1_dropShadow"/>
<feBlend mode="normal" in="SourceGraphic" in2="effect1_dropShadow" result="shape"/>
</filter>
<filter id="filter6_d" x="7" y="251.833" width="29.7671" height="21.0595" filterUnits="userSpaceOnUse" color-interpolation-filters="sRGB">
<feFlood flood-opacity="0" result="BackgroundImageFix"/>
<feColorMatrix in="SourceAlpha" type="matrix" values="0 0 0 0 0 0 0 0 0 0 0 0 0 0 0 0 0 0 127 0"/>
<feOffset dy="4"/>
<feGaussianBlur stdDeviation="2"/>
<feColorMatrix type="matrix" values="0 0 0 0 0 0 0 0 0 0 0 0 0 0 0 0 0 0 0.25 0"/>
<feBlend mode="normal" in2="BackgroundImageFix" result="effect1_dropShadow"/>
<feBlend mode="normal" in="SourceGraphic" in2="effect1_dropShadow" result="shape"/>
</filter>
<filter id="filter7_d" x="14.7683" y="209.106" width="33.038" height="42.4844" filterUnits="userSpaceOnUse" color-interpolation-filters="sRGB">
<feFlood flood-opacity="0" result="BackgroundImageFix"/>
<feColorMatrix in="SourceAlpha" type="matrix" values="0 0 0 0 0 0 0 0 0 0 0 0 0 0 0 0 0 0 127 0"/>
<feOffset dy="4"/>
<feGaussianBlur stdDeviation="2"/>
<feColorMatrix type="matrix" values="0 0 0 0 0 0 0 0 0 0 0 0 0 0 0 0 0 0 0.25 0"/>
<feBlend mode="normal" in2="BackgroundImageFix" result="effect1_dropShadow"/>
<feBlend mode="normal" in="SourceGraphic" in2="effect1_dropShadow" result="shape"/>
</filter>
<filter id="filter8_d" x="246.382" y="276.835" width="33.038" height="42.4844" filterUnits="userSpaceOnUse" color-interpolation-filters="sRGB">
<feFlood flood-opacity="0" result="BackgroundImageFix"/>
<feColorMatrix in="SourceAlpha" type="matrix" values="0 0 0 0 0 0 0 0 0 0 0 0 0 0 0 0 0 0 127 0"/>
<feOffset dy="4"/>
<feGaussianBlur stdDeviation="2"/>
<feColorMatrix type="matrix" values="0 0 0 0 0 0 0 0 0 0 0 0 0 0 0 0 0 0 0.25 0"/>
<feBlend mode="normal" in2="BackgroundImageFix" result="effect1_dropShadow"/>
<feBlend mode="normal" in="SourceGraphic" in2="effect1_dropShadow" result="shape"/>
</filter>
<filter id="filter9_d" x="348.302" y="283.883" width="28.642" height="31.0444" filterUnits="userSpaceOnUse" color-interpolation-filters="sRGB">
<feFlood flood-opacity="0" result="BackgroundImageFix"/>
<feColorMatrix in="SourceAlpha" type="matrix" values="0 0 0 0 0 0 0 0 0 0 0 0 0 0 0 0 0 0 127 0"/>
<feOffset dy="4"/>
<feGaussianBlur stdDeviation="2"/>
<feColorMatrix type="matrix" values="0 0 0 0 0 0 0 0 0 0 0 0 0 0 0 0 0 0 0.25 0"/>
<feBlend mode="normal" in2="BackgroundImageFix" result="effect1_dropShadow"/>
<feBlend mode="normal" in="SourceGraphic" in2="effect1_dropShadow" result="shape"/>
</filter>
<filter id="filter10_d" x="288.889" y="213.5" width="23.5832" height="24.7823" filterUnits="userSpaceOnUse" color-interpolation-filters="sRGB">
<feFlood flood-opacity="0" result="BackgroundImageFix"/>
<feColorMatrix in="SourceAlpha" type="matrix" values="0 0 0 0 0 0 0 0 0 0 0 0 0 0 0 0 0 0 127 0"/>
<feOffset dy="4"/>
<feGaussianBlur stdDeviation="2.5"/>
<feColorMatrix type="matrix" values="0 0 0 0 0 0 0 0 0 0 0 0 0 0 0 0 0 0 0.3 0"/>
<feBlend mode="normal" in2="BackgroundImageFix" result="effect1_dropShadow"/>
<feBlend mode="normal" in="SourceGraphic" in2="effect1_dropShadow" result="shape"/>
</filter>
<filter id="filter11_d" x="26.7271" y="269.09" width="24.5516" height="23.3195" filterUnits="userSpaceOnUse" color-interpolation-filters="sRGB">
<feFlood flood-opacity="0" result="BackgroundImageFix"/>
<feColorMatrix in="SourceAlpha" type="matrix" values="0 0 0 0 0 0 0 0 0 0 0 0 0 0 0 0 0 0 127 0"/>
<feOffset dy="4"/>
<feGaussianBlur stdDeviation="2.5"/>
<feColorMatrix type="matrix" values="0 0 0 0 0 0 0 0 0 0 0 0 0 0 0 0 0 0 0.3 0"/>
<feBlend mode="normal" in2="BackgroundImageFix" result="effect1_dropShadow"/>
<feBlend mode="normal" in="SourceGraphic" in2="effect1_dropShadow" result="shape"/>
</filter>
<filter id="filter12_d" x="216.389" y="318.797" width="25.9985" height="26.8069" filterUnits="userSpaceOnUse" color-interpolation-filters="sRGB">
<feFlood flood-opacity="0" result="BackgroundImageFix"/>
<feColorMatrix in="SourceAlpha" type="matrix" values="0 0 0 0 0 0 0 0 0 0 0 0 0 0 0 0 0 0 127 0"/>
<feOffset dy="4"/>
<feGaussianBlur stdDeviation="2.5"/>
<feColorMatrix type="matrix" values="0 0 0 0 0 0 0 0 0 0 0 0 0 0 0 0 0 0 0.3 0"/>
<feBlend mode="normal" in2="BackgroundImageFix" result="effect1_dropShadow"/>
<feBlend mode="normal" in="SourceGraphic" in2="effect1_dropShadow" result="shape"/>
</filter>
<filter id="filter13_d" x="300.959" y="220.403" width="29.2942" height="42.099" filterUnits="userSpaceOnUse" color-interpolation-filters="sRGB">
<feFlood flood-opacity="0" result="BackgroundImageFix"/>
<feColorMatrix in="SourceAlpha" type="matrix" values="0 0 0 0 0 0 0 0 0 0 0 0 0 0 0 0 0 0 127 0"/>
<feOffset dy="4"/>
<feGaussianBlur stdDeviation="2"/>
<feColorMatrix type="matrix" values="0 0 0 0 0 0 0 0 0 0 0 0 0 0 0 0 0 0 0.25 0"/>
<feBlend mode="normal" in2="BackgroundImageFix" result="effect1_dropShadow"/>
<feBlend mode="normal" in="SourceGraphic" in2="effect1_dropShadow" result="shape"/>
</filter>
<filter id="filter14_d" x="153.021" y="286.035" width="29.2942" height="42.099" filterUnits="userSpaceOnUse" color-interpolation-filters="sRGB">
<feFlood flood-opacity="0" result="BackgroundImageFix"/>
<feColorMatrix in="SourceAlpha" type="matrix" values="0 0 0 0 0 0 0 0 0 0 0 0 0 0 0 0 0 0 127 0"/>
<feOffset dy="4"/>
<feGaussianBlur stdDeviation="2"/>
<feColorMatrix type="matrix" values="0 0 0 0 0 0 0 0 0 0 0 0 0 0 0 0 0 0 0.25 0"/>
<feBlend mode="normal" in2="BackgroundImageFix" result="effect1_dropShadow"/>
<feBlend mode="normal" in="SourceGraphic" in2="effect1_dropShadow" result="shape"/>
</filter>
<filter id="filter15_d" x="270.83" y="240.847" width="40.9811" height="38.9125" filterUnits="userSpaceOnUse" color-interpolation-filters="sRGB">
<feFlood flood-opacity="0" result="BackgroundImageFix"/>
<feColorMatrix in="SourceAlpha" type="matrix" values="0 0 0 0 0 0 0 0 0 0 0 0 0 0 0 0 0 0 127 0"/>
<feOffset dy="4"/>
<feGaussianBlur stdDeviation="2"/>
<feColorMatrix type="matrix" values="0 0 0 0 0 0 0 0 0 0 0 0 0 0 0 0 0 0 0.25 0"/>
<feBlend mode="normal" in2="BackgroundImageFix" result="effect1_dropShadow"/>
<feBlend mode="normal" in="SourceGraphic" in2="effect1_dropShadow" result="shape"/>
</filter>
<filter id="filter16_d" x="41.0601" y="150.469" width="29.3026" height="19.3634" filterUnits="userSpaceOnUse" color-interpolation-filters="sRGB">
<feFlood flood-opacity="0" result="BackgroundImageFix"/>
<feColorMatrix in="SourceAlpha" type="matrix" values="0 0 0 0 0 0 0 0 0 0 0 0 0 0 0 0 0 0 127 0"/>
<feOffset dy="4"/>
<feGaussianBlur stdDeviation="2"/>
<feColorMatrix type="matrix" values="0 0 0 0 0 0 0 0 0 0 0 0 0 0 0 0 0 0 0.25 0"/>
<feBlend mode="normal" in2="BackgroundImageFix" result="effect1_dropShadow"/>
<feBlend mode="normal" in="SourceGraphic" in2="effect1_dropShadow" result="shape"/>
</filter>
<filter id="filter17_d" x="18.0686" y="183.36" width="26.1973" height="26.9628" filterUnits="userSpaceOnUse" color-interpolation-filters="sRGB">
<feFlood flood-opacity="0" result="BackgroundImageFix"/>
<feColorMatrix in="SourceAlpha" type="matrix" values="0 0 0 0 0 0 0 0 0 0 0 0 0 0 0 0 0 0 127 0"/>
<feOffset dy="4"/>
<feGaussianBlur stdDeviation="2.5"/>
<feColorMatrix type="matrix" values="0 0 0 0 0 0 0 0 0 0 0 0 0 0 0 0 0 0 0.3 0"/>
<feBlend mode="normal" in2="BackgroundImageFix" result="effect1_dropShadow"/>
<feBlend mode="normal" in="SourceGraphic" in2="effect1_dropShadow" result="shape"/>
</filter>
<filter id="filter18_d" x="119.192" y="79.2119" width="41.6417" height="58.8964" filterUnits="userSpaceOnUse" color-interpolation-filters="sRGB">
<feFlood flood-opacity="0" result="BackgroundImageFix"/>
<feColorMatrix in="SourceAlpha" type="matrix" values="0 0 0 0 0 0 0 0 0 0 0 0 0 0 0 0 0 0 127 0"/>
<feOffset dy="4"/>
<feGaussianBlur stdDeviation="5"/>
<feColorMatrix type="matrix" values="0 0 0 0 0 0 0 0 0 0 0 0 0 0 0 0 0 0 0.4 0"/>
<feBlend mode="normal" in2="BackgroundImageFix" result="effect1_dropShadow"/>
<feBlend mode="normal" in="SourceGraphic" in2="effect1_dropShadow" result="shape"/>
</filter>
<filter id="filter19_d" x="21.1421" y="98.7422" width="303.511" height="315.411" filterUnits="userSpaceOnUse" color-interpolation-filters="sRGB">
<feFlood flood-opacity="0" result="BackgroundImageFix"/>
<feColorMatrix in="SourceAlpha" type="matrix" values="0 0 0 0 0 0 0 0 0 0 0 0 0 0 0 0 0 0 127 0"/>
<feOffset dy="4"/>
<feGaussianBlur stdDeviation="5"/>
<feColorMatrix type="matrix" values="0 0 0 0 0 0 0 0 0 0 0 0 0 0 0 0 0 0 0.4 0"/>
<feBlend mode="normal" in2="BackgroundImageFix" result="effect1_dropShadow"/>
<feBlend mode="normal" in="SourceGraphic" in2="effect1_dropShadow" result="shape"/>
</filter>
<filter id="filter20_d" x="134.305" y="75.4346" width="44.344" height="66.5895" filterUnits="userSpaceOnUse" color-interpolation-filters="sRGB">
<feFlood flood-opacity="0" result="BackgroundImageFix"/>
<feColorMatrix in="SourceAlpha" type="matrix" values="0 0 0 0 0 0 0 0 0 0 0 0 0 0 0 0 0 0 127 0"/>
<feOffset dy="4"/>
<feGaussianBlur stdDeviation="5"/>
<feColorMatrix type="matrix" values="0 0 0 0 0 0 0 0 0 0 0 0 0 0 0 0 0 0 0.4 0"/>
<feBlend mode="normal" in2="BackgroundImageFix" result="effect1_dropShadow"/>
<feBlend mode="normal" in="SourceGraphic" in2="effect1_dropShadow" result="shape"/>
</filter>
<filter id="filter21_d" x="82.8857" y="44.3223" width="141.091" height="95.938" filterUnits="userSpaceOnUse" color-interpolation-filters="sRGB">
<feFlood flood-opacity="0" result="BackgroundImageFix"/>
<feColorMatrix in="SourceAlpha" type="matrix" values="0 0 0 0 0 0 0 0 0 0 0 0 0 0 0 0 0 0 127 0"/>
<feOffset dy="4"/>
<feGaussianBlur stdDeviation="5"/>
<feColorMatrix type="matrix" values="0 0 0 0 0 0 0 0 0 0 0 0 0 0 0 0 0 0 0.4 0"/>
<feBlend mode="normal" in2="BackgroundImageFix" result="effect1_dropShadow"/>
<feBlend mode="normal" in="SourceGraphic" in2="effect1_dropShadow" result="shape"/>
</filter>
<filter id="filter22_f" x="32.2512" y="-64.6553" width="341.509" height="284.121" filterUnits="userSpaceOnUse" color-interpolation-filters="sRGB">
<feFlood flood-opacity="0" result="BackgroundImageFix"/>
<feBlend mode="normal" in="SourceGraphic" in2="BackgroundImageFix" result="shape"/>
<feGaussianBlur stdDeviation="50" result="effect1_foregroundBlur"/>
</filter>
<filter id="filter23_f" x="-58.1279" y="-58.1992" width="318.003" height="334.004" filterUnits="userSpaceOnUse" color-interpolation-filters="sRGB">
<feFlood flood-opacity="0" result="BackgroundImageFix"/>
<feBlend mode="normal" in="SourceGraphic" in2="BackgroundImageFix" result="shape"/>
<feGaussianBlur stdDeviation="50" result="effect1_foregroundBlur"/>
</filter>
<filter id="filter24_d" x="70.332" y="85.5078" width="188.314" height="275.31" filterUnits="userSpaceOnUse" color-interpolation-filters="sRGB">
<feFlood flood-opacity="0" result="BackgroundImageFix"/>
<feColorMatrix in="SourceAlpha" type="matrix" values="0 0 0 0 0 0 0 0 0 0 0 0 0 0 0 0 0 0 127 0"/>
<feOffset dy="4"/>
<feGaussianBlur stdDeviation="5"/>
<feColorMatrix type="matrix" values="0 0 0 0 0 0 0 0 0 0 0 0 0 0 0 0 0 0 0.4 0"/>
<feBlend mode="normal" in2="BackgroundImageFix" result="effect1_dropShadow"/>
<feBlend mode="normal" in="SourceGraphic" in2="effect1_dropShadow" result="shape"/>
</filter>
<filter id="filter25_f" x="35.4763" y="151.605" width="336.37" height="253.386" filterUnits="userSpaceOnUse" color-interpolation-filters="sRGB">
<feFlood flood-opacity="0" result="BackgroundImageFix"/>
<feBlend mode="normal" in="SourceGraphic" in2="BackgroundImageFix" result="shape"/>
<feGaussianBlur stdDeviation="50" result="effect1_foregroundBlur"/>
</filter>
<filter id="filter26_f" x="-95.2446" y="229.072" width="336.37" height="253.386" filterUnits="userSpaceOnUse" color-interpolation-filters="sRGB">
<feFlood flood-opacity="0" result="BackgroundImageFix"/>
<feBlend mode="normal" in="SourceGraphic" in2="BackgroundImageFix" result="shape"/>
<feGaussianBlur stdDeviation="50" result="effect1_foregroundBlur"/>
</filter>
<filter id="filter27_f" x="-74.8062" y="106.955" width="336.37" height="253.386" filterUnits="userSpaceOnUse" color-interpolation-filters="sRGB">
<feFlood flood-opacity="0" result="BackgroundImageFix"/>
<feBlend mode="normal" in="SourceGraphic" in2="BackgroundImageFix" result="shape"/>
<feGaussianBlur stdDeviation="50" result="effect1_foregroundBlur"/>
</filter>
<filter id="filter28_d" x="337.913" y="263.103" width="23.5832" height="24.7823" filterUnits="userSpaceOnUse" color-interpolation-filters="sRGB">
<feFlood flood-opacity="0" result="BackgroundImageFix"/>
<feColorMatrix in="SourceAlpha" type="matrix" values="0 0 0 0 0 0 0 0 0 0 0 0 0 0 0 0 0 0 127 0"/>
<feOffset dy="4"/>
<feGaussianBlur stdDeviation="2.5"/>
<feColorMatrix type="matrix" values="0 0 0 0 0 0 0 0 0 0 0 0 0 0 0 0 0 0 0.3 0"/>
<feBlend mode="normal" in2="BackgroundImageFix" result="effect1_dropShadow"/>
<feBlend mode="normal" in="SourceGraphic" in2="effect1_dropShadow" result="shape"/>
</filter>
<filter id="filter29_i" x="77.6118" y="171.718" width="24.8048" height="47.0716" filterUnits="userSpaceOnUse" color-interpolation-filters="sRGB">
<feFlood flood-opacity="0" result="BackgroundImageFix"/>
<feBlend mode="normal" in="SourceGraphic" in2="BackgroundImageFix" result="shape"/>
<feColorMatrix in="SourceAlpha" type="matrix" values="0 0 0 0 0 0 0 0 0 0 0 0 0 0 0 0 0 0 127 0" result="hardAlpha"/>
<feOffset dx="-3"/>
<feGaussianBlur stdDeviation="3"/>
<feComposite in2="hardAlpha" operator="arithmetic" k2="-1" k3="1"/>
<feColorMatrix type="matrix" values="0 0 0 0 0 0 0 0 0 0 0 0 0 0 0 0 0 0 0.3 0"/>
<feBlend mode="normal" in2="shape" result="effect1_innerShadow"/>
</filter>
<filter id="filter30_i" x="77.0964" y="170.911" width="23.7122" height="34.6985" filterUnits="userSpaceOnUse" color-interpolation-filters="sRGB">
<feFlood flood-opacity="0" result="BackgroundImageFix"/>
<feBlend mode="normal" in="SourceGraphic" in2="BackgroundImageFix" result="shape"/>
<feColorMatrix in="SourceAlpha" type="matrix" values="0 0 0 0 0 0 0 0 0 0 0 0 0 0 0 0 0 0 127 0" result="hardAlpha"/>
<feOffset dx="-3"/>
<feGaussianBlur stdDeviation="3"/>
<feComposite in2="hardAlpha" operator="arithmetic" k2="-1" k3="1"/>
<feColorMatrix type="matrix" values="0 0 0 0 0 0 0 0 0 0 0 0 0 0 0 0 0 0 0.3 0"/>
<feBlend mode="normal" in2="shape" result="effect1_innerShadow"/>
</filter>
<filter id="filter31_i" x="80.6328" y="179.284" width="21.2495" height="39.5055" filterUnits="userSpaceOnUse" color-interpolation-filters="sRGB">
<feFlood flood-opacity="0" result="BackgroundImageFix"/>
<feBlend mode="normal" in="SourceGraphic" in2="BackgroundImageFix" result="shape"/>
<feColorMatrix in="SourceAlpha" type="matrix" values="0 0 0 0 0 0 0 0 0 0 0 0 0 0 0 0 0 0 127 0" result="hardAlpha"/>
<feOffset dy="-4"/>
<feGaussianBlur stdDeviation="2"/>
<feComposite in2="hardAlpha" operator="arithmetic" k2="-1" k3="1"/>
<feColorMatrix type="matrix" values="0 0 0 0 0 0 0 0 0 0 0 0 0 0 0 0 0 0 0.4 0"/>
<feBlend mode="normal" in2="shape" result="effect1_innerShadow"/>
</filter>
<filter id="filter32_d" x="80.4731" y="109.876" width="129.027" height="130.588" filterUnits="userSpaceOnUse" color-interpolation-filters="sRGB">
<feFlood flood-opacity="0" result="BackgroundImageFix"/>
<feColorMatrix in="SourceAlpha" type="matrix" values="0 0 0 0 0 0 0 0 0 0 0 0 0 0 0 0 0 0 127 0"/>
<feOffset dy="4"/>
<feGaussianBlur stdDeviation="5"/>
<feColorMatrix type="matrix" values="0 0 0 0 0 0 0 0 0 0 0 0 0 0 0 0 0 0 0.4 0"/>
<feBlend mode="normal" in2="BackgroundImageFix" result="effect1_dropShadow"/>
<feBlend mode="normal" in="SourceGraphic" in2="effect1_dropShadow" result="shape"/>
</filter>
<filter id="filter33_f" x="32.7869" y="-43.6748" width="314.352" height="335.926" filterUnits="userSpaceOnUse" color-interpolation-filters="sRGB">
<feFlood flood-opacity="0" result="BackgroundImageFix"/>
<feBlend mode="normal" in="SourceGraphic" in2="BackgroundImageFix" result="shape"/>
<feGaussianBlur stdDeviation="50" result="effect1_foregroundBlur"/>
</filter>
<filter id="filter34_d" x="72.2429" y="104.66" width="72.3901" height="67.8596" filterUnits="userSpaceOnUse" color-interpolation-filters="sRGB">
<feFlood flood-opacity="0" result="BackgroundImageFix"/>
<feColorMatrix in="SourceAlpha" type="matrix" values="0 0 0 0 0 0 0 0 0 0 0 0 0 0 0 0 0 0 127 0"/>
<feOffset dy="4"/>
<feGaussianBlur stdDeviation="5"/>
<feColorMatrix type="matrix" values="0 0 0 0 0 0 0 0 0 0 0 0 0 0 0 0 0 0 0.4 0"/>
<feBlend mode="normal" in2="BackgroundImageFix" result="effect1_dropShadow"/>
<feBlend mode="normal" in="SourceGraphic" in2="effect1_dropShadow" result="shape"/>
</filter>
<filter id="filter35_f" x="74.8865" y="115.406" width="67.1671" height="52.3731" filterUnits="userSpaceOnUse" color-interpolation-filters="sRGB">
<feFlood flood-opacity="0" result="BackgroundImageFix"/>
<feBlend mode="normal" in="SourceGraphic" in2="BackgroundImageFix" result="shape"/>
<feGaussianBlur stdDeviation="10" result="effect1_foregroundBlur"/>
</filter>
<filter id="filter36_i" x="166.028" y="328.838" width="22.7349" height="38.4295" filterUnits="userSpaceOnUse" color-interpolation-filters="sRGB">
<feFlood flood-opacity="0" result="BackgroundImageFix"/>
<feBlend mode="normal" in="SourceGraphic" in2="BackgroundImageFix" result="shape"/>
<feColorMatrix in="SourceAlpha" type="matrix" values="0 0 0 0 0 0 0 0 0 0 0 0 0 0 0 0 0 0 127 0" result="hardAlpha"/>
<feOffset dy="-4"/>
<feGaussianBlur stdDeviation="2"/>
<feComposite in2="hardAlpha" operator="arithmetic" k2="-1" k3="1"/>
<feColorMatrix type="matrix" values="0 0 0 0 0 0 0 0 0 0 0 0 0 0 0 0 0 0 0.25 0"/>
<feBlend mode="normal" in2="shape" result="effect1_innerShadow"/>
</filter>
<filter id="filter37_i" x="170.479" y="329.509" width="18.5146" height="31.8415" filterUnits="userSpaceOnUse" color-interpolation-filters="sRGB">
<feFlood flood-opacity="0" result="BackgroundImageFix"/>
<feBlend mode="normal" in="SourceGraphic" in2="BackgroundImageFix" result="shape"/>
<feColorMatrix in="SourceAlpha" type="matrix" values="0 0 0 0 0 0 0 0 0 0 0 0 0 0 0 0 0 0 127 0" result="hardAlpha"/>
<feOffset dy="-4"/>
<feGaussianBlur stdDeviation="2"/>
<feComposite in2="hardAlpha" operator="arithmetic" k2="-1" k3="1"/>
<feColorMatrix type="matrix" values="0 0 0 0 0 0 0 0 0 0 0 0 0 0 0 0 0 0 0.25 0"/>
<feBlend mode="normal" in2="shape" result="effect1_innerShadow"/>
</filter>
<filter id="filter38_i" x="190.375" y="91.293" width="67.052" height="153.461" filterUnits="userSpaceOnUse" color-interpolation-filters="sRGB">
<feFlood flood-opacity="0" result="BackgroundImageFix"/>
<feBlend mode="normal" in="SourceGraphic" in2="BackgroundImageFix" result="shape"/>
<feColorMatrix in="SourceAlpha" type="matrix" values="0 0 0 0 0 0 0 0 0 0 0 0 0 0 0 0 0 0 127 0" result="hardAlpha"/>
<feOffset dx="4" dy="4"/>
<feGaussianBlur stdDeviation="2"/>
<feComposite in2="hardAlpha" operator="arithmetic" k2="-1" k3="1"/>
<feColorMatrix type="matrix" values="0 0 0 0 0 0 0 0 0 0 0 0 0 0 0 0 0 0 0.25 0"/>
<feBlend mode="normal" in2="shape" result="effect1_innerShadow"/>
</filter>
<filter id="filter39_i" x="210.219" y="147.16" width="43.5289" height="87.1096" filterUnits="userSpaceOnUse" color-interpolation-filters="sRGB">
<feFlood flood-opacity="0" result="BackgroundImageFix"/>
<feBlend mode="normal" in="SourceGraphic" in2="BackgroundImageFix" result="shape"/>
<feColorMatrix in="SourceAlpha" type="matrix" values="0 0 0 0 0 0 0 0 0 0 0 0 0 0 0 0 0 0 127 0" result="hardAlpha"/>
<feOffset dx="5" dy="4"/>
<feGaussianBlur stdDeviation="2"/>
<feComposite in2="hardAlpha" operator="arithmetic" k2="-1" k3="1"/>
<feColorMatrix type="matrix" values="0 0 0 0 0 0 0 0 0 0 0 0 0 0 0 0 0 0 0.25 0"/>
<feBlend mode="normal" in2="shape" result="effect1_innerShadow"/>
</filter>
<filter id="filter40_d" x="76.8977" y="67.333" width="152.119" height="145.579" filterUnits="userSpaceOnUse" color-interpolation-filters="sRGB">
<feFlood flood-opacity="0" result="BackgroundImageFix"/>
<feColorMatrix in="SourceAlpha" type="matrix" values="0 0 0 0 0 0 0 0 0 0 0 0 0 0 0 0 0 0 127 0"/>
<feOffset dy="4"/>
<feGaussianBlur stdDeviation="5"/>
<feColorMatrix type="matrix" values="0 0 0 0 0 0 0 0 0 0 0 0 0 0 0 0 0 0 0.4 0"/>
<feBlend mode="normal" in2="BackgroundImageFix" result="effect1_dropShadow"/>
<feBlend mode="normal" in="SourceGraphic" in2="effect1_dropShadow" result="shape"/>
</filter>
<filter id="filter41_f" x="-0.564941" y="18.7285" width="337.48" height="310.705" filterUnits="userSpaceOnUse" color-interpolation-filters="sRGB">
<feFlood flood-opacity="0" result="BackgroundImageFix"/>
<feBlend mode="normal" in="SourceGraphic" in2="BackgroundImageFix" result="shape"/>
<feGaussianBlur stdDeviation="50" result="effect1_foregroundBlur"/>
</filter>
<filter id="filter42_f" x="-110.307" y="-30.2256" width="337.48" height="310.705" filterUnits="userSpaceOnUse" color-interpolation-filters="sRGB">
<feFlood flood-opacity="0" result="BackgroundImageFix"/>
<feBlend mode="normal" in="SourceGraphic" in2="BackgroundImageFix" result="shape"/>
<feGaussianBlur stdDeviation="50" result="effect1_foregroundBlur"/>
</filter>
<filter id="filter43_d" x="212.657" y="89.0586" width="100.843" height="116.976" filterUnits="userSpaceOnUse" color-interpolation-filters="sRGB">
<feFlood flood-opacity="0" result="BackgroundImageFix"/>
<feColorMatrix in="SourceAlpha" type="matrix" values="0 0 0 0 0 0 0 0 0 0 0 0 0 0 0 0 0 0 127 0"/>
<feOffset dy="4"/>
<feGaussianBlur stdDeviation="5"/>
<feColorMatrix type="matrix" values="0 0 0 0 0 0 0 0 0 0 0 0 0 0 0 0 0 0 0.4 0"/>
<feBlend mode="normal" in2="BackgroundImageFix" result="effect1_dropShadow"/>
<feBlend mode="normal" in="SourceGraphic" in2="effect1_dropShadow" result="shape"/>
</filter>
<filter id="filter44_d" x="193.831" y="89.0576" width="134.048" height="105.805" filterUnits="userSpaceOnUse" color-interpolation-filters="sRGB">
<feFlood flood-opacity="0" result="BackgroundImageFix"/>
<feColorMatrix in="SourceAlpha" type="matrix" values="0 0 0 0 0 0 0 0 0 0 0 0 0 0 0 0 0 0 127 0"/>
<feOffset dy="4"/>
<feGaussianBlur stdDeviation="5"/>
<feColorMatrix type="matrix" values="0 0 0 0 0 0 0 0 0 0 0 0 0 0 0 0 0 0 0.4 0"/>
<feBlend mode="normal" in2="BackgroundImageFix" result="effect1_dropShadow"/>
<feBlend mode="normal" in="SourceGraphic" in2="effect1_dropShadow" result="shape"/>
</filter>
<filter id="filter45_d" x="223.357" y="39.1992" width="177.628" height="97.8881" filterUnits="userSpaceOnUse" color-interpolation-filters="sRGB">
<feFlood flood-opacity="0" result="BackgroundImageFix"/>
<feColorMatrix in="SourceAlpha" type="matrix" values="0 0 0 0 0 0 0 0 0 0 0 0 0 0 0 0 0 0 127 0"/>
<feOffset dy="4"/>
<feGaussianBlur stdDeviation="5"/>
<feColorMatrix type="matrix" values="0 0 0 0 0 0 0 0 0 0 0 0 0 0 0 0 0 0 0.4 0"/>
<feBlend mode="normal" in2="BackgroundImageFix" result="effect1_dropShadow"/>
<feBlend mode="normal" in="SourceGraphic" in2="effect1_dropShadow" result="shape"/>
</filter>
<filter id="filter46_d" x="222.594" y="43.3311" width="176.278" height="100.216" filterUnits="userSpaceOnUse" color-interpolation-filters="sRGB">
<feFlood flood-opacity="0" result="BackgroundImageFix"/>
<feColorMatrix in="SourceAlpha" type="matrix" values="0 0 0 0 0 0 0 0 0 0 0 0 0 0 0 0 0 0 127 0"/>
<feOffset dy="4"/>
<feGaussianBlur stdDeviation="5"/>
<feColorMatrix type="matrix" values="0 0 0 0 0 0 0 0 0 0 0 0 0 0 0 0 0 0 0.4 0"/>
<feBlend mode="normal" in2="BackgroundImageFix" result="effect1_dropShadow"/>
<feBlend mode="normal" in="SourceGraphic" in2="effect1_dropShadow" result="shape"/>
</filter>
<filter id="filter47_d" x="75.4766" y="15.1289" width="333.094" height="160.654" filterUnits="userSpaceOnUse" color-interpolation-filters="sRGB">
<feFlood flood-opacity="0" result="BackgroundImageFix"/>
<feColorMatrix in="SourceAlpha" type="matrix" values="0 0 0 0 0 0 0 0 0 0 0 0 0 0 0 0 0 0 127 0"/>
<feOffset dy="4"/>
<feGaussianBlur stdDeviation="5"/>
<feColorMatrix type="matrix" values="0 0 0 0 0 0 0 0 0 0 0 0 0 0 0 0 0 0 0.4 0"/>
<feBlend mode="normal" in2="BackgroundImageFix" result="effect1_dropShadow"/>
<feBlend mode="normal" in="SourceGraphic" in2="effect1_dropShadow" result="shape"/>
</filter>
<filter id="filter48_f" x="-37.4092" y="-53.6592" width="337.48" height="310.705" filterUnits="userSpaceOnUse" color-interpolation-filters="sRGB">
<feFlood flood-opacity="0" result="BackgroundImageFix"/>
<feBlend mode="normal" in="SourceGraphic" in2="BackgroundImageFix" result="shape"/>
<feGaussianBlur stdDeviation="50" result="effect1_foregroundBlur"/>
</filter>
<filter id="filter49_f" x="210.861" y="-54.9717" width="311.283" height="337.255" filterUnits="userSpaceOnUse" color-interpolation-filters="sRGB">
<feFlood flood-opacity="0" result="BackgroundImageFix"/>
<feBlend mode="normal" in="SourceGraphic" in2="BackgroundImageFix" result="shape"/>
<feGaussianBlur stdDeviation="50" result="effect1_foregroundBlur"/>
</filter>
<filter id="filter50_f" x="86.5879" y="-77.0283" width="311.283" height="337.255" filterUnits="userSpaceOnUse" color-interpolation-filters="sRGB">
<feFlood flood-opacity="0" result="BackgroundImageFix"/>
<feBlend mode="normal" in="SourceGraphic" in2="BackgroundImageFix" result="shape"/>
<feGaussianBlur stdDeviation="50" result="effect1_foregroundBlur"/>
</filter>
<filter id="filter51_f" x="122.097" y="-53.8965" width="311.283" height="337.255" filterUnits="userSpaceOnUse" color-interpolation-filters="sRGB">
<feFlood flood-opacity="0" result="BackgroundImageFix"/>
<feBlend mode="normal" in="SourceGraphic" in2="BackgroundImageFix" result="shape"/>
<feGaussianBlur stdDeviation="50" result="effect1_foregroundBlur"/>
</filter>
<filter id="filter52_f" x="12.353" y="-121.68" width="340.831" height="274.906" filterUnits="userSpaceOnUse" color-interpolation-filters="sRGB">
<feFlood flood-opacity="0" result="BackgroundImageFix"/>
<feBlend mode="normal" in="SourceGraphic" in2="BackgroundImageFix" result="shape"/>
<feGaussianBlur stdDeviation="50" result="effect1_foregroundBlur"/>
</filter>
<filter id="filter53_d" x="190.601" y="79.9131" width="90.742" height="101.232" filterUnits="userSpaceOnUse" color-interpolation-filters="sRGB">
<feFlood flood-opacity="0" result="BackgroundImageFix"/>
<feColorMatrix in="SourceAlpha" type="matrix" values="0 0 0 0 0 0 0 0 0 0 0 0 0 0 0 0 0 0 127 0"/>
<feOffset dy="4"/>
<feGaussianBlur stdDeviation="5"/>
<feColorMatrix type="matrix" values="0 0 0 0 0 0 0 0 0 0 0 0 0 0 0 0 0 0 0.4 0"/>
<feBlend mode="normal" in2="BackgroundImageFix" result="effect1_dropShadow"/>
<feBlend mode="normal" in="SourceGraphic" in2="effect1_dropShadow" result="shape"/>
</filter>
<filter id="filter54_d" x="170.696" y="36.9131" width="129.475" height="75.41" filterUnits="userSpaceOnUse" color-interpolation-filters="sRGB">
<feFlood flood-opacity="0" result="BackgroundImageFix"/>
<feColorMatrix in="SourceAlpha" type="matrix" values="0 0 0 0 0 0 0 0 0 0 0 0 0 0 0 0 0 0 127 0"/>
<feOffset dy="4"/>
<feGaussianBlur stdDeviation="5"/>
<feColorMatrix type="matrix" values="0 0 0 0 0 0 0 0 0 0 0 0 0 0 0 0 0 0 0.4 0"/>
<feBlend mode="normal" in2="BackgroundImageFix" result="effect1_dropShadow"/>
<feBlend mode="normal" in="SourceGraphic" in2="effect1_dropShadow" result="shape"/>
</filter>
<filter id="filter55_d" x="180.65" y="52.5146" width="83.7485" height="60.8851" filterUnits="userSpaceOnUse" color-interpolation-filters="sRGB">
<feFlood flood-opacity="0" result="BackgroundImageFix"/>
<feColorMatrix in="SourceAlpha" type="matrix" values="0 0 0 0 0 0 0 0 0 0 0 0 0 0 0 0 0 0 127 0"/>
<feOffset dy="4"/>
<feGaussianBlur stdDeviation="5"/>
<feColorMatrix type="matrix" values="0 0 0 0 0 0 0 0 0 0 0 0 0 0 0 0 0 0 0.4 0"/>
<feBlend mode="normal" in2="BackgroundImageFix" result="effect1_dropShadow"/>
<feBlend mode="normal" in="SourceGraphic" in2="effect1_dropShadow" result="shape"/>
</filter>
<filter id="filter56_d" x="117.508" y="44.5957" width="23.9856" height="24.9236" filterUnits="userSpaceOnUse" color-interpolation-filters="sRGB">
<feFlood flood-opacity="0" result="BackgroundImageFix"/>
<feColorMatrix in="SourceAlpha" type="matrix" values="0 0 0 0 0 0 0 0 0 0 0 0 0 0 0 0 0 0 127 0"/>
<feOffset dy="-3"/>
<feGaussianBlur stdDeviation="1.5"/>
<feColorMatrix type="matrix" values="0 0 0 0 0 0 0 0 0 0 0 0 0 0 0 0 0 0 0.4 0"/>
<feBlend mode="normal" in2="BackgroundImageFix" result="effect1_dropShadow"/>
<feBlend mode="normal" in="SourceGraphic" in2="effect1_dropShadow" result="shape"/>
</filter>
<filter id="filter57_d" x="29.8259" y="116.039" width="41.4831" height="38.0291" filterUnits="userSpaceOnUse" color-interpolation-filters="sRGB">
<feFlood flood-opacity="0" result="BackgroundImageFix"/>
<feColorMatrix in="SourceAlpha" type="matrix" values="0 0 0 0 0 0 0 0 0 0 0 0 0 0 0 0 0 0 127 0"/>
<feOffset dy="4"/>
<feGaussianBlur stdDeviation="2"/>
<feColorMatrix type="matrix" values="0 0 0 0 0 0 0 0 0 0 0 0 0 0 0 0 0 0 0.25 0"/>
<feBlend mode="normal" in2="BackgroundImageFix" result="effect1_dropShadow"/>
<feBlend mode="normal" in="SourceGraphic" in2="effect1_dropShadow" result="shape"/>
</filter>
<clipPath id="clip0">
<rect width="422" height="418" fill="white"/>
</clipPath>
</defs>
</svg>
