<svg width="973" height="860" fill="none" xmlns="http://www.w3.org/2000/svg" xmlns:xlink="http://www.w3.org/1999/xlink"><g filter="url(#filter0_f)"><path d="M512.384 336h85l-23.5 73 23.5 124-85 52V336z" fill="#000" fill-opacity=".5"/></g><g filter="url(#filter1_f)"><path d="M297.384 526.206L356.614 501l12.21 74.139 64.932 107.128-38.867 73.054-97.505-229.115z" fill="#000" fill-opacity=".5"/></g><g filter="url(#filter2_f)"><path d="M528.884 400.5l27.5-63.488 48.5-30.074h146.191L852.384 285.5l-138 157.5-185.5-42.5z" fill="#000" fill-opacity=".5"/></g><g filter="url(#filter3_f)"><path d="M282.188 213.046l72.258-44.764 18.468 74.432 85.281 93.034-44.872 88.97-131.135-211.672z" fill="#000" fill-opacity=".5"/></g><g filter="url(#filter4_d)"><path d="M190.779 758.692c2.919 4.288 7.411 13.278 7.411 13.278s-7.506-5.459-11.781-7.265c-5.98-2.526-10.907 2.892-16.62-.188-8.392-4.525-.209-17.366-7.8-23.134-4.82-3.662-14.873-4.365-14.873-4.365s12.261-3.196 18.68.272c6.934 3.745 4.066 12.757 10.59 17.178 4.85 3.285 11.096-.618 14.393 4.224z" fill="#6CB2C3"/></g><g filter="url(#filter5_d)"><path d="M197.35 732.17c.769 2.957 1.479 8.835 1.479 8.835s-3.081-4.516-5.095-6.366c-2.817-2.586-6.624-.557-9.183-3.398-3.758-4.174 3.326-9.675.258-14.38-1.948-2.987-7.385-5.369-7.385-5.369s7.435.657 10.308 3.853c3.105 3.452-.273 7.883 2.471 11.629 2.039 2.784 6.278 1.857 7.147 5.196z" fill="#6CB2C3"/></g><g filter="url(#filter6_d)"><path d="M166.717 584.842c2.042 2.631 5.28 8.212 5.28 8.212s-5.028-3.198-7.84-4.184c-3.933-1.379-6.874 2.29-10.659.544-5.559-2.564-.829-11.12-5.924-14.513-3.235-2.154-9.706-2.203-9.706-2.203s7.73-2.538 11.982-.573c4.593 2.123 3.116 8.013 7.474 10.585 3.239 1.912 7.086-.839 9.393 2.132z" fill="#6CB2C3"/></g><path d="M451.998 755.5s42.247 10.979 59.934 1c16.178-9.128 26.5-39.5 26.5-39.5m-343.5-102.5s44.122-17.906 54.5 0c25.5 44-86.109 139.074-26 193 60.636 54.4 203-48 203-48m64-188.5s-60.914 23-78.5 75.5 0 100 0 100m-106.5-363s-86.515 38.346-81.5 89c3.555 35.92 28.553 29.707 42.5 63 8.907 21.264 11 58 11 58" stroke="#fff"/><g filter="url(#filter7_d)"><path d="M418.551 64.433c-.846 5.117-3.799 14.723-3.799 14.723s-1.665-9.13-3.513-13.387c-2.584-5.955-9.889-5.434-11.898-11.606-2.951-9.066 11.832-12.712 10.319-22.125-.961-5.976-7.751-13.423-7.751-13.423s11.078 6.148 13.331 13.088c2.433 7.495-5.861 12.039-4.19 19.74 1.243 5.725 8.457 7.21 7.501 12.99z" fill="#6CB2C3"/></g><path d="M473.431 70s-37.999 16.5-43.999 47.5c-6.03 31.151 20 68.5 20 68.5" stroke="#fff"/><g filter="url(#filter8_d)"><path d="M480.428 55.626l-.764-6.997s-7.517 4.082-12.276 10.274c-4.388 5.708-2.221 11.532.13 14.147 3.344 3.72 7.859 5.132 13.402 2.021 6.469-3.631 12.276-10.274 12.276-10.274l-6.753-1.985.237-5.8-6.252-1.386z" fill="#FF9090"/></g><g filter="url(#filter9_d)"><path d="M180.962 505.382c4.604-2.387 14.066-5.776 14.066-5.776s-6.315 6.802-8.617 10.832c-3.22 5.635 1.572 11.173-2.168 16.478-5.493 7.793-17.266-1.861-23.898 4.988-4.211 4.349-6.107 14.247-6.107 14.247s-1.711-12.554 2.496-18.514c4.546-6.439 13.152-2.517 18.318-8.468 3.84-4.424.709-11.091 5.91-13.787z" fill="#6CB2C3"/></g><g filter="url(#filter10_d)"><path d="M611.505 631.28c4.604-2.387 14.066-5.776 14.066-5.776s-6.315 6.802-8.617 10.832c-3.22 5.635 1.572 11.173-2.168 16.478-5.493 7.793-17.266-1.861-23.898 4.988-4.211 4.349-6.107 14.247-6.107 14.247s-1.711-12.554 2.496-18.514c4.546-6.439 13.152-2.517 18.318-8.468 3.84-4.424.709-11.091 5.91-13.787z" fill="#6CB2C3"/></g><g filter="url(#filter11_d)"><path d="M462.962 90.382c4.604-2.387 14.066-5.776 14.066-5.776s-6.315 6.802-8.617 10.832c-3.22 5.635 1.572 11.173-2.168 16.478-5.493 7.793-17.266-1.861-23.898 4.988-4.211 4.349-6.107 14.247-6.107 14.247s-1.711-12.554 2.496-18.514c4.546-6.439 13.152-2.517 18.318-8.468 3.84-4.424.709-11.09 5.91-13.787z" fill="#6CB2C3"/></g><g filter="url(#filter12_d)"><path d="M796.889 640.652c3.47-.833 10.349-1.531 10.349-1.531s-5.342 3.498-7.546 5.808c-3.082 3.232-.798 7.722-4.173 10.647-4.956 4.296-11.223-4.099-16.784-.621-3.531 2.208-6.434 8.504-6.434 8.504s.933-8.667 4.728-11.951c4.1-3.548 9.199.494 13.634-2.626 3.296-2.319 2.307-7.289 6.226-8.23z" fill="#6CB2C3"/></g><path d="M443.432 168.5s-36.465-27.61-36-58c.567-37.135 56.5-45.5 56.5-87.5 0-27.61-56.5-42.5-56.5-42.5m50 757s9.779-44.338 33.5-58.5c37.879-22.615 92 16 153-14 54.083-26.598 30-144 30-144" stroke="#fff"/><g filter="url(#filter13_d)"><path d="M667.887 505.781l-6.278-3.183s-.688 8.527 1.898 15.895c2.383 6.794 8.445 8.161 11.92 7.621 4.942-.769 8.593-3.779 9.015-10.12.493-7.402-1.898-15.896-1.898-15.896l-5.353 4.572-4.727-3.368-4.577 4.479z" fill="#FF9090"/></g><g filter="url(#filter14_d)"><path d="M178.951 621.162l-3.319 6.207s8.51.874 15.933-1.55c6.843-2.234 8.343-8.265 7.879-11.75-.66-4.958-3.59-8.674-9.921-9.235-7.39-.654-15.933 1.551-15.933 1.551l4.453 5.451-3.47 4.653 4.378 4.673z" fill="#FF9090"/></g><g filter="url(#filter15_d)"><path d="M539.623 701.719l-4.132-5.698s-4.506 7.271-5.571 15.007c-.982 7.132 3.786 11.117 7.124 12.224 4.748 1.573 9.37.562 12.642-4.887 3.819-6.359 5.571-15.007 5.571-15.007l-6.85 1.622-2.667-5.155-6.117 1.894z" fill="#FF9090"/></g><g filter="url(#filter16_d)"><path d="M695.495 560.392c-4.205 3.036-13.068 7.774-13.068 7.774s5.25-7.653 6.937-11.977c2.36-6.046-3.191-10.822-.269-16.618 4.291-8.514 17.352-.688 22.909-8.435 3.528-4.919 3.954-14.988 3.954-14.988s3.532 12.168.243 18.68c-3.553 7.035-12.641 4.417-16.88 11.06-3.15 4.939.923 11.075-3.826 14.504z" fill="#6CB2C3"/></g><g filter="url(#filter17_d)"><path d="M420.495 682.392c-4.205 3.036-13.068 7.774-13.068 7.774s5.25-7.653 6.937-11.977c2.36-6.046-3.191-10.822-.269-16.618 4.291-8.514 17.352-.688 22.909-8.435 3.528-4.919 3.954-14.988 3.954-14.988s3.532 12.168.243 18.68c-3.553 7.035-12.641 4.417-16.88 11.06-3.15 4.939.923 11.075-3.826 14.504z" fill="#6CB2C3"/></g><g filter="url(#filter18_d)"><path d="M669.582 590.534c.924 5.104 1.375 15.143 1.375 15.143s-4.639-8.037-7.812-11.425c-4.437-4.737-11.141-1.79-15.109-6.926-5.829-7.545 6.866-15.952 2.274-24.307-2.916-5.305-11.815-10.033-11.815-10.033s12.501 2.063 16.957 7.84c4.813 6.24-1.469 13.309 2.696 19.999 3.096 4.973 10.389 3.945 11.434 9.709z" fill="#6CB2C3"/></g><g filter="url(#filter19_d)"><path d="M230.022 390.652c2.828 1.758 7.802 5.869 7.802 5.869s-5.825-1.254-8.805-1.203c-4.167.071-5.652 4.533-9.807 4.209-6.103-.475-4.637-10.141-10.593-11.555-3.782-.897-9.867 1.303-9.867 1.303s6.368-5.063 11.038-4.696c5.045.397 5.704 6.434 10.683 7.333 3.702.669 6.355-3.246 9.549-1.26z" fill="#6CB2C3"/></g><path d="M405.432 748.5s-37.468 25.081-73 18.5c-69.505-12.874-49.147-104.915-104-149.5-27.244-22.144-57.712-27.898-74-59-17.411-33.248 14-89.5 14-89.5" stroke="#fff"/><g filter="url(#filter20_d)"><path d="M171.386 450.076l-3.993-5.797s-4.68 7.16-5.932 14.868c-1.155 7.106 3.516 11.206 6.825 12.392 4.709 1.688 9.354.79 12.757-4.578 3.972-6.265 5.933-14.868 5.933-14.868l-6.887 1.456-2.542-5.218-6.161 1.745z" fill="#FF9090"/></g><g filter="url(#filter21_d)"><path d="M354.702 324.064l10.533-40.181 22.626-24.186 7.07 72.303-40.229-7.936z" fill="#2A3068"/></g><g filter="url(#filter22_d)"><path d="M403.189 332.207c-18.051-11.344-36.363 5.044-36.363 5.044l-7.295 42.479 97.319 126.171-72.823 18.683s-45.037 12.304-75.294 23.443c-11.151 4.105-24.725 7.901-30.878 18.067-9.091 15.022-9.82 31.703-5.292 46.039 6.194 19.612 20.67 27.858 35.726 41.869 19.063 17.741 55.971 42.999 80.851 79.266 11.733 17.101 15.413 26.565 27.496 43.422 11.749 16.391 26.106 24.103 34.755 40.646 2.741 5.243-4.305 7.521-2.914 13.271 1.147 4.738 2.229 5.991 6.549 8.25 4.321 2.258 17.451-6.88 21.999-17.463 2.27-5.282.021-9.128-1.65-14.628-4.634-15.249-11.479-21.768-12.41-36.968-.541-8.82.173-13.586 2.035-22.535 1.979-9.514-.165-17.868-8.136-23.425-7.335-5.115-16.866 1.595-25.033-2.045-13.08-5.83-16.703-14.421-24.147-26.655-9.808-16.121-14.673-45.903-31.964-69.758-4.471-6.168-12.127-15.277-12.127-15.277s82.187.007 132.92-11.377c27.814-6.24 47.978-9.886 65.373-32.468 14.159-18.381 16.93-42.825 13.004-55.149-8.618-27.052-18.94-51.164-51.992-74.282-15.677-10.965-36.34-24.447-62.374-51.596-19.555-20.393-33.413-37.99-57.335-53.024z" fill="#2B3068"/></g><g filter="url(#filter23_d)"><path d="M417.12 252.675l-34.329 6.242 8.582 80.361 36.67-48.373-10.923-38.23z" fill="#373C76"/></g><g filter="url(#filter24_d)"><path d="M299.307 253.455c-4.081-4.36-6.469-7.451-8.972-12.873-2.23-4.832-3.121-7.803-3.121-13.264 0-5.41 2.419-9.621 7.412-11.703 6.296-2.626 9.789-.314 16.224 1.95 6.203 2.183 15.939 6.806 22.533 0 2.692-2.779 3.746-6.016 4.347-10.223.413-2.894 1.24-6.612 3.721-9.097 4.286-4.292 8.747-3.306 14.812-3.306 23.796 0 36.949-1.118 59.296 5.071 23.485 6.505 30.102 8.082 45.816 17.257 13.515 7.891 21.263 12.521 32.595 23.315 7.333 6.983 18.335 18.335 18.335 18.335l-61.246 53.054L389.431 336s14.911-21.052 16.765-24.029c4.396-7.055 7.022-9.752 10.143-18.725 1.628-4.681 2.496-13.463-.78-20.676-3.444-7.583-8.192-12.093-15.604-14.434-2.761-.871-5.531-.358-8.193.781-5.139 2.197-5.461 6.631-6.241 12.873-.922 7.372-1.768 14.961-8.973 16.775-5.516 1.389-8.582-4.761-11.703-4.292-2.24.337-3.313 2.666-5.461 1.951-1.741-.579-3.121-3.511-3.121-3.511s-2.513 1.685-4.291 1.56c-2.588-.18-2.561-3.637-5.072-4.291-5.004-1.303-2.506 6.948-7.412 8.583-4.905 1.635-15.604-17.555-21.456-24.967-1.793-2.272-1.869-.482-4.681-1.17-5.555-1.36-10.136-4.798-14.044-8.973z" fill="#33386F"/></g><mask id="a" maskUnits="userSpaceOnUse" x="287" y="194" width="226" height="142"><path d="M299.307 253.453c-4.081-4.36-6.469-7.451-8.972-12.873-2.23-4.832-3.121-7.803-3.121-13.264 0-5.41 2.419-9.621 7.412-11.703 6.296-2.626 9.79-.314 16.224 1.95 6.203 2.183 15.939 6.806 22.533 0 2.693-2.779 3.746-6.016 4.347-10.223.413-2.894 1.24-6.612 3.722-9.097 4.285-4.292 8.746-3.306 14.811-3.306 23.796 0 36.949-1.118 59.296 5.072 23.485 6.504 30.102 8.081 45.816 17.256 13.515 7.891 21.263 12.521 32.596 23.315 7.332 6.983 18.335 18.335 18.335 18.335l-61.247 53.054-61.627 24.029s14.91-21.052 16.765-24.029c4.395-7.055 7.022-9.752 10.142-18.725 1.629-4.681 2.496-13.463-.78-20.676-3.444-7.583-8.192-12.093-15.604-14.434-2.76-.871-5.531-.358-8.192.781-5.139 2.197-5.462 6.631-6.242 12.873-.921 7.372-1.768 14.961-8.972 16.775-5.516 1.389-8.583-4.761-11.704-4.291-2.239.336-3.312 2.665-5.461 1.95-1.741-.579-3.121-3.511-3.121-3.511s-2.512 1.685-4.291 1.561c-2.588-.181-2.561-3.638-5.072-4.292-5.004-1.303-2.506 6.948-7.412 8.583-4.905 1.635-15.604-17.555-21.455-24.967-1.794-2.272-1.87-.482-4.682-1.17-5.554-1.36-10.136-4.798-14.044-8.973z" fill="#465775"/></mask><g mask="url(#a)"><g filter="url(#filter25_f)"><path d="M623.432 242.356l-25.724 81.014-62.465-44.49-125.297-15.129L386.108 167l237.324 75.356z" fill="#000" fill-opacity=".5"/></g><g filter="url(#filter26_f)"><path d="M411.736 376.195l-67.316 51.9-25.962-72.161-94.323-83.853L259.7 179l152.036 197.195z" fill="#fff" fill-opacity=".2"/></g></g><g filter="url(#filter27_d)"><path d="M543.668 313.205c-7.086-20.107-21.999-41.805-21.999-41.805l-41.741 51.884v148.241l-78.022-33.94s-43.32-16.032-74.12-19.115c-11.824-1.183-16.558-4.137-27.698 0-16.46 6.114-27.401 18.725-32.769 32.769-7.342 19.212-1.13 34.67 1.951 55.005 3.901 25.747 17.105 68.477 14.044 112.351-1.444 20.689-4.445 30.389-5.462 51.104-.988 20.143 5.462 35.109 1.951 53.444-1.113 5.811-8.048 3.214-10.533 8.583-2.048 4.424-1.98 6.078 0 10.533 1.98 4.454 17.945 5.461 28.088 0 5.061-2.726 5.691-7.136 7.802-12.484 5.851-14.824 4.543-24.186 13.263-36.67 5.061-7.244 8.583-10.533 15.605-16.384 7.465-6.222 10.98-14.097 8.192-23.407-2.566-8.566-14.202-9.235-18.335-17.164-6.62-12.699-4.117-21.68-2.341-35.89 2.341-18.725 17.047-45.076 18.335-74.511.333-7.61 0-19.505 0-19.505s64.368 51.104 111.181 73.73c25.665 12.405 43.724 22.086 71.389 15.214 22.518-5.593 38.903-23.436 44.472-35.109 11.011-23.079 14.025-49.899 2.511-88.554-5.462-18.335-15.489-43.075-19-80.525-2.638-28.13 2.626-51.147-6.764-77.795z" fill="#33386F"/></g><mask id="b" maskUnits="userSpaceOnUse" x="263" y="271" width="314" height="475"><path d="M543.667 313.205c-7.085-20.108-21.999-41.806-21.999-41.806l-41.741 51.885v148.24l-78.021-33.939s-43.32-16.032-74.121-19.115c-11.824-1.184-16.558-4.138-27.697 0-16.46 6.113-27.402 18.725-32.769 32.769-7.342 19.211-1.131 34.67 1.95 55.005 3.901 25.747 17.105 68.476 14.044 112.35-1.443 20.689-4.445 30.39-5.461 51.104-.989 20.143 5.461 35.11 1.95 53.445-1.113 5.81-8.047 3.214-10.533 8.582-2.048 4.424-1.98 6.078 0 10.533 1.98 4.455 17.945 5.462 28.088 0 5.062-2.725 5.691-7.136 7.802-12.483 5.852-14.824 4.543-24.186 13.264-36.67 5.06-7.244 8.582-10.533 15.604-16.385 7.466-6.221 10.98-14.097 8.192-23.406-2.565-8.566-14.201-9.236-18.335-17.165-6.62-12.699-4.117-21.68-2.34-35.89 2.34-18.725 17.047-45.075 18.335-74.51.333-7.61 0-19.505 0-19.505s64.367 51.104 111.18 73.73c25.665 12.404 43.725 22.086 71.389 15.214 22.518-5.593 38.903-23.436 44.473-35.11 11.01-23.078 14.024-49.898 2.51-88.554-5.462-18.335-15.489-43.074-19-80.524-2.637-28.131 2.626-51.147-6.764-77.795z" fill="#465775"/></mask><g mask="url(#b)"><g filter="url(#filter28_f)"><path d="M619.877 583.379l-4.909 84.859-71.521-27.677-125.15 16.3L371.293 569l248.584 14.379z" fill="#000" fill-opacity=".5"/></g><g filter="url(#filter29_f)"><path d="M376.877 727.379l-4.909 84.859-71.521-27.677-125.15 16.3L128.293 713l248.584 14.379z" fill="#000" fill-opacity=".5"/></g><g filter="url(#filter30_f)"><path d="M414.877 500.379l-4.909 84.859-71.521-27.677-125.15 16.3L166.293 486l248.584 14.379z" fill="#fff" fill-opacity=".1"/></g></g><path d="M452 757s40.975 8.5 53.434-27.5c12.458-36-40.682-67.445-24.5-85.5 35.401-39.5 119.442 91.574 232.5 76.5 75-10 52-103.5 52-103.5" stroke="#fff"/><g filter="url(#filter31_i)"><path d="M274.932 437c7.737-10.5 20.5-16.5 20.5-16.5l9.5 34s-6.501-2.5-12.5 4.5c-5.411 6.313 1.251 14.177-3.5 21-3.259 4.68-10.347 5.121-14 9.5-5.389 6.459-5.501 18.5-5.501 18.5s-5.5-22.5-4.999-34c.472-10.858 3.5-27.5 10.5-37z" fill="#32425D"/></g><g filter="url(#filter32_i)"><path d="M272.933 437.5c6.483-9.347 22.5-18.5 22.5-18.5l6.5 23c-4.563.781-10.657.799-14 4-6.777 6.489-1.106 18.635-8 25-3.08 2.844-6.37 2.211-9.5 5-2.712 2.416-5.501 7.5-5.501 7.5s-1.552-8.502-1.499-14c.126-13.035 2.07-21.289 9.5-32z" fill="#2B3068"/></g><g filter="url(#filter33_i)"><path d="M288.432 445.5c4.296-3.347 12-3.5 12-3.5l3.5 12s-5.751.461-9 2.5c-7.787 4.885-2 17.5-5.5 23-3.578 5.623-10 5-14.5 9.5-5.198 5.197-5.5 19-5.5 19l-5-26s3.039-4.197 6-6.5c4.5-3.5 7.934-1.902 11-6.5 4-6-.069-17.993 7-23.5z" fill="#33386F"/></g><g filter="url(#filter34_d)"><path d="M302.039 322.531c27.758-15.99 51.839 5.923 83.873 6.242 33.365.333 49.534-22.266 78.801-6.242 34.052 18.645 17.587 59.894 9.753 97.917-7.777 37.745-19.896 101.818-49.544 101.818-22.626 0-10.606-78.042-39.01-78.411-28.672-.373-18.335 78.411-42.132 78.411-23.797 0-39.893-65.61-48.373-101.818-8.74-37.316-26.579-78.785 6.632-97.917z" fill="#fff"/></g><mask id="c" maskUnits="userSpaceOnUse" x="282" y="316" width="204" height="207"><path d="M301.696 322.834c27.759-15.991 51.84 5.923 83.873 6.242 33.365.332 49.534-22.266 78.802-6.242 34.052 18.644 17.587 59.894 9.752 97.917-7.777 37.744-19.895 101.818-49.543 101.818-22.627 0-10.607-78.043-39.011-78.412-28.671-.372-18.335 78.412-42.132 78.412-23.796 0-39.893-65.61-48.373-101.818-8.739-37.317-26.578-78.786 6.632-97.917z" fill="#fff"/></mask><g filter="url(#filter35_f)" mask="url(#c)"><path d="M361.384 254.806L430.975 206l22.676 73.26 90.44 88.028-39.734 91.38-142.973-203.862z" fill="#000" fill-opacity=".5"/></g><g filter="url(#filter36_d)"><path d="M304.753 368.181c-3.173-2.106-6.225-1.677-8.548-4.695-5.804-7.541-11.308-14.047-14.952-19.877-2.876-4.602-.297-13.997 7.124-20.811 7.828-7.189 18-10.632 22.5-7.189 2.618 2.004 4.914 4.209 7.679 7.189 8.124 8.754 13.447 13.445 18.795 24.123 5.162 10.306 9.447 24.72 7.979 28.418-1.161 2.923-5.042-.544-5.042-.544s5.607 7.852 2.398 10.219c-2.085 1.537-4.886-.697-6.53-2.697-5.336-6.492-12.434-17.068-12.434-17.068s9.583 23.068 5.157 24.643c-4.042 1.438-6.342-3.039-8.48-6.439-2.812-4.472-6.193-11.414-6.193-11.414s-.975 1.72-1.999 2.018c-2.648.77-4.366-3.826-7.454-5.876z" fill="#33386F"/></g><g filter="url(#filter37_f)"><path d="M290.932 353l3.5 11 47 12-1-10-49.5-13z" fill="#354259"/></g><g filter="url(#filter38_i)"><path d="M423.932 742.5c-3.151-8.388 4.5-22.5 4.5-22.5s2.037 1.417 3.5 2c1.672.666 4.5 1 4.5 1s-6.832 10.432-4.5 17c2.792 7.861 13.231 4.656 18 11.5 3.743 5.371.191 11.559 5 16 2.439 2.252 7.5 4 7.5 4l3 12.5s-10.801-3.442-15.5-8.5c-5.429-5.844-2.79-12.562-7.5-19-5.35-7.312-15.314-5.518-18.5-14z" fill="#33386F"/></g><g filter="url(#filter39_i)"><path d="M458.932 725c-9-7.055-22.5-2-22.5-2s-6.818 10.535-4.5 17c2.655 7.41 12.67 3.784 17.5 10 4.509 5.804-.074 13.209 5.5 18 2.782 2.391 8.5 5 8.5 5s-.89-5.438-.5-10.5c1-13 8-28.093-4-37.5z" fill="#2B3068"/></g><g filter="url(#filter40_i)"><path d="M541.943 355.378c4.807-16.801-11.393-82.026-11.393-82.026l14.449 46.967 13.336 30.769s.745 9.856-.829 15.853c-3.012 11.48-14.614 12.907-18.53 24.112-5.777 16.534 9.768 27.153 6.501 44.357-3.295 17.351-17.912 24.021-22.624 39.185-3.766 12.119-.612 20.672 7.599 30.351C541.195 517.61 576.932 522 576.932 522s0 2.5-.5 7.5c-.383 3.83-1.908 9.5-1.908 9.5s-44.425-6.103-57.513-18.24c-13.286-12.319-20.168-24.633-18.226-42.637 2.137-19.822 22.365-27.248 24.446-48.263 1.389-14.036-7.515-21.811-5.237-35.731 2.87-17.547 19.057-21.655 23.949-38.751z" fill="#33386F"/></g><g filter="url(#filter41_i)"><path d="M538.021 393.087C541.487 382.293 549.432 376 549.432 376c1 25.5 8.5 59.5 18 89.5 11.625 36.711 9.5 56.5 9.5 56.5s-43.09-1.351-54.452-29.224c-11.361-27.872 22.699-35.256 23.156-60.584.281-15.555-12.373-24.293-7.615-39.105z" fill="#2B3068"/></g><g filter="url(#filter42_d)"><path d="M465.494 241.362c11.362-5.681 22.699-5.106 32.379 3.121 15.604 13.263 23.796 26.917 23.796 26.917s-13.489 15.387-18.725 26.137c-4.515 9.269-6.466 14.877-8.582 24.967-3.503 16.7-1.723 26.241-1.951 43.302-.486 36.439 5.462 55.785-1.95 93.626-1.495 7.63-8.789 12.974-16.385 11.313-12.483-2.731-31.107-9.559-50.324-17.555-27.239-11.334-43.692-23.797-67.098-34.72-10.648-4.969-18.105-3.321-29.258-7.022-11.335-3.76-18.259-5.309-28.088-12.093-9.486-6.548-20.182-17.118-20.675-21.066-.39-3.121 4.681-1.95 4.681-1.95s-8.695-4.183-7.022-7.802c1.087-2.351 4.617-1.742 7.022-.781 7.802 3.121 19.115 8.973 19.115 8.973s-19.505-15.604-16.384-19.115c2.85-3.207 7.022-.39 10.533 1.56 4.617 2.565 10.923 7.022 10.923 7.022s.026-1.977.78-2.731c1.95-1.95 5.669 1.251 9.362 1.561 3.796.318 6.264-1.527 9.753 0 12.483 5.461 23.406 9.362 29.258 14.824 4.435 4.14 6.833 8.782 11.313 12.873 8.972 8.192 20.286 13.654 38.621 21.456 16.695 7.105 45.252 10.533 45.252 10.533s1.278-20.984 0-34.329c-1.621-16.926-4.115-26.047-11.456-41.383-7.659-16-11.36-35-10-51.463 1.159-14.035 4.538-22.834 12.093-34.719 6.593-10.371 14.434-17.165 23.017-21.456z" fill="#33386F"/></g><mask id="d" maskUnits="userSpaceOnUse" x="276" y="237" width="246" height="235"><path d="M465.49 241.357c11.362-5.681 22.7-5.106 32.379 3.121 15.604 13.264 23.796 26.917 23.796 26.917s-13.488 15.387-18.725 26.137c-4.515 9.269-6.466 14.877-8.582 24.967-3.503 16.7-1.723 26.241-1.951 43.302-.485 36.439 5.462 55.785-1.95 93.626-1.495 7.63-8.789 12.974-16.385 11.313-12.483-2.731-31.106-9.559-50.323-17.555-27.24-11.334-43.692-23.797-67.099-34.72-10.648-4.969-18.105-3.321-29.258-7.021-11.335-3.761-18.259-5.31-28.087-12.094-9.487-6.548-20.183-17.118-20.676-21.066-.39-3.12 4.681-1.95 4.681-1.95s-8.695-4.183-7.022-7.802c1.087-2.351 4.618-1.742 7.022-.78 7.802 3.12 19.115 8.972 19.115 8.972s-19.505-15.604-16.384-19.115c2.85-3.207 7.022-.39 10.533 1.56 4.617 2.565 10.923 7.022 10.923 7.022s.026-1.976.78-2.731c1.951-1.95 5.669 1.251 9.363 1.561 3.795.318 6.263-1.527 9.752 0 12.484 5.461 23.407 9.362 29.258 14.824 4.436 4.14 6.833 8.782 11.313 12.873 8.973 8.193 20.286 13.654 38.621 21.456 16.696 7.105 45.252 10.533 45.252 10.533s1.279-20.984 0-34.329c-1.621-16.926-4.114-26.047-11.456-41.383-7.659-16-11.36-35-10-51.463 1.16-14.035 4.538-22.834 12.094-34.719 6.592-10.37 14.434-17.165 23.016-21.456z" fill="#465775"/></mask><g mask="url(#d)"><g filter="url(#filter43_f)"><path d="M554.941 456.185l-45.806 71.601-48.829-59.135-117.119-47.027 2.003-99.625 209.751 134.186z" fill="#000" fill-opacity=".2"/></g><g filter="url(#filter44_f)"><path d="M350.941 365.185l-45.806 71.601-48.829-59.135-117.119-47.027 2.003-99.625 209.751 134.186z" fill="#fff" fill-opacity=".2"/></g></g><ellipse cx="508.432" cy="297" rx="24" ry="35" fill="#33386F"/><g filter="url(#filter45_d)"><path d="M619.166 410.736c-13.134-8.826-19.353-16.839-25.684-31.342-11.629-26.642-65.05-62.79-65.05-62.79l76.643 33.104s5.728 15.205 10.629 24.35c5.807 10.838 8.526 17.745 17.442 26.211 14.023 13.316 45.563 19.393 45.563 19.393s-40.028 4.189-59.543-8.926z" fill="#FF5959"/></g><g filter="url(#filter46_d)"><path d="M528.432 358.5c-14.69-17.083-35-80.5-35-80.5l36.5 14.5s24.727 54.391 37.5 66c12.802 11.635 33.446 17.273 50.5 20.5 18.5 3.5 50.156 1.711 72 28 6.891 8.294 15.5 30.5 15.5 30.5s-13.368-17.373-22.5-22c-9.199-4.661-14.989-6.028-25-8.5-13.944-3.444-22.312-2.276-36.5-4.5-8.817-1.383-13.853-1.792-22.5-4-30.67-7.835-49.861-16-70.5-40z" fill="#FF7373"/></g><g filter="url(#filter47_d)"><path d="M640.432 244c-38.982-25.129-77.001-46-77.001-46l47.082 69.56 112.248 29.47s27.174-17.203 45.196-24.199c13.836-5.37 24.475-11.455 39.316-11.337 14.253.113 32.185 11.06 32.185 11.06s-7.425-5.191-12.633-8.42c-7.492-4.644-17.618-8.606-30.692-9.055-31.997-1.099-65.106 9.921-86.201 9.921-19.5 0-57.844-13.487-69.5-21z" fill="#FF5959"/></g><g filter="url(#filter48_d)"><path d="M641.88 244.556C603.46 218.576 564.931 193 564.931 193l26.339 61.734 116.906 67.321 58.323-27.585s8.756-7.128 15.101-10.486c10.96-5.8 49.331-5.978 49.331-5.978s-34.384-6.827-50.5-2.741-50.774 6.133-75.5 0c-26.435-6.556-48-20.531-63.051-30.709z" fill="#FF7373"/></g><g filter="url(#filter49_d)"><path d="M433.932 161c-31.489-6.188-37-13-71.5-18-34.143-4.949-49.548-2.744-69 10.499-14.548 9.905-19.999 27.501-20 40.001-.001 33.541 20 53 20 53s-11.327-19.546-3.5-28c9.2-9.937 24.69 5.497 38 3 15.21-2.855 34.5-20.5 34.5-20.5s30.314 2.437 51 23.069c14.816 14.778 19.163 26.764 34.5 41 33.22 30.837 74.188 19.485 111 45.931 19.472 13.989 24.952 26.5 39 47.069 24.481 35.847 59.34 47.638 102.5 43 17.5-1.88 43-13.5 43-13.5s-26.5 2.861-43-1.069c-10.652-2.538-24-13.43-24-13.43s18 4.5 31.5 4.5c18.55 0 48.178-6.256 64.5-15.07 25-13.5 51-43.931 51-43.931s-23.316 17.549-41 22.931c-20.922 6.367-55.5-4-55.5-4s27.989-.881 45.5-11.431c20.118-12.119 29.631-35.909 52-43.069 13.947-4.465 31 .569 31 .569s-13.928-6.205-24-8c-12.185-2.17-21 0-32.5 5-31.857 13.851-53.666 20.778-88 15.5-35.057-5.388-49.629-25.896-78.5-46.5-25.884-18.471-46.591-43.624-73.5-60.569-22.263-14.019 1.343-.448-21.5-13.5-32.386-18.505-66.901-7.308-103.5-14.5z" fill="#FF9090"/></g><mask id="e" maskUnits="userSpaceOnUse" x="273" y="140" width="583" height="263"><path d="M433.932 160.996c-31.489-6.188-37-13-71.5-18.001-34.143-4.948-49.548-2.744-69 10.5-14.548 9.905-19.999 27.5-20 40.001-.001 33.541 20 53 20 53s-11.327-19.547-3.5-28c9.2-9.937 24.69 5.497 38 2.999 15.21-2.854 34.5-20.499 34.5-20.499s30.314 2.437 51 23.069c14.816 14.778 19.163 26.764 34.5 41 33.22 30.837 74.188 19.484 111 45.93 19.472 13.989 24.952 26.5 39 47.07 24.481 35.847 59.34 47.637 102.5 43 17.5-1.88 43-13.5 43-13.5s-26.5 2.861-43-1.07c-10.652-2.537-24-13.43-24-13.43s18 4.5 31.5 4.5c18.55 0 48.178-6.256 64.5-15.07 25-13.5 51-43.93 51-43.93s-23.316 17.549-41 22.93c-20.922 6.367-55.5-4-55.5-4s27.989-.881 45.5-11.43c20.118-12.12 29.631-35.909 52-43.07 13.947-4.464 31 .57 31 .57s-13.928-6.206-24-8c-12.185-2.171-21 0-32.5 5-31.857 13.851-53.666 20.778-88 15.5-35.057-5.389-49.629-25.897-78.5-46.5-25.884-18.472-46.591-43.625-73.5-60.57-22.263-14.019 1.343-.447-21.5-13.5-32.386-18.505-66.901-7.307-103.5-14.499z" fill="#DE552E"/></mask><g mask="url(#e)"><g filter="url(#filter50_f)"><path d="M486.445 321.625l-45.806 71.602-48.829-59.135-117.118-47.028 2.002-99.624 209.751 134.185z" fill="#000" fill-opacity=".2"/></g><g filter="url(#filter51_f)"><path d="M763.683 440.139l-71.299-46.276 59.455-48.439 47.798-116.806 99.608 2.658-135.562 208.863z" fill="#000" fill-opacity=".2"/></g><g filter="url(#filter52_f)"><path d="M532.683 399.139l-71.299-46.276 59.456-48.439 47.797-116.806 99.609 2.658-135.563 208.863z" fill="#000" fill-opacity=".2"/></g><g filter="url(#filter53_f)"><path d="M598.683 442.139l-71.299-46.276 59.455-48.439 47.798-116.806 99.608 2.658-135.562 208.863z" fill="#fff" fill-opacity=".2"/></g><g filter="url(#filter54_f)"><path d="M323.384 143.786L342.656 61l65.771 39.438 126.099 5.226L565.9 200.24l-242.516-56.454z" fill="#fff" fill-opacity=".2"/></g></g><g filter="url(#filter55_d)"><path d="M534.432 310.5c-15.501-21.687-47-49.5-47-49.5s48.781 30.689 72 58.5c14.196 17.003 17.016 30.321 31 47.5 10.201 12.532 28.5 30 28.5 30s-18.493-8.078-28.5-16c-8.88-7.03-20-21-20-21s8.529 15.335 15 24.5c8.075 11.436 23 27.5 23 27.5s-25.286-14.313-38-27.5c-22.307-23.135-17.313-47.855-36-74z" fill="#FF9090"/></g><g filter="url(#filter56_d)"><path d="M493.432 202.069c-17.545-6.436-43-21-43-21s26.801 21.504 45.5 33c17.26 10.613 28.084 14.535 46 24 21.55 11.387 55 29.5 55 29.5l-28.5-23.5s22.13 13.306 37 20.5c18.376 8.892 48.5 19.5 48.5 19.5s-30.169-15.75-48.5-27.5c-22.917-14.688-31.069-30.575-56-41.5-20.564-9.01-34.923-5.268-56-13z" fill="#FF9090"/></g><g filter="url(#filter57_d)"><path d="M517.432 228.069c-17.948-9.276-48.5-18-48.5-18s27.727 11.622 44.5 21c31.427 17.572 74 55 74 55s-38.462-41.7-70-58z" fill="#FF9090"/></g><g filter="url(#filter58_d)"><path d="M338.894 203.233c-1.499 4.708 2.482 12.406 2.482 12.406l28.119 14.887s2.705-7.215 2.482-11.992c-.331-7.076-2.591-11.795-7.444-16.955-4.118-4.378-8.057-6.495-14.06-6.203-6.001.292-9.756 2.132-11.579 7.857z" fill="#33386F"/></g><g filter="url(#filter59_d)"><path d="M222.729 356.955C223.932 362 224.932 372 224.932 372s-5.073-7.772-8.426-10.981c-4.69-4.487-11.222-1.177-15.466-6.088-6.233-7.214 5.982-16.304.94-24.395-3.202-5.137-12.347-9.371-12.347-9.371s12.595 1.375 17.361 6.899c5.148 5.968-.738 13.37 3.787 19.822 3.363 4.796 10.59 3.37 11.948 9.069z" fill="#6CB2C3"/></g><g filter="url(#filter60_d)"><path d="M758.457 597.754l-6.278-3.183s-.687 8.527 1.898 15.896c2.384 6.793 8.446 8.161 11.92 7.62 4.942-.769 8.593-3.778 9.015-10.12.493-7.402-1.898-15.896-1.898-15.896l-5.352 4.572-4.728-3.368-4.577 4.479z" fill="#FF9090"/></g><g filter="url(#filter61_d)"><path d="M35.373 341.458c-1.795-4.935-5.237-13.831 0-13.446 2.73.201 3.373 2.638 5.704 4.074 2 1.233 4.044.865 5.296 2.853 1.358 2.153 1.63 6.519 1.63 6.519s6.455 3.667 9.371 8.148c3.098 4.76 2.852 14.261 2.852 14.261s6.219 8.109 7.742 14.26c1.453 5.869 0 15.482 0 15.482s14.045-11.308 21.594-19.964c9.281-10.643 19.964-30.15 19.964-30.15s1.425 3.65 1.63 6.111c.493 5.921-5.297 14.261-5.297 14.261s1.59 3.387 1.63 5.704c.098 5.665-8.964 11.408-8.964 11.408s.948 5.836 0 9.371c-1.777 6.63-12.223 12.631-12.223 12.631s2.136 3.789 1.223 7.333c-2.467 9.573-22.41 15.89-22.41 15.89l10.594 5.705-7.741 7.333s-14.772 5.978-24.447 4.89c-10.748-1.209-21.594-8.149-24.853-12.223-2.363-2.954-.124-6.385-2.445-9.371C13.103 418.523 4 418.056 4 418.056s3.266-1.046 6.112-2.445c2.97-1.461 4.022-4.481 7.333-4.481 6.112 0 7.742 6.926 19.557 4.481 10.304-2.132 10.698-14.008 9.371-24.446-.996-7.837-7.811-10.998-9.37-18.742-1.545-7.669 2.83-12.235 1.63-19.965-.688-4.427-1.63-6.519-3.26-11z" fill="#fff"/></g><g filter="url(#filter62_d)"><path d="M85.487 456.762c-14.303-6.633-29.743-27.298-29.743-27.298l8.964-2.037s15.482 4.925 24.854 9.371c8.434 4.001 22.001 11.606 20.779 11.815-4.77.818-12.223-2.037-12.223-2.037s15.075 7.334 11.001 10.186c-4.075 2.852-23.632-8.149-23.632-8.149s13.038 9.593 9.779 11.001c-3.26 1.409-5.487-.862-9.779-2.852z" fill="#fff"/></g><mask id="k" maskUnits="userSpaceOnUse" x="3" y="-20" width="870" height="866"><path d="M512.384 336h85l-23.5 73 23.5 124-85 52V336zm-215 190.206L356.613 501l12.211 74.139 64.932 107.128-38.867 73.054-97.505-229.115z" fill="#000" fill-opacity=".5"/><path d="M528.884 400.5l27.5-63.488 48.5-30.074h146.191L852.384 285.5l-138 157.5-185.5-42.5zM282.188 213.046l72.257-44.764 18.468 74.432 85.281 93.034-44.871 88.97-131.135-211.672z" fill="#000" fill-opacity=".5"/><path d="M190.779 758.692c2.919 4.288 7.411 13.278 7.411 13.278s-7.506-5.459-11.781-7.265c-5.98-2.526-10.907 2.892-16.62-.188-8.392-4.525-.21-17.366-7.801-23.134-4.819-3.662-14.872-4.365-14.872-4.365s12.26-3.196 18.679.272c6.934 3.745 4.066 12.757 10.591 17.178 4.85 3.285 11.096-.618 14.393 4.224zm6.571-26.522c.769 2.957 1.479 8.835 1.479 8.835s-3.082-4.516-5.096-6.366c-2.816-2.586-6.623-.557-9.182-3.398-3.759-4.174 3.326-9.675.258-14.38-1.948-2.987-7.386-5.369-7.386-5.369s7.435.657 10.309 3.853c3.104 3.452-.273 7.883 2.47 11.629 2.04 2.784 6.278 1.857 7.148 5.196zm-30.633-147.328c2.042 2.631 5.28 8.212 5.28 8.212s-5.028-3.198-7.841-4.184c-3.933-1.379-6.874 2.29-10.658.544-5.559-2.564-.829-11.12-5.924-14.513-3.235-2.154-9.706-2.203-9.706-2.203s7.729-2.538 11.982-.573c4.593 2.123 3.116 8.013 7.474 10.585 3.239 1.912 7.086-.839 9.393 2.132z" fill="#6CB2C3"/><path d="M451.998 755.5s42.247 10.979 59.933 1c16.179-9.128 26.5-39.5 26.5-39.5m-343.5-102.5s44.123-17.906 54.5 0c25.5 44-86.109 139.074-26 193 60.637 54.4 203-48 203-48M490.432 571s-60.914 23-78.5 75.5 0 100 0 100m-106.501-363s-86.514 38.346-81.5 89c3.556 35.92 28.554 29.707 42.5 63 8.908 21.264 11 58 11 58" stroke="#fff"/><path d="M418.551 64.433c-.846 5.117-3.799 14.723-3.799 14.723s-1.665-9.13-3.513-13.387c-2.585-5.955-9.889-5.434-11.898-11.606-2.951-9.066 11.832-12.712 10.319-22.125-.961-5.976-7.751-13.423-7.751-13.423s11.078 6.148 13.331 13.088c2.433 7.495-5.862 12.039-4.19 19.74 1.242 5.725 8.457 7.21 7.501 12.99z" fill="#6CB2C3"/><path d="M473.431 70s-37.999 16.5-44 47.5c-6.029 31.151 20 68.5 20 68.5" stroke="#fff"/><path d="M480.428 55.626l-.764-6.997s-7.518 4.082-12.276 10.274c-4.388 5.708-2.221 11.532.13 14.147 3.344 3.72 7.859 5.132 13.401 2.021 6.469-3.631 12.276-10.274 12.276-10.274l-6.753-1.985.238-5.8-6.252-1.386z" fill="#FF9090"/><path d="M180.962 505.382c4.604-2.387 14.065-5.776 14.065-5.776s-6.314 6.802-8.616 10.832c-3.221 5.635 1.571 11.173-2.168 16.478-5.493 7.793-17.267-1.861-23.898 4.988-4.211 4.349-6.107 14.247-6.107 14.247s-1.712-12.554 2.496-18.514c4.545-6.439 13.151-2.517 18.318-8.468 3.84-4.424.709-11.091 5.91-13.787zM611.505 631.28c4.604-2.387 14.065-5.776 14.065-5.776s-6.314 6.802-8.616 10.832c-3.221 5.635 1.571 11.173-2.168 16.478-5.493 7.793-17.267-1.861-23.898 4.988-4.211 4.349-6.107 14.247-6.107 14.247s-1.712-12.554 2.496-18.514c4.545-6.439 13.151-2.517 18.318-8.468 3.84-4.424.709-11.091 5.91-13.787zM462.962 90.382c4.604-2.387 14.065-5.776 14.065-5.776s-6.314 6.802-8.616 10.832c-3.221 5.635 1.571 11.173-2.168 16.478-5.493 7.793-17.267-1.861-23.898 4.988-4.211 4.349-6.107 14.247-6.107 14.247s-1.712-12.554 2.496-18.514c4.545-6.439 13.151-2.517 18.318-8.468 3.84-4.424.709-11.09 5.91-13.787zm333.927 550.27c3.47-.833 10.348-1.531 10.348-1.531s-5.341 3.498-7.545 5.808c-3.083 3.232-.798 7.722-4.173 10.647-4.957 4.296-11.223-4.099-16.784-.621-3.531 2.208-6.434 8.504-6.434 8.504s.933-8.667 4.728-11.951c4.1-3.548 9.199.494 13.633-2.626 3.296-2.319 2.308-7.289 6.227-8.23z" fill="#6CB2C3"/><path d="M443.432 168.5s-36.465-27.61-36-58c.567-37.135 56.5-45.5 56.5-87.5 0-27.61-56.5-42.5-56.5-42.5m49.999 757s9.78-44.338 33.5-58.5c37.88-22.615 92 16 153-14 54.084-26.598 30-144 30-144" stroke="#fff"/><path d="M667.886 505.781l-6.278-3.183s-.687 8.527 1.898 15.895c2.384 6.794 8.446 8.161 11.92 7.621 4.943-.769 8.593-3.779 9.015-10.12.493-7.402-1.898-15.896-1.898-15.896l-5.352 4.572-4.728-3.368-4.577 4.479zM178.951 621.162l-3.319 6.207s8.509.874 15.933-1.55c6.843-2.234 8.343-8.265 7.879-11.75-.661-4.958-3.59-8.674-9.921-9.235-7.39-.654-15.933 1.551-15.933 1.551l4.453 5.451-3.47 4.653 4.378 4.673zm360.671 80.557l-4.131-5.698s-4.506 7.271-5.571 15.007c-.982 7.132 3.786 11.117 7.124 12.224 4.747 1.573 9.37.562 12.642-4.887 3.819-6.359 5.571-15.007 5.571-15.007l-6.85 1.622-2.667-5.155-6.118 1.894z" fill="#FF9090"/><path d="M695.495 560.392c-4.205 3.036-13.068 7.774-13.068 7.774s5.249-7.653 6.937-11.977c2.36-6.046-3.192-10.822-.27-16.618 4.292-8.514 17.353-.688 22.91-8.435 3.528-4.919 3.954-14.988 3.954-14.988s3.532 12.168.243 18.68c-3.553 7.035-12.641 4.417-16.88 11.06-3.151 4.939.923 11.075-3.826 14.504zm-275 122c-4.205 3.036-13.068 7.774-13.068 7.774s5.25-7.653 6.937-11.977c2.36-6.046-3.192-10.822-.27-16.618 4.292-8.514 17.353-.688 22.91-8.435 3.528-4.919 3.954-14.988 3.954-14.988s3.532 12.168.243 18.68c-3.553 7.035-12.641 4.417-16.88 11.06-3.151 4.939.923 11.075-3.826 14.504zm249.086-91.858c.925 5.104 1.376 15.143 1.376 15.143s-4.639-8.037-7.812-11.425c-4.437-4.737-11.141-1.79-15.109-6.926-5.829-7.545 6.865-15.952 2.274-24.307-2.916-5.305-11.816-10.033-11.816-10.033s12.502 2.063 16.958 7.84c4.813 6.24-1.47 13.309 2.695 19.999 3.096 4.973 10.39 3.945 11.434 9.709zM230.022 390.652c2.828 1.758 7.802 5.869 7.802 5.869s-5.825-1.254-8.805-1.203c-4.167.071-5.652 4.533-9.807 4.209-6.104-.475-4.637-10.141-10.593-11.555-3.782-.897-9.867 1.303-9.867 1.303s6.368-5.063 11.038-4.696c5.045.397 5.703 6.434 10.683 7.333 3.702.669 6.355-3.246 9.549-1.26z" fill="#6CB2C3"/><path d="M405.432 748.5s-37.468 25.081-73 18.5c-69.505-12.874-49.147-104.915-104.001-149.5-27.244-22.144-57.712-27.898-73.999-59-17.411-33.248 14-89.5 14-89.5" stroke="#fff"/><path d="M171.386 450.076l-3.993-5.797s-4.68 7.16-5.933 14.868c-1.154 7.106 3.516 11.206 6.826 12.392 4.708 1.688 9.354.79 12.757-4.578 3.972-6.265 5.933-14.868 5.933-14.868l-6.887 1.456-2.542-5.218-6.161 1.745z" fill="#FF9090"/><path d="M354.702 324.064l10.533-40.181 22.626-24.186 7.07 72.303-40.229-7.936z" fill="#2A3068"/><path d="M403.189 332.207c-18.052-11.344-36.364 5.044-36.364 5.044l-7.294 42.479 97.319 126.171-72.823 18.683s-45.037 12.304-75.294 23.443c-11.151 4.105-24.725 7.901-30.878 18.067-9.091 15.022-9.82 31.703-5.292 46.039 6.194 19.612 20.67 27.858 35.726 41.869 19.063 17.741 55.971 42.999 80.851 79.266 11.732 17.101 15.413 26.565 27.495 43.422 11.75 16.391 26.107 24.103 34.756 40.646 2.741 5.243-4.305 7.521-2.914 13.271 1.147 4.738 2.228 5.991 6.549 8.25 4.32 2.258 17.45-6.88 21.999-17.463 2.27-5.282.021-9.128-1.65-14.628-4.634-15.249-11.479-21.768-12.411-36.968-.54-8.82.174-13.586 2.035-22.535 1.98-9.514-.164-17.868-8.136-23.425-7.335-5.115-16.865 1.595-25.032-2.045-13.08-5.83-16.704-14.421-24.147-26.655-9.809-16.121-14.673-45.903-31.965-69.758-4.47-6.168-12.127-15.277-12.127-15.277s82.188.007 132.921-11.377c27.813-6.24 47.978-9.886 65.373-32.468 14.159-18.381 16.93-42.825 13.004-55.149-8.618-27.052-18.94-51.164-51.992-74.282-15.677-10.965-36.341-24.447-62.374-51.596-19.555-20.393-33.414-37.99-57.335-53.024z" fill="#2B3068"/><path d="M417.12 252.675l-34.329 6.242 8.582 80.361 36.67-48.373-10.923-38.23z" fill="#373C76"/><path d="M299.307 253.455c-4.082-4.36-6.47-7.451-8.973-12.873-2.229-4.832-3.12-7.803-3.12-13.264 0-5.41 2.419-9.621 7.412-11.703 6.296-2.626 9.789-.314 16.224 1.95 6.203 2.183 15.939 6.806 22.532 0 2.693-2.779 3.746-6.016 4.347-10.223.414-2.894 1.241-6.612 3.722-9.097 4.285-4.292 8.746-3.306 14.811-3.306 23.797 0 36.949-1.118 59.297 5.071 23.485 6.505 30.101 8.082 45.815 17.257 13.515 7.891 21.264 12.521 32.596 23.315 7.333 6.983 18.335 18.335 18.335 18.335l-61.247 53.054L389.431 336s14.911-21.052 16.765-24.029c4.396-7.055 7.022-9.752 10.143-18.725 1.628-4.681 2.495-13.463-.78-20.676-3.444-7.583-8.193-12.093-15.605-14.434-2.76-.871-5.53-.358-8.192.781-5.139 2.197-5.461 6.631-6.242 12.873-.921 7.372-1.768 14.961-8.972 16.775-5.516 1.389-8.582-4.761-11.703-4.292-2.24.337-3.313 2.666-5.462 1.951-1.74-.579-3.121-3.511-3.121-3.511s-2.512 1.685-4.291 1.56c-2.588-.18-2.56-3.637-5.071-4.291-5.004-1.303-2.507 6.948-7.412 8.583-4.906 1.635-15.604-17.555-21.456-24.967-1.794-2.272-1.87-.482-4.681-1.17-5.555-1.36-10.136-4.798-14.044-8.973z" fill="#33386F"/><mask id="f" maskUnits="userSpaceOnUse" x="287" y="194" width="226" height="142"><path d="M299.307 253.453c-4.081-4.36-6.469-7.451-8.972-12.873-2.23-4.832-3.121-7.803-3.121-13.264 0-5.41 2.419-9.621 7.412-11.703 6.296-2.626 9.789-.314 16.224 1.95 6.203 2.183 15.939 6.806 22.533 0 2.692-2.779 3.746-6.016 4.347-10.223.413-2.894 1.24-6.612 3.721-9.097 4.286-4.292 8.747-3.306 14.812-3.306 23.796 0 36.949-1.118 59.296 5.072 23.485 6.504 30.102 8.081 45.816 17.256 13.515 7.891 21.263 12.521 32.595 23.315 7.333 6.983 18.335 18.335 18.335 18.335l-61.246 53.054-61.628 24.029s14.911-21.052 16.765-24.029c4.396-7.055 7.022-9.752 10.143-18.725 1.628-4.681 2.496-13.463-.78-20.676-3.444-7.583-8.192-12.093-15.604-14.434-2.761-.871-5.531-.358-8.193.781-5.139 2.197-5.461 6.631-6.241 12.873-.922 7.372-1.768 14.961-8.973 16.775-5.516 1.389-8.582-4.761-11.703-4.291-2.24.336-3.313 2.665-5.461 1.95-1.741-.579-3.121-3.511-3.121-3.511s-2.513 1.685-4.291 1.561c-2.588-.181-2.561-3.638-5.072-4.292-5.004-1.303-2.506 6.948-7.412 8.583-4.905 1.635-15.604-17.555-21.456-24.967-1.793-2.272-1.869-.482-4.681-1.17-5.555-1.36-10.136-4.798-14.044-8.973z" fill="#465775"/></mask><g mask="url(#f)"><path d="M623.431 242.356l-25.724 81.014-62.465-44.49-125.297-15.129L386.108 167l237.323 75.356z" fill="#000" fill-opacity=".5"/><path d="M411.736 376.195l-67.316 51.9-25.962-72.161-94.324-83.853L259.699 179l152.037 197.195z" fill="#fff" fill-opacity=".2"/></g><path d="M543.668 313.205c-7.086-20.107-21.999-41.805-21.999-41.805l-41.742 51.884v148.241l-78.021-33.94s-43.32-16.032-74.12-19.115c-11.824-1.183-16.558-4.137-27.698 0-16.46 6.114-27.402 18.725-32.769 32.769-7.342 19.212-1.13 34.67 1.951 55.005 3.901 25.747 17.105 68.477 14.044 112.351-1.444 20.689-4.445 30.389-5.462 51.104-.988 20.143 5.462 35.109 1.951 53.444-1.113 5.811-8.048 3.214-10.533 8.583-2.048 4.424-1.98 6.078 0 10.533 1.98 4.454 17.945 5.461 28.087 0 5.062-2.726 5.692-7.136 7.803-12.484 5.851-14.824 4.542-24.186 13.263-36.67 5.06-7.244 8.583-10.533 15.604-16.384 7.466-6.222 10.981-14.097 8.193-23.407-2.566-8.566-14.202-9.235-18.335-17.164-6.62-12.699-4.117-21.68-2.341-35.89 2.341-18.725 17.047-45.076 18.335-74.511.333-7.61 0-19.505 0-19.505s64.368 51.104 111.18 73.73c25.665 12.405 43.725 22.086 71.39 15.214 22.517-5.593 38.903-23.436 44.472-35.109 11.01-23.079 14.025-49.899 2.51-88.554-5.461-18.335-15.489-43.075-19-80.525-2.637-28.13 2.626-51.147-6.763-77.795z" fill="#33386F"/><mask id="g" maskUnits="userSpaceOnUse" x="263" y="271" width="314" height="475"><path d="M543.667 313.205c-7.085-20.108-21.999-41.806-21.999-41.806l-41.741 51.885v148.24l-78.022-33.939s-43.32-16.032-74.12-19.115c-11.824-1.184-16.558-4.138-27.698 0-16.46 6.113-27.401 18.725-32.768 32.769-7.342 19.211-1.131 34.67 1.95 55.005 3.901 25.747 17.105 68.476 14.044 112.35-1.444 20.689-4.445 30.39-5.462 51.104-.988 20.143 5.462 35.11 1.951 53.445-1.113 5.81-8.048 3.214-10.533 8.582-2.048 4.424-1.98 6.078 0 10.533 1.98 4.455 17.945 5.462 28.088 0 5.061-2.725 5.691-7.136 7.802-12.483 5.851-14.824 4.543-24.186 13.263-36.67 5.061-7.244 8.583-10.533 15.605-16.385 7.465-6.221 10.98-14.097 8.192-23.406-2.566-8.566-14.202-9.236-18.335-17.165-6.62-12.699-4.117-21.68-2.341-35.89 2.341-18.725 17.047-45.075 18.335-74.51.333-7.61 0-19.505 0-19.505s64.368 51.104 111.181 73.73c25.665 12.404 43.724 22.086 71.389 15.214 22.518-5.593 38.903-23.436 44.472-35.11 11.011-23.078 14.025-49.898 2.511-88.554-5.462-18.335-15.489-43.074-19-80.524-2.638-28.131 2.626-51.147-6.764-77.795z" fill="#465775"/></mask><g mask="url(#g)"><path d="M619.877 583.379l-4.909 84.859-71.521-27.677-125.15 16.3L371.293 569l248.584 14.379zm-243 144l-4.909 84.859-71.521-27.677-125.15 16.3L128.293 713l248.584 14.379z" fill="#000" fill-opacity=".5"/><path d="M414.877 500.379l-4.909 84.859-71.521-27.677-125.15 16.3L166.293 486l248.584 14.379z" fill="#fff" fill-opacity=".1"/></g><path d="M452 757s40.975 8.5 53.433-27.5c12.459-36-40.682-67.445-24.5-85.5 35.402-39.5 119.443 91.574 232.5 76.5 75-10 52-103.5 52-103.5" stroke="#fff"/><path d="M274.931 437c7.737-10.5 20.5-16.5 20.5-16.5l9.5 34s-6.5-2.5-12.5 4.5c-5.41 6.313 1.251 14.177-3.5 21-3.258 4.68-10.346 5.121-14 9.5-5.388 6.459-5.5 18.5-5.5 18.5s-5.5-22.5-5-34c.473-10.858 3.5-27.5 10.5-37z" fill="#32425D"/><path d="M272.933 437.5c6.483-9.347 22.5-18.5 22.5-18.5l6.5 23c-4.563.781-10.657.799-14.001 4-6.776 6.489-1.105 18.635-7.999 25-3.081 2.844-6.37 2.211-9.5 5-2.712 2.416-5.502 7.5-5.502 7.5s-1.551-8.502-1.498-14c.126-13.035 2.07-21.289 9.5-32z" fill="#2B3068"/><path d="M288.431 445.5c4.297-3.347 12-3.5 12-3.5l3.5 12s-5.75.461-9 2.5c-7.786 4.885-2 17.5-5.5 23-3.578 5.623-10 5-14.5 9.5-5.197 5.197-5.5 19-5.5 19l-5-26s3.04-4.197 6-6.5c4.5-3.5 7.935-1.902 11-6.5 4-6-.069-17.993 7-23.5z" fill="#33386F"/><path d="M302.038 322.531c27.759-15.99 51.84 5.923 83.873 6.242 33.366.333 49.535-22.266 78.802-6.242 34.052 18.645 17.587 59.894 9.752 97.917-7.777 37.745-19.895 101.818-49.543 101.818-22.626 0-10.606-78.042-39.011-78.411-28.671-.373-18.335 78.411-42.131 78.411-23.797 0-39.893-65.61-48.373-101.818-8.74-37.316-26.579-78.785 6.631-97.917z" fill="#fff"/><mask id="h" maskUnits="userSpaceOnUse" x="282" y="316" width="204" height="207"><path d="M301.696 322.834c27.758-15.991 51.839 5.923 83.873 6.242 33.365.332 49.534-22.266 78.801-6.242 34.052 18.644 17.587 59.894 9.753 97.917-7.777 37.744-19.896 101.818-49.544 101.818-22.626 0-10.606-78.043-39.01-78.412-28.672-.372-18.335 78.412-42.132 78.412-23.796 0-39.893-65.61-48.373-101.818-8.74-37.317-26.578-78.786 6.632-97.917z" fill="#fff"/></mask><g mask="url(#h)"><path d="M361.384 254.806L430.975 206l22.676 73.26 90.44 88.028-39.734 91.38-142.973-203.862z" fill="#000" fill-opacity=".5"/></g><path d="M304.753 368.181c-3.174-2.106-6.225-1.677-8.548-4.695-5.805-7.541-11.309-14.047-14.952-19.877-2.876-4.602-.297-13.997 7.124-20.811 7.828-7.189 18-10.632 22.5-7.189 2.617 2.004 4.914 4.209 7.679 7.189 8.124 8.754 13.447 13.445 18.795 24.123 5.162 10.306 9.447 24.72 7.979 28.418-1.161 2.923-5.042-.544-5.042-.544s5.607 7.852 2.398 10.219c-2.085 1.537-4.886-.697-6.53-2.697-5.336-6.492-12.434-17.068-12.434-17.068s9.583 23.068 5.157 24.643c-4.042 1.438-6.342-3.039-8.481-6.439-2.811-4.472-6.192-11.414-6.192-11.414s-.975 1.72-1.999 2.018c-2.649.77-4.366-3.826-7.454-5.876z" fill="#33386F"/><path d="M290.931 353l3.5 11 47 12-1-10-49.5-13z" fill="#354259"/><path d="M423.932 742.5c-3.151-8.388 4.5-22.5 4.5-22.5s2.037 1.417 3.499 2c1.673.666 4.5 1 4.5 1s-6.831 10.432-4.499 17c2.791 7.861 13.231 4.656 18 11.5 3.743 5.371.191 11.559 5 16 2.438 2.252 7.5 4 7.5 4l3 12.5s-10.801-3.442-15.5-8.5c-5.43-5.844-2.79-12.562-7.5-19-5.35-7.312-15.314-5.518-18.5-14z" fill="#33386F"/><path d="M458.931 725c-9-7.055-22.5-2-22.5-2s-6.817 10.535-4.5 17c2.656 7.41 12.671 3.784 17.5 10 4.51 5.804-.074 13.209 5.5 18 2.782 2.391 8.5 5 8.5 5s-.889-5.438-.5-10.5c1-13 8-28.093-4-37.5z" fill="#2B3068"/><path d="M541.943 355.378c4.807-16.801-11.393-82.026-11.393-82.026l14.448 46.967 13.336 30.769s.746 9.856-.828 15.853c-3.012 11.48-14.615 12.907-18.53 24.112-5.777 16.534 9.768 27.153 6.501 44.357-3.295 17.351-17.913 24.021-22.624 39.185-3.766 12.119-.612 20.672 7.599 30.351C541.195 517.61 576.931 522 576.931 522s0 2.5-.5 7.5c-.383 3.83-1.907 9.5-1.907 9.5s-44.425-6.103-57.513-18.24c-13.286-12.319-20.168-24.633-18.227-42.637 2.137-19.822 22.366-27.248 24.446-48.263 1.39-14.036-7.514-21.811-5.237-35.731 2.871-17.547 19.058-21.655 23.95-38.751z" fill="#33386F"/><path d="M538.02 393.087C541.487 382.293 549.432 376 549.432 376c.999 25.5 8.499 59.5 17.999 89.5 11.626 36.711 9.5 56.5 9.5 56.5s-43.089-1.351-54.451-29.224c-11.361-27.872 22.699-35.256 23.156-60.584.281-15.555-12.373-24.293-7.616-39.105z" fill="#2B3068"/><path d="M465.493 241.362c11.363-5.681 22.7-5.106 32.379 3.121 15.605 13.263 23.797 26.917 23.797 26.917s-13.489 15.387-18.725 26.137c-4.515 9.269-6.466 14.877-8.583 24.967-3.502 16.7-1.723 26.241-1.95 43.302-.486 36.439 5.461 55.785-1.951 93.626-1.494 7.63-8.788 12.974-16.384 11.313-12.484-2.731-31.107-9.559-50.324-17.555-27.24-11.334-43.692-23.797-67.098-34.72-10.648-4.969-18.106-3.321-29.258-7.022-11.335-3.76-18.259-5.309-28.088-12.093-9.487-6.548-20.182-17.118-20.676-21.066-.39-3.121 4.682-1.95 4.682-1.95s-8.696-4.183-7.022-7.802c1.087-2.351 4.617-1.742 7.022-.781 7.802 3.121 19.115 8.973 19.115 8.973s-19.505-15.604-16.385-19.115c2.851-3.207 7.022-.39 10.533 1.56 4.617 2.565 10.923 7.022 10.923 7.022s.026-1.977.78-2.731c1.951-1.95 5.669 1.251 9.363 1.561 3.795.318 6.263-1.527 9.753 0 12.483 5.461 23.406 9.362 29.258 14.824 4.435 4.14 6.832 8.782 11.313 12.873 8.972 8.192 20.285 13.654 38.62 21.456 16.696 7.105 45.253 10.533 45.253 10.533s1.278-20.984 0-34.329c-1.622-16.926-4.115-26.047-11.456-41.383-7.66-16-11.36-35-10-51.463 1.159-14.035 4.538-22.834 12.093-34.719 6.592-10.371 14.434-17.165 23.016-21.456z" fill="#33386F"/><mask id="i" maskUnits="userSpaceOnUse" x="276" y="237" width="246" height="235"><path d="M465.49 241.357c11.362-5.681 22.699-5.106 32.379 3.121 15.604 13.264 23.796 26.917 23.796 26.917s-13.489 15.387-18.725 26.137c-4.515 9.269-6.466 14.877-8.582 24.967-3.503 16.7-1.723 26.241-1.951 43.302-.486 36.439 5.462 55.785-1.95 93.626-1.495 7.63-8.789 12.974-16.385 11.313-12.483-2.731-31.107-9.559-50.324-17.555-27.239-11.334-43.692-23.797-67.098-34.72-10.648-4.969-18.105-3.321-29.258-7.021-11.335-3.761-18.259-5.31-28.088-12.094-9.486-6.548-20.182-17.118-20.675-21.066-.39-3.12 4.681-1.95 4.681-1.95s-8.695-4.183-7.022-7.802c1.087-2.351 4.617-1.742 7.022-.78 7.802 3.12 19.115 8.972 19.115 8.972s-19.505-15.604-16.384-19.115c2.85-3.207 7.022-.39 10.533 1.56 4.617 2.565 10.923 7.022 10.923 7.022s.026-1.976.78-2.731c1.95-1.95 5.669 1.251 9.362 1.561 3.796.318 6.264-1.527 9.753 0 12.483 5.461 23.406 9.362 29.258 14.824 4.435 4.14 6.833 8.782 11.313 12.873 8.973 8.193 20.286 13.654 38.621 21.456 16.695 7.105 45.252 10.533 45.252 10.533s1.278-20.984 0-34.329c-1.621-16.926-4.114-26.047-11.456-41.383-7.659-16-11.36-35-10-51.463 1.159-14.035 4.538-22.834 12.093-34.719 6.593-10.37 14.434-17.165 23.017-21.456z" fill="#465775"/></mask><g mask="url(#i)" fill-opacity=".2"><path d="M554.941 456.185l-45.807 71.601-48.829-59.135-117.118-47.027 2.003-99.625 209.751 134.186z" fill="#000"/><path d="M350.941 365.185l-45.807 71.601-48.829-59.135-117.118-47.027 2.003-99.625 209.751 134.186z" fill="#fff"/></g><ellipse cx="508.431" cy="297" rx="24" ry="35" fill="#33386F"/><path d="M619.166 410.736c-13.135-8.826-19.353-16.839-25.684-31.342-11.629-26.642-65.051-62.79-65.051-62.79l76.643 33.104s5.729 15.205 10.629 24.35c5.808 10.838 8.526 17.745 17.443 26.211 14.023 13.316 45.562 19.393 45.562 19.393s-40.027 4.189-59.542-8.926z" fill="#FF5959"/><path d="M528.431 358.5c-14.689-17.083-35-80.5-35-80.5l36.5 14.5s24.728 54.391 37.5 66c12.803 11.635 33.447 17.273 50.5 20.5 18.5 3.5 50.156 1.711 72 28 6.892 8.294 15.5 30.5 15.5 30.5s-13.367-17.373-22.5-22c-9.198-4.661-14.988-6.028-25-8.5-13.943-3.444-22.311-2.276-36.5-4.5-8.816-1.383-13.853-1.792-22.5-4-30.669-7.835-49.86-16-70.5-40z" fill="#FF7373"/><path d="M640.432 244c-38.983-25.129-77.001-46-77.001-46l47.081 69.56 112.249 29.47s27.174-17.203 45.196-24.199c13.835-5.37 24.475-11.455 39.315-11.337 14.254.113 32.186 11.06 32.186 11.06s-7.425-5.191-12.634-8.42c-7.492-4.644-17.617-8.606-30.692-9.055-31.997-1.099-65.105 9.921-86.2 9.921-19.5 0-57.844-13.487-69.5-21z" fill="#FF5959"/><path d="M641.88 244.556C603.46 218.576 564.931 193 564.931 193l26.339 61.734 116.906 67.321 58.323-27.585s8.755-7.128 15.101-10.486c10.96-5.8 49.331-5.978 49.331-5.978s-34.384-6.827-50.5-2.741-50.774 6.133-75.5 0c-26.436-6.556-48-20.531-63.051-30.709z" fill="#FF7373"/><path d="M433.931 161c-31.488-6.188-37-13-71.499-18-34.143-4.949-49.548-2.744-69 10.499-14.549 9.905-20 27.501-20 40.001-.001 33.541 20 53 20 53s-11.327-19.546-3.501-28c9.201-9.937 24.69 5.497 38 3 15.211-2.855 34.501-20.5 34.501-20.5s30.314 2.437 51 23.069c14.816 14.778 19.163 26.764 34.5 41 33.22 30.837 74.188 19.485 110.999 45.931 19.472 13.989 24.953 26.5 39.001 47.069 24.481 35.847 59.34 47.638 102.5 43 17.5-1.88 43-13.5 43-13.5s-26.501 2.861-43-1.069c-10.652-2.538-24-13.43-24-13.43s17.999 4.5 31.5 4.5c18.55 0 48.178-6.256 64.5-15.07 24.999-13.5 51-43.931 51-43.931s-23.316 17.549-41.001 22.931c-20.922 6.367-55.5-4-55.5-4s27.99-.881 45.501-11.431C792.55 313.95 802.063 290.16 824.431 283c13.948-4.465 31.001.569 31.001.569s-13.928-6.205-24-8c-12.186-2.17-21 0-32.5 5-31.857 13.851-53.666 20.778-88 15.5-35.057-5.388-49.629-25.896-78.5-46.5-25.885-18.471-46.592-43.624-73.501-60.569-22.262-14.019 1.343-.448-21.5-13.5-32.385-18.505-66.9-7.308-103.5-14.5z" fill="#FF9090"/><mask id="j" maskUnits="userSpaceOnUse" x="273" y="140" width="583" height="263"><path d="M433.931 160.996c-31.488-6.188-37-13-71.499-18.001-34.143-4.948-49.548-2.744-69 10.5-14.549 9.905-20 27.5-20 40.001-.001 33.541 20 53 20 53s-11.327-19.547-3.501-28c9.201-9.937 24.69 5.497 38 2.999 15.211-2.854 34.501-20.499 34.501-20.499s30.314 2.437 51 23.069c14.816 14.778 19.163 26.764 34.5 41 33.22 30.837 74.188 19.484 110.999 45.93 19.472 13.989 24.953 26.5 39.001 47.07 24.481 35.847 59.34 47.637 102.5 43 17.5-1.88 43-13.5 43-13.5s-26.501 2.861-43-1.07c-10.652-2.537-24-13.43-24-13.43s17.999 4.5 31.5 4.5c18.55 0 48.178-6.256 64.5-15.07 24.999-13.5 51-43.93 51-43.93s-23.316 17.549-41.001 22.93c-20.922 6.367-55.5-4-55.5-4s27.99-.881 45.501-11.43c20.118-12.12 29.631-35.909 51.999-43.07 13.948-4.464 31.001.57 31.001.57s-13.928-6.206-24-8c-12.186-2.171-21 0-32.5 5-31.857 13.851-53.666 20.778-88 15.5-35.057-5.389-49.629-25.897-78.5-46.5-25.885-18.472-46.592-43.625-73.501-60.57-22.262-14.019 1.343-.447-21.5-13.5-32.385-18.505-66.9-7.307-103.5-14.499z" fill="#DE552E"/></mask><g mask="url(#j)" fill-opacity=".2"><path d="M486.445 321.625l-45.806 71.602-48.829-59.135-117.119-47.028 2.003-99.624 209.751 134.185zm277.238 118.514l-71.299-46.276 59.455-48.439 47.797-116.806 99.609 2.658-135.562 208.863z" fill="#000"/><path d="M532.683 399.139l-71.299-46.276 59.455-48.439 47.798-116.806 99.608 2.658-135.562 208.863z" fill="#000"/><path d="M598.683 442.139l-71.299-46.276 59.455-48.439 47.797-116.806 99.609 2.658-135.562 208.863zM323.384 143.786L342.655 61l65.771 39.438 126.099 5.226L565.9 200.24l-242.516-56.454z" fill="#fff"/></g><path d="M534.431 310.5c-15.5-21.687-47-49.5-47-49.5s48.782 30.689 72 58.5c14.197 17.003 17.017 30.321 31 47.5 10.202 12.532 28.5 30 28.5 30s-18.492-8.078-28.5-16c-8.879-7.03-20-21-20-21s8.529 15.335 15 24.5c8.076 11.436 23 27.5 23 27.5s-25.285-14.313-38-27.5c-22.306-23.135-17.313-47.855-36-74zm-41-108.431c-17.545-6.436-43-21-43-21s26.802 21.504 45.5 33c17.261 10.613 28.085 14.535 46 24 21.551 11.387 55 29.5 55 29.5l-28.5-23.5s22.131 13.306 37 20.5c18.376 8.892 48.5 19.5 48.5 19.5s-30.169-15.75-48.5-27.5c-22.916-14.688-31.068-30.575-56-41.5-20.563-9.01-34.922-5.268-56-13zm24 26c-17.947-9.276-48.5-18-48.5-18s27.728 11.622 44.5 21c31.428 17.572 74 55 74 55s-38.462-41.7-70-58z" fill="#FF9090"/><path d="M338.894 203.233c-1.499 4.708 2.481 12.406 2.481 12.406l28.12 14.887s2.704-7.215 2.481-11.992c-.33-7.076-2.59-11.795-7.443-16.955-4.118-4.378-8.057-6.495-14.06-6.203-6.001.292-9.756 2.132-11.579 7.857z" fill="#33386F"/><path d="M222.729 356.955C223.932 362 224.932 372 224.932 372s-5.073-7.772-8.426-10.981c-4.69-4.487-11.222-1.177-15.466-6.088-6.233-7.214 5.982-16.304.939-24.395-3.201-5.137-12.347-9.371-12.347-9.371s12.596 1.375 17.361 6.899c5.148 5.968-.738 13.37 3.787 19.822 3.364 4.796 10.59 3.37 11.949 9.069z" fill="#6CB2C3"/><path d="M758.457 597.754l-6.278-3.183s-.688 8.527 1.898 15.896c2.384 6.793 8.445 8.161 11.92 7.62 4.942-.769 8.593-3.778 9.015-10.12.493-7.402-1.898-15.896-1.898-15.896l-5.352 4.572-4.728-3.368-4.577 4.479z" fill="#FF9090"/><path d="M35.372 341.458c-1.794-4.935-5.236-13.831 0-13.446 2.73.201 3.374 2.638 5.705 4.074 2 1.233 4.044.865 5.296 2.853 1.358 2.153 1.63 6.519 1.63 6.519s6.455 3.667 9.371 8.148c3.098 4.76 2.852 14.261 2.852 14.261s6.218 8.109 7.741 14.26c1.454 5.869 0 15.482 0 15.482s14.046-11.308 21.594-19.964c9.282-10.643 19.965-30.15 19.965-30.15s1.425 3.65 1.63 6.111c.493 5.921-5.297 14.261-5.297 14.261s1.59 3.387 1.63 5.704c.097 5.665-8.964 11.408-8.964 11.408s.948 5.836 0 9.371c-1.777 6.63-12.223 12.631-12.223 12.631s2.135 3.789 1.222 7.333c-2.466 9.573-22.409 15.89-22.409 15.89l10.594 5.705-7.742 7.333s-14.77 5.978-24.446 4.89c-10.748-1.209-21.594-8.149-24.854-12.223-2.362-2.954-.124-6.385-2.444-9.371C13.103 418.523 4 418.056 4 418.056s3.266-1.046 6.111-2.445c2.972-1.461 4.023-4.481 7.334-4.481 6.112 0 7.741 6.926 19.557 4.481 10.304-2.132 10.698-14.008 9.371-24.446-.996-7.837-7.812-10.998-9.37-18.742-1.545-7.669 2.829-12.235 1.629-19.965-.688-4.427-1.63-6.519-3.26-11z" fill="#fff"/><path d="M85.487 456.762c-14.303-6.633-29.743-27.298-29.743-27.298l8.964-2.037s15.481 4.925 24.853 9.371c8.435 4.001 22.002 11.606 20.78 11.815-4.77.818-12.223-2.037-12.223-2.037s15.075 7.334 11 10.186c-4.074 2.852-23.631-8.149-23.631-8.149s13.038 9.593 9.779 11.001c-3.26 1.409-5.487-.862-9.779-2.852z" fill="#fff"/></mask><g mask="url(#k)" fill-opacity=".05"><path transform="rotate(-90 438 1083)" fill="url(#pattern0)" d="M438 1083h670.745v960H438z"/><path transform="rotate(-90 -522 1083)" fill="url(#pattern1)" d="M-522 1083h671.263v960H-522z"/><path transform="rotate(-90 438 412.254)" fill="url(#pattern2)" d="M438 412.254h714.704v960H438z"/><path transform="rotate(-90 -522 411.703)" fill="url(#pattern3)" d="M-522 411.703h714.704v960H-522z"/></g><defs><filter id="filter0_f" x="412.384" y="236" width="285" height="449" filterUnits="userSpaceOnUse" color-interpolation-filters="sRGB"><feFlood flood-opacity="0" result="BackgroundImageFix"/><feBlend in="SourceGraphic" in2="BackgroundImageFix" result="shape"/><feGaussianBlur stdDeviation="50" result="effect1_foregroundBlur"/></filter><filter id="filter1_f" x="197.384" y="401" width="356.735" height="454.322" filterUnits="userSpaceOnUse" color-interpolation-filters="sRGB"><feFlood flood-opacity="0" result="BackgroundImageFix"/><feBlend in="SourceGraphic" in2="BackgroundImageFix" result="shape"/><feGaussianBlur stdDeviation="50" result="effect1_foregroundBlur"/></filter><filter id="filter2_f" x="416.539" y="169.098" width="556.391" height="400.898" filterUnits="userSpaceOnUse" color-interpolation-filters="sRGB"><feFlood flood-opacity="0" result="BackgroundImageFix"/><feBlend in="SourceGraphic" in2="BackgroundImageFix" result="shape"/><feGaussianBlur stdDeviation="50" result="effect1_foregroundBlur"/></filter><filter id="filter3_f" x="182.188" y="68.282" width="403.392" height="456.436" filterUnits="userSpaceOnUse" color-interpolation-filters="sRGB"><feFlood flood-opacity="0" result="BackgroundImageFix"/><feBlend in="SourceGraphic" in2="BackgroundImageFix" result="shape"/><feGaussianBlur stdDeviation="50" result="effect1_foregroundBlur"/></filter><filter id="filter4_d" x="137.432" y="732" width="71.625" height="48.958" filterUnits="userSpaceOnUse" color-interpolation-filters="sRGB"><feFlood flood-opacity="0" result="BackgroundImageFix"/><feColorMatrix in="SourceAlpha" values="0 0 0 0 0 0 0 0 0 0 0 0 0 0 0 0 0 0 127 0"/><feOffset dy="4"/><feGaussianBlur stdDeviation="2"/><feColorMatrix values="0 0 0 0 0 0 0 0 0 0 0 0 0 0 0 0 0 0 0.25 0"/><feBlend in2="BackgroundImageFix" result="effect1_dropShadow"/><feBlend in="SourceGraphic" in2="effect1_dropShadow" result="shape"/></filter><filter id="filter5_d" x="166.432" y="709" width="44.844" height="40.495" filterUnits="userSpaceOnUse" color-interpolation-filters="sRGB"><feFlood flood-opacity="0" result="BackgroundImageFix"/><feColorMatrix in="SourceAlpha" values="0 0 0 0 0 0 0 0 0 0 0 0 0 0 0 0 0 0 127 0"/><feOffset dy="4"/><feGaussianBlur stdDeviation="2"/><feColorMatrix values="0 0 0 0 0 0 0 0 0 0 0 0 0 0 0 0 0 0 0.25 0"/><feBlend in2="BackgroundImageFix" result="effect1_dropShadow"/><feBlend in="SourceGraphic" in2="effect1_dropShadow" result="shape"/></filter><filter id="filter6_d" x="131" y="569.423" width="48.462" height="32.276" filterUnits="userSpaceOnUse" color-interpolation-filters="sRGB"><feFlood flood-opacity="0" result="BackgroundImageFix"/><feColorMatrix in="SourceAlpha" values="0 0 0 0 0 0 0 0 0 0 0 0 0 0 0 0 0 0 127 0"/><feOffset dy="4"/><feGaussianBlur stdDeviation="2"/><feColorMatrix values="0 0 0 0 0 0 0 0 0 0 0 0 0 0 0 0 0 0 0.25 0"/><feBlend in2="BackgroundImageFix" result="effect1_dropShadow"/><feBlend in="SourceGraphic" in2="effect1_dropShadow" result="shape"/></filter><filter id="filter7_d" x="380.431" y="16" width="59.435" height="71.671" filterUnits="userSpaceOnUse" color-interpolation-filters="sRGB"><feFlood flood-opacity="0" result="BackgroundImageFix"/><feColorMatrix in="SourceAlpha" values="0 0 0 0 0 0 0 0 0 0 0 0 0 0 0 0 0 0 127 0"/><feOffset dy="4"/><feGaussianBlur stdDeviation="2"/><feColorMatrix values="0 0 0 0 0 0 0 0 0 0 0 0 0 0 0 0 0 0 0.25 0"/><feBlend in2="BackgroundImageFix" result="effect1_dropShadow"/><feBlend in="SourceGraphic" in2="effect1_dropShadow" result="shape"/></filter><filter id="filter8_d" x="455.014" y="47.051" width="43.572" height="43.253" filterUnits="userSpaceOnUse" color-interpolation-filters="sRGB"><feFlood flood-opacity="0" result="BackgroundImageFix"/><feColorMatrix in="SourceAlpha" values="0 0 0 0 0 0 0 0 0 0 0 0 0 0 0 0 0 0 127 0"/><feOffset dy="4"/><feGaussianBlur stdDeviation="2.5"/><feColorMatrix values="0 0 0 0 0 0 0 0 0 0 0 0 0 0 0 0 0 0 0.3 0"/><feBlend in2="BackgroundImageFix" result="effect1_dropShadow"/><feBlend in="SourceGraphic" in2="effect1_dropShadow" result="shape"/></filter><filter id="filter9_d" x="145.432" y="490" width="54.542" height="72.102" filterUnits="userSpaceOnUse" color-interpolation-filters="sRGB"><feFlood flood-opacity="0" result="BackgroundImageFix"/><feColorMatrix in="SourceAlpha" values="0 0 0 0 0 0 0 0 0 0 0 0 0 0 0 0 0 0 127 0"/><feOffset dy="4"/><feGaussianBlur stdDeviation="2"/><feColorMatrix values="0 0 0 0 0 0 0 0 0 0 0 0 0 0 0 0 0 0 0.25 0"/><feBlend in2="BackgroundImageFix" result="effect1_dropShadow"/><feBlend in="SourceGraphic" in2="effect1_dropShadow" result="shape"/></filter><filter id="filter10_d" x="575.975" y="615.898" width="54.542" height="72.102" filterUnits="userSpaceOnUse" color-interpolation-filters="sRGB"><feFlood flood-opacity="0" result="BackgroundImageFix"/><feColorMatrix in="SourceAlpha" values="0 0 0 0 0 0 0 0 0 0 0 0 0 0 0 0 0 0 127 0"/><feOffset dy="4"/><feGaussianBlur stdDeviation="2"/><feColorMatrix values="0 0 0 0 0 0 0 0 0 0 0 0 0 0 0 0 0 0 0.25 0"/><feBlend in2="BackgroundImageFix" result="effect1_dropShadow"/><feBlend in="SourceGraphic" in2="effect1_dropShadow" result="shape"/></filter><filter id="filter11_d" x="427.432" y="75" width="54.542" height="72.102" filterUnits="userSpaceOnUse" color-interpolation-filters="sRGB"><feFlood flood-opacity="0" result="BackgroundImageFix"/><feColorMatrix in="SourceAlpha" values="0 0 0 0 0 0 0 0 0 0 0 0 0 0 0 0 0 0 127 0"/><feOffset dy="4"/><feGaussianBlur stdDeviation="2"/><feColorMatrix values="0 0 0 0 0 0 0 0 0 0 0 0 0 0 0 0 0 0 0.25 0"/><feBlend in2="BackgroundImageFix" result="effect1_dropShadow"/><feBlend in="SourceGraphic" in2="effect1_dropShadow" result="shape"/></filter><filter id="filter12_d" x="765.432" y="629" width="46.371" height="50.837" filterUnits="userSpaceOnUse" color-interpolation-filters="sRGB"><feFlood flood-opacity="0" result="BackgroundImageFix"/><feColorMatrix in="SourceAlpha" values="0 0 0 0 0 0 0 0 0 0 0 0 0 0 0 0 0 0 127 0"/><feOffset dy="4"/><feGaussianBlur stdDeviation="2"/><feColorMatrix values="0 0 0 0 0 0 0 0 0 0 0 0 0 0 0 0 0 0 0.25 0"/><feBlend in2="BackgroundImageFix" result="effect1_dropShadow"/><feBlend in="SourceGraphic" in2="effect1_dropShadow" result="shape"/></filter><filter id="filter13_d" x="655.861" y="499.026" width="35.249" height="37.478" filterUnits="userSpaceOnUse" color-interpolation-filters="sRGB"><feFlood flood-opacity="0" result="BackgroundImageFix"/><feColorMatrix in="SourceAlpha" values="0 0 0 0 0 0 0 0 0 0 0 0 0 0 0 0 0 0 127 0"/><feOffset dy="4"/><feGaussianBlur stdDeviation="2.5"/><feColorMatrix values="0 0 0 0 0 0 0 0 0 0 0 0 0 0 0 0 0 0 0.3 0"/><feBlend in2="BackgroundImageFix" result="effect1_dropShadow"/><feBlend in="SourceGraphic" in2="effect1_dropShadow" result="shape"/></filter><filter id="filter14_d" x="168.531" y="602.359" width="37.05" height="34.759" filterUnits="userSpaceOnUse" color-interpolation-filters="sRGB"><feFlood flood-opacity="0" result="BackgroundImageFix"/><feColorMatrix in="SourceAlpha" values="0 0 0 0 0 0 0 0 0 0 0 0 0 0 0 0 0 0 127 0"/><feOffset dy="4"/><feGaussianBlur stdDeviation="2.5"/><feColorMatrix values="0 0 0 0 0 0 0 0 0 0 0 0 0 0 0 0 0 0 0.3 0"/><feBlend in2="BackgroundImageFix" result="effect1_dropShadow"/><feBlend in="SourceGraphic" in2="effect1_dropShadow" result="shape"/></filter><filter id="filter15_d" x="521.087" y="694.759" width="39.739" height="41.242" filterUnits="userSpaceOnUse" color-interpolation-filters="sRGB"><feFlood flood-opacity="0" result="BackgroundImageFix"/><feColorMatrix in="SourceAlpha" values="0 0 0 0 0 0 0 0 0 0 0 0 0 0 0 0 0 0 127 0"/><feOffset dy="4"/><feGaussianBlur stdDeviation="2.5"/><feColorMatrix values="0 0 0 0 0 0 0 0 0 0 0 0 0 0 0 0 0 0 0.3 0"/><feBlend in2="BackgroundImageFix" result="effect1_dropShadow"/><feBlend in="SourceGraphic" in2="effect1_dropShadow" result="shape"/></filter><filter id="filter16_d" x="677.432" y="511" width="47.583" height="71.385" filterUnits="userSpaceOnUse" color-interpolation-filters="sRGB"><feFlood flood-opacity="0" result="BackgroundImageFix"/><feColorMatrix in="SourceAlpha" values="0 0 0 0 0 0 0 0 0 0 0 0 0 0 0 0 0 0 127 0"/><feOffset dy="4"/><feGaussianBlur stdDeviation="2"/><feColorMatrix values="0 0 0 0 0 0 0 0 0 0 0 0 0 0 0 0 0 0 0.25 0"/><feBlend in2="BackgroundImageFix" result="effect1_dropShadow"/><feBlend in="SourceGraphic" in2="effect1_dropShadow" result="shape"/></filter><filter id="filter17_d" x="402.432" y="633" width="47.583" height="71.385" filterUnits="userSpaceOnUse" color-interpolation-filters="sRGB"><feFlood flood-opacity="0" result="BackgroundImageFix"/><feColorMatrix in="SourceAlpha" values="0 0 0 0 0 0 0 0 0 0 0 0 0 0 0 0 0 0 127 0"/><feOffset dy="4"/><feGaussianBlur stdDeviation="2"/><feColorMatrix values="0 0 0 0 0 0 0 0 0 0 0 0 0 0 0 0 0 0 0.25 0"/><feBlend in2="BackgroundImageFix" result="effect1_dropShadow"/><feBlend in="SourceGraphic" in2="effect1_dropShadow" result="shape"/></filter><filter id="filter18_d" x="621.431" y="549" width="69.308" height="65.462" filterUnits="userSpaceOnUse" color-interpolation-filters="sRGB"><feFlood flood-opacity="0" result="BackgroundImageFix"/><feColorMatrix in="SourceAlpha" values="0 0 0 0 0 0 0 0 0 0 0 0 0 0 0 0 0 0 127 0"/><feOffset dy="4"/><feGaussianBlur stdDeviation="2"/><feColorMatrix values="0 0 0 0 0 0 0 0 0 0 0 0 0 0 0 0 0 0 0.25 0"/><feBlend in2="BackgroundImageFix" result="effect1_dropShadow"/><feBlend in="SourceGraphic" in2="effect1_dropShadow" result="shape"/></filter><filter id="filter19_d" x="194.312" y="381" width="47.599" height="29.123" filterUnits="userSpaceOnUse" color-interpolation-filters="sRGB"><feFlood flood-opacity="0" result="BackgroundImageFix"/><feColorMatrix in="SourceAlpha" values="0 0 0 0 0 0 0 0 0 0 0 0 0 0 0 0 0 0 127 0"/><feOffset dy="4"/><feGaussianBlur stdDeviation="2"/><feColorMatrix values="0 0 0 0 0 0 0 0 0 0 0 0 0 0 0 0 0 0 0.25 0"/><feBlend in2="BackgroundImageFix" result="effect1_dropShadow"/><feBlend in="SourceGraphic" in2="effect1_dropShadow" result="shape"/></filter><filter id="filter20_d" x="152.432" y="443" width="40.109" height="41.532" filterUnits="userSpaceOnUse" color-interpolation-filters="sRGB"><feFlood flood-opacity="0" result="BackgroundImageFix"/><feColorMatrix in="SourceAlpha" values="0 0 0 0 0 0 0 0 0 0 0 0 0 0 0 0 0 0 127 0"/><feOffset dy="4"/><feGaussianBlur stdDeviation="2.5"/><feColorMatrix values="0 0 0 0 0 0 0 0 0 0 0 0 0 0 0 0 0 0 0.3 0"/><feBlend in2="BackgroundImageFix" result="effect1_dropShadow"/><feBlend in="SourceGraphic" in2="effect1_dropShadow" result="shape"/></filter><filter id="filter21_d" x="344.702" y="253.697" width="60.229" height="92.303" filterUnits="userSpaceOnUse" color-interpolation-filters="sRGB"><feFlood flood-opacity="0" result="BackgroundImageFix"/><feColorMatrix in="SourceAlpha" values="0 0 0 0 0 0 0 0 0 0 0 0 0 0 0 0 0 0 127 0"/><feOffset dy="4"/><feGaussianBlur stdDeviation="5"/><feColorMatrix values="0 0 0 0 0 0 0 0 0 0 0 0 0 0 0 0 0 0 0.4 0"/><feBlend in2="BackgroundImageFix" result="effect1_dropShadow"/><feBlend in="SourceGraphic" in2="effect1_dropShadow" result="shape"/></filter><filter id="filter22_d" x="162.432" y="290" width="547.01" height="569.131" filterUnits="userSpaceOnUse" color-interpolation-filters="sRGB"><feFlood flood-opacity="0" result="BackgroundImageFix"/><feColorMatrix in="SourceAlpha" values="0 0 0 0 0 0 0 0 0 0 0 0 0 0 0 0 0 0 127 0"/><feOffset dy="4"/><feGaussianBlur stdDeviation="5"/><feColorMatrix values="0 0 0 0 0 0 0 0 0 0 0 0 0 0 0 0 0 0 0.4 0"/><feBlend in2="BackgroundImageFix" result="effect1_dropShadow"/><feBlend in="SourceGraphic" in2="effect1_dropShadow" result="shape"/></filter><filter id="filter23_d" x="372.791" y="246.675" width="65.252" height="106.604" filterUnits="userSpaceOnUse" color-interpolation-filters="sRGB"><feFlood flood-opacity="0" result="BackgroundImageFix"/><feColorMatrix in="SourceAlpha" values="0 0 0 0 0 0 0 0 0 0 0 0 0 0 0 0 0 0 127 0"/><feOffset dy="4"/><feGaussianBlur stdDeviation="5"/><feColorMatrix values="0 0 0 0 0 0 0 0 0 0 0 0 0 0 0 0 0 0 0.4 0"/><feBlend in2="BackgroundImageFix" result="effect1_dropShadow"/><feBlend in="SourceGraphic" in2="effect1_dropShadow" result="shape"/></filter><filter id="filter24_d" x="277.214" y="188.841" width="245.092" height="161.159" filterUnits="userSpaceOnUse" color-interpolation-filters="sRGB"><feFlood flood-opacity="0" result="BackgroundImageFix"/><feColorMatrix in="SourceAlpha" values="0 0 0 0 0 0 0 0 0 0 0 0 0 0 0 0 0 0 127 0"/><feOffset dy="4"/><feGaussianBlur stdDeviation="5"/><feColorMatrix values="0 0 0 0 0 0 0 0 0 0 0 0 0 0 0 0 0 0 0.4 0"/><feBlend in2="BackgroundImageFix" result="effect1_dropShadow"/><feBlend in="SourceGraphic" in2="effect1_dropShadow" result="shape"/></filter><filter id="filter25_f" x="260.384" y="66.999" width="463.047" height="356.37" filterUnits="userSpaceOnUse" color-interpolation-filters="sRGB"><feFlood flood-opacity="0" result="BackgroundImageFix"/><feBlend in="SourceGraphic" in2="BackgroundImageFix" result="shape"/><feGaussianBlur stdDeviation="50" result="effect1_foregroundBlur"/></filter><filter id="filter26_f" x="92.384" y="78.999" width="419.352" height="449.095" filterUnits="userSpaceOnUse" color-interpolation-filters="sRGB"><feFlood flood-opacity="0" result="BackgroundImageFix"/><feBlend in="SourceGraphic" in2="BackgroundImageFix" result="shape"/><feGaussianBlur stdDeviation="50" result="effect1_foregroundBlur"/></filter><filter id="filter27_d" x="253.875" y="265.4" width="332.874" height="494.587" filterUnits="userSpaceOnUse" color-interpolation-filters="sRGB"><feFlood flood-opacity="0" result="BackgroundImageFix"/><feColorMatrix in="SourceAlpha" values="0 0 0 0 0 0 0 0 0 0 0 0 0 0 0 0 0 0 127 0"/><feOffset dy="4"/><feGaussianBlur stdDeviation="5"/><feColorMatrix values="0 0 0 0 0 0 0 0 0 0 0 0 0 0 0 0 0 0 0.4 0"/><feBlend in2="BackgroundImageFix" result="effect1_dropShadow"/><feBlend in="SourceGraphic" in2="effect1_dropShadow" result="shape"/></filter><filter id="filter28_f" x="266.384" y="469" width="453.493" height="299.238" filterUnits="userSpaceOnUse" color-interpolation-filters="sRGB"><feFlood flood-opacity="0" result="BackgroundImageFix"/><feBlend in="SourceGraphic" in2="BackgroundImageFix" result="shape"/><feGaussianBlur stdDeviation="50" result="effect1_foregroundBlur"/></filter><filter id="filter29_f" x="23.384" y="613" width="453.493" height="299.238" filterUnits="userSpaceOnUse" color-interpolation-filters="sRGB"><feFlood flood-opacity="0" result="BackgroundImageFix"/><feBlend in="SourceGraphic" in2="BackgroundImageFix" result="shape"/><feGaussianBlur stdDeviation="50" result="effect1_foregroundBlur"/></filter><filter id="filter30_f" x="61.384" y="386" width="453.493" height="299.238" filterUnits="userSpaceOnUse" color-interpolation-filters="sRGB"><feFlood flood-opacity="0" result="BackgroundImageFix"/><feBlend in="SourceGraphic" in2="BackgroundImageFix" result="shape"/><feGaussianBlur stdDeviation="50" result="effect1_foregroundBlur"/></filter><filter id="filter31_i" x="261.399" y="420.5" width="43.532" height="87.5" filterUnits="userSpaceOnUse" color-interpolation-filters="sRGB"><feFlood flood-opacity="0" result="BackgroundImageFix"/><feBlend in="SourceGraphic" in2="BackgroundImageFix" result="shape"/><feColorMatrix in="SourceAlpha" values="0 0 0 0 0 0 0 0 0 0 0 0 0 0 0 0 0 0 127 0" result="hardAlpha"/><feOffset dx="-3"/><feGaussianBlur stdDeviation="3"/><feComposite in2="hardAlpha" operator="arithmetic" k2="-1" k3="1"/><feColorMatrix values="0 0 0 0 0 0 0 0 0 0 0 0 0 0 0 0 0 0 0.3 0"/><feBlend in2="shape" result="effect1_innerShadow"/></filter><filter id="filter32_i" x="260.432" y="419" width="41.501" height="64.5" filterUnits="userSpaceOnUse" color-interpolation-filters="sRGB"><feFlood flood-opacity="0" result="BackgroundImageFix"/><feBlend in="SourceGraphic" in2="BackgroundImageFix" result="shape"/><feColorMatrix in="SourceAlpha" values="0 0 0 0 0 0 0 0 0 0 0 0 0 0 0 0 0 0 127 0" result="hardAlpha"/><feOffset dx="-3"/><feGaussianBlur stdDeviation="3"/><feComposite in2="hardAlpha" operator="arithmetic" k2="-1" k3="1"/><feColorMatrix values="0 0 0 0 0 0 0 0 0 0 0 0 0 0 0 0 0 0 0.3 0"/><feBlend in2="shape" result="effect1_innerShadow"/></filter><filter id="filter33_i" x="264.432" y="438" width="39.5" height="70" filterUnits="userSpaceOnUse" color-interpolation-filters="sRGB"><feFlood flood-opacity="0" result="BackgroundImageFix"/><feBlend in="SourceGraphic" in2="BackgroundImageFix" result="shape"/><feColorMatrix in="SourceAlpha" values="0 0 0 0 0 0 0 0 0 0 0 0 0 0 0 0 0 0 127 0" result="hardAlpha"/><feOffset dy="-4"/><feGaussianBlur stdDeviation="2"/><feComposite in2="hardAlpha" operator="arithmetic" k2="-1" k3="1"/><feColorMatrix values="0 0 0 0 0 0 0 0 0 0 0 0 0 0 0 0 0 0 0.4 0"/><feBlend in2="shape" result="effect1_innerShadow"/></filter><filter id="filter34_d" x="272.727" y="310.697" width="222.668" height="225.569" filterUnits="userSpaceOnUse" color-interpolation-filters="sRGB"><feFlood flood-opacity="0" result="BackgroundImageFix"/><feColorMatrix in="SourceAlpha" values="0 0 0 0 0 0 0 0 0 0 0 0 0 0 0 0 0 0 127 0"/><feOffset dy="4"/><feGaussianBlur stdDeviation="5"/><feColorMatrix values="0 0 0 0 0 0 0 0 0 0 0 0 0 0 0 0 0 0 0.4 0"/><feBlend in2="BackgroundImageFix" result="effect1_dropShadow"/><feBlend in="SourceGraphic" in2="effect1_dropShadow" result="shape"/></filter><filter id="filter35_f" x="261.384" y="106" width="412.565" height="452.668" filterUnits="userSpaceOnUse" color-interpolation-filters="sRGB"><feFlood flood-opacity="0" result="BackgroundImageFix"/><feBlend in="SourceGraphic" in2="BackgroundImageFix" result="shape"/><feGaussianBlur stdDeviation="50" result="effect1_foregroundBlur"/></filter><filter id="filter36_d" x="257.431" y="301" width="117.386" height="108.965" filterUnits="userSpaceOnUse" color-interpolation-filters="sRGB"><feFlood flood-opacity="0" result="BackgroundImageFix"/><feColorMatrix in="SourceAlpha" values="0 0 0 0 0 0 0 0 0 0 0 0 0 0 0 0 0 0 127 0"/><feOffset dy="4"/><feGaussianBlur stdDeviation="5"/><feColorMatrix values="0 0 0 0 0 0 0 0 0 0 0 0 0 0 0 0 0 0 0.4 0"/><feBlend in2="BackgroundImageFix" result="effect1_dropShadow"/><feBlend in="SourceGraphic" in2="effect1_dropShadow" result="shape"/></filter><filter id="filter37_f" x="270.932" y="333" width="90.5" height="63" filterUnits="userSpaceOnUse" color-interpolation-filters="sRGB"><feFlood flood-opacity="0" result="BackgroundImageFix"/><feBlend in="SourceGraphic" in2="BackgroundImageFix" result="shape"/><feGaussianBlur stdDeviation="10" result="effect1_foregroundBlur"/></filter><filter id="filter38_i" x="423.171" y="716" width="42.261" height="68" filterUnits="userSpaceOnUse" color-interpolation-filters="sRGB"><feFlood flood-opacity="0" result="BackgroundImageFix"/><feBlend in="SourceGraphic" in2="BackgroundImageFix" result="shape"/><feColorMatrix in="SourceAlpha" values="0 0 0 0 0 0 0 0 0 0 0 0 0 0 0 0 0 0 127 0" result="hardAlpha"/><feOffset dy="-4"/><feGaussianBlur stdDeviation="2"/><feComposite in2="hardAlpha" operator="arithmetic" k2="-1" k3="1"/><feColorMatrix values="0 0 0 0 0 0 0 0 0 0 0 0 0 0 0 0 0 0 0.25 0"/><feBlend in2="shape" result="effect1_innerShadow"/></filter><filter id="filter39_i" x="431.451" y="717.247" width="34.416" height="55.754" filterUnits="userSpaceOnUse" color-interpolation-filters="sRGB"><feFlood flood-opacity="0" result="BackgroundImageFix"/><feBlend in="SourceGraphic" in2="BackgroundImageFix" result="shape"/><feColorMatrix in="SourceAlpha" values="0 0 0 0 0 0 0 0 0 0 0 0 0 0 0 0 0 0 127 0" result="hardAlpha"/><feOffset dy="-4"/><feGaussianBlur stdDeviation="2"/><feComposite in2="hardAlpha" operator="arithmetic" k2="-1" k3="1"/><feColorMatrix values="0 0 0 0 0 0 0 0 0 0 0 0 0 0 0 0 0 0 0.25 0"/><feBlend in2="shape" result="effect1_innerShadow"/></filter><filter id="filter40_i" x="468.432" y="271" width="121.205" height="281.828" filterUnits="userSpaceOnUse" color-interpolation-filters="sRGB"><feFlood flood-opacity="0" result="BackgroundImageFix"/><feBlend in="SourceGraphic" in2="BackgroundImageFix" result="shape"/><feColorMatrix in="SourceAlpha" values="0 0 0 0 0 0 0 0 0 0 0 0 0 0 0 0 0 0 127 0" result="hardAlpha"/><feOffset dx="4" dy="4"/><feGaussianBlur stdDeviation="2"/><feComposite in2="hardAlpha" operator="arithmetic" k2="-1" k3="1"/><feColorMatrix values="0 0 0 0 0 0 0 0 0 0 0 0 0 0 0 0 0 0 0.25 0"/><feBlend in2="shape" result="effect1_innerShadow"/></filter><filter id="filter41_i" x="505.324" y="374.851" width="77.479" height="158.49" filterUnits="userSpaceOnUse" color-interpolation-filters="sRGB"><feFlood flood-opacity="0" result="BackgroundImageFix"/><feBlend in="SourceGraphic" in2="BackgroundImageFix" result="shape"/><feColorMatrix in="SourceAlpha" values="0 0 0 0 0 0 0 0 0 0 0 0 0 0 0 0 0 0 127 0" result="hardAlpha"/><feOffset dx="5" dy="4"/><feGaussianBlur stdDeviation="2"/><feComposite in2="hardAlpha" operator="arithmetic" k2="-1" k3="1"/><feColorMatrix values="0 0 0 0 0 0 0 0 0 0 0 0 0 0 0 0 0 0 0.25 0"/><feBlend in2="shape" result="effect1_innerShadow"/></filter><filter id="filter42_d" x="266.078" y="231.614" width="265.591" height="253.434" filterUnits="userSpaceOnUse" color-interpolation-filters="sRGB"><feFlood flood-opacity="0" result="BackgroundImageFix"/><feColorMatrix in="SourceAlpha" values="0 0 0 0 0 0 0 0 0 0 0 0 0 0 0 0 0 0 127 0"/><feOffset dy="4"/><feGaussianBlur stdDeviation="5"/><feColorMatrix values="0 0 0 0 0 0 0 0 0 0 0 0 0 0 0 0 0 0 0.4 0"/><feBlend in2="BackgroundImageFix" result="effect1_dropShadow"/><feBlend in="SourceGraphic" in2="effect1_dropShadow" result="shape"/></filter><filter id="filter43_f" x="199.384" y="222" width="455.557" height="405.787" filterUnits="userSpaceOnUse" color-interpolation-filters="sRGB"><feFlood flood-opacity="0" result="BackgroundImageFix"/><feBlend in="SourceGraphic" in2="BackgroundImageFix" result="shape"/><feGaussianBlur stdDeviation="50" result="effect1_foregroundBlur"/></filter><filter id="filter44_f" x="-4.616" y="131" width="455.557" height="405.787" filterUnits="userSpaceOnUse" color-interpolation-filters="sRGB"><feFlood flood-opacity="0" result="BackgroundImageFix"/><feBlend in="SourceGraphic" in2="BackgroundImageFix" result="shape"/><feGaussianBlur stdDeviation="50" result="effect1_foregroundBlur"/></filter><filter id="filter45_d" x="518.432" y="272" width="170.277" height="200.267" filterUnits="userSpaceOnUse" color-interpolation-filters="sRGB"><feFlood flood-opacity="0" result="BackgroundImageFix"/><feColorMatrix in="SourceAlpha" values="0 0 0 0 0 0 0 0 0 0 0 0 0 0 0 0 0 0 127 0"/><feOffset dy="4"/><feGaussianBlur stdDeviation="5"/><feColorMatrix values="0 0 0 0 0 0 0 0 0 0 0 0 0 0 0 0 0 0 0.4 0"/><feBlend in2="BackgroundImageFix" result="effect1_dropShadow"/><feBlend in="SourceGraphic" in2="effect1_dropShadow" result="shape"/></filter><filter id="filter46_d" x="483.432" y="272" width="232" height="179.5" filterUnits="userSpaceOnUse" color-interpolation-filters="sRGB"><feFlood flood-opacity="0" result="BackgroundImageFix"/><feColorMatrix in="SourceAlpha" values="0 0 0 0 0 0 0 0 0 0 0 0 0 0 0 0 0 0 127 0"/><feOffset dy="4"/><feGaussianBlur stdDeviation="5"/><feColorMatrix values="0 0 0 0 0 0 0 0 0 0 0 0 0 0 0 0 0 0 0.4 0"/><feBlend in2="BackgroundImageFix" result="effect1_dropShadow"/><feBlend in="SourceGraphic" in2="effect1_dropShadow" result="shape"/></filter><filter id="filter47_d" x="538.321" y="179.318" width="313.009" height="164.784" filterUnits="userSpaceOnUse" color-interpolation-filters="sRGB"><feFlood flood-opacity="0" result="BackgroundImageFix"/><feColorMatrix in="SourceAlpha" values="0 0 0 0 0 0 0 0 0 0 0 0 0 0 0 0 0 0 127 0"/><feOffset dy="4"/><feGaussianBlur stdDeviation="5"/><feColorMatrix values="0 0 0 0 0 0 0 0 0 0 0 0 0 0 0 0 0 0 0.4 0"/><feBlend in2="BackgroundImageFix" result="effect1_dropShadow"/><feBlend in="SourceGraphic" in2="effect1_dropShadow" result="shape"/></filter><filter id="filter48_d" x="536.9" y="187" width="310.499" height="169.112" filterUnits="userSpaceOnUse" color-interpolation-filters="sRGB"><feFlood flood-opacity="0" result="BackgroundImageFix"/><feColorMatrix in="SourceAlpha" values="0 0 0 0 0 0 0 0 0 0 0 0 0 0 0 0 0 0 127 0"/><feOffset dy="4"/><feGaussianBlur stdDeviation="5"/><feColorMatrix values="0 0 0 0 0 0 0 0 0 0 0 0 0 0 0 0 0 0 0.4 0"/><feBlend in2="BackgroundImageFix" result="effect1_dropShadow"/><feBlend in="SourceGraphic" in2="effect1_dropShadow" result="shape"/></filter><filter id="filter49_d" x="263.432" y="134.574" width="602" height="281.457" filterUnits="userSpaceOnUse" color-interpolation-filters="sRGB"><feFlood flood-opacity="0" result="BackgroundImageFix"/><feColorMatrix in="SourceAlpha" values="0 0 0 0 0 0 0 0 0 0 0 0 0 0 0 0 0 0 127 0"/><feOffset dy="4"/><feGaussianBlur stdDeviation="5"/><feColorMatrix values="0 0 0 0 0 0 0 0 0 0 0 0 0 0 0 0 0 0 0.4 0"/><feBlend in2="BackgroundImageFix" result="effect1_dropShadow"/><feBlend in="SourceGraphic" in2="effect1_dropShadow" result="shape"/></filter><filter id="filter50_f" x="130.888" y="87.44" width="455.557" height="405.787" filterUnits="userSpaceOnUse" color-interpolation-filters="sRGB"><feFlood flood-opacity="0" result="BackgroundImageFix"/><feBlend in="SourceGraphic" in2="BackgroundImageFix" result="shape"/><feGaussianBlur stdDeviation="50" result="effect1_foregroundBlur"/></filter><filter id="filter51_f" x="592.384" y="84.999" width="406.861" height="455.139" filterUnits="userSpaceOnUse" color-interpolation-filters="sRGB"><feFlood flood-opacity="0" result="BackgroundImageFix"/><feBlend in="SourceGraphic" in2="BackgroundImageFix" result="shape"/><feGaussianBlur stdDeviation="50" result="effect1_foregroundBlur"/></filter><filter id="filter52_f" x="361.385" y="43.999" width="406.861" height="455.139" filterUnits="userSpaceOnUse" color-interpolation-filters="sRGB"><feFlood flood-opacity="0" result="BackgroundImageFix"/><feBlend in="SourceGraphic" in2="BackgroundImageFix" result="shape"/><feGaussianBlur stdDeviation="50" result="effect1_foregroundBlur"/></filter><filter id="filter53_f" x="427.384" y="86.999" width="406.861" height="455.139" filterUnits="userSpaceOnUse" color-interpolation-filters="sRGB"><feFlood flood-opacity="0" result="BackgroundImageFix"/><feBlend in="SourceGraphic" in2="BackgroundImageFix" result="shape"/><feGaussianBlur stdDeviation="50" result="effect1_foregroundBlur"/></filter><filter id="filter54_f" x="223.384" y="-39.001" width="461.787" height="339.24" filterUnits="userSpaceOnUse" color-interpolation-filters="sRGB"><feFlood flood-opacity="0" result="BackgroundImageFix"/><feBlend in="SourceGraphic" in2="BackgroundImageFix" result="shape"/><feGaussianBlur stdDeviation="50" result="effect1_foregroundBlur"/></filter><filter id="filter55_d" x="477.432" y="255" width="151.5" height="171" filterUnits="userSpaceOnUse" color-interpolation-filters="sRGB"><feFlood flood-opacity="0" result="BackgroundImageFix"/><feColorMatrix in="SourceAlpha" values="0 0 0 0 0 0 0 0 0 0 0 0 0 0 0 0 0 0 127 0"/><feOffset dy="4"/><feGaussianBlur stdDeviation="5"/><feColorMatrix values="0 0 0 0 0 0 0 0 0 0 0 0 0 0 0 0 0 0 0.4 0"/><feBlend in2="BackgroundImageFix" result="effect1_dropShadow"/><feBlend in="SourceGraphic" in2="effect1_dropShadow" result="shape"/></filter><filter id="filter56_d" x="440.432" y="175.069" width="223.5" height="123" filterUnits="userSpaceOnUse" color-interpolation-filters="sRGB"><feFlood flood-opacity="0" result="BackgroundImageFix"/><feColorMatrix in="SourceAlpha" values="0 0 0 0 0 0 0 0 0 0 0 0 0 0 0 0 0 0 127 0"/><feOffset dy="4"/><feGaussianBlur stdDeviation="5"/><feColorMatrix values="0 0 0 0 0 0 0 0 0 0 0 0 0 0 0 0 0 0 0.4 0"/><feBlend in2="BackgroundImageFix" result="effect1_dropShadow"/><feBlend in="SourceGraphic" in2="effect1_dropShadow" result="shape"/></filter><filter id="filter57_d" x="458.932" y="204.069" width="138.5" height="96" filterUnits="userSpaceOnUse" color-interpolation-filters="sRGB"><feFlood flood-opacity="0" result="BackgroundImageFix"/><feColorMatrix in="SourceAlpha" values="0 0 0 0 0 0 0 0 0 0 0 0 0 0 0 0 0 0 127 0"/><feOffset dy="4"/><feGaussianBlur stdDeviation="5"/><feColorMatrix values="0 0 0 0 0 0 0 0 0 0 0 0 0 0 0 0 0 0 0.4 0"/><feBlend in2="BackgroundImageFix" result="effect1_dropShadow"/><feBlend in="SourceGraphic" in2="effect1_dropShadow" result="shape"/></filter><filter id="filter58_d" x="335.557" y="189.35" width="39.433" height="41.176" filterUnits="userSpaceOnUse" color-interpolation-filters="sRGB"><feFlood flood-opacity="0" result="BackgroundImageFix"/><feColorMatrix in="SourceAlpha" values="0 0 0 0 0 0 0 0 0 0 0 0 0 0 0 0 0 0 127 0"/><feOffset dy="-3"/><feGaussianBlur stdDeviation="1.5"/><feColorMatrix values="0 0 0 0 0 0 0 0 0 0 0 0 0 0 0 0 0 0 0.4 0"/><feBlend in2="BackgroundImageFix" result="effect1_dropShadow"/><feBlend in="SourceGraphic" in2="effect1_dropShadow" result="shape"/></filter><filter id="filter59_d" x="173.432" y="317" width="70.241" height="63.82" filterUnits="userSpaceOnUse" color-interpolation-filters="sRGB"><feFlood flood-opacity="0" result="BackgroundImageFix"/><feColorMatrix in="SourceAlpha" values="0 0 0 0 0 0 0 0 0 0 0 0 0 0 0 0 0 0 127 0"/><feOffset dy="4"/><feGaussianBlur stdDeviation="2"/><feColorMatrix values="0 0 0 0 0 0 0 0 0 0 0 0 0 0 0 0 0 0 0.25 0"/><feBlend in2="BackgroundImageFix" result="effect1_dropShadow"/><feBlend in="SourceGraphic" in2="effect1_dropShadow" result="shape"/></filter><filter id="filter60_d" x="746.432" y="591" width="35.249" height="37.478" filterUnits="userSpaceOnUse" color-interpolation-filters="sRGB"><feFlood flood-opacity="0" result="BackgroundImageFix"/><feColorMatrix in="SourceAlpha" values="0 0 0 0 0 0 0 0 0 0 0 0 0 0 0 0 0 0 127 0"/><feOffset dy="4"/><feGaussianBlur stdDeviation="2.5"/><feColorMatrix values="0 0 0 0 0 0 0 0 0 0 0 0 0 0 0 0 0 0 0.3 0"/><feBlend in2="BackgroundImageFix" result="effect1_dropShadow"/><feBlend in="SourceGraphic" in2="effect1_dropShadow" result="shape"/></filter><filter id="filter61_d" x="0" y="328" width="115.186" height="124.264" filterUnits="userSpaceOnUse" color-interpolation-filters="sRGB"><feFlood flood-opacity="0" result="BackgroundImageFix"/><feColorMatrix in="SourceAlpha" values="0 0 0 0 0 0 0 0 0 0 0 0 0 0 0 0 0 0 127 0"/><feOffset dy="4"/><feGaussianBlur stdDeviation="2"/><feColorMatrix values="0 0 0 0 0 0 0 0 0 0 0 0 0 0 0 0 0 0 0.25 0"/><feBlend in2="BackgroundImageFix" result="effect1_dropShadow"/><feBlend in="SourceGraphic" in2="effect1_dropShadow" result="shape"/></filter><filter id="filter62_d" x="51.744" y="427.427" width="62.674" height="40.625" filterUnits="userSpaceOnUse" color-interpolation-filters="sRGB"><feFlood flood-opacity="0" result="BackgroundImageFix"/><feColorMatrix in="SourceAlpha" values="0 0 0 0 0 0 0 0 0 0 0 0 0 0 0 0 0 0 127 0"/><feOffset dy="4"/><feGaussianBlur stdDeviation="2"/><feColorMatrix values="0 0 0 0 0 0 0 0 0 0 0 0 0 0 0 0 0 0 0.25 0"/><feBlend in2="BackgroundImageFix" result="effect1_dropShadow"/><feBlend in="SourceGraphic" in2="effect1_dropShadow" result="shape"/></filter><pattern id="pattern0" patternContentUnits="objectBoundingBox" width="1" height="1"><use xlink:href="#image0" transform="matrix(.00133 0 0 .00093 -.772 0)"/></pattern><pattern id="pattern1" patternContentUnits="objectBoundingBox" width="1" height="1"><use xlink:href="#image0" transform="matrix(.00132 0 0 .00093 -.771 0)"/></pattern><pattern id="pattern2" patternContentUnits="objectBoundingBox" width="1" height="1"><use xlink:href="#image0" transform="matrix(.00124 0 0 .00093 -.694 0)"/></pattern><pattern id="pattern3" patternContentUnits="objectBoundingBox" width="1" height="1"><use xlink:href="#image0" transform="matrix(.00124 0 0 .00093 -.694 0)"/></pattern></defs></svg>