<svg width="180" height="206" viewBox="0 0 180 206" fill="none" xmlns="http://www.w3.org/2000/svg">
<path d="M114.431 5.11812C114.431 5.11812 87.4518 16.8257 73.3538 28.8434C68.9489 32.5983 66.471 35.0883 62.6366 39.0813C45.9104 56.4994 32.4866 87.8765 32.1001 99.9336C31.3823 122.323 38.922 134.446 47.1478 155.282C49.9135 162.288 57.7862 175.86 62.2511 185.484C64.3997 192.327 64.1426 196.011 63.622 197.838C63.1523 198.826 62.8601 199.404 62.8601 199.404C62.8601 199.404 63.2935 198.991 63.622 197.838C65.5441 193.796 70.4392 182.885 70.4546 176.582C70.4803 166.102 65.8042 158.423 65.6238 147.944C65.1184 118.592 89.7124 106.808 87.1892 77.5602C85.7315 60.6629 74.2215 48.9426 81.2281 32.7309C85.9852 21.724 117.21 11.9616 117.21 11.9616L114.431 5.11812Z" fill="#6CB2C3"/>
<mask id="mask0" mask-type="alpha" maskUnits="userSpaceOnUse" x="32" y="4" width="86" height="196">
<path d="M114.674 4.95015C114.674 4.95015 87.695 16.6577 73.5969 28.6754C69.1921 32.4303 66.7141 34.9203 62.8798 38.9133C46.1536 56.3314 32.7298 87.7085 32.3432 99.7656C31.6254 122.155 39.1652 134.278 47.3909 155.114C50.1567 162.12 58.0293 175.692 62.4943 185.316C64.6429 192.159 64.3858 195.843 63.8652 197.67C63.3955 198.658 63.1033 199.236 63.1033 199.236C63.1033 199.236 63.5367 198.823 63.8652 197.67C65.7873 193.628 70.6824 182.717 70.6978 176.414C70.7234 165.934 66.0474 158.255 65.867 147.776C65.3616 118.424 89.9555 106.64 87.4323 77.3922C85.9746 60.4949 74.4647 48.7747 81.4712 32.563C86.2284 21.556 117.453 11.7936 117.453 11.7936L114.674 4.95015Z" fill="#AEB4A9"/>
</mask>
<g mask="url(#mask0)">
<g filter="url(#filter0_f)">
<path d="M-36.7525 214.049C-42.4234 193.396 -39.0025 174.872 -25.0281 152.16C2.97956 106.639 52.3528 123.046 89.3067 138.39C133.162 156.6 158.165 217.986 146.836 248.533C140.683 265.123 131.596 274.317 117.424 285.447C77.0066 317.189 61.6064 261.09 26.3894 244.572C1.56254 232.927 -28.9217 242.568 -36.7525 214.049Z" fill="black" fill-opacity="0.2"/>
</g>
<g filter="url(#filter1_f)">
<path d="M32.5566 2.73001C26.8857 -17.9226 30.3066 -36.4468 44.281 -59.1592C72.2886 -104.679 121.662 -88.2723 158.616 -72.9286C202.472 -54.719 227.474 6.66762 216.145 37.2144C209.992 53.8042 200.905 62.9985 186.733 74.1283C146.316 105.87 130.916 49.7715 95.6984 33.253C70.8716 21.6081 40.3874 31.2488 32.5566 2.73001Z" fill="black" fill-opacity="0.2"/>
</g>
</g>
<g filter="url(#filter2_i)">
<path d="M67.6881 137.33C70.7995 121.828 80.2158 116.671 85.6247 99.8706C94.0039 73.8449 82.0828 65.1221 80.2452 51.5573C78.2408 36.7612 81.8366 31.5481 81.8366 31.5481C81.8366 31.5481 76.2891 37.6532 75.7122 51.8696C75.2362 63.6005 76.8401 71.3584 73.2626 88.286C70.2067 102.745 59.7838 112.148 55.5398 117.778C46.0333 130.389 42.3652 138.524 50.2546 159.286C53.8582 168.769 58.1992 177.351 61.5763 184.026C65.6707 192.119 62.4924 200.41 62.4924 200.41C62.4924 200.41 70.4059 185.147 70.7507 177.312C71.4391 161.668 64.6067 152.684 67.6881 137.33Z" fill="#E0C1B3"/>
</g>
<defs>
<filter id="filter0_f" x="-119.363" y="42.4404" width="348.918" height="332.566" filterUnits="userSpaceOnUse" color-interpolation-filters="sRGB">
<feFlood flood-opacity="0" result="BackgroundImageFix"/>
<feBlend mode="normal" in="SourceGraphic" in2="BackgroundImageFix" result="shape"/>
<feGaussianBlur stdDeviation="40" result="effect1_foregroundBlur"/>
</filter>
<filter id="filter1_f" x="-50.0537" y="-168.878" width="348.918" height="332.566" filterUnits="userSpaceOnUse" color-interpolation-filters="sRGB">
<feFlood flood-opacity="0" result="BackgroundImageFix"/>
<feBlend mode="normal" in="SourceGraphic" in2="BackgroundImageFix" result="shape"/>
<feGaussianBlur stdDeviation="40" result="effect1_foregroundBlur"/>
</filter>
<filter id="filter2_i" x="45.9531" y="31.5481" width="52.6253" height="172.862" filterUnits="userSpaceOnUse" color-interpolation-filters="sRGB">
<feFlood flood-opacity="0" result="BackgroundImageFix"/>
<feBlend mode="normal" in="SourceGraphic" in2="BackgroundImageFix" result="shape"/>
<feColorMatrix in="SourceAlpha" type="matrix" values="0 0 0 0 0 0 0 0 0 0 0 0 0 0 0 0 0 0 127 0" result="hardAlpha"/>
<feOffset dx="10" dy="4"/>
<feGaussianBlur stdDeviation="5"/>
<feComposite in2="hardAlpha" operator="arithmetic" k2="-1" k3="1"/>
<feColorMatrix type="matrix" values="0 0 0 0 0 0 0 0 0 0 0 0 0 0 0 0 0 0 0.4 0"/>
<feBlend mode="normal" in2="shape" result="effect1_innerShadow"/>
</filter>
</defs>
</svg>
