<svg width="537" height="384" viewBox="0 0 537 384" fill="none" xmlns="http://www.w3.org/2000/svg">
<path d="M317.202 57.8255C314.884 51.2541 310 41.5001 310 41.5001L290.578 51.8639C290.578 51.8639 295.289 60.3237 297.712 66.0205C311.546 98.5477 285.913 122.828 313.799 154.662C335.546 179.488 368.801 151.854 393.954 173.222C421.811 196.888 394.467 239.575 423.667 261.563C452.195 283.046 490.908 249.821 516.705 265.95C535.027 277.406 524.891 302.959 543.112 314.575C553.567 321.24 573.573 323.527 573.573 323.527L574.203 294.765C574.203 294.765 567.505 295.101 560.091 292.405C540.062 285.123 547.927 261.058 530.942 248.186C505.728 229.078 473.099 259.723 446.117 243.203C412.37 222.54 443.844 171.214 411.931 147.818C386.036 128.834 353.531 153.575 332.821 134.749C310.095 114.09 327.42 86.7882 317.202 57.8255Z" fill="#3B417F"/>
<path d="M277.554 97.0243C275.235 90.4529 270.351 80.6989 270.351 80.6989L250.93 91.0626C250.93 91.0626 255.64 99.5224 258.063 105.219C271.898 137.746 245.897 167.784 273.783 199.618C295.53 224.444 328.785 196.81 353.938 218.178C381.795 241.844 354.451 284.531 383.651 306.519C412.179 328.002 450.892 294.777 476.689 310.906C495.011 322.362 492.318 355.933 510.539 367.548C520.994 374.213 541 376.5 541 376.5L541.631 347.738C541.631 347.738 534.932 348.074 527.518 345.379C507.49 338.097 507.911 306.015 490.926 293.143C465.712 274.034 433.083 304.679 406.101 288.159C372.354 267.496 403.828 216.17 371.915 192.774C346.02 173.79 313.515 198.531 292.805 179.705C270.079 159.046 287.771 125.987 277.554 97.0243Z" fill="#3B417F"/>
<path d="M371.543 93.7712C349.638 68.7778 399.901 28.7389 399.901 28.7389L336.061 12.9577C336.061 12.9577 351.11 38.3465 352.402 47.4759C355.652 70.4461 332.666 102.07 356.975 117.432C375.529 129.158 409.055 108.534 434.895 126.32C467.555 148.8 430.327 202.654 473.292 224.186C498.71 236.924 527.336 209.506 551.176 224.998C569.25 236.743 566.177 267.661 576.482 273.892C583.295 278.012 596.153 281.317 596.153 281.317L596.963 250.956C596.963 250.956 591.49 252.679 584.527 248.077C572.838 240.352 578.154 214.141 557.4 203.741C532.125 191.074 506.839 221.451 483.547 205.426C454.519 185.454 485.368 132.084 450.544 108.219C427.144 92.1826 388.098 112.659 371.543 93.7712Z" fill="#3B417F"/>
<path d="M25.1817 225.973C3.27587 200.98 3.6567 139.973 3.6567 139.973L-17.2575 156.931C-17.2575 156.931 -2.20773 182.32 -0.916073 191.449C2.33384 214.419 -4.12647 236.83 20.1817 252.192C38.7362 263.918 55.7373 252.507 81.5773 270.293C114.237 292.774 77.0085 346.628 119.973 368.159C145.391 380.897 174.017 353.48 197.857 368.971C215.932 380.716 205.377 419.059 215.682 425.29C222.495 429.41 242.835 425.29 242.835 425.29L243.645 394.929C243.645 394.929 238.172 396.652 231.209 392.051C219.519 384.325 224.836 358.114 204.082 347.714C178.806 335.047 153.521 365.424 130.229 349.399C101.201 329.427 132.049 276.058 97.2259 252.192C73.8263 236.156 41.736 244.861 25.1817 225.973Z" fill="#3B417F"/>
</svg>
