<svg width="367" height="439" viewBox="0 0 367 439" fill="none" xmlns="http://www.w3.org/2000/svg">
<g filter="url(#filter0_i)">
<path d="M87.1934 185.173C79.056 196.67 58.2649 213.193 58.2649 213.193L65.01 215.898L86.347 195.818C86.347 195.818 105.432 184.353 122.604 186.257C157.595 190.135 183.282 202.621 205.063 195.931C216.837 192.314 223.246 189.287 232.914 181.655C240.049 176.022 260.352 157.032 260.352 157.032C260.352 157.032 233.484 162.048 223.458 157.285C213.194 152.409 209.982 144.232 198.914 141.66C188.377 139.21 182.14 143.754 171.332 144.243C162 144.665 156.483 142.099 147.411 144.327C138.509 146.514 135.294 152.373 126.522 155.034C118.119 157.584 113.13 154.601 105.456 158.869C94.5487 164.934 94.4032 174.986 87.1934 185.173Z" fill="#6CB2C3"/>
</g>
<mask id="mask0" mask-type="alpha" maskUnits="userSpaceOnUse" x="58" y="140" width="203" height="76">
<path d="M87.1934 185.173C79.056 196.67 58.2649 213.193 58.2649 213.193L65.01 215.898L86.347 195.818C86.347 195.818 105.432 184.353 122.604 186.257C157.595 190.135 183.282 202.621 205.063 195.931C216.837 192.314 223.246 189.287 232.914 181.655C240.049 176.022 260.352 157.032 260.352 157.032C260.352 157.032 233.484 162.048 223.458 157.285C213.194 152.409 209.982 144.232 198.914 141.66C188.377 139.21 182.14 143.754 171.332 144.243C162 144.665 156.483 142.099 147.411 144.327C138.509 146.514 135.294 152.373 126.522 155.034C118.119 157.584 113.13 154.601 105.456 158.869C94.5487 164.934 94.4032 174.986 87.1934 185.173Z" fill="#AEB4A9"/>
</mask>
<g mask="url(#mask0)">
<g filter="url(#filter1_f)">
<path d="M188.517 118.286C200.701 100.814 217.041 91.6472 243.296 87.8859C295.916 80.3475 314.775 128.535 326.547 166.55C340.519 211.665 309.484 269.828 278.922 280.595C262.324 286.443 249.514 285.342 231.989 281.586C182.011 270.871 215.11 223.414 205.34 185.98C198.453 159.59 171.692 142.413 188.517 118.286Z" fill="black" fill-opacity="0.2"/>
</g>
</g>
<g filter="url(#filter2_i)">
<path d="M122.733 177.757C143.513 178.751 169.476 195.279 169.476 195.279C169.476 195.279 137.179 187.681 118.803 188.049C105.7 188.312 86.0628 195.955 86.0628 195.955C86.0628 195.955 97.5638 185.299 104.391 182.31C110.896 179.463 116.935 177.48 122.733 177.757Z" fill="#E0C1B3"/>
</g>
<path d="M16.6451 207.845C16.6451 207.845 5.75699 234.994 4.19402 253.352C3.70567 259.088 3.69519 262.582 3.77679 268.088C4.13276 292.103 16.5873 323.679 24.7472 332.475C39.9 348.809 53.7106 352.107 74.1008 361.087C80.9568 364.106 96.0159 368.196 105.905 371.879C112.21 375.214 114.605 377.999 115.515 379.655C115.874 380.682 116.071 381.295 116.071 381.295C116.071 381.295 116.089 380.7 115.515 379.655C114.047 375.452 109.876 364.313 105.479 359.846C98.1668 352.417 89.4894 350.258 82.0324 342.975C61.1447 322.573 70.2932 297.039 48.0516 278.123C35.2022 267.194 18.8659 266.958 12.481 250.594C8.14605 239.483 23.3969 210.74 23.3969 210.74L16.6451 207.845Z" fill="#6CB2C3"/>
<mask id="mask1" mask-type="alpha" maskUnits="userSpaceOnUse" x="3" y="207" width="114" height="175">
<path d="M16.7002 207.554C16.7002 207.554 5.81217 234.703 4.24919 253.062C3.76085 258.798 3.75036 262.292 3.83197 267.797C4.18793 291.812 16.6425 323.388 24.8024 332.184C39.9552 348.518 53.7658 351.816 74.156 360.796C81.0119 363.815 96.0711 367.905 105.96 371.588C112.265 374.923 114.661 377.708 115.57 379.364C115.929 380.391 116.126 381.004 116.126 381.004C116.126 381.004 116.144 380.409 115.57 379.364C114.102 375.161 109.932 364.022 105.534 359.555C98.222 352.127 89.5446 349.968 82.0876 342.684C61.1999 322.283 70.3484 296.749 48.1068 277.832C35.2574 266.904 18.921 266.667 12.5362 250.303C8.20123 239.193 23.4521 210.449 23.4521 210.449L16.7002 207.554Z" fill="#AEB4A9"/>
</mask>
<g mask="url(#mask1)">
<g filter="url(#filter3_f)">
<path d="M55.8798 461.32C37.4246 450.683 26.8869 435.191 20.8822 409.357C8.84738 357.58 55.2349 334.648 92.097 319.65C135.844 301.852 196.459 327.77 209.814 357.294C217.068 373.328 217.073 386.185 214.837 403.967C208.459 454.681 158.332 425.786 121.876 438.738C96.1764 447.869 81.3642 476.008 55.8798 461.32Z" fill="black" fill-opacity="0.2"/>
</g>
<g filter="url(#filter4_f)">
<path d="M-42.9171 263.418C-61.3723 252.781 -71.91 237.29 -77.9147 211.456C-89.9495 159.679 -43.562 136.746 -6.6999 121.749C37.0469 103.95 97.6624 129.869 111.018 159.392C118.271 175.426 118.276 188.283 116.04 206.066C109.662 256.78 59.5351 227.884 23.0795 240.836C-2.62043 249.967 -17.4326 278.106 -42.9171 263.418Z" fill="black" fill-opacity="0.2"/>
</g>
</g>
<g filter="url(#filter5_i)">
<path d="M76.0696 334.028C67.4263 320.89 70.4776 310.657 62.5514 294.994C50.2728 270.731 35.7423 272.901 24.9552 264.595C13.1888 255.535 12.0851 249.333 12.0851 249.333C12.0851 249.333 12.4327 257.53 21.9684 267.986C29.8369 276.614 36.3972 280.978 45.7074 295.45C53.66 307.811 52.8666 321.75 53.8036 328.699C55.9023 344.266 58.9983 352.583 79.099 361.746C88.2801 365.931 97.3521 368.963 104.409 371.321C112.964 374.18 116.516 382.265 116.516 382.265C116.516 382.265 111.436 365.938 106.2 360.157C95.7444 348.613 84.6295 347.039 76.0696 334.028Z" fill="#E0C1B3"/>
</g>
<g filter="url(#filter6_i)">
<path d="M100.939 241.778C-17.0183 134.255 -243.466 192.576 -243.466 192.576L-221.477 212.1C-221.477 212.1 -17.0381 157.721 91.2908 257.363C162.846 323.179 204.833 478.912 204.833 478.912L226.199 492.14C226.199 492.14 181.736 315.427 100.939 241.778Z" fill="#33386F"/>
</g>
<defs>
<filter id="filter0_i" x="58.2651" y="140.939" width="212.087" height="78.9583" filterUnits="userSpaceOnUse" color-interpolation-filters="sRGB">
<feFlood flood-opacity="0" result="BackgroundImageFix"/>
<feBlend mode="normal" in="SourceGraphic" in2="BackgroundImageFix" result="shape"/>
<feColorMatrix in="SourceAlpha" type="matrix" values="0 0 0 0 0 0 0 0 0 0 0 0 0 0 0 0 0 0 127 0" result="hardAlpha"/>
<feOffset dx="10" dy="4"/>
<feGaussianBlur stdDeviation="5"/>
<feComposite in2="hardAlpha" operator="arithmetic" k2="-1" k3="1"/>
<feColorMatrix type="matrix" values="0 0 0 0 0 0 0 0 0 0 0 0 0 0 0 0 0 0 0.4 0"/>
<feBlend mode="normal" in2="shape" result="effect1_innerShadow"/>
</filter>
<filter id="filter1_f" x="103.052" y="7.09937" width="306.942" height="357.593" filterUnits="userSpaceOnUse" color-interpolation-filters="sRGB">
<feFlood flood-opacity="0" result="BackgroundImageFix"/>
<feBlend mode="normal" in="SourceGraphic" in2="BackgroundImageFix" result="shape"/>
<feGaussianBlur stdDeviation="40" result="effect1_foregroundBlur"/>
</filter>
<filter id="filter2_i" x="86.063" y="177.731" width="83.413" height="22.2234" filterUnits="userSpaceOnUse" color-interpolation-filters="sRGB">
<feFlood flood-opacity="0" result="BackgroundImageFix"/>
<feBlend mode="normal" in="SourceGraphic" in2="BackgroundImageFix" result="shape"/>
<feColorMatrix in="SourceAlpha" type="matrix" values="0 0 0 0 0 0 0 0 0 0 0 0 0 0 0 0 0 0 127 0" result="hardAlpha"/>
<feOffset dy="4"/>
<feGaussianBlur stdDeviation="2"/>
<feComposite in2="hardAlpha" operator="arithmetic" k2="-1" k3="1"/>
<feColorMatrix type="matrix" values="0 0 0 0 0 0 0 0 0 0 0 0 0 0 0 0 0 0 0.25 0"/>
<feBlend mode="normal" in2="shape" result="effect1_innerShadow"/>
</filter>
<filter id="filter3_f" x="-61.0591" y="233.818" width="357.206" height="311.67" filterUnits="userSpaceOnUse" color-interpolation-filters="sRGB">
<feFlood flood-opacity="0" result="BackgroundImageFix"/>
<feBlend mode="normal" in="SourceGraphic" in2="BackgroundImageFix" result="shape"/>
<feGaussianBlur stdDeviation="40" result="effect1_foregroundBlur"/>
</filter>
<filter id="filter4_f" x="-159.856" y="35.9167" width="357.206" height="311.67" filterUnits="userSpaceOnUse" color-interpolation-filters="sRGB">
<feFlood flood-opacity="0" result="BackgroundImageFix"/>
<feBlend mode="normal" in="SourceGraphic" in2="BackgroundImageFix" result="shape"/>
<feGaussianBlur stdDeviation="40" result="effect1_foregroundBlur"/>
</filter>
<filter id="filter5_i" x="12.085" y="249.333" width="114.431" height="136.932" filterUnits="userSpaceOnUse" color-interpolation-filters="sRGB">
<feFlood flood-opacity="0" result="BackgroundImageFix"/>
<feBlend mode="normal" in="SourceGraphic" in2="BackgroundImageFix" result="shape"/>
<feColorMatrix in="SourceAlpha" type="matrix" values="0 0 0 0 0 0 0 0 0 0 0 0 0 0 0 0 0 0 127 0" result="hardAlpha"/>
<feOffset dx="10" dy="4"/>
<feGaussianBlur stdDeviation="5"/>
<feComposite in2="hardAlpha" operator="arithmetic" k2="-1" k3="1"/>
<feColorMatrix type="matrix" values="0 0 0 0 0 0 0 0 0 0 0 0 0 0 0 0 0 0 0.4 0"/>
<feBlend mode="normal" in2="shape" result="effect1_innerShadow"/>
</filter>
<filter id="filter6_i" x="-243.466" y="176.785" width="479.665" height="319.355" filterUnits="userSpaceOnUse" color-interpolation-filters="sRGB">
<feFlood flood-opacity="0" result="BackgroundImageFix"/>
<feBlend mode="normal" in="SourceGraphic" in2="BackgroundImageFix" result="shape"/>
<feColorMatrix in="SourceAlpha" type="matrix" values="0 0 0 0 0 0 0 0 0 0 0 0 0 0 0 0 0 0 127 0" result="hardAlpha"/>
<feOffset dx="10" dy="4"/>
<feGaussianBlur stdDeviation="5"/>
<feComposite in2="hardAlpha" operator="arithmetic" k2="-1" k3="1"/>
<feColorMatrix type="matrix" values="0 0 0 0 0 0 0 0 0 0 0 0 0 0 0 0 0 0 0.4 0"/>
<feBlend mode="normal" in2="shape" result="effect1_innerShadow"/>
</filter>
</defs>
</svg>
