<svg width="373" height="390" viewBox="0 0 373 390" fill="none" xmlns="http://www.w3.org/2000/svg">
<g filter="url(#filter0_i)">
<path d="M165.263 124.471C152.738 125.115 106.484 129.061 106.484 129.061L168.401 141.029L227.014 126.95C227.014 126.95 179.678 123.73 165.263 124.471Z" fill="#FF9090"/>
</g>
<g filter="url(#filter1_i)">
<path d="M176.231 114.907C172.32 125.515 159.649 142.656 159.649 142.656L165.441 143.346L177.794 123.335C177.794 123.335 190.198 110.47 203.904 108.367C231.835 104.08 254.348 108.404 269.836 98.6782C278.209 93.4206 282.546 89.7383 288.449 81.8073C292.805 75.9545 304.584 57.0028 304.584 57.0028C304.584 57.0028 284.804 66.4911 276.039 64.8889C267.068 63.2489 262.873 57.5802 253.758 57.8932C245.08 58.1912 241.193 63.0131 232.918 65.6444C225.772 67.9165 220.961 67.0777 214.393 70.696C207.949 74.2464 206.678 79.4577 200.434 83.3492C194.452 87.077 189.963 85.8044 184.904 90.7119C177.714 97.6865 179.696 105.508 176.231 114.907Z" fill="#6CB2C3"/>
</g>
<g filter="url(#filter2_i)">
<path d="M202.234 101.751C218.548 98.1897 242.117 105.59 242.117 105.59C242.117 105.59 215.499 106.432 201.332 110.548C191.231 113.482 177.603 123.499 177.603 123.499C177.603 123.499 184.297 112.843 188.966 109.103C193.414 105.54 197.682 102.744 202.234 101.751Z" fill="#E0C1B3"/>
</g>
<path d="M144.207 105.764C147.62 116.176 149.339 133.348 149.339 133.348L163.733 138.268C163.733 138.268 159.514 116.748 156.676 102.986C154.712 93.4586 146 71.9998 146 71.9998L132.89 76.7022C132.89 76.7022 141.379 97.1351 144.207 105.764Z" fill="#3C3D75"/>
<g filter="url(#filter3_i)">
<path d="M91.321 130.512C111.809 121.972 142.527 133.888 165.422 133.486C189.978 133.056 216.8 112.887 252.497 131.962C288.194 151.036 283.943 219.936 271.717 253.614C259.49 287.293 250.204 299.085 239.302 313.516C231.71 323.566 222.281 330.903 208.757 331.14C195.233 331.377 186.705 325.718 169.268 325.898C150.633 326.09 139.951 332.345 127.232 332.568C114.513 332.791 106.832 325.025 98.3676 315.985C89.9032 306.946 71.3369 276.798 67.275 248.152C67.275 248.152 83.4007 258.337 101.05 252.332C118.699 246.327 117.057 230.013 117.442 229.737C118.789 228.772 123.487 230.021 128.576 220.19C133.975 205.872 124.537 200.972 124.913 200.186C130.259 195.746 130.073 188.354 129.11 183.941C128.05 179.088 125.275 173.977 116.408 170.719C116.395 169.94 118.684 156.066 101.811 149.348C89.2661 145.086 69.9253 153.427 67.5524 155.611C70.4006 146.006 80.1517 135.168 91.321 130.512Z" fill="#FF9090"/>
</g>
<g filter="url(#filter4_i)">
<path d="M91.6346 164.273C87.6198 153.838 67.5464 155.374 67.5464 155.374C67.5464 155.374 90.5805 142.358 105.93 151.029C119.312 158.588 116.406 170.719 116.406 170.719C116.406 170.719 127.42 173.058 129.518 185.102C131.311 195.397 125.533 200.401 125.533 200.401C125.533 200.401 132.84 207.45 130.091 217.825C127.342 228.199 119.451 229.7 117.503 229.734C117.503 229.734 115.291 246.047 108.124 249.834C102.326 252.898 80.327 261.714 80.327 261.714L67.511 248.173C67.511 248.173 84.8811 250.716 90.7049 240.646C98.1281 227.811 90.334 219.475 90.334 219.475C90.334 219.475 98.4372 217.255 99.992 209.858C101.786 201.323 95.4286 197.466 95.4286 197.466C95.4286 197.466 101.099 193.209 99.5916 186.999C97.2623 177.402 91.8663 177.497 91.8663 177.497C91.8663 177.497 94.0177 170.467 91.6346 164.273Z" fill="#E0C1B3"/>
</g>
<path d="M96.9725 140.081C117.46 131.54 142.804 148.63 165.699 148.229C190.255 147.799 196.714 150.274 217.53 159.596C245.024 171.908 253.44 166.64 251.794 180.233C246.688 222.408 250.635 214.156 242.45 247.422C237.105 269.143 245.119 253.997 233.226 277.004C227.526 288.031 224.06 308.481 218.392 308.875C208.467 309.564 214.911 295.057 209.268 277.424C204.506 262.545 180.871 252.147 164.797 252.484C146.163 252.875 141.289 267.87 136.133 283.729L136.12 283.771C130.773 300.218 131.125 311.556 122.95 310.547C114.656 309.523 123.486 306.717 118.63 297.521C109.964 281.11 90.3906 309.49 79.9959 283.318C76.729 275.092 68.8868 258.83 67.2761 248.178C83.0851 256.445 94.2074 254.589 101.991 251.842C113.961 247.617 117.058 230.014 117.443 229.738C118.79 228.772 123.488 230.021 128.576 220.19C133.976 205.872 124.537 200.972 124.913 200.186C130.26 195.747 130.073 188.354 129.11 183.941C128.051 179.088 125.275 173.977 116.409 170.719C116.395 169.94 118.494 156.07 101.62 149.351C91.3795 147.363 79.1003 148.757 76.7275 150.942C89.7772 137.185 85.8032 144.737 96.9725 140.081Z" fill="#FF9090"/>
<mask id="mask0" mask-type="alpha" maskUnits="userSpaceOnUse" x="65" y="122" width="218" height="212">
<path d="M91.321 130.514C111.809 121.973 142.527 133.889 165.422 133.488C189.978 133.058 216.8 112.889 252.497 131.963C288.194 151.037 283.943 219.938 271.717 253.616C259.49 287.295 250.204 299.087 239.302 313.518C231.71 323.567 222.281 330.904 208.757 331.141C195.233 331.378 186.705 325.72 169.268 325.9C150.633 326.092 139.951 332.347 127.232 332.57C114.513 332.792 106.832 325.027 98.3676 315.987C89.9032 306.947 71.3369 276.8 67.275 248.154C67.275 248.154 83.4007 258.339 101.05 252.334C118.699 246.329 117.057 230.015 117.442 229.739C118.789 228.774 123.487 230.023 128.576 220.192C133.975 205.874 124.537 200.973 124.913 200.188C130.259 195.748 130.073 188.356 129.11 183.942C128.05 179.09 125.275 173.979 116.408 170.721C116.395 169.942 118.684 156.068 101.811 149.349C89.2661 145.088 69.9253 153.428 67.5524 155.613C70.4006 146.008 80.1517 135.17 91.321 130.514Z" fill="#F76F8E"/>
</mask>
<g mask="url(#mask0)">
<g filter="url(#filter5_f)">
<path d="M158.127 149.517C163.929 133.434 174.684 122.923 194.25 114.535C233.466 97.7242 258.128 131.144 275.176 158.157C295.409 190.214 283.477 241.765 262.032 256.482C250.385 264.474 240.226 266.291 225.86 267.032C184.888 269.144 200.652 225.46 185.276 198.481C174.437 179.461 150.114 171.725 158.127 149.517Z" fill="#FC8081"/>
</g>
<g filter="url(#filter6_f)">
<path d="M17.7508 341.095C23.5532 325.013 34.3079 314.501 53.8744 306.114C93.0899 289.303 117.752 322.723 134.8 349.735C155.033 381.793 143.101 433.344 121.656 448.06C110.009 456.052 99.8505 457.87 85.4841 458.61C44.5121 460.723 60.2757 417.039 44.9005 390.059C34.0614 371.04 9.73825 363.303 17.7508 341.095Z" fill="black" fill-opacity="0.2"/>
</g>
<g filter="url(#filter7_f)">
<path d="M-10.2219 44.916C-4.41941 28.8333 6.33524 18.3223 25.9018 9.9345C65.1172 -6.87637 89.7791 26.5438 106.828 53.5561C127.061 85.6135 115.128 137.165 93.6833 151.881C82.0365 159.873 71.8778 161.691 57.5115 162.431C16.5394 164.543 32.303 120.86 16.9278 93.8801C6.08878 74.8604 -18.2344 67.1243 -10.2219 44.916Z" fill="black" fill-opacity="0.2"/>
</g>
</g>
<defs>
<filter id="filter0_i" x="106.421" y="123.349" width="120.821" height="22.7608" filterUnits="userSpaceOnUse" color-interpolation-filters="sRGB">
<feFlood flood-opacity="0" result="BackgroundImageFix"/>
<feBlend mode="normal" in="SourceGraphic" in2="BackgroundImageFix" result="shape"/>
<feColorMatrix in="SourceAlpha" type="matrix" values="0 0 0 0 0 0 0 0 0 0 0 0 0 0 0 0 0 0 127 0" result="hardAlpha"/>
<feOffset dy="4"/>
<feGaussianBlur stdDeviation="5"/>
<feComposite in2="hardAlpha" operator="arithmetic" k2="-1" k3="1"/>
<feColorMatrix type="matrix" values="0 0 0 0 0 0 0 0 0 0 0 0 0 0 0 0 0 0 0.4 0"/>
<feBlend mode="normal" in2="shape" result="effect1_innerShadow"/>
</filter>
<filter id="filter1_i" x="158.193" y="56.9998" width="157.861" height="90.4479" filterUnits="userSpaceOnUse" color-interpolation-filters="sRGB">
<feFlood flood-opacity="0" result="BackgroundImageFix"/>
<feBlend mode="normal" in="SourceGraphic" in2="BackgroundImageFix" result="shape"/>
<feColorMatrix in="SourceAlpha" type="matrix" values="0 0 0 0 0 0 0 0 0 0 0 0 0 0 0 0 0 0 127 0" result="hardAlpha"/>
<feOffset dx="10" dy="4"/>
<feGaussianBlur stdDeviation="5"/>
<feComposite in2="hardAlpha" operator="arithmetic" k2="-1" k3="1"/>
<feColorMatrix type="matrix" values="0 0 0 0 0 0 0 0 0 0 0 0 0 0 0 0 0 0 0.4 0"/>
<feBlend mode="normal" in2="shape" result="effect1_innerShadow"/>
</filter>
<filter id="filter2_i" x="177.215" y="100.251" width="65.1953" height="27.2477" filterUnits="userSpaceOnUse" color-interpolation-filters="sRGB">
<feFlood flood-opacity="0" result="BackgroundImageFix"/>
<feBlend mode="normal" in="SourceGraphic" in2="BackgroundImageFix" result="shape"/>
<feColorMatrix in="SourceAlpha" type="matrix" values="0 0 0 0 0 0 0 0 0 0 0 0 0 0 0 0 0 0 127 0" result="hardAlpha"/>
<feOffset dy="4"/>
<feGaussianBlur stdDeviation="2"/>
<feComposite in2="hardAlpha" operator="arithmetic" k2="-1" k3="1"/>
<feColorMatrix type="matrix" values="0 0 0 0 0 0 0 0 0 0 0 0 0 0 0 0 0 0 0.25 0"/>
<feBlend mode="normal" in2="shape" result="effect1_innerShadow"/>
</filter>
<filter id="filter3_i" x="60.1436" y="122.738" width="222.703" height="214.854" filterUnits="userSpaceOnUse" color-interpolation-filters="sRGB">
<feFlood flood-opacity="0" result="BackgroundImageFix"/>
<feBlend mode="normal" in="SourceGraphic" in2="BackgroundImageFix" result="shape"/>
<feColorMatrix in="SourceAlpha" type="matrix" values="0 0 0 0 0 0 0 0 0 0 0 0 0 0 0 0 0 0 127 0" result="hardAlpha"/>
<feOffset dx="-5" dy="4"/>
<feGaussianBlur stdDeviation="5"/>
<feComposite in2="hardAlpha" operator="arithmetic" k2="-1" k3="1"/>
<feColorMatrix type="matrix" values="0 0 0 0 0 0 0 0 0 0 0 0 0 0 0 0 0 0 0.5 0"/>
<feBlend mode="normal" in2="shape" result="effect1_innerShadow"/>
</filter>
<filter id="filter4_i" x="55.7651" y="147.412" width="75.7814" height="118.522" filterUnits="userSpaceOnUse" color-interpolation-filters="sRGB">
<feFlood flood-opacity="0" result="BackgroundImageFix"/>
<feBlend mode="normal" in="SourceGraphic" in2="BackgroundImageFix" result="shape"/>
<feColorMatrix in="SourceAlpha" type="matrix" values="0 0 0 0 0 0 0 0 0 0 0 0 0 0 0 0 0 0 127 0" result="hardAlpha"/>
<feOffset dx="-10" dy="4"/>
<feGaussianBlur stdDeviation="5"/>
<feComposite in2="hardAlpha" operator="arithmetic" k2="-1" k3="1"/>
<feColorMatrix type="matrix" values="0 0 0 0 0 0 0 0 0 0 0 0 0 0 0 0 0 0 0.4 0"/>
<feBlend mode="normal" in2="shape" result="effect1_innerShadow"/>
</filter>
<filter id="filter5_f" x="56.5366" y="10.0034" width="329.043" height="357.102" filterUnits="userSpaceOnUse" color-interpolation-filters="sRGB">
<feFlood flood-opacity="0" result="BackgroundImageFix"/>
<feBlend mode="normal" in="SourceGraphic" in2="BackgroundImageFix" result="shape"/>
<feGaussianBlur stdDeviation="50" result="effect1_foregroundBlur"/>
</filter>
<filter id="filter6_f" x="-63.8394" y="221.582" width="289.043" height="317.102" filterUnits="userSpaceOnUse" color-interpolation-filters="sRGB">
<feFlood flood-opacity="0" result="BackgroundImageFix"/>
<feBlend mode="normal" in="SourceGraphic" in2="BackgroundImageFix" result="shape"/>
<feGaussianBlur stdDeviation="40" result="effect1_foregroundBlur"/>
</filter>
<filter id="filter7_f" x="-91.812" y="-74.5972" width="289.043" height="317.102" filterUnits="userSpaceOnUse" color-interpolation-filters="sRGB">
<feFlood flood-opacity="0" result="BackgroundImageFix"/>
<feBlend mode="normal" in="SourceGraphic" in2="BackgroundImageFix" result="shape"/>
<feGaussianBlur stdDeviation="40" result="effect1_foregroundBlur"/>
</filter>
</defs>
</svg>
