<svg width="537" height="384" fill="none" xmlns="http://www.w3.org/2000/svg"><path d="M317.202 57.825C314.884 51.255 310 41.5 310 41.5l-19.422 10.364s4.711 8.46 7.134 14.157c13.834 32.527-11.799 56.807 16.087 88.641 21.747 24.826 55.002-2.808 80.155 18.56 27.857 23.666.513 66.353 29.713 88.341 28.528 21.483 67.241-11.742 93.038 4.387 18.322 11.456 8.186 37.009 26.407 48.625 10.455 6.665 30.461 8.952 30.461 8.952l.63-28.762s-6.698.336-14.112-2.36c-20.029-7.282-12.164-31.347-29.149-44.219-25.214-19.108-57.843 11.537-84.825-4.983-33.747-20.663-2.273-71.989-34.186-95.385-25.895-18.984-58.4 5.757-79.11-13.069-22.726-20.659-5.401-47.96-15.619-76.923z" fill="#3B417F"/><path d="M277.554 97.024c-2.319-6.571-7.203-16.325-7.203-16.325L250.93 91.063s4.71 8.46 7.133 14.156c13.835 32.527-12.166 62.565 15.72 94.399 21.747 24.826 55.002-2.808 80.155 18.56 27.857 23.666.513 66.353 29.713 88.341 28.528 21.483 67.241-11.742 93.038 4.387 18.322 11.456 15.629 45.027 33.85 56.642C520.994 374.213 541 376.5 541 376.5l.631-28.762s-6.699.336-14.113-2.359c-20.028-7.282-19.607-39.364-36.592-52.236-25.214-19.109-57.843 11.536-84.825-4.984-33.747-20.663-2.273-71.989-34.186-95.385-25.895-18.984-58.4 5.757-79.11-13.069-22.726-20.659-5.034-53.718-15.251-82.68zm93.989-3.253c-21.905-24.993 28.358-65.032 28.358-65.032l-63.84-15.781s15.049 25.388 16.341 34.518c3.25 22.97-19.736 54.594 4.573 69.956 18.554 11.726 52.08-8.898 77.92 8.888 32.66 22.48-4.568 76.334 38.397 97.866 25.418 12.738 54.044-14.68 77.884.812 18.074 11.745 15.001 42.663 25.306 48.894 6.813 4.12 19.671 7.425 19.671 7.425l.81-30.361s-5.473 1.723-12.436-2.879c-11.689-7.725-6.373-33.936-27.127-44.336-25.275-12.667-50.561 17.71-73.853 1.685-29.028-19.972 1.821-73.342-33.003-97.207-23.4-16.036-62.446 4.44-79.001-14.448zM25.182 225.973c-21.906-24.993-21.525-86-21.525-86l-20.915 16.958s15.05 25.389 16.342 34.518c3.25 22.97-3.21 45.381 21.098 60.743 18.554 11.726 35.555.315 61.395 18.101 32.66 22.481-4.569 76.335 38.396 97.866 25.418 12.738 54.044-14.679 77.884.812 18.075 11.745 7.52 50.088 17.825 56.319 6.813 4.12 27.153 0 27.153 0l.81-30.361s-5.473 1.723-12.436-2.878c-11.69-7.726-6.373-33.937-27.127-44.337-25.276-12.667-50.561 17.71-73.853 1.685-29.028-19.972 1.82-73.341-33.003-97.207-23.4-16.036-55.49-7.331-72.044-26.219z" fill="#3B417F"/></svg>