<svg width="527" height="413" viewBox="0 0 527 413" fill="none" xmlns="http://www.w3.org/2000/svg">
<g filter="url(#filter0_i)">
<path d="M505 -40.9998C505 -40.9998 501.462 -42.5842 495.802 -44.4314C472.221 -44.6089 442.542 -38.6286 435.5 -9C426.891 27.2235 409 163.756 303.469 213.384C243.74 241.473 132.289 270.3 81.8203 297.984C13.1844 335.633 -13 413 -13 413L-15.5 390.5C-15.5 390.5 5.63281 318.671 75.6094 283.504C135.757 253.277 234.383 228.727 294.5 198.5C384 153.5 405.646 37.2897 419 -16.5002C429.956 -60.6308 475.942 -50.9129 495.802 -44.4314C512.739 -44.3039 526.531 -40.9998 526.531 -40.9998H505Z" fill="#3C3D75"/>
</g>
<defs>
<filter id="filter0_i" x="-15.5" y="-50.1094" width="552.031" height="467.109" filterUnits="userSpaceOnUse" color-interpolation-filters="sRGB">
<feFlood flood-opacity="0" result="BackgroundImageFix"/>
<feBlend mode="normal" in="SourceGraphic" in2="BackgroundImageFix" result="shape"/>
<feColorMatrix in="SourceAlpha" type="matrix" values="0 0 0 0 0 0 0 0 0 0 0 0 0 0 0 0 0 0 127 0" result="hardAlpha"/>
<feOffset dx="10" dy="4"/>
<feGaussianBlur stdDeviation="5"/>
<feComposite in2="hardAlpha" operator="arithmetic" k2="-1" k3="1"/>
<feColorMatrix type="matrix" values="0 0 0 0 0 0 0 0 0 0 0 0 0 0 0 0 0 0 0.4 0"/>
<feBlend mode="normal" in2="shape" result="effect1_innerShadow"/>
</filter>
</defs>
</svg>
