<svg width="562" height="282" viewBox="0 0 562 282" fill="none" xmlns="http://www.w3.org/2000/svg">
<path fill-rule="evenodd" clip-rule="evenodd" d="M561.444 274.524C561.527 278.122 558.602 281.041 555.002 281.041C551.403 281.041 548.494 278.122 548.406 274.524C547.173 223.934 531.6 174.683 503.436 132.532C474.063 88.5734 432.316 54.3118 383.471 34.0798C334.627 13.8479 280.88 8.55425 229.027 18.8684C177.175 29.1826 129.545 54.6413 92.161 92.025C54.7773 129.409 29.3186 177.039 19.0044 228.891C15.9455 244.27 14.2594 259.815 13.9286 275.349C13.8518 278.955 10.9392 281.886 7.33222 281.886V281.886C3.74094 281.886 0.818658 278.98 0.891033 275.389C1.22156 258.992 2.99197 242.582 6.22093 226.349C17.038 171.968 43.738 122.015 82.9446 82.8086C122.151 43.602 172.104 16.902 226.485 6.08492C280.866 -4.73215 337.233 0.819562 388.459 22.038C439.685 43.2565 483.469 79.1887 514.273 125.291C543.869 169.585 560.208 221.356 561.444 274.524Z" fill="#FF9090"/>
</svg>
