<svg width="289" height="232" fill="none" xmlns="http://www.w3.org/2000/svg"><g clip-path="url(#clip0)"><g filter="url(#filter0_i)"><path d="M25.186 81.463c41.176-11.918 63.567 7.754 101.622-12.156C169.625 46.904 180.383 1.65 219.311.82c33.411-.712 62.094 25.724 66.417 60.554 5.731 46.183-10.628 93.752-32.18 117.65-44.654 49.511-109.197 58.516-165.216 47.34-34.986-6.981-77.653-42.192-85.739-85.156-3.931-20.89-1.496-52.773 22.593-59.746z" fill="#F8F8F8"/></g><mask id="a" maskUnits="userSpaceOnUse" x="5" y="0" width="283" height="231"><path d="M30.933 84.021c41.176-11.919 58.02 5.196 96.075-14.714C169.825 46.904 180.583 1.65 219.511.82c33.411-.712 62.094 25.723 66.417 60.554 5.731 46.182-10.628 93.752-32.18 117.65-44.654 49.511-109.197 58.515-165.216 47.339-34.986-6.98-67.206-37.835-80.192-82.597C2.417 123.35 6.843 90.993 30.933 84.02z" fill="#EDF0F8"/></mask><g mask="url(#a)"><g filter="url(#filter1_d)"><path d="M184.997 150.838l-92.855-6.898v12.647l91.704 3.066 1.151-8.815z" fill="#3C3D75"/></g><g filter="url(#filter2_d)"><path d="M56.075 43.56v7.701a6.39 6.39 0 002.302 4.912h29.546c.847 0 1.533-.686 1.533-1.533 0-.846.687-1.533 1.533-1.533h103.216v-9.149a10 10 0 00-6.991-9.536l-6.121-1.931a9.995 9.995 0 00-3.008-.463H70.165a10 10 0 00-3.508.635l-4.09 1.532a10 10 0 00-6.492 9.365z" fill="#3C3D75"/></g><g filter="url(#filter3_d)"><path d="M106.762 109.005c.044-12.207.102-32.783.057-45.64-.019-5.629 4.546-10.258 10.176-10.258h5.586a1312865.26 1312865.26 0 0178.901 0c5.523 0 9.99 4.477 9.99 10v45.921c0 5.523-4.477 10-10 10h-1.103c-5.523 0-10-4.477-10-10V84.953c0-5.523-4.476-10-9.999-10h-42.165c-5.523 0-9.995 4.477-9.995 10v24.075c0 5.523-4.477 10-10 10h-1.442c-5.541 0-10.025-4.483-10.006-10.023z" fill="#FF9090"/></g><g filter="url(#filter4_d)"><path d="M58.377 124.393V54.64H86.77v76.652l-28.393-6.899z" fill="#3C3D75"/></g><g filter="url(#filter5_d)"><path d="M53.773 238.953V131.457a8.323 8.323 0 014.604-7.446l25.708 5.365v110.028a9.549 9.549 0 01-9.55 9.549H63.774c-5.523 0-10-4.477-10-10z" fill="#3C3D75"/></g><g filter="url(#filter6_d)"><path d="M84.116 128.609h-4.252v75.885l6.222-5.888a5.001 5.001 0 001.42-2.438l4.875-19.83c.096-.391.145-.792.145-1.194v-34.967a5 5 0 00-.562-2.303l-3.41-6.569a5 5 0 00-4.438-2.696z" fill="#FF9090"/></g><g filter="url(#filter7_d)"><path d="M185.17 170.767h-15.485c-5.775 0-10.291-4.98-9.727-10.727a9.774 9.774 0 019.727-8.819h15.485c5.699 0 10.189 4.857 9.743 10.538a9.773 9.773 0 01-9.743 9.008z" fill="#6CB2C3"/></g><g filter="url(#filter8_d)"><path d="M164.277 133.974l8.442 16.864h-3.837l-9.593-16.864h4.988z" fill="#3C3D75"/></g><g filter="url(#filter9_d)"><path d="M176.555 132.441l2.303 18.013 3.453.767-1.535-18.78h-4.221z" fill="#3C3D75"/></g><g filter="url(#filter10_d)"><path d="M181.876 135.892h-21.819l-5.756-11.115.132-.052a9.988 9.988 0 013.71-.714h15.912a10 10 0 017.805 3.748l2.452 3.062a3.12 3.12 0 01-2.436 5.071z" fill="#6CB2C3"/></g><g filter="url(#filter11_d)"><path d="M150.08 92.583c2.192-.637 3.095 2.15 5.372 2.3 2.696.176 3.899-2.94 6.523-2.3 2.069.505 4.221 1.322 4.221 3.45 0 5.365-1.535 6.731-4.605 8.814-3.121 2.118-9.592 1.15-9.592 1.15l-1.83 2.234a10.001 10.001 0 00-.136 12.504l1.966 2.509-1.151 3.832-5.643-7.712a7.606 7.606 0 01-1.448-5.036 7.605 7.605 0 011.905-4.516l4.418-4.965s-2.405-2.87-2.686-4.599c-.512-3.158-.39-6.772 2.686-7.665z" fill="#3C3D75"/></g><g filter="url(#filter12_d)"><path d="M154.301 124.776c-.639-.383-1.995-1.226-2.302-1.533l-1.535 2.683-.018.186a10.003 10.003 0 001.712 6.666l2.143 3.113 5.271 7.37a5.267 5.267 0 006.24 1.828l-11.511-20.313z" fill="#3C3D75"/></g></g><g filter="url(#filter13_d)"><path d="M184.997 150.838l-92.855-6.899v12.648l91.704 3.066 1.151-8.815z" fill="#3C3D75"/></g><g filter="url(#filter14_d)"><path d="M56.075 43.56v7.7a6.39 6.39 0 002.302 4.913h29.546c.847 0 1.533-.687 1.533-1.534 0-.846.686-1.533 1.533-1.533h103.216v-9.148a10 10 0 00-6.992-9.537l-6.12-1.93a9.998 9.998 0 00-3.008-.464H70.165a10 10 0 00-3.509.636l-4.09 1.531a10 10 0 00-6.492 9.365z" fill="#3C3D75"/></g><g filter="url(#filter15_d)"><path d="M106.762 109.004c.043-12.207.102-32.783.057-45.639-.019-5.63 4.546-10.258 10.175-10.258h5.586a1969416.281 1969416.281 0 0178.902 0c5.523 0 9.99 4.477 9.99 10v45.921c0 5.523-4.477 10-10 10h-1.104c-5.522 0-10-4.477-10-10V84.953c0-5.523-4.475-10-9.998-10h-42.166c-5.522 0-9.994 4.477-9.994 10v24.075c0 5.523-4.478 10-10 10h-1.442c-5.541 0-10.026-4.483-10.006-10.024z" fill="#FF9090"/></g><path d="M58.377 124.393V54.64H86.77v76.652l-28.393-6.899z" fill="#3C3D75"/><g filter="url(#filter16_d)"><path d="M84.116 128.608h-4.252v75.886l6.222-5.889a4.995 4.995 0 001.419-2.437l4.876-19.83c.096-.391.145-.792.145-1.194v-34.967c0-.802-.193-1.592-.563-2.304l-3.41-6.568a5 5 0 00-4.437-2.697z" fill="#FF9090"/></g><g filter="url(#filter17_d)"><path d="M185.169 170.767h-15.485c-5.774 0-10.29-4.98-9.726-10.728a9.773 9.773 0 019.726-8.818h15.485c5.7 0 10.19 4.856 9.744 10.538a9.774 9.774 0 01-9.744 9.008z" fill="#6CB2C3"/></g><g filter="url(#filter18_d)"><path d="M164.277 133.974l8.441 16.863h-3.837l-9.592-16.863h4.988z" fill="#3C3D75"/></g><g filter="url(#filter19_d)"><path d="M176.555 132.441l2.302 18.013 3.454.766-1.535-18.779h-4.221z" fill="#3C3D75"/></g><g filter="url(#filter20_d)"><path d="M181.876 135.891h-21.82l-5.755-11.114.132-.053a10.008 10.008 0 013.71-.714h15.912c3.035 0 5.907 1.38 7.805 3.749l2.452 3.061a3.12 3.12 0 01-2.436 5.071z" fill="#6CB2C3"/></g><g filter="url(#filter21_d)"><path d="M150.08 92.582c2.192-.636 3.095 2.15 5.372 2.3 2.695.177 3.899-2.94 6.523-2.3 2.069.506 4.22 1.323 4.22 3.45 0 5.365-1.534 6.732-4.604 8.815-3.121 2.118-9.592 1.15-9.592 1.15l-1.83 2.234a10 10 0 00-.136 12.504l1.966 2.508-1.151 3.833-5.643-7.713a7.61 7.61 0 01.457-9.551l4.418-4.965s-2.405-2.87-2.686-4.599c-.512-3.159-.39-6.772 2.686-7.666z" fill="#3C3D75"/></g><g filter="url(#filter22_d)"><path d="M154.301 124.776c-.64-.383-1.995-1.226-2.302-1.533l-1.535 2.683-.019.186a10 10 0 001.713 6.665l2.143 3.113 5.27 7.371a5.27 5.27 0 006.241 1.828l-11.511-20.313z" fill="#3C3D75"/></g></g><defs><filter id="filter0_i" x="1.074" y="-3.193" width="289.809" height="233.839" filterUnits="userSpaceOnUse" color-interpolation-filters="sRGB"><feFlood flood-opacity="0" result="BackgroundImageFix"/><feBlend in="SourceGraphic" in2="BackgroundImageFix" result="shape"/><feColorMatrix in="SourceAlpha" values="0 0 0 0 0 0 0 0 0 0 0 0 0 0 0 0 0 0 127 0" result="hardAlpha"/><feOffset dx="4" dy="-4"/><feGaussianBlur stdDeviation="5"/><feComposite in2="hardAlpha" operator="arithmetic" k2="-1" k3="1"/><feColorMatrix values="0 0 0 0 0 0 0 0 0 0 0 0 0 0 0 0 0 0 0.25 0"/><feBlend in2="shape" result="effect1_innerShadow"/></filter><filter id="filter1_d" x="86.142" y="137.94" width="112.855" height="35.714" filterUnits="userSpaceOnUse" color-interpolation-filters="sRGB"><feFlood flood-opacity="0" result="BackgroundImageFix"/><feColorMatrix in="SourceAlpha" values="0 0 0 0 0 0 0 0 0 0 0 0 0 0 0 0 0 0 127 0"/><feOffset dx="4" dy="4"/><feGaussianBlur stdDeviation="5"/><feColorMatrix values="0 0 0 0 0 0 0 0 0 0 0 0 0 0 0 0 0 0 0.25 0"/><feBlend in2="BackgroundImageFix" result="effect1_dropShadow"/><feBlend in="SourceGraphic" in2="effect1_dropShadow" result="shape"/></filter><filter id="filter2_d" x="50.075" y="26.028" width="158.131" height="44.145" filterUnits="userSpaceOnUse" color-interpolation-filters="sRGB"><feFlood flood-opacity="0" result="BackgroundImageFix"/><feColorMatrix in="SourceAlpha" values="0 0 0 0 0 0 0 0 0 0 0 0 0 0 0 0 0 0 127 0"/><feOffset dx="4" dy="4"/><feGaussianBlur stdDeviation="5"/><feColorMatrix values="0 0 0 0 0 0 0 0 0 0 0 0 0 0 0 0 0 0 0.25 0"/><feBlend in2="BackgroundImageFix" result="effect1_dropShadow"/><feBlend in="SourceGraphic" in2="effect1_dropShadow" result="shape"/></filter><filter id="filter3_d" x="100.762" y="47.107" width="124.71" height="85.921" filterUnits="userSpaceOnUse" color-interpolation-filters="sRGB"><feFlood flood-opacity="0" result="BackgroundImageFix"/><feColorMatrix in="SourceAlpha" values="0 0 0 0 0 0 0 0 0 0 0 0 0 0 0 0 0 0 127 0"/><feOffset dx="4" dy="4"/><feGaussianBlur stdDeviation="5"/><feColorMatrix values="0 0 0 0 0 0 0 0 0 0 0 0 0 0 0 0 0 0 0.25 0"/><feBlend in2="BackgroundImageFix" result="effect1_dropShadow"/><feBlend in="SourceGraphic" in2="effect1_dropShadow" result="shape"/></filter><filter id="filter4_d" x="52.377" y="48.64" width="48.394" height="96.652" filterUnits="userSpaceOnUse" color-interpolation-filters="sRGB"><feFlood flood-opacity="0" result="BackgroundImageFix"/><feColorMatrix in="SourceAlpha" values="0 0 0 0 0 0 0 0 0 0 0 0 0 0 0 0 0 0 127 0"/><feOffset dx="4" dy="4"/><feGaussianBlur stdDeviation="5"/><feColorMatrix values="0 0 0 0 0 0 0 0 0 0 0 0 0 0 0 0 0 0 0.25 0"/><feBlend in2="BackgroundImageFix" result="effect1_dropShadow"/><feBlend in="SourceGraphic" in2="effect1_dropShadow" result="shape"/></filter><filter id="filter5_d" x="47.773" y="118.011" width="50.312" height="144.943" filterUnits="userSpaceOnUse" color-interpolation-filters="sRGB"><feFlood flood-opacity="0" result="BackgroundImageFix"/><feColorMatrix in="SourceAlpha" values="0 0 0 0 0 0 0 0 0 0 0 0 0 0 0 0 0 0 127 0"/><feOffset dx="4" dy="4"/><feGaussianBlur stdDeviation="5"/><feColorMatrix values="0 0 0 0 0 0 0 0 0 0 0 0 0 0 0 0 0 0 0.25 0"/><feBlend in2="BackgroundImageFix" result="effect1_dropShadow"/><feBlend in="SourceGraphic" in2="effect1_dropShadow" result="shape"/></filter><filter id="filter6_d" x="73.864" y="122.609" width="32.662" height="95.885" filterUnits="userSpaceOnUse" color-interpolation-filters="sRGB"><feFlood flood-opacity="0" result="BackgroundImageFix"/><feColorMatrix in="SourceAlpha" values="0 0 0 0 0 0 0 0 0 0 0 0 0 0 0 0 0 0 127 0"/><feOffset dx="4" dy="4"/><feGaussianBlur stdDeviation="5"/><feColorMatrix values="0 0 0 0 0 0 0 0 0 0 0 0 0 0 0 0 0 0 0.25 0"/><feBlend in2="BackgroundImageFix" result="effect1_dropShadow"/><feBlend in="SourceGraphic" in2="effect1_dropShadow" result="shape"/></filter><filter id="filter7_d" x="153.911" y="145.221" width="55.033" height="39.546" filterUnits="userSpaceOnUse" color-interpolation-filters="sRGB"><feFlood flood-opacity="0" result="BackgroundImageFix"/><feColorMatrix in="SourceAlpha" values="0 0 0 0 0 0 0 0 0 0 0 0 0 0 0 0 0 0 127 0"/><feOffset dx="4" dy="4"/><feGaussianBlur stdDeviation="5"/><feColorMatrix values="0 0 0 0 0 0 0 0 0 0 0 0 0 0 0 0 0 0 0.25 0"/><feBlend in2="BackgroundImageFix" result="effect1_dropShadow"/><feBlend in="SourceGraphic" in2="effect1_dropShadow" result="shape"/></filter><filter id="filter8_d" x="153.289" y="127.974" width="33.429" height="36.863" filterUnits="userSpaceOnUse" color-interpolation-filters="sRGB"><feFlood flood-opacity="0" result="BackgroundImageFix"/><feColorMatrix in="SourceAlpha" values="0 0 0 0 0 0 0 0 0 0 0 0 0 0 0 0 0 0 127 0"/><feOffset dx="4" dy="4"/><feGaussianBlur stdDeviation="5"/><feColorMatrix values="0 0 0 0 0 0 0 0 0 0 0 0 0 0 0 0 0 0 0.25 0"/><feBlend in2="BackgroundImageFix" result="effect1_dropShadow"/><feBlend in="SourceGraphic" in2="effect1_dropShadow" result="shape"/></filter><filter id="filter9_d" x="170.555" y="126.441" width="25.755" height="38.78" filterUnits="userSpaceOnUse" color-interpolation-filters="sRGB"><feFlood flood-opacity="0" result="BackgroundImageFix"/><feColorMatrix in="SourceAlpha" values="0 0 0 0 0 0 0 0 0 0 0 0 0 0 0 0 0 0 127 0"/><feOffset dx="4" dy="4"/><feGaussianBlur stdDeviation="5"/><feColorMatrix values="0 0 0 0 0 0 0 0 0 0 0 0 0 0 0 0 0 0 0.25 0"/><feBlend in2="BackgroundImageFix" result="effect1_dropShadow"/><feBlend in="SourceGraphic" in2="effect1_dropShadow" result="shape"/></filter><filter id="filter10_d" x="148.301" y="118.011" width="50.696" height="31.881" filterUnits="userSpaceOnUse" color-interpolation-filters="sRGB"><feFlood flood-opacity="0" result="BackgroundImageFix"/><feColorMatrix in="SourceAlpha" values="0 0 0 0 0 0 0 0 0 0 0 0 0 0 0 0 0 0 127 0"/><feOffset dx="4" dy="4"/><feGaussianBlur stdDeviation="5"/><feColorMatrix values="0 0 0 0 0 0 0 0 0 0 0 0 0 0 0 0 0 0 0.25 0"/><feBlend in2="BackgroundImageFix" result="effect1_dropShadow"/><feBlend in="SourceGraphic" in2="effect1_dropShadow" result="shape"/></filter><filter id="filter11_d" x="137.737" y="86.489" width="42.458" height="54.588" filterUnits="userSpaceOnUse" color-interpolation-filters="sRGB"><feFlood flood-opacity="0" result="BackgroundImageFix"/><feColorMatrix in="SourceAlpha" values="0 0 0 0 0 0 0 0 0 0 0 0 0 0 0 0 0 0 127 0"/><feOffset dx="4" dy="4"/><feGaussianBlur stdDeviation="5"/><feColorMatrix values="0 0 0 0 0 0 0 0 0 0 0 0 0 0 0 0 0 0 0.25 0"/><feBlend in2="BackgroundImageFix" result="effect1_dropShadow"/><feBlend in="SourceGraphic" in2="effect1_dropShadow" result="shape"/></filter><filter id="filter12_d" x="144.396" y="117.243" width="35.416" height="42.222" filterUnits="userSpaceOnUse" color-interpolation-filters="sRGB"><feFlood flood-opacity="0" result="BackgroundImageFix"/><feColorMatrix in="SourceAlpha" values="0 0 0 0 0 0 0 0 0 0 0 0 0 0 0 0 0 0 127 0"/><feOffset dx="4" dy="4"/><feGaussianBlur stdDeviation="5"/><feColorMatrix values="0 0 0 0 0 0 0 0 0 0 0 0 0 0 0 0 0 0 0.25 0"/><feBlend in2="BackgroundImageFix" result="effect1_dropShadow"/><feBlend in="SourceGraphic" in2="effect1_dropShadow" result="shape"/></filter><filter id="filter13_d" x="86.142" y="137.939" width="112.855" height="35.714" filterUnits="userSpaceOnUse" color-interpolation-filters="sRGB"><feFlood flood-opacity="0" result="BackgroundImageFix"/><feColorMatrix in="SourceAlpha" values="0 0 0 0 0 0 0 0 0 0 0 0 0 0 0 0 0 0 127 0"/><feOffset dx="4" dy="4"/><feGaussianBlur stdDeviation="5"/><feColorMatrix values="0 0 0 0 0 0 0 0 0 0 0 0 0 0 0 0 0 0 0.25 0"/><feBlend in2="BackgroundImageFix" result="effect1_dropShadow"/><feBlend in="SourceGraphic" in2="effect1_dropShadow" result="shape"/></filter><filter id="filter14_d" x="50.075" y="26.027" width="158.131" height="44.145" filterUnits="userSpaceOnUse" color-interpolation-filters="sRGB"><feFlood flood-opacity="0" result="BackgroundImageFix"/><feColorMatrix in="SourceAlpha" values="0 0 0 0 0 0 0 0 0 0 0 0 0 0 0 0 0 0 127 0"/><feOffset dx="4" dy="4"/><feGaussianBlur stdDeviation="5"/><feColorMatrix values="0 0 0 0 0 0 0 0 0 0 0 0 0 0 0 0 0 0 0.25 0"/><feBlend in2="BackgroundImageFix" result="effect1_dropShadow"/><feBlend in="SourceGraphic" in2="effect1_dropShadow" result="shape"/></filter><filter id="filter15_d" x="100.762" y="47.107" width="124.71" height="85.921" filterUnits="userSpaceOnUse" color-interpolation-filters="sRGB"><feFlood flood-opacity="0" result="BackgroundImageFix"/><feColorMatrix in="SourceAlpha" values="0 0 0 0 0 0 0 0 0 0 0 0 0 0 0 0 0 0 127 0"/><feOffset dx="4" dy="4"/><feGaussianBlur stdDeviation="5"/><feColorMatrix values="0 0 0 0 0 0 0 0 0 0 0 0 0 0 0 0 0 0 0.25 0"/><feBlend in2="BackgroundImageFix" result="effect1_dropShadow"/><feBlend in="SourceGraphic" in2="effect1_dropShadow" result="shape"/></filter><filter id="filter16_d" x="73.864" y="122.608" width="32.662" height="95.885" filterUnits="userSpaceOnUse" color-interpolation-filters="sRGB"><feFlood flood-opacity="0" result="BackgroundImageFix"/><feColorMatrix in="SourceAlpha" values="0 0 0 0 0 0 0 0 0 0 0 0 0 0 0 0 0 0 127 0"/><feOffset dx="4" dy="4"/><feGaussianBlur stdDeviation="5"/><feColorMatrix values="0 0 0 0 0 0 0 0 0 0 0 0 0 0 0 0 0 0 0.25 0"/><feBlend in2="BackgroundImageFix" result="effect1_dropShadow"/><feBlend in="SourceGraphic" in2="effect1_dropShadow" result="shape"/></filter><filter id="filter17_d" x="153.91" y="145.221" width="55.033" height="39.546" filterUnits="userSpaceOnUse" color-interpolation-filters="sRGB"><feFlood flood-opacity="0" result="BackgroundImageFix"/><feColorMatrix in="SourceAlpha" values="0 0 0 0 0 0 0 0 0 0 0 0 0 0 0 0 0 0 127 0"/><feOffset dx="4" dy="4"/><feGaussianBlur stdDeviation="5"/><feColorMatrix values="0 0 0 0 0 0 0 0 0 0 0 0 0 0 0 0 0 0 0.25 0"/><feBlend in2="BackgroundImageFix" result="effect1_dropShadow"/><feBlend in="SourceGraphic" in2="effect1_dropShadow" result="shape"/></filter><filter id="filter18_d" x="153.289" y="127.974" width="33.429" height="36.863" filterUnits="userSpaceOnUse" color-interpolation-filters="sRGB"><feFlood flood-opacity="0" result="BackgroundImageFix"/><feColorMatrix in="SourceAlpha" values="0 0 0 0 0 0 0 0 0 0 0 0 0 0 0 0 0 0 127 0"/><feOffset dx="4" dy="4"/><feGaussianBlur stdDeviation="5"/><feColorMatrix values="0 0 0 0 0 0 0 0 0 0 0 0 0 0 0 0 0 0 0.25 0"/><feBlend in2="BackgroundImageFix" result="effect1_dropShadow"/><feBlend in="SourceGraphic" in2="effect1_dropShadow" result="shape"/></filter><filter id="filter19_d" x="170.555" y="126.441" width="25.755" height="38.78" filterUnits="userSpaceOnUse" color-interpolation-filters="sRGB"><feFlood flood-opacity="0" result="BackgroundImageFix"/><feColorMatrix in="SourceAlpha" values="0 0 0 0 0 0 0 0 0 0 0 0 0 0 0 0 0 0 127 0"/><feOffset dx="4" dy="4"/><feGaussianBlur stdDeviation="5"/><feColorMatrix values="0 0 0 0 0 0 0 0 0 0 0 0 0 0 0 0 0 0 0.25 0"/><feBlend in2="BackgroundImageFix" result="effect1_dropShadow"/><feBlend in="SourceGraphic" in2="effect1_dropShadow" result="shape"/></filter><filter id="filter20_d" x="148.301" y="118.01" width="50.696" height="31.881" filterUnits="userSpaceOnUse" color-interpolation-filters="sRGB"><feFlood flood-opacity="0" result="BackgroundImageFix"/><feColorMatrix in="SourceAlpha" values="0 0 0 0 0 0 0 0 0 0 0 0 0 0 0 0 0 0 127 0"/><feOffset dx="4" dy="4"/><feGaussianBlur stdDeviation="5"/><feColorMatrix values="0 0 0 0 0 0 0 0 0 0 0 0 0 0 0 0 0 0 0.25 0"/><feBlend in2="BackgroundImageFix" result="effect1_dropShadow"/><feBlend in="SourceGraphic" in2="effect1_dropShadow" result="shape"/></filter><filter id="filter21_d" x="137.737" y="86.488" width="42.458" height="54.588" filterUnits="userSpaceOnUse" color-interpolation-filters="sRGB"><feFlood flood-opacity="0" result="BackgroundImageFix"/><feColorMatrix in="SourceAlpha" values="0 0 0 0 0 0 0 0 0 0 0 0 0 0 0 0 0 0 127 0"/><feOffset dx="4" dy="4"/><feGaussianBlur stdDeviation="5"/><feColorMatrix values="0 0 0 0 0 0 0 0 0 0 0 0 0 0 0 0 0 0 0.25 0"/><feBlend in2="BackgroundImageFix" result="effect1_dropShadow"/><feBlend in="SourceGraphic" in2="effect1_dropShadow" result="shape"/></filter><filter id="filter22_d" x="144.395" y="117.243" width="35.416" height="42.222" filterUnits="userSpaceOnUse" color-interpolation-filters="sRGB"><feFlood flood-opacity="0" result="BackgroundImageFix"/><feColorMatrix in="SourceAlpha" values="0 0 0 0 0 0 0 0 0 0 0 0 0 0 0 0 0 0 127 0"/><feOffset dx="4" dy="4"/><feGaussianBlur stdDeviation="5"/><feColorMatrix values="0 0 0 0 0 0 0 0 0 0 0 0 0 0 0 0 0 0 0.25 0"/><feBlend in2="BackgroundImageFix" result="effect1_dropShadow"/><feBlend in="SourceGraphic" in2="effect1_dropShadow" result="shape"/></filter><clipPath id="clip0"><path fill="#fff" d="M0 0h289v232H0z"/></clipPath></defs></svg>