<svg width="257" height="255" fill="none" xmlns="http://www.w3.org/2000/svg"><g clip-path="url(#clip0)"><g filter="url(#filter0_i)"><path d="M166.321 21.598c15.835 32.562 19.358 37.406 29.395 47.198 23.87 23.288 46.768 24.115 56.896 68.589 13.571 59.594-64.731 61.649-86.291 83.226-27.583 27.603-74.876 40.071-115.132 27.603-42.629-13.203-64.965-56.612-39.91-96.861 19.132-30.737 44.959-27.174 53.305-52.718 14.531-44.475 11.145-50.82 28.623-77.037 14.987-22.481 60.414-26.114 73.114 0z" fill="#F8F8F8"/></g><mask id="a" maskUnits="userSpaceOnUse" x="0" y="3" width="255" height="251"><path d="M166.321 21.598c17.566 27.325 23.263 36.433 29.395 47.197 18.631 32.708 46.768 24.115 56.896 68.59 13.571 59.594-64.731 61.649-86.291 83.225-27.583 27.604-74.876 40.072-115.132 27.604-42.629-13.203-64.964-56.613-39.91-96.861 19.132-30.737 44.959-27.175 53.305-52.718 14.531-44.475 11.145-50.82 28.623-77.037 14.987-22.481 57.411-24.427 73.114 0z" fill="#EDF0F8"/></mask><g mask="url(#a)"><ellipse cx="210.789" cy="202.626" rx="24.107" ry="71.075" transform="rotate(78.92 210.789 202.626)" fill="#6CB2C3"/><g filter="url(#filter1_d)"><path d="M262.838 154.861l-41.002-21.469-9.541 19.879-20.291 31.409-7.879 13.389c-4.643 7.89 2.878 17.354 11.613 14.613l68.344-21.45a10 10 0 006.879-11.128l-2.888-17.971a10.001 10.001 0 00-5.235-7.272z" fill="#FF9090"/></g><g filter="url(#filter2_d)"><path d="M166.726 180.779c4.688-11.048 15.729-26.402 15.729-26.402l31.032-24.96 7.952 3.578 5.168 2.783s-24.388 37.717-28.985 53.989c-1.372 4.856-2.612 11.006-3.576 16.409-1.151 6.453-7.965 10.351-14.021 7.844l-12.871-5.326c-4.474-1.851-6.981-6.64-5.753-11.324 1.348-5.145 3.26-11.722 5.325-16.591z" fill="#FF9090"/></g><g filter="url(#filter3_d)"><path d="M129.201 92.045c-6.406-2.377-16.117-3.39-16.117-3.39l-12.359 23.03s3.521 2.89 7.865 6.179c11.432 8.657 22.441 13.56 34.828 20.785 18.357 10.708 46.897 19.565 52.007 21.108.532.161 1.062.367 1.618.353 1.423-.035 4.747-1.001 10.413-7.418 7.298-8.265 9.314-13.417 9.737-16.257.277-1.865-1.051-3.308-2.715-4.195-10.934-5.822-54.975-28.954-85.277-40.195z" fill="#3C3D75"/></g><g filter="url(#filter4_d)"><path d="M29.662 60.417l16.444-.974-13.915 10.735-3.96-1.728a4.195 4.195 0 011.431-8.033z" fill="#3C3D75"/></g><g filter="url(#filter5_d)"><path d="M18.711 84.722c10.11-8.988 16.852-11.796 16.852-11.796l10.112 1.685L24.89 93.148s-6.287 1.415-8.426-1.123c-1.58-1.876-.624-4.75 2.247-7.303z" fill="#3C3D75"/></g><g filter="url(#filter6_d)"><path d="M32.193 70.116l6.741 5.618 36.513-2.247-29.21-14.044-7.303 3.37c-3.186 2.218-6.74 7.303-6.74 7.303z" fill="#3C3D75"/></g><g filter="url(#filter7_d)"><path d="M106.459 84.43c-2.749-.76-9.813 0-9.813 0l2.51 11.797-12.497 6.552s3.51 4.963 5.195 6.368c2.664 2.22 5.52 3.414 8.988 3.37 5.84-.074 10.016-2.234 12.92-7.302 2.529-4.416 2.432-11.235 1.123-14.044-1.309-2.809-4.365-5.617-8.426-6.74z" fill="#3C3D75"/></g><g filter="url(#filter8_d)"><path d="M36.687 76.857c8.849-6.38 18.428-7.838 29.21-6.18 14.606 2.247 34.267 15.167 34.267 15.167s1.891 9.05-1.686 14.044c-2.97 4.148-10.673 4.494-10.673 4.494S76.087 97.2 67.583 93.147c-6.917-3.296-10.876-6.179-18.538-6.179-7.662 0-12.358 6.18-17.976 7.864-2.819.846-6.026-.515-6.74-3.37-1.125-4.494 6.297-10.235 12.358-14.605z" fill="#3C3D75"/></g></g><g filter="url(#filter9_d)"><path d="M129.2 92.045c-6.405-2.377-16.116-3.39-16.116-3.39l-12.359 23.03s3.521 2.89 7.865 6.179c11.432 8.657 22.441 13.56 34.828 20.785 18.357 10.708 46.897 19.565 52.007 21.108.532.161 1.062.367 1.618.353 1.422-.035 4.747-1.001 10.413-7.418 7.298-8.265 9.314-13.417 9.736-16.257.278-1.865-1.05-3.308-2.714-4.195-10.934-5.822-54.976-28.954-85.278-40.195z" fill="#3C3D75"/></g><g filter="url(#filter10_d)"><path d="M29.662 60.417l16.444-.974-13.915 10.735-3.96-1.728a4.195 4.195 0 011.43-8.033z" fill="#3C3D75"/></g><g filter="url(#filter11_d)"><path d="M18.711 84.722c10.11-8.988 16.852-11.796 16.852-11.796l10.111 1.685L24.89 93.148s-6.287 1.415-8.426-1.123c-1.58-1.876-.624-4.75 2.247-7.303z" fill="#3C3D75"/></g><g filter="url(#filter12_d)"><path d="M32.193 70.116l6.74 5.618 36.514-2.247-29.21-14.044-7.303 3.37c-3.186 2.218-6.741 7.303-6.741 7.303z" fill="#3C3D75"/></g><g filter="url(#filter13_d)"><path d="M106.459 84.43c-2.749-.76-9.813 0-9.813 0l2.51 11.797-12.497 6.552s3.51 4.963 5.194 6.368c2.665 2.22 5.52 3.414 8.988 3.37 5.841-.074 10.017-2.234 12.92-7.302 2.529-4.416 2.433-11.235 1.124-14.044-1.309-2.809-4.365-5.617-8.426-6.74z" fill="#3C3D75"/></g><g filter="url(#filter14_d)"><path d="M36.687 76.857c8.848-6.38 18.428-7.838 29.21-6.18 14.606 2.247 34.266 15.167 34.266 15.167s1.892 9.05-1.685 14.044c-2.97 4.148-10.673 4.494-10.673 4.494S76.086 97.2 67.582 93.147c-6.916-3.296-10.875-6.179-18.537-6.179-7.663 0-12.358 6.18-17.976 7.864-2.819.846-6.026-.515-6.74-3.37-1.125-4.494 6.297-10.235 12.358-14.605z" fill="#3C3D75"/></g></g><defs><filter id="filter0_i" x=".776" y="-.651" width="257.405" height="253.706" filterUnits="userSpaceOnUse" color-interpolation-filters="sRGB"><feFlood flood-opacity="0" result="BackgroundImageFix"/><feBlend in="SourceGraphic" in2="BackgroundImageFix" result="shape"/><feColorMatrix in="SourceAlpha" values="0 0 0 0 0 0 0 0 0 0 0 0 0 0 0 0 0 0 127 0" result="hardAlpha"/><feOffset dx="4" dy="-4"/><feGaussianBlur stdDeviation="5"/><feComposite in2="hardAlpha" operator="arithmetic" k2="-1" k3="1"/><feColorMatrix values="0 0 0 0 0 0 0 0 0 0 0 0 0 0 0 0 0 0 0.25 0"/><feBlend in2="shape" result="effect1_innerShadow"/></filter><filter id="filter1_d" x="176.708" y="127.392" width="108.381" height="99.773" filterUnits="userSpaceOnUse" color-interpolation-filters="sRGB"><feFlood flood-opacity="0" result="BackgroundImageFix"/><feColorMatrix in="SourceAlpha" values="0 0 0 0 0 0 0 0 0 0 0 0 0 0 0 0 0 0 127 0"/><feOffset dx="4" dy="4"/><feGaussianBlur stdDeviation="5"/><feColorMatrix values="0 0 0 0 0 0 0 0 0 0 0 0 0 0 0 0 0 0 0.25 0"/><feBlend in2="BackgroundImageFix" result="effect1_dropShadow"/><feBlend in="SourceGraphic" in2="effect1_dropShadow" result="shape"/></filter><filter id="filter2_d" x="155.09" y="123.417" width="85.518" height="105.371" filterUnits="userSpaceOnUse" color-interpolation-filters="sRGB"><feFlood flood-opacity="0" result="BackgroundImageFix"/><feColorMatrix in="SourceAlpha" values="0 0 0 0 0 0 0 0 0 0 0 0 0 0 0 0 0 0 127 0"/><feOffset dx="4" dy="4"/><feGaussianBlur stdDeviation="5"/><feColorMatrix values="0 0 0 0 0 0 0 0 0 0 0 0 0 0 0 0 0 0 0.25 0"/><feBlend in2="BackgroundImageFix" result="effect1_dropShadow"/><feBlend in="SourceGraphic" in2="effect1_dropShadow" result="shape"/></filter><filter id="filter3_d" x="94.725" y="82.654" width="136.504" height="91.457" filterUnits="userSpaceOnUse" color-interpolation-filters="sRGB"><feFlood flood-opacity="0" result="BackgroundImageFix"/><feColorMatrix in="SourceAlpha" values="0 0 0 0 0 0 0 0 0 0 0 0 0 0 0 0 0 0 127 0"/><feOffset dx="4" dy="4"/><feGaussianBlur stdDeviation="5"/><feColorMatrix values="0 0 0 0 0 0 0 0 0 0 0 0 0 0 0 0 0 0 0.25 0"/><feBlend in2="BackgroundImageFix" result="effect1_dropShadow"/><feBlend in="SourceGraphic" in2="effect1_dropShadow" result="shape"/></filter><filter id="filter4_d" x="19.714" y="53.443" width="40.392" height="30.735" filterUnits="userSpaceOnUse" color-interpolation-filters="sRGB"><feFlood flood-opacity="0" result="BackgroundImageFix"/><feColorMatrix in="SourceAlpha" values="0 0 0 0 0 0 0 0 0 0 0 0 0 0 0 0 0 0 127 0"/><feOffset dx="4" dy="4"/><feGaussianBlur stdDeviation="5"/><feColorMatrix values="0 0 0 0 0 0 0 0 0 0 0 0 0 0 0 0 0 0 0.25 0"/><feBlend in2="BackgroundImageFix" result="effect1_dropShadow"/><feBlend in="SourceGraphic" in2="effect1_dropShadow" result="shape"/></filter><filter id="filter5_d" x="9.706" y="66.925" width="49.969" height="40.616" filterUnits="userSpaceOnUse" color-interpolation-filters="sRGB"><feFlood flood-opacity="0" result="BackgroundImageFix"/><feColorMatrix in="SourceAlpha" values="0 0 0 0 0 0 0 0 0 0 0 0 0 0 0 0 0 0 127 0"/><feOffset dx="4" dy="4"/><feGaussianBlur stdDeviation="5"/><feColorMatrix values="0 0 0 0 0 0 0 0 0 0 0 0 0 0 0 0 0 0 0.25 0"/><feBlend in2="BackgroundImageFix" result="effect1_dropShadow"/><feBlend in="SourceGraphic" in2="effect1_dropShadow" result="shape"/></filter><filter id="filter6_d" x="26.193" y="53.443" width="63.254" height="36.291" filterUnits="userSpaceOnUse" color-interpolation-filters="sRGB"><feFlood flood-opacity="0" result="BackgroundImageFix"/><feColorMatrix in="SourceAlpha" values="0 0 0 0 0 0 0 0 0 0 0 0 0 0 0 0 0 0 127 0"/><feOffset dx="4" dy="4"/><feGaussianBlur stdDeviation="5"/><feColorMatrix values="0 0 0 0 0 0 0 0 0 0 0 0 0 0 0 0 0 0 0.25 0"/><feBlend in2="BackgroundImageFix" result="effect1_dropShadow"/><feBlend in="SourceGraphic" in2="effect1_dropShadow" result="shape"/></filter><filter id="filter7_d" x="80.659" y="78.092" width="49.129" height="48.426" filterUnits="userSpaceOnUse" color-interpolation-filters="sRGB"><feFlood flood-opacity="0" result="BackgroundImageFix"/><feColorMatrix in="SourceAlpha" values="0 0 0 0 0 0 0 0 0 0 0 0 0 0 0 0 0 0 127 0"/><feOffset dx="4" dy="4"/><feGaussianBlur stdDeviation="5"/><feColorMatrix values="0 0 0 0 0 0 0 0 0 0 0 0 0 0 0 0 0 0 0.25 0"/><feBlend in2="BackgroundImageFix" result="effect1_dropShadow"/><feBlend in="SourceGraphic" in2="effect1_dropShadow" result="shape"/></filter><filter id="filter8_d" x="18.215" y="56.046" width="96.449" height="54.336" filterUnits="userSpaceOnUse" color-interpolation-filters="sRGB"><feFlood flood-opacity="0" result="BackgroundImageFix"/><feColorMatrix in="SourceAlpha" values="0 0 0 0 0 0 0 0 0 0 0 0 0 0 0 0 0 0 127 0"/><feOffset dx="4" dy="-4"/><feGaussianBlur stdDeviation="5"/><feColorMatrix values="0 0 0 0 0 0 0 0 0 0 0 0 0 0 0 0 0 0 0.25 0"/><feBlend in2="BackgroundImageFix" result="effect1_dropShadow"/><feBlend in="SourceGraphic" in2="effect1_dropShadow" result="shape"/></filter><filter id="filter9_d" x="94.725" y="82.654" width="136.504" height="91.457" filterUnits="userSpaceOnUse" color-interpolation-filters="sRGB"><feFlood flood-opacity="0" result="BackgroundImageFix"/><feColorMatrix in="SourceAlpha" values="0 0 0 0 0 0 0 0 0 0 0 0 0 0 0 0 0 0 127 0"/><feOffset dx="4" dy="4"/><feGaussianBlur stdDeviation="5"/><feColorMatrix values="0 0 0 0 0 0 0 0 0 0 0 0 0 0 0 0 0 0 0.25 0"/><feBlend in2="BackgroundImageFix" result="effect1_dropShadow"/><feBlend in="SourceGraphic" in2="effect1_dropShadow" result="shape"/></filter><filter id="filter10_d" x="19.714" y="53.443" width="40.392" height="30.735" filterUnits="userSpaceOnUse" color-interpolation-filters="sRGB"><feFlood flood-opacity="0" result="BackgroundImageFix"/><feColorMatrix in="SourceAlpha" values="0 0 0 0 0 0 0 0 0 0 0 0 0 0 0 0 0 0 127 0"/><feOffset dx="4" dy="4"/><feGaussianBlur stdDeviation="5"/><feColorMatrix values="0 0 0 0 0 0 0 0 0 0 0 0 0 0 0 0 0 0 0.25 0"/><feBlend in2="BackgroundImageFix" result="effect1_dropShadow"/><feBlend in="SourceGraphic" in2="effect1_dropShadow" result="shape"/></filter><filter id="filter11_d" x="9.706" y="66.925" width="49.969" height="40.616" filterUnits="userSpaceOnUse" color-interpolation-filters="sRGB"><feFlood flood-opacity="0" result="BackgroundImageFix"/><feColorMatrix in="SourceAlpha" values="0 0 0 0 0 0 0 0 0 0 0 0 0 0 0 0 0 0 127 0"/><feOffset dx="4" dy="4"/><feGaussianBlur stdDeviation="5"/><feColorMatrix values="0 0 0 0 0 0 0 0 0 0 0 0 0 0 0 0 0 0 0.25 0"/><feBlend in2="BackgroundImageFix" result="effect1_dropShadow"/><feBlend in="SourceGraphic" in2="effect1_dropShadow" result="shape"/></filter><filter id="filter12_d" x="26.193" y="53.443" width="63.254" height="36.291" filterUnits="userSpaceOnUse" color-interpolation-filters="sRGB"><feFlood flood-opacity="0" result="BackgroundImageFix"/><feColorMatrix in="SourceAlpha" values="0 0 0 0 0 0 0 0 0 0 0 0 0 0 0 0 0 0 127 0"/><feOffset dx="4" dy="4"/><feGaussianBlur stdDeviation="5"/><feColorMatrix values="0 0 0 0 0 0 0 0 0 0 0 0 0 0 0 0 0 0 0.25 0"/><feBlend in2="BackgroundImageFix" result="effect1_dropShadow"/><feBlend in="SourceGraphic" in2="effect1_dropShadow" result="shape"/></filter><filter id="filter13_d" x="80.659" y="78.092" width="49.129" height="48.426" filterUnits="userSpaceOnUse" color-interpolation-filters="sRGB"><feFlood flood-opacity="0" result="BackgroundImageFix"/><feColorMatrix in="SourceAlpha" values="0 0 0 0 0 0 0 0 0 0 0 0 0 0 0 0 0 0 127 0"/><feOffset dx="4" dy="4"/><feGaussianBlur stdDeviation="5"/><feColorMatrix values="0 0 0 0 0 0 0 0 0 0 0 0 0 0 0 0 0 0 0.25 0"/><feBlend in2="BackgroundImageFix" result="effect1_dropShadow"/><feBlend in="SourceGraphic" in2="effect1_dropShadow" result="shape"/></filter><filter id="filter14_d" x="18.214" y="56.046" width="96.449" height="54.336" filterUnits="userSpaceOnUse" color-interpolation-filters="sRGB"><feFlood flood-opacity="0" result="BackgroundImageFix"/><feColorMatrix in="SourceAlpha" values="0 0 0 0 0 0 0 0 0 0 0 0 0 0 0 0 0 0 127 0"/><feOffset dx="4" dy="-4"/><feGaussianBlur stdDeviation="5"/><feColorMatrix values="0 0 0 0 0 0 0 0 0 0 0 0 0 0 0 0 0 0 0.25 0"/><feBlend in2="BackgroundImageFix" result="effect1_dropShadow"/><feBlend in="SourceGraphic" in2="effect1_dropShadow" result="shape"/></filter><clipPath id="clip0"><path fill="#fff" d="M0 0h257v255H0z"/></clipPath></defs></svg>