<svg width="364" height="220" fill="none" xmlns="http://www.w3.org/2000/svg"><g clip-path="url(#clip0)"><g filter="url(#filter0_d)"><path d="M306.55 63.886c13.413-7.99 15.273-21.268 15.273-21.268s2.517 15.735 5.34 23.902c5.467 15.821 25.261 64.599.262 102.935-8.282 12.7-39.292 37.191-72.813 30.663-13.876-2.702-42.042-22.423-74.987-27.387-24.987-3.764-114.78-16.279-139.888-26.469 0 0-19.764-4.146-18.571-20.1.983-13.154 35.019-8.678 35.019-8.678s-38.252-6.48-35.787-24.972c2.954-22.165 40.817-7.778 40.817-7.778s-43.608-23.62-31.494-46.179c13.755-25.614 50.935 11.371 50.935 11.371s-1.596-12.87.3-21.282c1.898-8.412 7.085-17.47 16.58-17.687 14.516-.331 20.36 25.586 28.589 33.574 3.739 3.629 12.669 10.142 29.087 16.07 36.14 13.05 57.982 13.566 97.904 12.655 16.873-.385 37.877-.104 53.434-9.37z" fill="#3C3D75"/></g><mask id="a" maskUnits="userSpaceOnUse" x="-23" y="-105" width="411" height="412"><path d="M306.551 63.886c13.412-7.99 15.272-21.268 15.272-21.268s2.518 15.735 5.34 23.902c5.467 15.821 25.262 64.599.263 102.935-8.283 12.7-39.292 37.191-72.814 30.663-13.876-2.702-42.042-22.423-74.987-27.387-24.987-3.764-114.78-16.279-139.888-26.469 0 0-19.764-4.146-18.571-20.1.983-13.154 35.019-8.678 35.019-8.678s-38.251-6.48-35.787-24.972c2.954-22.165 40.817-7.778 40.817-7.778s-43.608-23.62-31.494-46.179c13.755-25.614 50.936 11.371 50.936 11.371s-1.597-12.87.3-21.282 7.084-17.47 16.579-17.687c14.517-.331 20.36 25.586 28.589 33.574 3.739 3.629 12.669 10.142 29.087 16.07 36.14 13.05 57.982 13.566 97.904 12.655 16.873-.385 37.877-.104 53.435-9.37z" fill="#E35931"/></mask><g mask="url(#a)"><g filter="url(#filter1_f)"><path fill="#313131" fill-opacity=".2" d="M-52.991 51.637L54.357-53.175l81.425 83.395L28.433 135.032z"/></g><g filter="url(#filter2_f)"><path fill="#313131" fill-opacity=".2" d="M151.963 194.672l31.04-146.785 48.103 10.172-31.04 146.785z"/></g><g filter="url(#filter3_f)"><path fill="#fff" fill-opacity=".15" d="M51.649 171.897l68.504-154.092 44.927 19.973L96.576 191.87z"/></g><g filter="url(#filter4_f)"><path fill="#313131" fill-opacity=".2" d="M328.466 169.691L303.487 21.754l48.481-8.186 24.979 147.937z"/></g></g></g><defs><filter id="filter0_d" x="-37" y="-107" width="430.981" height="431.9" filterUnits="userSpaceOnUse" color-interpolation-filters="sRGB"><feFlood flood-opacity="0" result="BackgroundImageFix"/><feColorMatrix in="SourceAlpha" values="0 0 0 0 0 0 0 0 0 0 0 0 0 0 0 0 0 0 127 0"/><feOffset dx="-4" dy="8"/><feGaussianBlur stdDeviation="5"/><feColorMatrix values="0 0 0 0 0 0 0 0 0 0 0 0 0 0 0 0 0 0 0.5 0"/><feBlend in2="BackgroundImageFix" result="effect1_dropShadow"/><feBlend in="SourceGraphic" in2="effect1_dropShadow" result="shape"/></filter><filter id="filter1_f" x="-132.991" y="-133.175" width="348.773" height="348.207" filterUnits="userSpaceOnUse" color-interpolation-filters="sRGB"><feFlood flood-opacity="0" result="BackgroundImageFix"/><feBlend in="SourceGraphic" in2="BackgroundImageFix" result="shape"/><feGaussianBlur stdDeviation="40" result="effect1_foregroundBlur"/></filter><filter id="filter2_f" x="71.963" y="-32.114" width="239.144" height="316.958" filterUnits="userSpaceOnUse" color-interpolation-filters="sRGB"><feFlood flood-opacity="0" result="BackgroundImageFix"/><feBlend in="SourceGraphic" in2="BackgroundImageFix" result="shape"/><feGaussianBlur stdDeviation="40" result="effect1_foregroundBlur"/></filter><filter id="filter3_f" x="-28.351" y="-62.194" width="273.432" height="334.065" filterUnits="userSpaceOnUse" color-interpolation-filters="sRGB"><feFlood flood-opacity="0" result="BackgroundImageFix"/><feBlend in="SourceGraphic" in2="BackgroundImageFix" result="shape"/><feGaussianBlur stdDeviation="40" result="effect1_foregroundBlur"/></filter><filter id="filter4_f" x="223.487" y="-66.433" width="233.46" height="316.123" filterUnits="userSpaceOnUse" color-interpolation-filters="sRGB"><feFlood flood-opacity="0" result="BackgroundImageFix"/><feBlend in="SourceGraphic" in2="BackgroundImageFix" result="shape"/><feGaussianBlur stdDeviation="40" result="effect1_foregroundBlur"/></filter><clipPath id="clip0"><path fill="#fff" d="M0 0h364v220H0z"/></clipPath></defs></svg>