<svg width="553" height="435" fill="none" xmlns="http://www.w3.org/2000/svg"><g filter="url(#filter0_f)"><path d="M71.966 345.386l32.059 34.019 106.258-10.341 8.641-27.036-70.713-29.655-76.245 33.013z" fill="#646464" fill-opacity=".3"/></g><g filter="url(#filter1_f)"><path d="M311.807 347.482l32.059 34.02 106.258-10.342 8.641-27.035-70.713-29.656-76.245 33.013z" fill="#646464" fill-opacity=".3"/></g><path d="M138.574 324.804s-64.351 1.347-64.577 17.151c-.426 29.871 70.892 32.657 70.892 32.657s69.466-.847 69.892-30.647c.258-18.07-76.207-19.161-76.207-19.161zm243.141 2.75s-64.351 1.348-64.577 17.152c-.426 29.871 70.892 32.656 70.892 32.656s69.466-.846 69.892-30.646c.258-18.07-76.207-19.162-76.207-19.162z" fill="#D9D9D9"/><g filter="url(#filter2_d)"><path d="M98.768 292.698l-2.658 98.363 95.874 1.369 1.619-113.413s23.357-34.502 31.51-55.965c5.21-13.714 10.451-22.437 13.061-36.791 1.882-10.354-.93-14.374 2.229-24.413 2.07-6.578 9.914-9.013 7.743-15.558-1.254-3.778-5.665-5.904-11.181-7.053-7.834-1.633-13.392 1.474-19.524 6.615-8.476 7.104-5.911 17.339-11.664 26.784-3.214 5.275-7.054 11.181-7.054 11.181s-2.681-4.317-3.026-7.564c-.728-6.854-.906-11.072 1.504-17.529 6.517-17.455 9.311-29.384 13.231-48.698 3.386-16.69 6.742-26.233 5.003-43.174-1.281-12.476 3.528-28.653-8.979-29.585-8.398-.626-10.702 2.68-15.182 9.811-4.846 7.712-1.578 15.635-4.108 24.384-1.68 5.807-4.282 8.493-5.846 14.332-1.594 5.953-.262 9.758-2.103 15.639-2.062 6.581-5.958 9.089-8.37 15.549-2.788 7.465-4.046 19.999-4.046 19.999s-3.367-27.624-4.253-53.334c-.307-8.904-4.381-14.023-6.571-22.658-3.149-12.418-.994-18.189-4.593-29.523-2.091-6.585-8.074-11.34-14.895-10.241-4.893.788-8.191 3.017-9.498 6.759-1.308 3.741.533 19.84.788 32.602.205 10.277-.736 15.56.886 25.71.881 5.51 2.354 10.748 2.274 16.328l-.519 36.344s-1.714-18.039-4.592-29.523c-2.564-10.227-5.484-15.686-8.406-25.817-3.591-12.452-2.337-11.941-5.864-28.287-1.432-6.634-7.482-11.718-13.016-10.214-5.534 1.504-9.33 4.21-10.17 9.883-1.387 9.381.753 16.927 2.105 28.234.966 8.078 1.306 13.255 2.202 21.341.842 7.603 3.218 11.207 3.491 18.852.175 4.892-.109 7.638-.178 12.533l-.34 23.812L80.433 172.1s-18.655-10.295-29.192-18.593c-13.002-10.24-30.964-26.139-38.627-16.221-5.087 6.585-1.954 13.799 3.474 20.106 19.112 22.21 46.451 38.895 46.451 38.895S77.355 256.041 92 283.827c2.153 4.085 6.768 8.871 6.768 8.871z" fill="#F3DBD0"/></g><path d="M67.826 178.62c-3.247 4.036-1.825 5.9-5.266 8.088-3.441 2.188-10.902-2.119-17.149-7.103-6.246-4.983-13.022-9.978-21.83-18.896-4.416-4.47-7.87-9.75-4.968-15.138 2.207-4.1 5.281-4.309 10.13-3.175 6.85 1.603 15.283 11.251 26.24 18.761 7.138 4.892 20.112 8.286 17.476 12.472-2.32 3.683-1.906 1.599-4.633 4.991z" fill="#FF9090"/><path d="M103.104 48.483c-3.973-.967-7.64-.11-10.017 3.511-2.782 4.237-2.094 8.36-1.523 13.6.483 4.439 2.224 11.415 3.034 18.98.824 7.7-.076 12.65 1.056 20.3.821 5.544 1.524 6.512 2.82 11.982 1.483 6.269 1.157 9.574.99 21.2-.094 6.687 6.154 4.848 10.355 3.514 4.202-1.334 11.628-4.929 13.602-9.599 2.152-5.093.082-15.526-2.522-26.737-2.213-9.525-5.896-15.81-7.944-25.38-1.492-6.977-2.107-10.33-3.402-17.657-1.192-6.744-.36-12.233-6.449-13.714z" fill="#6CB2C3"/><path d="M144.277 26.813c-3.221-3.13-8.4-3.119-11.957-.17-5.38 4.458-.861 22.95-1.196 37.192-.173 7.354-.627 9.112-.235 16.449.385 7.198 1.916 10.696 3.068 17.811 2.232 13.78-.222 15.244.85 33.568.311 5.324 5.437 7.986 11.517 7.806 5.137-.153 8.651-.43 12.797-3.481 8.405-6.184-2.005-32.237-2.661-55.34-.252-8.858-4.316-8.57-5.604-21.957-1.34-13.925-.68-26.146-6.579-31.878z" fill="#FF9090"/><path d="M238.448 156.068c1.556-6.542 2.001-9.168-.844-10.644-2.846-1.475-11.905-2.708-19.005 4.713-7.236 7.563-5.2 13.8-9.642 23.783-3.477 7.813-3.861 7.907-5.967 13.079-3.776 9.275-4.717 10.483-7.411 17.116-1.95 4.802-2.798 9.109-.244 17.119 3.738 11.722 5.419 15.424 10.419 14.103 4.288-1.134 4.013-2.755 7.095-8.205 2.859-5.057 2.124-3.881 6.173-13.533 2.036-4.854 4.601-10.035 6.045-15.097 2.152-7.544 2.041-8.71 4.031-16.298 3.057-11.657 6.562-14.412 9.35-26.136z" fill="#6CB2C3"/><g filter="url(#filter3_d)"><path d="M175.272 274.583c12.348-5.744 18.855-16.054 19.064-30.681.146-10.284-6.124-16.502-5.977-26.785 0 0 4.845-47.194.756-52.942-4.09-5.749-7.885-5.728-12.997-10.59-4.951-4.709-3.007-8.448-9.268-11.186-7.223-3.158-11.897 2.362-20.181 1.663-6.196-.523-11.38-3.506-17.525-2.201-7.174 1.523-22.185 12.667-37.459 27.75-9.954 9.829-19.75 23.006-18.067 35.829 2.345 17.875 16.652 63.31 25.883 77.096 2.695 4.025 10.629 6.979 16.48 7.063 13.404.191 16.775-6.013 29.77-9.304 11.383-2.884 17.172.031 29.521-5.712z" fill="#FF9090"/></g><mask id="a" maskUnits="userSpaceOnUse" x="72" y="140" width="124" height="151"><path d="M175.501 274.856c19.08-5.861 18.514-31.283 18.514-31.283s-4.01-15.996-5.427-26.182c-1.899-13.656 1.953-26.536 1.953-26.536s1.062-13.121.241-16.902c-1.218-5.618-1.438-9.449-1.438-9.449s-7.884-5.784-12.996-10.645c-4.951-4.709-3.008-8.449-9.268-11.186-7.223-3.159-11.897 2.362-20.181 1.662-6.196-.523-11.381-3.505-17.525-2.201-7.174 1.524-22.186 12.668-37.459 27.75-9.954 9.83-19.75 23.007-18.067 35.83 2.345 17.875 16.652 63.309 25.883 77.096 2.695 4.024 10.629 6.979 16.48 7.062 13.404.192 16.774-6.012 29.769-9.304 11.383-2.883 10.442.149 29.521-5.712z" fill="#F9676B"/></mask><g mask="url(#a)"><g filter="url(#filter4_f)"><path fill="#000" fill-opacity=".1" d="M193.948 261.886l8.101 41.036-106.418 21.009-8.101-41.036z"/></g><g filter="url(#filter5_f)"><path fill="#797979" fill-opacity=".25" d="M236.492 182.409l3.798 19.24-196.91 38.873-3.799-19.24z"/></g><g filter="url(#filter6_f)"><path fill="#fff" fill-opacity=".2" d="M189.645 205.148l11.558 24.303-124.672 59.292-11.558-24.302z"/></g><g filter="url(#filter7_f)"><path fill="#fff" fill-opacity=".2" d="M173.344 117.136l11.558 24.303L60.23 200.73l-11.558-24.3z"/></g></g><path d="M103.887 197.505c-.295-5.465 1.214-10.835 6.445-12.444 3.578-1.1 7.064-.933 9.373 2.015 2.263 2.89.834 5.858-.135 9.399-1.563 5.714-4.08 8.335-8.066 8.278-3.986-.057-7.358-2.428-7.617-7.248zm39.782-20.743c-5.153 3.928-.196 13.786 1.657 15.693 3.453 3.554 9.395-1.975 10.751-6.741 1.231-4.328-.21-8.704-4.235-10.715-3.312-1.656-5.227-.482-8.173 1.763zm-14.072 63.729c-7.13-.508-14.252-11.485-14.252-11.485s2.166 20.195 14.109 21.511c11.942 1.315 17.277-24.824 17.277-24.824s-8.315 15.426-17.134 14.798z" fill="#fff"/><g filter="url(#filter8_d)"><path d="M341.481 336.758c.436 18.101-.662 46.359-.662 46.359l94.524 1.349s-8.692-66.364-12.836-113.394c-.931-10.564-.798-28.314-.798-28.314s23.903-29.249 36.772-47.006c3.417-4.714 8.004-10.164 8.004-10.164s24.774-4.914 39.897-10.872c12.24-4.822 27.222-8.644 29.131-15.843 1.433-5.403.566-8.936-4.04-12.101-7.158-4.92-21.205 3.03-34.414 6.132-12.087 2.839-24.153 4.559-33.731.723-5.391-2.159-12.532-8.007-12.532-8.007s1.538-10.124 3.845-16.204c3.405-8.974 7.282-13.622 11.755-22.113 8.146-15.465 18.509-31.05 16.842-40.708-1.209-7.006-4.212-8.57-11.321-8.593-10.646-.034-11.738 12.65-17.767 21.425-4.953 7.21-8.427 10.749-13.503 17.873-6.321 8.871-15.387 23.266-15.387 23.266l-4.791-1.875s2.266-18.143 5.238-29.433c3.294-12.513 6.913-18.974 11.284-31.152 4.447-12.388 13.596-24.495 11.293-31.755-2.131-6.716-8.887-10.364-16.144-8.059-7.462 2.37-12.895 16.114-19.661 27.42-5.779 9.656-8.868 15.247-13.013 25.708-5.358 13.52-9.547 35.995-9.547 35.995l-5.367-3.69s.277-10.753-.955-17.477c-1.112-6.07-4.064-10.746-3.976-16.918.198-13.847-1.913-16.565-2.604-28.34-.621-10.586.136-9.632-1.473-23.506-.642-5.537-6.953-11.013-12.495-10.415-5.788.624-10.582 6.683-11.018 12.488-2.977 39.702-1.455 59.596-1.349 94.524.019 6.388.122 10.218-2.038 16.23-3.23 8.986-15.327 19.051-15.327 19.051s-4.536-9.377-6.399-15.748c-3.193-10.918-.834-15.848-3.854-25.347-1.73-5.444-5.264-10.914-11.852-13.417-4.59-1.744-7.989-1.825-11.465 1.643-4.994 4.982.909 10.015-.842 16.849-1.411 5.504-4.299 7.035-5.601 12.566-2.59 10.998 2.845 17.886 5.007 28.976 1.104 5.658 1.363 8.911 2.804 14.493 3.267 12.645 7.057 19.168 12.807 30.894 5.15 10.501 14.682 26.103 14.682 26.103s11.832 66.997 12.877 110.384z" fill="#F3DBD0"/></g><path d="M316.024 423.622l1.131-79.274a3.48 3.48 0 01.007-.445l-.007.445c.115 3.029 3.348 20.524 62.648 21.37 72.08 1.029 78.528-19.799 78.528-19.799l.817 82.215-143.124-4.512z" fill="#ABDDE9"/><path d="M301.919 107.47c-.374-6.615 2.042-7.564 3.121-8.261 2.012-1.3 11.972-.826 13.832 8.503 1.452 7.28 1.816 14.832 3.659 22.976 3.966 17.52 9.131 17.739 9.449 22.375.388 5.673-.152 10.649-3.269 18.019-3.378 7.987-9.948 14.077-15.57 12.297-5.623-1.781-6.403-9.868-8.067-16.727-1.553-6.398-2.193-6.63-3.814-13.012-.882-3.471-4.38-18.075-4.329-21.656.128-8.969 6.059-5.562 4.988-24.514z" fill="#FF9090"/><path d="M355.902 19.532c1.194-4.854 2.875-8.447 7.874-8.525 5.178-.08 8.266 3.671 9.177 8.769 1.846 10.326.931 13.988 1.989 23.617.726 6.61 1.1 9.657 1.428 16.3.267 5.401.696 10.5 1.616 15.83 1.04 6.024 2.068 8.477 3.267 14.472 1.384 6.918 1.455 12.308-2.572 17.24-4.29 5.254-13.575 12.431-20.736 9.67-3.829-1.475-4.202-8.194-4.024-20.655l.265-18.602c.086-5.994.781-10.637.238-16.608-.619-6.79-1.17-11.137-1.073-17.956.144-10.11.634-15.75 2.551-23.552zm70.685 8.984c3.188-4.657 6.258-7.359 11.755-6.145 4.794 1.06 6.605 4.337 6.535 9.265-.08 5.578-4.814 10.087-8.23 17.954-5.104 11.757-8.244 17.393-11.72 29.734-3.233 11.475-4.493 24.14-6.367 26.576-3.409 4.433-6.664 2.742-11.984 1.059-4.384-1.387-6.085-.81-8.501-4.737-3.058-4.968-1.064-11.468 1.223-19.61 2.29-8.155 4.051-13.861 7.931-21.388l.209-.406c6.357-12.332 9.045-17.547 19.149-32.302z" fill="#3C3D75"/><path d="M472.233 169.557c-2.939-4.989-4.86-4.968-3.953-8.55.907-3.582 11.349-2.321 21.648-3.678 11.698-1.541 21.205-5.62 31.014-8.195 4.955-1.3 11.791-1.082 12.872 3.927.597 2.765-.042 4.764-1.729 7.034-3.052 4.105-15.076 7.586-28.093 12.718-9.244 3.644-21.026 6.677-26.657 3.427-3.673-2.118-2.949-3.029-5.102-6.683z" fill="#6CB2C3"/><g filter="url(#filter9_d)"><path d="M356.416 134.034c6.992-10.941 12.279-16.769 24.969-19.515 17.153-3.713 47.687 9.647 67.001 31.066 4.952 5.491 7.995 10.249 11.203 15.267l.02.031c3.902 6.103 4.291 9.171 1.8 15.973-1.887 5.155-6.406 10.532-9.846 14.81-4.953 6.16-9.126 11.862-13.552 18.411-8.616 12.749-21.31 26.587-21.31 26.587s-11.461 8.409-19.726 8.709c-14.342.519-17.529-4.989-31.174-9.436-13.513-4.404-18.118-3.222-28.724-12.683-11.082-9.886-14.679-17.06-12.424-31.739 1.63-10.608 5.709-17.94 13.298-29.442 8.227-12.469 10.458-15.507 18.465-28.039z" fill="#FF9090"/></g><path d="M457.631 115.673c-6.022 8.951-4.451 9.239-7.226 14.847-1.949 3.941-6.097 2.816-10.573-1.48-4.306-4.133-10.099-5.494-8.148-11.08.693-1.983.784-2.073 4.555-7.475 5.937-8.503 9.021-12.597 15.46-21.476 5.188-7.152 5.618-9.554 10.572-19.118 3.21-6.198 7.492-12.52 13.755-9.439 3.981 1.959 5.063 7.012 4.158 11.356-2.138 10.269-4.375 11.757-8.935 20.803-5.554 11.019-8.527 15.493-13.618 23.062z" fill="#FF9090"/><path d="M377.31 156.719c-.607-3.995 1.369-7.147 5.4-8.458 2.5-.813 4.45-.207 6.605 1.298 2.248 1.571 4.23 3.422 3.527 6.073-.636 2.399-3.736 8.565-10.33 6.476-1.902-.602-4.696-2.059-5.202-5.389zm31.624 10.584c.474-3.642 3.657-5.54 7.311-5.917 4.091-.423 7.456 1.716 8.954 5.547 1.116 2.856.39 6.373-1.919 7.801-4.07 2.517-6.068 2.821-10.358.766-2.75-1.317-4.314-5.686-3.988-8.197zm-28.151 31.513c-5.707-3.558-10.037-13.994-10.037-13.994s-1.442 10.116 1.296 15.073c2.343 4.244 4.648 5.754 9.223 7.358 8 2.806 20.573-6.932 20.573-6.932s-14.06 2.856-21.055-1.505z" fill="#fff"/><path d="M178.606 112.414c-2.733 7.41-8.186 22.861-6.786 27.566 1.399 4.706 2.917 7.136 6.239 10.751 4.609 5.015 9.953 9.844 15.62 6.066 4.519-3.012 13-39.752 17.157-68.237.9-6.168-.374-11.218-.689-17.454-.384-7.623 1.618-14.778-2.057-20.116-2.339-3.4-3.675-3.357-7.461-2.75-5.003.803-6.208 4.353-8.573 9.393-2.835 6.04-.609 10.801-2.124 17.413-1.235 5.386-3.376 7.747-4.546 13.15-1.046 4.833-.144 7.913-1.449 12.666-1.284 4.679-3.663 7.028-5.331 11.552z" fill="#3C3D75"/><path d="M73.45 341.779l-1.186 83.015 146.159 5.229-2.012-86.203s-5.253 24.816-77.332 23.787c-62.801-.896-65.63-25.828-65.63-25.828z" fill="#fff"/><defs><filter id="filter0_f" x="51.148" y="290.516" width="188.464" height="111.696" filterUnits="userSpaceOnUse" color-interpolation-filters="sRGB"><feFlood flood-opacity="0" result="BackgroundImageFix"/><feBlend in="SourceGraphic" in2="BackgroundImageFix" result="shape"/><feGaussianBlur stdDeviation="10" result="effect1_foregroundBlur"/></filter><filter id="filter1_f" x="290.989" y="292.612" width="188.464" height="111.696" filterUnits="userSpaceOnUse" color-interpolation-filters="sRGB"><feFlood flood-opacity="0" result="BackgroundImageFix"/><feBlend in="SourceGraphic" in2="BackgroundImageFix" result="shape"/><feGaussianBlur stdDeviation="10" result="effect1_foregroundBlur"/></filter><filter id="filter2_d" x=".535" y="13.258" width="263.784" height="393.929" filterUnits="userSpaceOnUse" color-interpolation-filters="sRGB"><feFlood flood-opacity="0" result="BackgroundImageFix"/><feColorMatrix in="SourceAlpha" values="0 0 0 0 0 0 0 0 0 0 0 0 0 0 0 0 0 0 127 0"/><feOffset dx="4" dy="4"/><feGaussianBlur stdDeviation="5"/><feColorMatrix values="0 0 0 0 0 0 0 0 0 0 0 0 0 0 0 0 0 0 0.4 0"/><feBlend in2="BackgroundImageFix" result="effect1_dropShadow"/><feBlend in="SourceGraphic" in2="effect1_dropShadow" result="shape"/></filter><filter id="filter3_d" x="66.191" y="134.159" width="143.601" height="170.549" filterUnits="userSpaceOnUse" color-interpolation-filters="sRGB"><feFlood flood-opacity="0" result="BackgroundImageFix"/><feColorMatrix in="SourceAlpha" values="0 0 0 0 0 0 0 0 0 0 0 0 0 0 0 0 0 0 127 0"/><feOffset dx="4" dy="4"/><feGaussianBlur stdDeviation="5"/><feColorMatrix values="0 0 0 0 0 0 0 0 0 0 0 0 0 0 0 0 0 0 0.4 0"/><feBlend in2="BackgroundImageFix" result="effect1_dropShadow"/><feBlend in="SourceGraphic" in2="effect1_dropShadow" result="shape"/></filter><filter id="filter4_f" x="37.53" y="211.886" width="214.519" height="162.044" filterUnits="userSpaceOnUse" color-interpolation-filters="sRGB"><feFlood flood-opacity="0" result="BackgroundImageFix"/><feBlend in="SourceGraphic" in2="BackgroundImageFix" result="shape"/><feGaussianBlur stdDeviation="25" result="effect1_foregroundBlur"/></filter><filter id="filter5_f" x="-10.42" y="132.409" width="300.71" height="158.113" filterUnits="userSpaceOnUse" color-interpolation-filters="sRGB"><feFlood flood-opacity="0" result="BackgroundImageFix"/><feBlend in="SourceGraphic" in2="BackgroundImageFix" result="shape"/><feGaussianBlur stdDeviation="25" result="effect1_foregroundBlur"/></filter><filter id="filter6_f" x="-35.027" y="105.148" width="336.229" height="283.595" filterUnits="userSpaceOnUse" color-interpolation-filters="sRGB"><feFlood flood-opacity="0" result="BackgroundImageFix"/><feBlend in="SourceGraphic" in2="BackgroundImageFix" result="shape"/><feGaussianBlur stdDeviation="50" result="effect1_foregroundBlur"/></filter><filter id="filter7_f" x="-51.327" y="17.136" width="336.229" height="283.595" filterUnits="userSpaceOnUse" color-interpolation-filters="sRGB"><feFlood flood-opacity="0" result="BackgroundImageFix"/><feBlend in="SourceGraphic" in2="BackgroundImageFix" result="shape"/><feGaussianBlur stdDeviation="50" result="effect1_foregroundBlur"/></filter><filter id="filter8_d" x="283.037" y=".031" width="269.181" height="399.827" filterUnits="userSpaceOnUse" color-interpolation-filters="sRGB"><feFlood flood-opacity="0" result="BackgroundImageFix"/><feColorMatrix in="SourceAlpha" values="0 0 0 0 0 0 0 0 0 0 0 0 0 0 0 0 0 0 127 0"/><feOffset dx="4" dy="4"/><feGaussianBlur stdDeviation="5"/><feColorMatrix values="0 0 0 0 0 0 0 0 0 0 0 0 0 0 0 0 0 0 0.4 0"/><feBlend in2="BackgroundImageFix" result="effect1_dropShadow"/><feBlend in="SourceGraphic" in2="effect1_dropShadow" result="shape"/></filter><filter id="filter9_d" x="313.361" y="109.007" width="160.4" height="153.358" filterUnits="userSpaceOnUse" color-interpolation-filters="sRGB"><feFlood flood-opacity="0" result="BackgroundImageFix"/><feColorMatrix in="SourceAlpha" values="0 0 0 0 0 0 0 0 0 0 0 0 0 0 0 0 0 0 127 0"/><feOffset dy="6"/><feGaussianBlur stdDeviation="5"/><feColorMatrix values="0 0 0 0 0 0 0 0 0 0 0 0 0 0 0 0 0 0 0.4 0"/><feBlend in2="BackgroundImageFix" result="effect1_dropShadow"/><feBlend in="SourceGraphic" in2="effect1_dropShadow" result="shape"/></filter></defs></svg>