<svg width="368" height="232" fill="none" xmlns="http://www.w3.org/2000/svg"><g clip-path="url(#clip0)"><g filter="url(#filter0_d)"><path d="M57.427 80.982c-14.54-8.602-19.73-38.498-19.73-38.498S34.019 57.91 31.001 66.75C25.154 83.872-.007 137.157 27.19 178.54c9.01 13.71 33.42 41.928 78.879 32.954 14.997-2.961 45.377-24.365 80.988-29.825 27.008-4.14 124.072-17.923 151.184-29.012 0 0 21.777-10.562 20.029-23.675-2.002-15.016-29.675-14.476-29.675-14.476s31.576-5.16 30.336-20.025c-1.994-23.912-35.029-15.388-35.029-15.388s37.212-26.38 24.72-42.93c-18.952-25.11-55.041 12.439-55.041 12.439s2.515-13.609-.414-23.012c-2.289-7.35-7.783-18.059-18.005-19.08-9.167-.914-19.853 20.402-30.78 36.385-8.722 12.755-16.702 21.785-30.883 24.753-40.666 8.512-63.226 4.231-106.343 6.663-19.58 1.104-32.865 16.647-49.73 6.67z" fill="#FF9090"/></g><mask id="a" maskUnits="userSpaceOnUse" x="-36" y="-115" width="440" height="442"><path d="M57.427 80.982c-14.54-8.602-19.73-38.498-19.73-38.498S34.018 57.91 31 66.75c-5.847 17.122-31.008 70.407-3.81 111.79 9.011 13.71 33.42 41.928 78.88 32.954 14.997-2.961 45.376-24.365 80.987-29.825 27.009-4.14 124.072-17.923 151.185-29.012 0 0 21.777-10.562 20.029-23.675-2.002-15.016-29.676-14.476-29.676-14.476s31.577-5.16 30.337-20.025c-1.994-23.912-35.03-15.388-35.03-15.388s37.213-26.38 24.721-42.93c-18.953-25.11-55.042 12.439-55.042 12.439s2.515-13.609-.414-23.012c-2.289-7.35-7.782-18.059-18.004-19.08-9.167-.914-19.853 20.402-30.781 36.385-8.721 12.755-16.701 21.785-30.882 24.753-40.666 8.512-63.226 4.231-106.344 6.663-19.58 1.104-32.865 16.647-49.73 6.67z" fill="#F3A712"/></mask><g mask="url(#a)"><g filter="url(#filter1_f)"><path fill="#fff" fill-opacity=".2" d="M255.692 143.581l72.387-162.826 84.433 37.537-72.387 162.825z"/></g><g filter="url(#filter2_f)"><path fill="#000" fill-opacity=".2" d="M-33.013 179.825L39.374 17l71.675 31.864L38.662 211.69z"/></g></g></g><defs><filter id="filter0_d" x="-48" y="-115" width="455.751" height="457.564" filterUnits="userSpaceOnUse" color-interpolation-filters="sRGB"><feFlood flood-opacity="0" result="BackgroundImageFix"/><feColorMatrix in="SourceAlpha" values="0 0 0 0 0 0 0 0 0 0 0 0 0 0 0 0 0 0 127 0"/><feOffset dx="-4" dy="8"/><feGaussianBlur stdDeviation="4"/><feColorMatrix values="0 0 0 0 0 0 0 0 0 0 0 0 0 0 0 0 0 0 0.5 0"/><feBlend in2="BackgroundImageFix" result="effect1_dropShadow"/><feBlend in="SourceGraphic" in2="effect1_dropShadow" result="shape"/></filter><filter id="filter1_f" x="175.692" y="-99.245" width="316.82" height="360.362" filterUnits="userSpaceOnUse" color-interpolation-filters="sRGB"><feFlood flood-opacity="0" result="BackgroundImageFix"/><feBlend in="SourceGraphic" in2="BackgroundImageFix" result="shape"/><feGaussianBlur stdDeviation="40" result="effect1_foregroundBlur"/></filter><filter id="filter2_f" x="-113.013" y="-63.001" width="304.063" height="354.69" filterUnits="userSpaceOnUse" color-interpolation-filters="sRGB"><feFlood flood-opacity="0" result="BackgroundImageFix"/><feBlend in="SourceGraphic" in2="BackgroundImageFix" result="shape"/><feGaussianBlur stdDeviation="40" result="effect1_foregroundBlur"/></filter><clipPath id="clip0"><path fill="#fff" d="M0 0h368v232H0z"/></clipPath></defs></svg>