<svg width="553" height="435" viewBox="0 0 553 435" fill="none" xmlns="http://www.w3.org/2000/svg">
<g filter="url(#filter0_f)">
<path d="M71.9658 345.386L104.025 379.405L210.283 369.064L218.924 342.028L148.211 312.373L71.9658 345.386Z" fill="#646464" fill-opacity="0.3"/>
</g>
<g filter="url(#filter1_f)">
<path d="M311.807 347.482L343.866 381.502L450.124 371.16L458.765 344.125L388.052 314.469L311.807 347.482Z" fill="#646464" fill-opacity="0.3"/>
</g>
<path d="M138.574 324.804C138.574 324.804 74.2228 326.151 73.9972 341.955C73.5707 371.826 144.889 374.612 144.889 374.612C144.889 374.612 214.355 373.765 214.781 343.965C215.039 325.895 138.574 324.804 138.574 324.804Z" fill="#D9D9D9"/>
<path d="M381.715 327.554C381.715 327.554 317.364 328.902 317.138 344.706C316.712 374.577 388.03 377.362 388.03 377.362C388.03 377.362 457.496 376.516 457.922 346.716C458.18 328.646 381.715 327.554 381.715 327.554Z" fill="#D9D9D9"/>
<g filter="url(#filter2_d)">
<path d="M98.768 292.698L96.1102 391.061L191.984 392.43L193.603 279.017C193.603 279.017 216.96 244.515 225.113 223.052C230.323 209.338 235.564 200.615 238.174 186.261C240.056 175.907 237.244 171.887 240.403 161.848C242.473 155.27 250.317 152.835 248.146 146.29C246.892 142.512 242.481 140.386 236.965 139.237C229.131 137.604 223.573 140.711 217.441 145.852C208.965 152.956 211.53 163.191 205.777 172.636C202.563 177.911 198.723 183.817 198.723 183.817C198.723 183.817 196.042 179.5 195.697 176.253C194.969 169.399 194.791 165.181 197.201 158.724C203.718 141.269 206.512 129.34 210.432 110.026C213.818 93.3366 217.174 83.7934 215.435 66.8524C214.154 54.3765 218.963 38.1991 206.456 37.2668C198.058 36.6407 195.754 39.9474 191.274 47.0781C186.428 54.7903 189.696 62.7128 187.166 71.4622C185.486 77.2687 182.884 79.9553 181.32 85.7941C179.726 91.7466 181.058 95.5523 179.217 101.433C177.155 108.014 173.259 110.522 170.847 116.982C168.059 124.447 166.801 136.981 166.801 136.981C166.801 136.981 163.434 109.357 162.548 83.6465C162.241 74.7432 158.167 69.6241 155.977 60.9888C152.828 48.5711 154.983 42.8 151.384 31.4664C149.293 24.8812 143.31 20.1257 136.489 21.225C131.596 22.0135 128.298 24.242 126.991 27.9837C125.683 31.7254 127.524 47.8248 127.779 60.5862C127.984 70.8632 127.043 76.1458 128.665 86.296C129.546 91.8069 131.019 97.0437 130.939 102.624L130.42 138.968C130.42 138.968 128.706 120.929 125.828 109.445C123.264 99.2181 120.344 93.759 117.422 83.6283C113.831 71.1762 115.085 71.6867 111.558 55.3407C110.126 48.7066 104.076 43.6228 98.542 45.1268C93.0083 46.6307 89.2117 49.337 88.3728 55.0097C86.9853 64.3912 89.125 71.9366 90.477 83.2436C91.443 91.3215 91.7834 96.4988 92.679 104.585C93.5212 112.188 95.8968 115.792 96.1704 123.437C96.3455 128.329 96.0613 131.075 95.9915 135.97L95.6515 159.782L80.4334 172.1C80.4334 172.1 61.7781 161.805 51.2413 153.507C38.2392 143.267 20.2768 127.368 12.614 137.286C7.52674 143.871 10.6602 151.085 16.0878 157.392C35.1998 179.602 62.5393 196.287 62.5393 196.287C62.5393 196.287 77.355 256.041 92.0004 283.827C94.1535 287.912 98.768 292.698 98.768 292.698Z" fill="#F3DBD0"/>
</g>
<path d="M67.8257 178.62C64.5792 182.656 66.0012 184.52 62.5599 186.708C59.1186 188.896 51.6577 184.589 45.4113 179.605C39.1649 174.622 32.3892 169.627 23.5805 160.709C19.1648 156.239 15.7117 150.959 18.6127 145.571C20.8205 141.471 23.894 141.262 28.743 142.396C35.5922 143.999 44.0257 153.647 54.983 161.157C62.1206 166.049 75.0949 169.443 72.4589 173.629C70.1394 177.312 70.5535 175.228 67.8257 178.62Z" fill="#FF9090"/>
<path d="M103.104 48.4829C99.1311 47.5163 95.4644 48.3738 93.0871 51.9944C90.3052 56.2312 90.9933 60.3541 91.564 65.5942C92.0473 70.0326 93.7881 77.0087 94.5979 84.5747C95.4219 92.274 94.5217 97.2239 95.6544 104.874C96.4754 110.418 97.1783 111.386 98.4734 116.856C99.9574 123.125 99.6309 126.43 99.4649 138.056C99.3695 144.743 105.618 142.904 109.819 141.57C114.021 140.236 121.447 136.641 123.421 131.971C125.573 126.878 123.503 116.445 120.899 105.234C118.686 95.7087 115.003 89.4248 112.955 79.8533C111.463 72.8775 110.848 69.5241 109.553 62.1965C108.361 55.4529 109.193 49.9643 103.104 48.4829Z" fill="#6CB2C3"/>
<path d="M144.277 26.8131C141.056 23.6828 135.877 23.694 132.32 26.6426C126.94 31.1011 131.459 49.5933 131.124 63.835C130.951 71.1891 130.497 72.9468 130.889 80.2839C131.274 87.4822 132.805 90.9799 133.957 98.0953C136.189 111.875 133.735 113.339 134.807 131.663C135.118 136.987 140.244 139.649 146.324 139.469C151.461 139.316 154.975 139.039 159.121 135.988C167.526 129.804 157.116 103.751 156.46 80.6489C156.208 71.7905 152.144 72.0784 150.856 58.691C149.516 44.7663 150.176 32.545 144.277 26.8131Z" fill="#FF9090"/>
<path d="M238.448 156.068C240.004 149.526 240.449 146.9 237.604 145.424C234.758 143.949 225.699 142.716 218.599 150.137C211.363 157.7 213.399 163.937 208.957 173.92C205.48 181.733 205.096 181.827 202.99 186.999C199.214 196.274 198.273 197.482 195.579 204.115C193.629 208.917 192.781 213.224 195.335 221.234C199.073 232.956 200.754 236.658 205.754 235.337C210.042 234.203 209.767 232.582 212.849 227.132C215.708 222.075 214.973 223.251 219.022 213.599C221.058 208.745 223.623 203.564 225.067 198.502C227.219 190.958 227.108 189.792 229.098 182.204C232.155 170.547 235.66 167.792 238.448 156.068Z" fill="#6CB2C3"/>
<g filter="url(#filter3_d)">
<path d="M175.272 274.583C187.62 268.839 194.127 258.529 194.336 243.902C194.482 233.618 188.212 227.4 188.359 217.117C188.359 217.117 193.204 169.923 189.115 164.175C185.025 158.426 181.23 158.447 176.118 153.585C171.167 148.876 173.111 145.137 166.85 142.399C159.627 139.241 154.953 144.761 146.669 144.062C140.473 143.539 135.289 140.556 129.144 141.861C121.97 143.384 106.959 154.528 91.6854 169.611C81.7315 179.44 71.9353 192.617 73.6178 205.44C75.9633 223.315 90.27 268.75 99.5014 282.536C102.196 286.561 110.13 289.515 115.981 289.599C129.385 289.79 132.756 283.586 145.751 280.295C157.134 277.411 162.923 280.326 175.272 274.583Z" fill="#FF9090"/>
</g>
<mask id="mask0" mask-type="alpha" maskUnits="userSpaceOnUse" x="72" y="140" width="124" height="151">
<path d="M175.501 274.856C194.581 268.995 194.015 243.573 194.015 243.573C194.015 243.573 190.005 227.577 188.588 217.391C186.689 203.735 190.541 190.855 190.541 190.855C190.541 190.855 191.603 177.734 190.782 173.953C189.564 168.335 189.344 164.504 189.344 164.504C189.344 164.504 181.46 158.72 176.348 153.859C171.397 149.15 173.34 145.41 167.08 142.673C159.857 139.514 155.183 145.035 146.899 144.335C140.703 143.812 135.518 140.83 129.374 142.134C122.2 143.658 107.188 154.802 91.9152 169.884C81.9612 179.714 72.165 192.891 73.8476 205.714C76.193 223.589 90.4997 269.023 99.7312 282.81C102.426 286.834 110.36 289.789 116.211 289.872C129.615 290.064 132.985 283.86 145.98 280.568C157.363 277.685 156.422 280.717 175.501 274.856Z" fill="#F9676B"/>
</mask>
<g mask="url(#mask0)">
<g filter="url(#filter4_f)">
<rect x="193.948" y="261.886" width="41.8276" height="108.472" transform="rotate(78.8325 193.948 261.886)" fill="black" fill-opacity="0.1"/>
</g>
<g filter="url(#filter5_f)">
<rect x="236.492" y="182.409" width="19.6106" height="200.712" transform="rotate(78.8325 236.492 182.409)" fill="#797979" fill-opacity="0.25"/>
</g>
<g filter="url(#filter6_f)">
<rect x="189.645" y="205.148" width="26.911" height="138.053" transform="rotate(64.5647 189.645 205.148)" fill="white" fill-opacity="0.2"/>
</g>
<g filter="url(#filter7_f)">
<rect x="173.344" y="117.136" width="26.911" height="138.053" transform="rotate(64.5647 173.344 117.136)" fill="white" fill-opacity="0.2"/>
</g>
</g>
<path d="M103.887 197.505C103.592 192.04 105.101 186.67 110.332 185.061C113.91 183.961 117.396 184.128 119.705 187.076C121.968 189.966 120.539 192.934 119.57 196.475C118.007 202.189 115.49 204.81 111.504 204.753C107.518 204.696 104.146 202.325 103.887 197.505Z" fill="white"/>
<path d="M143.669 176.762C138.516 180.69 143.473 190.548 145.326 192.455C148.779 196.009 154.721 190.48 156.077 185.714C157.308 181.386 155.867 177.01 151.842 174.999C148.53 173.343 146.615 174.517 143.669 176.762Z" fill="white"/>
<path d="M129.597 240.491C122.467 239.983 115.345 229.006 115.345 229.006C115.345 229.006 117.511 249.201 129.454 250.517C141.396 251.832 146.731 225.693 146.731 225.693C146.731 225.693 138.416 241.119 129.597 240.491Z" fill="white"/>
<g filter="url(#filter8_d)">
<path d="M341.481 336.758C341.917 354.859 340.819 383.117 340.819 383.117L435.343 384.466C435.343 384.466 426.651 318.102 422.507 271.072C421.576 260.508 421.709 242.758 421.709 242.758C421.709 242.758 445.612 213.509 458.481 195.752C461.898 191.038 466.485 185.588 466.485 185.588C466.485 185.588 491.259 180.674 506.382 174.716C518.622 169.894 533.604 166.072 535.513 158.873C536.946 153.47 536.079 149.937 531.473 146.772C524.315 141.852 510.268 149.802 497.059 152.904C484.972 155.743 472.906 157.463 463.328 153.627C457.937 151.468 450.796 145.62 450.796 145.62C450.796 145.62 452.334 135.496 454.641 129.416C458.046 120.442 461.923 115.794 466.396 107.303C474.542 91.8385 484.905 76.2534 483.238 66.5946C482.029 59.5891 479.026 58.0256 471.917 58.0024C461.271 57.9677 460.179 70.6521 454.15 79.4273C449.197 86.6375 445.723 90.1758 440.647 97.3C434.326 106.171 425.26 120.566 425.26 120.566L420.469 118.691C420.469 118.691 422.735 100.548 425.707 89.2583C429.001 76.7453 432.62 70.2844 436.991 58.1059C441.438 45.718 450.587 33.6105 448.284 26.3513C446.153 19.6348 439.397 15.9874 432.14 18.2924C424.678 20.6627 419.245 34.4057 412.479 45.7122C406.7 55.3678 403.611 60.9593 399.466 71.4203C394.108 84.9402 389.919 107.415 389.919 107.415L384.552 103.725C384.552 103.725 384.829 92.9719 383.597 86.2484C382.485 80.1772 379.533 75.502 379.621 69.3304C379.819 55.4829 377.708 52.7651 377.017 40.9906C376.396 30.4038 377.153 31.3576 375.544 17.4843C374.902 11.947 368.591 6.47133 363.049 7.06885C357.261 7.69289 352.467 13.7517 352.031 19.5573C349.054 59.259 350.576 79.1528 350.682 114.081C350.701 120.469 350.804 124.299 348.644 130.311C345.414 139.297 333.317 149.362 333.317 149.362C333.317 149.362 328.781 139.985 326.918 133.614C323.725 122.696 326.084 117.766 323.064 108.267C321.334 102.823 317.8 97.3527 311.212 94.8499C306.622 93.1063 303.223 93.0248 299.747 96.4928C294.753 101.475 300.656 106.508 298.905 113.342C297.494 118.846 294.606 120.377 293.304 125.908C290.714 136.906 296.149 143.794 298.311 154.884C299.415 160.542 299.674 163.795 301.115 169.377C304.382 182.022 308.172 188.545 313.922 200.271C319.072 210.772 328.604 226.374 328.604 226.374C328.604 226.374 340.436 293.371 341.481 336.758Z" fill="#F3DBD0"/>
</g>
<path d="M316.024 423.622L317.155 344.348C317.145 344.06 317.162 343.903 317.162 343.903L317.155 344.348C317.27 347.377 320.503 364.872 379.803 365.718C451.883 366.747 458.331 345.919 458.331 345.919L459.148 428.134L316.024 423.622Z" fill="#ABDDE9"/>
<path d="M301.919 107.47C301.545 100.855 303.961 99.9057 305.04 99.2085C307.052 97.9083 317.012 98.3829 318.872 107.712C320.324 114.992 320.688 122.544 322.531 130.688C326.497 148.208 331.662 148.427 331.98 153.063C332.368 158.736 331.828 163.712 328.711 171.082C325.333 179.069 318.763 185.159 313.141 183.379C307.518 181.598 306.738 173.511 305.074 166.652C303.521 160.254 302.881 160.022 301.26 153.64C300.378 150.169 296.88 135.565 296.931 131.984C297.059 123.015 302.99 126.422 301.919 107.47Z" fill="#FF9090"/>
<path d="M355.902 19.5325C357.096 14.6778 358.777 11.0852 363.776 11.0071C368.954 10.9261 372.042 14.6783 372.953 19.7759C374.799 30.1015 373.884 33.7641 374.942 43.3928C375.668 50.0038 376.042 53.0497 376.37 59.6925C376.637 65.0942 377.066 70.1929 377.986 75.5224C379.026 81.5471 380.054 84.0003 381.253 89.9953C382.637 96.9126 382.708 102.303 378.681 107.235C374.391 112.489 365.106 119.666 357.945 116.905C354.116 115.43 353.743 108.711 353.921 96.2496L354.186 77.6485C354.272 71.6541 354.967 67.0106 354.424 61.0403C353.805 54.2492 353.254 49.903 353.351 43.0845C353.495 32.9743 353.985 27.3336 355.902 19.5325Z" fill="#3C3D75"/>
<path d="M426.587 28.5159C429.775 23.8589 432.845 21.1572 438.342 22.3713C443.136 23.4302 444.947 26.7077 444.877 31.6363C444.797 37.2135 440.063 41.723 436.647 49.5901C431.543 61.3468 428.403 66.9827 424.927 79.3236C421.694 90.7993 420.434 103.464 418.56 105.9C415.151 110.333 411.896 108.642 406.576 106.959C402.192 105.572 400.491 106.149 398.075 102.222C395.017 97.2542 397.011 90.7542 399.298 82.6122C401.588 74.4567 403.349 68.751 407.229 61.2236L407.438 60.818C413.795 48.4861 416.483 43.2714 426.587 28.5159Z" fill="#3C3D75"/>
<path d="M472.233 169.557C469.294 164.568 467.373 164.589 468.28 161.007C469.187 157.425 479.629 158.686 489.928 157.329C501.626 155.788 511.133 151.709 520.942 149.134C525.897 147.834 532.733 148.052 533.814 153.061C534.411 155.826 533.772 157.825 532.085 160.095C529.033 164.2 517.009 167.681 503.992 172.813C494.748 176.457 482.966 179.49 477.335 176.24C473.662 174.122 474.386 173.211 472.233 169.557Z" fill="#6CB2C3"/>
<g filter="url(#filter9_d)">
<path d="M356.416 134.034C363.408 123.093 368.695 117.265 381.385 114.519C398.538 110.806 429.072 124.166 448.386 145.585C453.338 151.076 456.381 155.834 459.589 160.852L459.609 160.883C463.511 166.986 463.9 170.054 461.409 176.856C459.522 182.011 455.003 187.388 451.563 191.666C446.61 197.826 442.437 203.528 438.011 210.077C429.395 222.826 416.701 236.664 416.701 236.664C416.701 236.664 405.24 245.073 396.975 245.373C382.633 245.892 379.446 240.384 365.801 235.937C352.288 231.533 347.683 232.715 337.077 223.254C325.995 213.368 322.398 206.194 324.653 191.515C326.283 180.907 330.362 173.575 337.951 162.073C346.178 149.604 348.409 146.566 356.416 134.034Z" fill="#FF9090"/>
</g>
<path d="M457.631 115.673C451.609 124.624 453.18 124.912 450.405 130.52C448.456 134.461 444.308 133.336 439.832 129.04C435.526 124.907 429.733 123.546 431.684 117.96C432.377 115.977 432.468 115.887 436.239 110.485C442.176 101.982 445.26 97.8878 451.699 89.0094C456.887 81.8567 457.317 79.4554 462.271 69.891C465.481 63.6935 469.763 57.3716 476.026 60.4523C480.007 62.4107 481.089 67.4644 480.184 71.8079C478.046 82.0767 475.809 83.5647 471.249 92.6109C465.695 103.63 462.722 108.104 457.631 115.673Z" fill="#FF9090"/>
<path d="M377.31 156.719C376.703 152.724 378.679 149.572 382.71 148.261C385.21 147.448 387.16 148.054 389.315 149.559C391.563 151.13 393.545 152.981 392.842 155.632C392.206 158.031 389.106 164.197 382.512 162.108C380.61 161.506 377.816 160.049 377.31 156.719Z" fill="white"/>
<path d="M408.934 167.303C409.408 163.661 412.591 161.763 416.245 161.386C420.336 160.963 423.701 163.102 425.199 166.933C426.315 169.789 425.589 173.306 423.28 174.734C419.21 177.251 417.212 177.555 412.922 175.5C410.172 174.183 408.608 169.814 408.934 167.303Z" fill="white"/>
<path d="M380.783 198.816C375.076 195.258 370.746 184.822 370.746 184.822C370.746 184.822 369.304 194.938 372.042 199.895C374.385 204.139 376.69 205.649 381.265 207.253C389.265 210.059 401.838 200.321 401.838 200.321C401.838 200.321 387.778 203.177 380.783 198.816Z" fill="white"/>
<path d="M178.606 112.414C175.873 119.824 170.42 135.275 171.82 139.98C173.219 144.686 174.737 147.116 178.059 150.731C182.668 155.746 188.012 160.575 193.679 156.797C198.198 153.785 206.679 117.045 210.836 88.5599C211.736 82.3924 210.462 77.3417 210.147 71.1061C209.763 63.4829 211.765 56.3284 208.09 50.99C205.751 47.5907 204.415 47.6331 200.629 48.2406C195.626 49.0431 194.421 52.5929 192.056 57.6328C189.221 63.673 191.447 68.4342 189.932 75.0464C188.697 80.4317 186.556 82.7931 185.386 88.1965C184.34 93.0294 185.242 96.109 183.937 100.862C182.653 105.541 180.274 107.89 178.606 112.414Z" fill="#3C3D75"/>
<path d="M73.4495 341.779L72.2643 424.794L218.423 430.023L216.411 343.82C216.411 343.82 211.158 368.636 139.079 367.607C76.2779 366.711 73.4495 341.779 73.4495 341.779Z" fill="white"/>
<defs>
<filter id="filter0_f" x="51.1475" y="290.516" width="188.464" height="111.696" filterUnits="userSpaceOnUse" color-interpolation-filters="sRGB">
<feFlood flood-opacity="0" result="BackgroundImageFix"/>
<feBlend mode="normal" in="SourceGraphic" in2="BackgroundImageFix" result="shape"/>
<feGaussianBlur stdDeviation="10" result="effect1_foregroundBlur"/>
</filter>
<filter id="filter1_f" x="290.989" y="292.612" width="188.464" height="111.696" filterUnits="userSpaceOnUse" color-interpolation-filters="sRGB">
<feFlood flood-opacity="0" result="BackgroundImageFix"/>
<feBlend mode="normal" in="SourceGraphic" in2="BackgroundImageFix" result="shape"/>
<feGaussianBlur stdDeviation="10" result="effect1_foregroundBlur"/>
</filter>
<filter id="filter2_d" x="0.535156" y="13.2576" width="263.784" height="393.929" filterUnits="userSpaceOnUse" color-interpolation-filters="sRGB">
<feFlood flood-opacity="0" result="BackgroundImageFix"/>
<feColorMatrix in="SourceAlpha" type="matrix" values="0 0 0 0 0 0 0 0 0 0 0 0 0 0 0 0 0 0 127 0"/>
<feOffset dx="4" dy="4"/>
<feGaussianBlur stdDeviation="5"/>
<feColorMatrix type="matrix" values="0 0 0 0 0 0 0 0 0 0 0 0 0 0 0 0 0 0 0.4 0"/>
<feBlend mode="normal" in2="BackgroundImageFix" result="effect1_dropShadow"/>
<feBlend mode="normal" in="SourceGraphic" in2="effect1_dropShadow" result="shape"/>
</filter>
<filter id="filter3_d" x="66.1912" y="134.159" width="143.601" height="170.549" filterUnits="userSpaceOnUse" color-interpolation-filters="sRGB">
<feFlood flood-opacity="0" result="BackgroundImageFix"/>
<feColorMatrix in="SourceAlpha" type="matrix" values="0 0 0 0 0 0 0 0 0 0 0 0 0 0 0 0 0 0 127 0"/>
<feOffset dx="4" dy="4"/>
<feGaussianBlur stdDeviation="5"/>
<feColorMatrix type="matrix" values="0 0 0 0 0 0 0 0 0 0 0 0 0 0 0 0 0 0 0.4 0"/>
<feBlend mode="normal" in2="BackgroundImageFix" result="effect1_dropShadow"/>
<feBlend mode="normal" in="SourceGraphic" in2="effect1_dropShadow" result="shape"/>
</filter>
<filter id="filter4_f" x="37.5298" y="211.886" width="214.519" height="162.044" filterUnits="userSpaceOnUse" color-interpolation-filters="sRGB">
<feFlood flood-opacity="0" result="BackgroundImageFix"/>
<feBlend mode="normal" in="SourceGraphic" in2="BackgroundImageFix" result="shape"/>
<feGaussianBlur stdDeviation="25" result="effect1_foregroundBlur"/>
</filter>
<filter id="filter5_f" x="-10.4197" y="132.409" width="300.71" height="158.113" filterUnits="userSpaceOnUse" color-interpolation-filters="sRGB">
<feFlood flood-opacity="0" result="BackgroundImageFix"/>
<feBlend mode="normal" in="SourceGraphic" in2="BackgroundImageFix" result="shape"/>
<feGaussianBlur stdDeviation="25" result="effect1_foregroundBlur"/>
</filter>
<filter id="filter6_f" x="-35.0269" y="105.148" width="336.229" height="283.595" filterUnits="userSpaceOnUse" color-interpolation-filters="sRGB">
<feFlood flood-opacity="0" result="BackgroundImageFix"/>
<feBlend mode="normal" in="SourceGraphic" in2="BackgroundImageFix" result="shape"/>
<feGaussianBlur stdDeviation="50" result="effect1_foregroundBlur"/>
</filter>
<filter id="filter7_f" x="-51.3274" y="17.1357" width="336.229" height="283.595" filterUnits="userSpaceOnUse" color-interpolation-filters="sRGB">
<feFlood flood-opacity="0" result="BackgroundImageFix"/>
<feBlend mode="normal" in="SourceGraphic" in2="BackgroundImageFix" result="shape"/>
<feGaussianBlur stdDeviation="50" result="effect1_foregroundBlur"/>
</filter>
<filter id="filter8_d" x="283.037" y="0.0311279" width="269.181" height="399.827" filterUnits="userSpaceOnUse" color-interpolation-filters="sRGB">
<feFlood flood-opacity="0" result="BackgroundImageFix"/>
<feColorMatrix in="SourceAlpha" type="matrix" values="0 0 0 0 0 0 0 0 0 0 0 0 0 0 0 0 0 0 127 0"/>
<feOffset dx="4" dy="4"/>
<feGaussianBlur stdDeviation="5"/>
<feColorMatrix type="matrix" values="0 0 0 0 0 0 0 0 0 0 0 0 0 0 0 0 0 0 0.4 0"/>
<feBlend mode="normal" in2="BackgroundImageFix" result="effect1_dropShadow"/>
<feBlend mode="normal" in="SourceGraphic" in2="effect1_dropShadow" result="shape"/>
</filter>
<filter id="filter9_d" x="313.361" y="109.007" width="160.4" height="153.358" filterUnits="userSpaceOnUse" color-interpolation-filters="sRGB">
<feFlood flood-opacity="0" result="BackgroundImageFix"/>
<feColorMatrix in="SourceAlpha" type="matrix" values="0 0 0 0 0 0 0 0 0 0 0 0 0 0 0 0 0 0 127 0"/>
<feOffset dy="6"/>
<feGaussianBlur stdDeviation="5"/>
<feColorMatrix type="matrix" values="0 0 0 0 0 0 0 0 0 0 0 0 0 0 0 0 0 0 0.4 0"/>
<feBlend mode="normal" in2="BackgroundImageFix" result="effect1_dropShadow"/>
<feBlend mode="normal" in="SourceGraphic" in2="effect1_dropShadow" result="shape"/>
</filter>
</defs>
</svg>
