<svg width="258" height="425" viewBox="0 0 258 425" fill="none" xmlns="http://www.w3.org/2000/svg">
<g filter="url(#filter0_f)">
<path d="M70.225 338.458L103.99 373.27L214.076 360.97L222.641 332.799L148.838 303.087L70.225 338.458Z" fill="#646464" fill-opacity="0.3"/>
</g>
<path d="M139.024 316.122C139.024 316.122 72.2811 318.473 72.2811 334.869C72.2811 365.859 146.313 367.692 146.313 367.692C146.313 367.692 218.37 365.785 218.37 334.869C218.37 316.122 139.024 316.122 139.024 316.122Z" fill="#D9D9D9"/>
<g filter="url(#filter1_d)">
<path d="M97.251 283.411L95.9506 385.476L195.438 385.476V267.816C195.438 267.816 219.158 231.683 227.299 209.3C232.501 194.998 237.809 185.873 240.304 170.944C242.103 160.177 239.126 156.049 242.255 145.59C244.305 138.736 252.407 136.094 250.058 129.337C248.701 125.438 244.093 123.297 238.353 122.187C230.202 120.61 224.482 123.915 218.196 129.337C209.507 136.832 212.32 147.41 206.491 157.292C203.236 162.812 199.339 168.994 199.339 168.994C199.339 168.994 196.493 164.556 196.087 161.193C195.231 154.095 194.983 149.722 197.388 142.99C203.89 124.787 206.613 112.373 210.393 92.2818C213.66 74.9202 216.999 64.9719 214.944 47.4257C213.431 34.5041 218.18 17.6529 205.191 16.8711C196.469 16.3461 194.127 19.81 189.585 27.2727C184.672 35.3439 188.18 43.5131 185.684 52.6258C184.027 58.6735 181.368 61.4987 179.832 67.5781C178.266 73.7759 179.705 77.7036 177.881 83.8305C175.84 90.6872 171.835 93.3462 169.428 100.083C166.647 107.867 165.526 120.886 165.526 120.886C165.526 120.886 161.624 92.2832 160.324 65.6285C159.874 56.3981 155.572 51.1487 153.172 42.2242C149.721 29.3906 151.871 23.3726 147.97 11.6703C145.703 4.87074 139.425 0.026728 132.364 1.26801C127.3 2.1583 123.911 4.51864 122.61 8.41909C121.309 12.3195 123.458 28.9913 123.911 42.2242C124.276 52.8809 123.378 58.3742 125.211 68.8784C126.207 74.5816 127.812 79.9916 127.812 85.781V123.487C127.812 123.487 125.767 104.801 122.61 92.9321C119.799 82.3619 116.688 76.7426 113.507 66.2779C109.597 53.4153 110.906 53.9261 107.004 37.0236C105.421 30.1636 99.068 24.9801 93.3493 26.622C87.6305 28.2639 83.7318 31.1272 82.9454 37.0236C81.6449 46.775 83.9765 54.5698 85.5467 66.2779C86.6685 74.6424 87.0984 80.0074 88.1474 88.3814C89.1337 96.2554 91.6517 99.9588 92.0488 107.884C92.3029 112.956 92.0488 115.809 92.0488 120.886L92.0488 145.59L76.4429 158.592C76.4429 158.592 56.9361 148.19 45.8815 139.739C32.2405 129.311 13.3694 113.085 5.56643 123.487C0.386068 130.392 3.74376 137.828 9.4682 144.29C29.6254 167.043 58.2366 183.946 58.2366 183.946C58.2366 183.946 74.4926 245.705 90.0984 274.31C92.3927 278.515 97.251 283.411 97.251 283.411Z" fill="#F3DBD0"/>
</g>
<path d="M63.4596 165.544C60.1512 169.779 61.6541 171.691 58.1162 174.012C54.5784 176.332 46.7742 171.975 40.2198 166.898C33.6655 161.822 26.5619 156.741 17.291 147.622C12.6437 143.05 8.98301 137.625 11.9129 131.994C14.1427 127.708 17.3283 127.445 22.3758 128.55C29.5053 130.111 38.3978 139.994 49.8769 147.622C57.3545 152.59 70.8652 155.918 68.1925 160.299C65.8406 164.153 66.2394 161.986 63.4596 165.544Z" fill="#FF9090"/>
<path d="M98.1323 30.0379C93.9961 29.0942 90.2046 30.0379 87.7918 33.8286C84.9685 38.2643 85.7434 42.5306 86.4131 47.9574C86.9803 52.5539 88.8897 59.7641 89.8418 67.5999C90.8108 75.5738 89.9502 80.7214 91.2386 88.6391C92.1725 94.3779 92.9161 95.3713 94.3408 101.027C95.9733 107.507 95.6835 110.939 95.6835 123.001C95.6835 129.939 102.139 127.938 106.478 126.492C110.817 125.046 118.469 121.208 120.447 116.335C122.605 111.02 120.303 100.229 117.434 88.6391C114.997 78.7919 111.083 72.3285 108.817 62.4309C107.166 55.2173 106.478 51.7481 105.026 44.1668C103.69 37.1896 104.471 31.4844 98.1323 30.0379Z" fill="#6CB2C3"/>
<path d="M140.528 6.94939C137.14 3.7502 131.766 3.83847 128.119 6.9496C122.604 11.6539 127.566 30.7679 127.43 45.5449C127.36 53.1755 126.914 55.0054 127.43 62.6099C127.936 70.0707 129.576 73.676 130.877 81.0393C133.396 95.2992 130.872 96.8536 132.255 115.844C132.658 121.362 138.015 124.047 144.319 123.77C149.647 123.536 153.289 123.196 157.545 119.971C166.174 113.432 154.987 86.5629 153.964 62.6099C153.572 53.4252 149.36 53.7841 147.825 39.9171C146.228 25.4937 146.732 12.8074 140.528 6.94939Z" fill="#FF9090"/>
<path d="M240.141 139.623C241.658 132.814 242.081 130.083 239.107 128.595C236.133 127.107 226.716 125.962 219.46 133.764C212.065 141.717 214.27 148.156 209.809 158.576C206.317 166.732 205.92 166.835 203.812 172.231C200.032 181.907 199.074 183.174 196.377 190.094C194.425 195.104 193.609 199.584 196.377 207.854C200.429 219.957 202.228 223.773 207.396 222.328C211.828 221.089 211.518 219.411 214.635 213.713C217.526 208.425 216.781 209.656 220.839 199.584C222.879 194.519 225.464 189.107 226.887 183.835C229.007 175.978 228.876 174.771 230.828 166.87C233.826 154.734 237.422 151.825 240.141 139.623Z" fill="#6CB2C3"/>
<g filter="url(#filter2_d)">
<path d="M176.353 263.489C189.08 257.349 195.677 246.557 195.677 231.383C195.677 220.714 189.08 214.357 189.08 203.689C189.08 203.689 193.407 154.665 189.08 148.763C184.752 142.861 180.815 142.939 175.439 137.972C170.233 133.161 172.194 129.253 165.658 126.507C158.118 123.338 153.35 129.133 144.746 128.53C138.31 128.079 132.887 125.062 126.532 126.507C119.111 128.193 103.702 139.974 88.08 155.845C77.8986 166.188 67.9305 180.001 69.866 193.276C72.5641 211.782 88.08 258.697 97.8616 272.861C100.717 276.995 108.992 279.942 115.064 279.942C128.973 279.942 132.378 273.457 145.811 269.85C157.577 266.691 163.627 269.629 176.353 263.489Z" fill="#FF9090"/>
</g>
<mask id="mask0" mask-type="alpha" maskUnits="userSpaceOnUse" x="69" y="125" width="127" height="156">
<path d="M176.596 263.768C196.304 257.406 195.34 231.045 195.34 231.045C195.34 231.045 190.943 214.513 189.322 203.968C187.15 189.832 190.955 176.415 190.955 176.415C190.955 176.415 191.862 162.79 190.955 158.88C189.608 153.072 189.322 149.101 189.322 149.101C189.322 149.101 181.058 143.218 175.682 138.251C170.475 133.44 172.436 129.533 165.9 126.786C158.36 123.617 153.593 129.412 144.988 128.809C138.553 128.358 133.129 125.342 126.774 126.786C119.354 128.472 103.944 140.254 88.3224 156.124C78.1411 166.467 68.1729 180.28 70.1085 193.556C72.8066 212.062 88.3224 258.977 98.104 273.14C100.959 277.274 109.235 280.222 115.306 280.222C129.215 280.222 132.62 273.736 146.053 270.13C157.82 266.97 156.888 270.13 176.596 263.768Z" fill="#F9676B"/>
</mask>
<g mask="url(#mask0)">
<g filter="url(#filter3_f)">
<rect width="43.3903" height="112.548" transform="matrix(0.207708 0.978191 -0.978209 0.207621 195.541 250.04)" fill="black" fill-opacity="0.1"/>
</g>
<g filter="url(#filter4_f)">
<rect width="20.3432" height="208.253" transform="matrix(0.207708 0.978191 -0.978209 0.207621 238.502 166.973)" fill="#797979" fill-opacity="0.25"/>
</g>
<g filter="url(#filter5_f)">
<rect width="27.9174" height="143.234" transform="matrix(0.442418 0.896809 -0.896886 0.442262 190.236 191.253)" fill="white" fill-opacity="0.2"/>
</g>
<g filter="url(#filter6_f)">
<rect width="27.9174" height="143.234" transform="matrix(0.442418 0.896809 -0.896886 0.442262 172.022 100.203)" fill="white" fill-opacity="0.2"/>
</g>
</g>
<path d="M101.152 184.597C100.766 178.934 102.252 173.341 107.655 171.595C111.351 170.401 114.97 170.523 117.408 173.546C119.8 176.51 118.361 179.61 117.408 183.297C115.871 189.248 113.298 192.003 109.162 192.003C105.026 192.003 101.493 189.593 101.152 184.597Z" fill="white"/>
<path d="M142.117 162.493C136.828 166.644 142.117 176.795 144.068 178.746C147.703 182.381 153.786 176.559 155.122 171.594C156.335 167.087 154.775 162.57 150.57 160.543C147.109 158.874 145.139 160.121 142.117 162.493Z" fill="white"/>
<path d="M128.462 228.803C121.058 228.382 113.507 217.102 113.507 217.102C113.507 217.102 116.053 238.017 128.462 239.205C140.872 240.393 146.019 213.201 146.019 213.201C146.019 213.201 137.621 229.324 128.462 228.803Z" fill="white"/>
<path d="M177.412 95.2315C174.686 102.958 169.258 119.065 170.78 123.925C172.301 128.785 173.912 131.283 177.412 134.984C182.267 140.117 187.884 145.047 193.707 141.044C198.351 137.853 206.605 99.6188 210.496 70.0115C211.338 63.6011 209.942 58.3811 209.523 51.9179C209.011 44.0165 210.982 36.5658 207.091 31.083C204.614 27.5918 203.228 27.6556 199.309 28.3417C194.131 29.2482 192.933 32.948 190.554 38.2107C187.703 44.5178 190.083 49.4234 188.608 56.3043C187.407 61.9085 185.221 64.3895 184.087 70.0115C183.073 75.0399 184.055 78.2209 182.772 83.1704C181.508 88.0425 179.076 90.5146 177.412 95.2315Z" fill="#3C3D75"/>
<path d="M71.712 334.696L71.7121 420.82L223.425 424.08L220.061 334.696C220.061 334.696 214.979 360.515 140.183 360.515C75.0157 360.515 71.712 334.696 71.712 334.696Z" fill="#EDF0F8"/>
<defs>
<filter id="filter0_f" x="50.2251" y="283.086" width="192.416" height="110.183" filterUnits="userSpaceOnUse" color-interpolation-filters="sRGB">
<feFlood flood-opacity="0" result="BackgroundImageFix"/>
<feBlend mode="normal" in="SourceGraphic" in2="BackgroundImageFix" result="shape"/>
<feGaussianBlur stdDeviation="10" result="effect1_foregroundBlur"/>
</filter>
<filter id="filter1_d" x="0" y="0.0734863" width="257.481" height="394.403" filterUnits="userSpaceOnUse" color-interpolation-filters="sRGB">
<feFlood flood-opacity="0" result="BackgroundImageFix"/>
<feColorMatrix in="SourceAlpha" type="matrix" values="0 0 0 0 0 0 0 0 0 0 0 0 0 0 0 0 0 0 127 0"/>
<feOffset dx="2" dy="4"/>
<feGaussianBlur stdDeviation="2.5"/>
<feColorMatrix type="matrix" values="0 0 0 0 0 0 0 0 0 0 0 0 0 0 0 0 0 0 0.4 0"/>
<feBlend mode="normal" in2="BackgroundImageFix" result="effect1_dropShadow"/>
<feBlend mode="normal" in="SourceGraphic" in2="effect1_dropShadow" result="shape"/>
</filter>
<filter id="filter2_d" x="66.6233" y="124.553" width="136.054" height="164.389" filterUnits="userSpaceOnUse" color-interpolation-filters="sRGB">
<feFlood flood-opacity="0" result="BackgroundImageFix"/>
<feColorMatrix in="SourceAlpha" type="matrix" values="0 0 0 0 0 0 0 0 0 0 0 0 0 0 0 0 0 0 127 0"/>
<feOffset dx="2" dy="4"/>
<feGaussianBlur stdDeviation="2.5"/>
<feColorMatrix type="matrix" values="0 0 0 0 0 0 0 0 0 0 0 0 0 0 0 0 0 0 0.4 0"/>
<feBlend mode="normal" in2="BackgroundImageFix" result="effect1_dropShadow"/>
<feBlend mode="normal" in="SourceGraphic" in2="effect1_dropShadow" result="shape"/>
</filter>
<filter id="filter3_f" x="35.4456" y="200.04" width="219.108" height="165.811" filterUnits="userSpaceOnUse" color-interpolation-filters="sRGB">
<feFlood flood-opacity="0" result="BackgroundImageFix"/>
<feBlend mode="normal" in="SourceGraphic" in2="BackgroundImageFix" result="shape"/>
<feGaussianBlur stdDeviation="25" result="effect1_foregroundBlur"/>
</filter>
<filter id="filter4_f" x="-15.2131" y="116.973" width="307.941" height="163.137" filterUnits="userSpaceOnUse" color-interpolation-filters="sRGB">
<feFlood flood-opacity="0" result="BackgroundImageFix"/>
<feBlend mode="normal" in="SourceGraphic" in2="BackgroundImageFix" result="shape"/>
<feGaussianBlur stdDeviation="25" result="effect1_foregroundBlur"/>
</filter>
<filter id="filter5_f" x="-38.2288" y="91.2529" width="340.816" height="288.384" filterUnits="userSpaceOnUse" color-interpolation-filters="sRGB">
<feFlood flood-opacity="0" result="BackgroundImageFix"/>
<feBlend mode="normal" in="SourceGraphic" in2="BackgroundImageFix" result="shape"/>
<feGaussianBlur stdDeviation="50" result="effect1_foregroundBlur"/>
</filter>
<filter id="filter6_f" x="-56.4431" y="0.203125" width="340.816" height="288.384" filterUnits="userSpaceOnUse" color-interpolation-filters="sRGB">
<feFlood flood-opacity="0" result="BackgroundImageFix"/>
<feBlend mode="normal" in="SourceGraphic" in2="BackgroundImageFix" result="shape"/>
<feGaussianBlur stdDeviation="50" result="effect1_foregroundBlur"/>
</filter>
</defs>
</svg>
