<svg width="12" height="13" fill="none" xmlns="http://www.w3.org/2000/svg"><path d="M5.066 7.165a.39.39 0 11-.555-.55l4.942-4.652a.391.391 0 01.556.55L5.066 7.165z" fill="#FF9090"/><path d="M10.267 5.28a.39.39 0 01-.782.005l-.018-3.16a.39.39 0 11.782-.004l.018 3.16z" fill="#FF9090"/><path d="M6.697 1.751a.39.39 0 00.005.782l3.124-.018a.39.39 0 10-.004-.782l-3.125.018zm3.527 7.881V8.414c-.021-.53-.778-.53-.799 0v1.218a1.6 1.6 0 01-1.597 1.597H2.396A1.6 1.6 0 01.8 9.632V4.2a1.6 1.6 0 011.597-1.597h1.258c.53-.021.53-.778 0-.799H2.396A2.399 2.399 0 000 4.2v5.432a2.399 2.399 0 002.396 2.396h5.432a2.399 2.399 0 002.396-2.396z" fill="#FF9090"/></svg>