<svg width="31" height="31" fill="none" xmlns="http://www.w3.org/2000/svg"><g clip-path="url(#clip0)" fill="#3C3D75"><path d="M9.45 26.264a11.02 11.02 0 00-.843 3.984.5.5 0 00.5.5h15a.5.5 0 00.492-.583c-.04-.25-1.035-6.12-3.045-10.14a7.744 7.744 0 01-.685-3.244c1.058.211 2.126.367 3.2.465l.038.002a.5.5 0 00.485-.379c.805-3.22.659-7.68.563-10.63-.026-.785-.05-1.466-.05-1.98a3.8 3.8 0 00-1.073-2.64 2.704 2.704 0 00-1.95-.871H16.19a1.49 1.49 0 00-1.284.725 9.123 9.123 0 01-2.643 2.871 4.623 4.623 0 01-.841.44 2.955 2.955 0 00-1.877 2.914 3.522 3.522 0 001.144 2.474 3.053 3.053 0 00-.306.13 2.255 2.255 0 00-1.215 1.517 7.93 7.93 0 00-3.561 6.929c0 4.15 2.002 6.36 3.843 7.516zm6.312-24.273a.5.5 0 01.428-.243h2.383c-.104.968-.55 3-2.466 3a13.03 13.03 0 01-2.43-.23 11.099 11.099 0 002.085-2.527zm-5.218 5.673a1.95 1.95 0 011.245-1.95 5.6 5.6 0 00.82-.416c1.143.299 2.319.45 3.5.45 2.495 0 3.333-2.389 3.475-4h.896a26.647 26.647 0 00-.477 10.075 17.345 17.345 0 00-2.345-.288 8.873 8.873 0 01-1.891-.262c-.42-.14-.85-.316-1.262-.487a11.51 11.51 0 00-2.019-.693 2.703 2.703 0 01-1.942-2.43zm.286 3.531a2.13 2.13 0 011.38-.14.531.531 0 00.126.026c.612.16 1.209.37 1.785.63.43.177.874.36 1.327.511a9.427 9.427 0 002.133.31c1.425.106 3.04.227 4.226 1.116a.5.5 0 10.6-.8c-.41-.3-.86-.54-1.337-.712a25.277 25.277 0 01.433-10.388h.578c.473.015.92.22 1.239.57.496.521.777 1.21.787 1.93 0 .534.022 1.226.05 2.024.09 2.766.224 6.882-.436 9.934-1.515-.17-6.784-.908-11.32-3.367a4.415 4.415 0 00-2.176-1.041c.128-.263.341-.475.605-.6v-.003zm-1.231 1.553h.008a3.358 3.358 0 012.146.853.517.517 0 00.114.086 30.971 30.971 0 007.99 2.884 8.867 8.867 0 00.8 3.9c1.586 3.168 2.544 7.684 2.85 9.277H9.631a10 10 0 01.7-3c1.55.72 3.239 1.087 4.947 1.075.463 0 .925-.026 1.385-.077a.5.5 0 10-.111-.994 10.637 10.637 0 01-6.211-1.12c-1.705-.95-3.735-2.914-3.735-6.884 0-2.604 1.014-4.616 2.992-6z"/><path d="M10.878 22.866c.284.237.586.49.903.761a.5.5 0 00.65 0c.318-.272.62-.524.904-.761 1.672-1.393 2.772-2.313 2.772-3.74a2.292 2.292 0 00-2.25-2.378 2.402 2.402 0 00-1.75.752 2.403 2.403 0 00-1.75-.752 2.293 2.293 0 00-2.25 2.379c0 1.426 1.1 2.346 2.77 3.739zm-.521-5.118a1.546 1.546 0 011.304.806.5.5 0 00.443.272h.003a.501.501 0 00.445-.272 1.543 1.543 0 011.305-.806 1.29 1.29 0 011.25 1.379c0 .958-.908 1.716-2.412 2.971-.188.158-.385.321-.588.493l-.589-.493c-1.504-1.255-2.411-2.013-2.411-2.971a1.29 1.29 0 011.25-1.38z"/></g><defs><clipPath id="clip0"><path fill="#fff" transform="translate(.606 .748)" d="M0 0h30v30H0z"/></clipPath></defs></svg>