<svg width="411" height="425" fill="none" xmlns="http://www.w3.org/2000/svg" xmlns:xlink="http://www.w3.org/1999/xlink"><g filter="url(#filter0_f)"><path d="M223.277 276v-4H191l-2.044 133.357a4.043 4.043 0 004.044 4.044h37.5c-2.234 0-9-6.167-9-8.401l-25-129 26.777 4z" fill="#6C6C6C"/></g><path d="M225.594 408h-31.05a4.045 4.045 0 01-4.044-4.044V270.598L229.638 288v115.956a4.044 4.044 0 01-4.044 4.044z" fill="#F3DBD0"/><mask id="a" maskUnits="userSpaceOnUse" x="190" y="270" width="40" height="139"><path d="M225.594 408.001h-31.05a4.043 4.043 0 01-4.044-4.044V270.6l39.138 17.401v115.956a4.043 4.043 0 01-4.044 4.044z" fill="#F3DBD0"/></mask><g filter="url(#filter1_f)" mask="url(#a)"><path d="M129.58 465.492l26.184-86.629c.32-1.06 13.925 2.176 30.41 7.158l87.719 26.514c16.485 4.983 29.605 9.825 29.284 10.884l-26.184 86.63c-.32 1.059-13.942-2.12-30.427-7.103l-87.719-26.514c-16.485-4.983-29.588-9.88-29.267-10.94z" fill="#F0CAB8"/></g><g filter="url(#filter2_f)"><path d="M119.853 408.878l5.217-90.301 3.576-46.5h-8.153l-23.923 130c-.483 2.496-.531 10.078 2.01 10.078h17.302a4.044 4.044 0 003.971-3.277z" fill="#6C6C6C"/></g><path d="M120.153 404.801L143.5 287.5 128.946 268l-18.446-1.5L85 403c-.483 2.495 1.458 5.077 4 5.077h27.182a4.044 4.044 0 003.971-3.276z" fill="#F3DBD0"/><mask id="b" maskUnits="userSpaceOnUse" x="84" y="266" width="60" height="143"><path d="M120.153 404.801L143.5 287.5 128.946 268l-18.446-1.5L85 403c-.483 2.495 1.458 5.077 4 5.077h27.182a4.044 4.044 0 003.971-3.276z" fill="#F3DBD0"/></mask><g mask="url(#b)"><g filter="url(#filter3_f)"><path d="M140.913 538.443l-87.041-52.342c-1.065-.64 5.322-13.088 14.197-27.847l47.225-78.533c8.875-14.758 16.876-26.236 17.941-25.595l87.04 52.341c1.065.64-5.265 13.122-14.141 27.881l-47.225 78.532c-8.875 14.759-16.932 26.203-17.996 25.563z" fill="#FFEEE7"/></g><g filter="url(#filter4_f)"><path d="M70.995 360.038l-66.383-76.87c-.812-.94 9.137-10.777 22.171-22.033l69.356-59.894c13.034-11.256 24.215-19.667 25.027-18.726l66.383 76.869c.812.941-9.095 10.826-22.129 22.083l-69.356 59.894c-13.034 11.256-24.257 19.617-25.07 18.677z" fill="#F0CAB8"/></g></g><g filter="url(#filter5_d)"><path d="M383.524 252.143l-169.22 19.974-177.895-19.974V22.177C36.41 13.243 43.653 6 52.587 6h314.759c8.935 0 16.178 7.243 16.178 16.177v229.966z" fill="#F3DBD0"/></g><mask id="c" maskUnits="userSpaceOnUse" x="36" y="6" width="348" height="267"><path d="M383.524 252.143l-169.22 19.974-177.895-19.974V22.177C36.41 13.243 43.653 6 52.587 6h314.759c8.935 0 16.178 7.243 16.178 16.177v229.966z" fill="#F3DBD0"/></mask><g filter="url(#filter6_f)" mask="url(#c)"><path d="M482.552 285.251l-189.477-8.419c-2.318-.103-2.8-28.883-1.226-64.294l8.372-188.425c1.574-35.41 4.607-64.035 6.924-63.932l189.478 8.42c2.318.102 2.921 28.888 1.348 64.299l-8.373 188.425c-1.574 35.411-4.728 64.029-7.046 63.926z" fill="#F0CAB8"/></g><g filter="url(#filter7_f)"><path d="M322.536 389.5l-30.751-76.151h20.621L304.411 272l-27.875-5.5 18.953 142.301a4.045 4.045 0 003.97 3.276L336.536 410c-1.937 0-18.5-20.5-14-20.5z" fill="#6C6C6C"/></g><path d="M299 403.188L272.5 267.5l24.548 4.617L312 284l22.531 119.188a4.044 4.044 0 01-3.97 4.812H304c-1.939 0-4 0-5-4.812z" fill="#F3DBD0"/><mask id="d" maskUnits="userSpaceOnUse" x="272" y="267" width="63" height="141"><path d="M299 403.188L272.5 267.5l24.548 4.617L312 284l22.531 119.188a4.044 4.044 0 01-3.97 4.812H304c-1.939 0-4 0-5-4.812z" fill="#F3DBD0"/></mask><g mask="url(#d)"><g filter="url(#filter8_f)"><path d="M362.913 524.443l-87.041-52.342c-1.065-.64 5.322-13.088 14.197-27.847l47.225-78.533c8.875-14.758 16.876-26.236 17.941-25.595l87.04 52.341c1.065.64-5.266 13.122-14.141 27.881l-47.225 78.532c-8.875 14.759-16.932 26.203-17.996 25.563z" fill="#FFEEE7"/></g><g filter="url(#filter9_f)"><path d="M257.927 340.322l-29.297-85.627c-.358-1.047 12.577-6.36 28.872-11.935l86.704-29.666c16.294-5.575 29.773-9.3 30.131-8.253l29.298 85.627c.358 1.047-12.559 6.415-28.853 11.991l-86.704 29.665c-16.295 5.575-29.792 9.245-30.151 8.198z" fill="#F0CAB8"/></g><g filter="url(#filter10_f)"><path d="M271.459 381.936l-15.134-44.232c-.185-.541 6.497-3.285 14.915-6.165l53.98 13.813c8.417-2.88 15.57 2.558 15.756 3.099l5.751 7.732c.185.541-6.487 3.314-14.904 6.194l-44.789 15.325c-8.417 2.88-15.39 4.775-15.575 4.234z" fill="#F0CAB8"/></g></g><g filter="url(#filter11_d)"><path d="M66.825 216V44c0-2.168 0-8.816 8.675-8.816H347c5 0 6.175 3.648 6.175 5.816v174.5c.325 6-4.007 7.459-6.175 7.459H73.5c-2.168 0-6.675-1.459-6.675-6.959z" fill="#3C3D75"/></g><mask id="e" maskUnits="userSpaceOnUse" x="66" y="35" width="288" height="188"><path d="M66.825 215.997v-172c0-2.168 0-8.817 8.675-8.817H347c5 0 6.175 3.649 6.175 5.816v174.501c.325 6-4.007 7.459-6.175 7.459H73.5c-2.168 0-6.675-1.459-6.675-6.959z" fill="#3C3D75"/></mask><g filter="url(#filter12_f)" mask="url(#e)"><path d="M476.321 135.606L327.32 252.958c-1.823 1.435-20.981-20.047-42.913-47.894L167.708 56.892C145.776 29.045 129.382 5.386 131.204 3.95l149.001-117.352c1.823-1.435 21.077 19.972 43.008 47.818l116.7 148.173c21.931 27.846 38.23 51.581 36.408 53.016z" fill="#31326D"/></g><g filter="url(#filter13_d)"><path d="M238.62 77.856c-6.692-2.859-17.833 2.353-28.904 2.43-4.954.035-9.325-1.11-13.443-2.087-5.729-1.36-13.497-1.51-20.086 3.037-6.59 4.546-8.388 16.923-6.452 25.841 1.937 8.917 7.365 13.595 8.229 23.385.368 4.171-.4 6.554 0 10.722.914 9.52 2.351 18.869 5.41 27.732.622 1.801 4.091 10.99 9.683 11.58 7.689.81 7.71-11.91 8.543-20.443.712-7.29.121-20.064 8.116-20.013 7.973.051 7.358 10.584 7.974 20.013.545 8.352 0 20.317 7.546 20.443 5.984.099 8.991-8.058 10.892-13.363 3.514-9.809 4.913-25.949 4.913-25.949s.506-6.549.854-10.722c.932-11.154 7.734-16.151 8.686-27.303.854-10.007-1.641-20.894-11.961-25.303z" fill="#F9F7F7"/></g><path d="M184.465 252.143l-42.017 15.78-33.11-15.78v-31.515c0-6.701 5.529-12.133 12.229-12.133h50.765c6.701 0 12.133 5.432 12.133 12.133v31.515z" fill="#FF9090"/><mask id="f" maskUnits="userSpaceOnUse" x="109" y="208" width="76" height="60"><path d="M184.128 251.648l-42.017 15.78L109 251.648v-31.515c0-6.701 5.529-12.133 12.23-12.133h50.765c6.7 0 12.133 5.432 12.133 12.133v31.515z" fill="#FF9090"/></mask><g filter="url(#filter14_f)" mask="url(#f)"><path d="M100.913 283.443l-87.041-52.342c-1.065-.64 5.322-13.088 14.197-27.847l47.225-78.533c8.875-14.758 16.876-26.236 17.94-25.595l87.041 52.341c1.065.64-5.266 13.122-14.141 27.881l-47.225 78.532c-8.875 14.759-16.932 26.203-17.996 25.563z" fill="#FE8181"/></g><g filter="url(#filter15_f)"><path d="M387.052 298.089L89.5 299l-66.646 8.089c-4.468 0-7.854-3.621-7.854-8.089v-23.772c0-4.468 3.387-8.089 7.854-8.089L387.052 263a8.088 8.088 0 018.089 8.089V290a8.09 8.09 0 01-8.089 8.089z" fill="#6C6C6C"/></g><path d="M396.198 292.09H31c-4.468 0-7.854-3.622-7.854-8.089v-23.772c0-4.468 3.387-8.089 7.854-8.089h365.198a8.088 8.088 0 018.089 8.089v23.772a8.09 8.09 0 01-8.089 8.089z" fill="#F3DBD0"/><mask id="g" maskUnits="userSpaceOnUse" x="23" y="252" width="382" height="41"><path d="M396.202 292.09H31.004c-4.468 0-7.854-3.622-7.854-8.089v-23.772c0-4.468 3.387-8.089 7.854-8.089h365.198a8.089 8.089 0 018.089 8.089v23.772a8.09 8.09 0 01-8.089 8.089z" fill="#F3DBD0"/></mask><g mask="url(#g)"><g filter="url(#filter16_f)"><path d="M359.913 361.443l-87.041-52.342c-1.065-.64 5.322-13.088 14.197-27.847l47.225-78.533c8.875-14.758 16.876-26.236 17.941-25.595l87.04 52.341c1.065.64-5.266 13.122-14.141 27.881l-47.225 78.532c-8.875 14.759-16.932 26.203-17.996 25.563z" fill="#F0CAB8"/></g><g filter="url(#filter17_f)"><path d="M32.913 368.443l-87.041-52.342c-1.065-.64 5.322-13.088 14.197-27.847l47.225-78.533c8.875-14.758 16.876-26.236 17.94-25.595l87.041 52.341c1.065.64-5.266 13.122-14.14 27.881L50.908 342.88c-8.875 14.759-16.932 26.203-17.996 25.563z" fill="#FFEEE7"/></g></g><mask id="o" maskUnits="userSpaceOnUse" x="15" y="6" width="390" height="407"><path d="M223.277 276v-4H191l-2.044 133.357a4.043 4.043 0 004.044 4.044h37.5c-2.234 0-9-6.167-9-8.401l-25-129 26.777 4z" fill="#6C6C6C"/><path d="M225.594 408h-31.05a4.045 4.045 0 01-4.044-4.044V270.598L229.638 288v115.956a4.044 4.044 0 01-4.044 4.044z" fill="#F3DBD0"/><mask id="h" maskUnits="userSpaceOnUse" x="190" y="270" width="40" height="139"><path d="M225.594 408.001h-31.05a4.043 4.043 0 01-4.044-4.044V270.6l39.138 17.401v115.956a4.043 4.043 0 01-4.044 4.044z" fill="#F3DBD0"/></mask><g mask="url(#h)"><path d="M129.58 465.492l26.184-86.629c.32-1.06 13.925 2.176 30.41 7.158l87.719 26.514c16.485 4.983 29.605 9.825 29.284 10.884l-26.184 86.63c-.32 1.059-13.942-2.12-30.427-7.103l-87.719-26.514c-16.485-4.983-29.588-9.88-29.267-10.94z" fill="#F0CAB8"/></g><path d="M119.853 408.878l5.217-90.301 3.576-46.5h-8.153l-23.923 130c-.483 2.496-.531 10.078 2.01 10.078h17.302a4.044 4.044 0 003.971-3.277z" fill="#6C6C6C"/><path d="M120.153 404.801L143.5 287.5 128.946 268l-18.446-1.5L85 403c-.483 2.495 1.458 5.077 4 5.077h27.182a4.044 4.044 0 003.971-3.276z" fill="#F3DBD0"/><mask id="i" maskUnits="userSpaceOnUse" x="84" y="266" width="60" height="143"><path d="M120.153 404.801L143.5 287.5 128.946 268l-18.446-1.5L85 403c-.483 2.495 1.458 5.077 4 5.077h27.182a4.044 4.044 0 003.971-3.276z" fill="#F3DBD0"/></mask><g mask="url(#i)"><path d="M140.913 538.443l-87.041-52.342c-1.065-.64 5.322-13.088 14.197-27.847l47.225-78.533c8.875-14.758 16.876-26.236 17.941-25.595l87.04 52.341c1.065.64-5.265 13.122-14.141 27.881l-47.225 78.532c-8.875 14.759-16.932 26.203-17.996 25.563z" fill="#FFEEE7"/><path d="M70.995 360.038l-66.383-76.87c-.812-.94 9.137-10.777 22.171-22.033l69.356-59.894c13.034-11.256 24.215-19.667 25.027-18.726l66.383 76.869c.812.941-9.095 10.826-22.129 22.083l-69.356 59.894c-13.034 11.256-24.257 19.617-25.07 18.677z" fill="#F0CAB8"/></g><path d="M383.524 252.143l-169.22 19.974-177.895-19.974V22.177C36.41 13.243 43.653 6 52.587 6h314.759c8.935 0 16.178 7.243 16.178 16.177v229.966z" fill="#F3DBD0"/><mask id="j" maskUnits="userSpaceOnUse" x="36" y="6" width="348" height="267"><path d="M383.524 252.143l-169.22 19.974-177.895-19.974V22.177C36.41 13.243 43.653 6 52.587 6h314.759c8.935 0 16.178 7.243 16.178 16.177v229.966z" fill="#F3DBD0"/></mask><g mask="url(#j)"><path d="M482.552 285.251l-189.477-8.419c-2.318-.103-2.8-28.883-1.226-64.294l8.372-188.425c1.574-35.41 4.607-64.035 6.924-63.932l189.478 8.42c2.318.102 2.921 28.888 1.348 64.299l-8.373 188.425c-1.574 35.411-4.728 64.029-7.046 63.926z" fill="#F0CAB8"/></g><path d="M322.536 389.5l-30.751-76.151h20.621L304.411 272l-27.875-5.5 18.953 142.301a4.045 4.045 0 003.97 3.276L336.536 410c-1.937 0-18.5-20.5-14-20.5z" fill="#6C6C6C"/><path d="M299 403.188L272.5 267.5l24.548 4.617L312 284l22.531 119.188a4.044 4.044 0 01-3.97 4.812H304c-1.939 0-4 0-5-4.812z" fill="#F3DBD0"/><mask id="k" maskUnits="userSpaceOnUse" x="272" y="267" width="63" height="141"><path d="M299 403.188L272.5 267.5l24.548 4.617L312 284l22.531 119.188a4.044 4.044 0 01-3.97 4.812H304c-1.939 0-4 0-5-4.812z" fill="#F3DBD0"/></mask><g mask="url(#k)"><path d="M362.913 524.443l-87.041-52.342c-1.065-.64 5.322-13.088 14.197-27.847l47.225-78.533c8.875-14.758 16.876-26.236 17.941-25.595l87.04 52.341c1.065.64-5.266 13.122-14.141 27.881l-47.225 78.532c-8.875 14.759-16.932 26.203-17.996 25.563z" fill="#FFEEE7"/><path d="M257.927 340.322l-29.297-85.627c-.358-1.047 12.577-6.36 28.872-11.935l86.704-29.666c16.294-5.575 29.773-9.3 30.131-8.253l29.298 85.627c.358 1.047-12.559 6.415-28.853 11.991l-86.704 29.665c-16.295 5.575-29.792 9.245-30.151 8.198z" fill="#F0CAB8"/><path d="M271.459 381.936l-15.134-44.232c-.185-.541 6.497-3.285 14.915-6.165l53.98 13.813c8.417-2.88 15.57 2.558 15.756 3.099l5.751 7.732c.185.541-6.487 3.314-14.904 6.194l-44.789 15.325c-8.417 2.88-15.39 4.775-15.575 4.234z" fill="#F0CAB8"/></g><path d="M66.825 216V44c0-2.168 0-8.816 8.675-8.816H347c5 0 6.175 3.648 6.175 5.816v174.5c.325 6-4.007 7.459-6.175 7.459H73.5c-2.168 0-6.675-1.459-6.675-6.959z" fill="#3C3D75"/><mask id="l" maskUnits="userSpaceOnUse" x="66" y="35" width="288" height="188"><path d="M66.825 215.997v-172c0-2.168 0-8.817 8.675-8.817H347c5 0 6.175 3.649 6.175 5.816v174.501c.325 6-4.007 7.459-6.175 7.459H73.5c-2.168 0-6.675-1.459-6.675-6.959z" fill="#3C3D75"/></mask><g mask="url(#l)"><path d="M476.321 135.606L327.32 252.958c-1.823 1.435-20.981-20.047-42.913-47.894L167.708 56.892C145.776 29.045 129.382 5.386 131.204 3.95l149.001-117.352c1.823-1.435 21.077 19.972 43.008 47.818l116.7 148.173c21.931 27.846 38.23 51.581 36.408 53.016z" fill="#31326D"/></g><path d="M238.62 77.856c-6.692-2.859-17.833 2.353-28.904 2.43-4.954.035-9.325-1.11-13.443-2.087-5.729-1.36-13.497-1.51-20.086 3.037-6.59 4.546-8.388 16.923-6.452 25.841 1.937 8.917 7.365 13.595 8.229 23.385.368 4.171-.4 6.554 0 10.722.914 9.52 2.351 18.869 5.41 27.732.622 1.801 4.091 10.99 9.683 11.58 7.689.81 7.71-11.91 8.543-20.443.712-7.29.121-20.064 8.116-20.013 7.973.051 7.358 10.584 7.974 20.013.545 8.352 0 20.317 7.546 20.443 5.984.099 8.991-8.058 10.892-13.363 3.514-9.809 4.913-25.949 4.913-25.949s.506-6.549.854-10.722c.932-11.154 7.734-16.151 8.686-27.303.854-10.007-1.641-20.894-11.961-25.303z" fill="#F9F7F7"/><path d="M184.465 252.143l-42.017 15.78-33.11-15.78v-31.515c0-6.701 5.529-12.133 12.229-12.133h50.765c6.701 0 12.133 5.432 12.133 12.133v31.515z" fill="#FF9090"/><mask id="m" maskUnits="userSpaceOnUse" x="109" y="208" width="76" height="60"><path d="M184.128 251.648l-42.017 15.78L109 251.648v-31.515c0-6.701 5.529-12.133 12.23-12.133h50.765c6.7 0 12.133 5.432 12.133 12.133v31.515z" fill="#FF9090"/></mask><g mask="url(#m)"><path d="M100.913 283.443l-87.041-52.342c-1.065-.64 5.322-13.088 14.197-27.847l47.225-78.533c8.875-14.758 16.876-26.236 17.94-25.595l87.041 52.341c1.065.64-5.266 13.122-14.141 27.881l-47.225 78.532c-8.875 14.759-16.932 26.203-17.996 25.563z" fill="#FE8181"/></g><path d="M387.052 298.089L89.5 299l-66.646 8.089c-4.468 0-7.854-3.621-7.854-8.089v-23.772c0-4.468 3.387-8.089 7.854-8.089L387.052 263a8.088 8.088 0 018.089 8.089V290a8.09 8.09 0 01-8.089 8.089z" fill="#6C6C6C"/><path d="M396.198 292.09H31c-4.468 0-7.854-3.622-7.854-8.089v-23.772c0-4.468 3.387-8.089 7.854-8.089h365.198a8.088 8.088 0 018.089 8.089v23.772a8.09 8.09 0 01-8.089 8.089z" fill="#F3DBD0"/><mask id="n" maskUnits="userSpaceOnUse" x="23" y="252" width="382" height="41"><path d="M396.202 292.09H31.004c-4.468 0-7.854-3.622-7.854-8.089v-23.772c0-4.468 3.387-8.089 7.854-8.089h365.198a8.089 8.089 0 018.089 8.089v23.772a8.09 8.09 0 01-8.089 8.089z" fill="#F3DBD0"/></mask><g mask="url(#n)"><path d="M359.913 361.443l-87.041-52.342c-1.065-.64 5.322-13.088 14.197-27.847l47.225-78.533c8.875-14.758 16.876-26.236 17.941-25.595l87.04 52.341c1.065.64-5.266 13.122-14.141 27.881l-47.225 78.532c-8.875 14.759-16.932 26.203-17.996 25.563z" fill="#F0CAB8"/><path d="M32.913 368.443l-87.041-52.342c-1.065-.64 5.322-13.088 14.197-27.847l47.225-78.533c8.875-14.758 16.876-26.236 17.94-25.595l87.041 52.341c1.065.64-5.266 13.122-14.14 27.881L50.908 342.88c-8.875 14.759-16.932 26.203-17.996 25.563z" fill="#FFEEE7"/></g></mask><g mask="url(#o)" fill-opacity=".05"><path transform="rotate(90 69 -90)" fill="url(#pattern0)" d="M69-90h633v283H69z"/><path transform="rotate(90 351 -124)" fill="url(#pattern1)" d="M351-124h633v282H351z"/><path transform="rotate(90 633 -114)" fill="url(#pattern2)" d="M633-114h633v282H633z"/></g><defs><filter id="filter0_f" x="173.956" y="257" width="71.544" height="167.402" filterUnits="userSpaceOnUse" color-interpolation-filters="sRGB"><feFlood flood-opacity="0" result="BackgroundImageFix"/><feBlend in="SourceGraphic" in2="BackgroundImageFix" result="shape"/><feGaussianBlur stdDeviation="7.5" result="effect1_foregroundBlur"/></filter><filter id="filter1_f" x="99" y="347" width="234.741" height="194.967" filterUnits="userSpaceOnUse" color-interpolation-filters="sRGB"><feFlood flood-opacity="0" result="BackgroundImageFix"/><feBlend in="SourceGraphic" in2="BackgroundImageFix" result="shape"/><feGaussianBlur stdDeviation="15" result="effect1_foregroundBlur"/></filter><filter id="filter2_f" x="86.31" y="262.077" width="52.336" height="160.077" filterUnits="userSpaceOnUse" color-interpolation-filters="sRGB"><feFlood flood-opacity="0" result="BackgroundImageFix"/><feBlend in="SourceGraphic" in2="BackgroundImageFix" result="shape"/><feGaussianBlur stdDeviation="5" result="effect1_foregroundBlur"/></filter><filter id="filter3_f" x="22" y="323" width="230.203" height="246.602" filterUnits="userSpaceOnUse" color-interpolation-filters="sRGB"><feFlood flood-opacity="0" result="BackgroundImageFix"/><feBlend in="SourceGraphic" in2="BackgroundImageFix" result="shape"/><feGaussianBlur stdDeviation="15" result="effect1_foregroundBlur"/></filter><filter id="filter4_f" x="-26.816" y="150.861" width="245.835" height="240.879" filterUnits="userSpaceOnUse" color-interpolation-filters="sRGB"><feFlood flood-opacity="0" result="BackgroundImageFix"/><feBlend in="SourceGraphic" in2="BackgroundImageFix" result="shape"/><feGaussianBlur stdDeviation="15" result="effect1_foregroundBlur"/></filter><filter id="filter5_d" x="22.409" y="0" width="367.114" height="286.117" filterUnits="userSpaceOnUse" color-interpolation-filters="sRGB"><feFlood flood-opacity="0" result="BackgroundImageFix"/><feColorMatrix in="SourceAlpha" values="0 0 0 0 0 0 0 0 0 0 0 0 0 0 0 0 0 0 127 0"/><feOffset dx="-4" dy="4"/><feGaussianBlur stdDeviation="5"/><feColorMatrix values="0 0 0 0 0 0 0 0 0 0 0 0 0 0 0 0 0 0 0.4 0"/><feBlend in2="BackgroundImageFix" result="effect1_dropShadow"/><feBlend in="SourceGraphic" in2="effect1_dropShadow" result="shape"/></filter><filter id="filter6_f" x="259" y="-70" width="271.819" height="385.438" filterUnits="userSpaceOnUse" color-interpolation-filters="sRGB"><feFlood flood-opacity="0" result="BackgroundImageFix"/><feBlend in="SourceGraphic" in2="BackgroundImageFix" result="shape"/><feGaussianBlur stdDeviation="15" result="effect1_foregroundBlur"/></filter><filter id="filter7_f" x="266.536" y="256.5" width="80" height="165.577" filterUnits="userSpaceOnUse" color-interpolation-filters="sRGB"><feFlood flood-opacity="0" result="BackgroundImageFix"/><feBlend in="SourceGraphic" in2="BackgroundImageFix" result="shape"/><feGaussianBlur stdDeviation="5" result="effect1_foregroundBlur"/></filter><filter id="filter8_f" x="244" y="309" width="230.203" height="246.602" filterUnits="userSpaceOnUse" color-interpolation-filters="sRGB"><feFlood flood-opacity="0" result="BackgroundImageFix"/><feBlend in="SourceGraphic" in2="BackgroundImageFix" result="shape"/><feGaussianBlur stdDeviation="15" result="effect1_foregroundBlur"/></filter><filter id="filter9_f" x="198" y="173" width="236.283" height="199.218" filterUnits="userSpaceOnUse" color-interpolation-filters="sRGB"><feFlood flood-opacity="0" result="BackgroundImageFix"/><feBlend in="SourceGraphic" in2="BackgroundImageFix" result="shape"/><feGaussianBlur stdDeviation="15" result="effect1_foregroundBlur"/></filter><filter id="filter10_f" x="226" y="281" width="151.063" height="131.916" filterUnits="userSpaceOnUse" color-interpolation-filters="sRGB"><feFlood flood-opacity="0" result="BackgroundImageFix"/><feBlend in="SourceGraphic" in2="BackgroundImageFix" result="shape"/><feGaussianBlur stdDeviation="15" result="effect1_foregroundBlur"/></filter><filter id="filter11_d" x="52.825" y="29.183" width="306.367" height="207.776" filterUnits="userSpaceOnUse" color-interpolation-filters="sRGB"><feFlood flood-opacity="0" result="BackgroundImageFix"/><feColorMatrix in="SourceAlpha" values="0 0 0 0 0 0 0 0 0 0 0 0 0 0 0 0 0 0 127 0"/><feOffset dx="-4" dy="4"/><feGaussianBlur stdDeviation="5"/><feColorMatrix values="0 0 0 0 0 0 0 0 0 0 0 0 0 0 0 0 0 0 0.4 0"/><feBlend in2="BackgroundImageFix" result="effect1_dropShadow"/><feBlend in="SourceGraphic" in2="effect1_dropShadow" result="shape"/></filter><filter id="filter12_f" x="98" y="-146" width="411.621" height="431.481" filterUnits="userSpaceOnUse" color-interpolation-filters="sRGB"><feFlood flood-opacity="0" result="BackgroundImageFix"/><feBlend in="SourceGraphic" in2="BackgroundImageFix" result="shape"/><feGaussianBlur stdDeviation="15" result="effect1_foregroundBlur"/></filter><filter id="filter13_d" x="165" y="77" width="89.736" height="111.532" filterUnits="userSpaceOnUse" color-interpolation-filters="sRGB"><feFlood flood-opacity="0" result="BackgroundImageFix"/><feColorMatrix in="SourceAlpha" values="0 0 0 0 0 0 0 0 0 0 0 0 0 0 0 0 0 0 127 0"/><feOffset dy="4"/><feGaussianBlur stdDeviation="2"/><feColorMatrix values="0 0 0 0 0 0 0 0 0 0 0 0 0 0 0 0 0 0 0.25 0"/><feBlend in2="BackgroundImageFix" result="effect1_dropShadow"/><feBlend in="SourceGraphic" in2="effect1_dropShadow" result="shape"/></filter><filter id="filter14_f" x="-18" y="68" width="230.203" height="246.602" filterUnits="userSpaceOnUse" color-interpolation-filters="sRGB"><feFlood flood-opacity="0" result="BackgroundImageFix"/><feBlend in="SourceGraphic" in2="BackgroundImageFix" result="shape"/><feGaussianBlur stdDeviation="15" result="effect1_foregroundBlur"/></filter><filter id="filter15_f" x="0" y="248" width="410.141" height="74.089" filterUnits="userSpaceOnUse" color-interpolation-filters="sRGB"><feFlood flood-opacity="0" result="BackgroundImageFix"/><feBlend in="SourceGraphic" in2="BackgroundImageFix" result="shape"/><feGaussianBlur stdDeviation="7.5" result="effect1_foregroundBlur"/></filter><filter id="filter16_f" x="241" y="146" width="230.203" height="246.602" filterUnits="userSpaceOnUse" color-interpolation-filters="sRGB"><feFlood flood-opacity="0" result="BackgroundImageFix"/><feBlend in="SourceGraphic" in2="BackgroundImageFix" result="shape"/><feGaussianBlur stdDeviation="15" result="effect1_foregroundBlur"/></filter><filter id="filter17_f" x="-86" y="153" width="230.203" height="246.602" filterUnits="userSpaceOnUse" color-interpolation-filters="sRGB"><feFlood flood-opacity="0" result="BackgroundImageFix"/><feBlend in="SourceGraphic" in2="BackgroundImageFix" result="shape"/><feGaussianBlur stdDeviation="15" result="effect1_foregroundBlur"/></filter><pattern id="pattern0" patternContentUnits="objectBoundingBox" width="1" height="1"><use xlink:href="#image0" transform="matrix(.00313 0 0 .00699 0 -.339)"/></pattern><pattern id="pattern1" patternContentUnits="objectBoundingBox" width="1" height="1"><use xlink:href="#image0" transform="matrix(.00313 0 0 .00701 0 -.342)"/></pattern><pattern id="pattern2" patternContentUnits="objectBoundingBox" width="1" height="1"><use xlink:href="#image0" transform="matrix(.00313 0 0 .00701 0 -.342)"/></pattern></defs></svg>