<svg width="109" height="18" fill="none" xmlns="http://www.w3.org/2000/svg"><g opacity=".6" fill="#fff"><path d="M36.672 9.029l.935 2.943.934-2.943h.63l-1.264 3.85h-.604l-.934-2.913-.935 2.913h-.606l-1.265-3.85h.633l.935 2.943.934-2.943h.607zm5.47 3.3h2.173v.55h-2.776V9.03h2.722v.55h-2.118v1.018h1.678v.55h-1.678v1.182zm6.298.55h-1.648V9.03h1.565c.311 0 .577.103.797.309.22.205.33.442.33.708a.936.936 0 01-.096.425.784.784 0 01-.188.268l-.1.078a1.356 1.356 0 01.201.148.947.947 0 01.176.185c.05.068.095.157.137.266.043.107.064.22.064.335 0 .308-.118.573-.354.795a1.24 1.24 0 01-.884.333zm-1.044-.523h1.044a.618.618 0 00.634-.631.61.61 0 00-.183-.451.607.607 0 00-.45-.183h-1.045v1.265zm.96-2.804h-.96v1.045h.96a.506.506 0 00.524-.521c0-.15-.05-.275-.15-.373a.501.501 0 00-.373-.15zm6.16 3.327l1.595-3.85h.604l1.595 3.85h-.631l-.414-1.018H55.56l-.413 1.018h-.631zm1.898-3.163l-.633 1.595h1.264l-.63-1.595zm6.682 3.163h-2.473V9.03h.604v3.3h1.869v.55zm1.593-3.85h2.913v.55h-1.154v3.3h-.604v-3.3h-1.155v-.55zm5.83 3.3h2.172v.55h-2.776V9.03h2.723v.55h-2.119v1.018h1.678v.55H70.52v1.182zm4.65.55V9.03h1.621c.356 0 .651.113.886.34.234.228.352.51.352.844 0 .157-.027.305-.08.443a.986.986 0 01-.194.322 2.16 2.16 0 01-.226.207.791.791 0 01-.193.12l-.078.036.88 1.538h-.66l-.824-1.485h-.88v1.485h-.605zm2.07-2.215a.613.613 0 00.182-.451c0-.18-.06-.331-.183-.451a.604.604 0 00-.448-.183h-1.018v1.265h1.018c.179 0 .328-.06.448-.18zm6.096-1.635h.604v3.85h-.521l-2.146-2.776v2.776h-.604V9.03h.521l2.146 2.779v-2.78zm2.914 3.85l1.595-3.85h.604l1.595 3.85h-.631l-.414-1.018h-1.705l-.413 1.018h-.631zm1.898-3.163l-.634 1.595h1.265l-.63-1.595zm3.435-.687h2.914v.55h-1.154v3.3h-.605v-3.3h-1.155v-.55zm5.226 3.85V9.03h.605v3.85h-.605zm4.48 0l-1.514-3.85h.634l1.181 3.08 1.184-3.08h.631l-1.512 3.85h-.604zm5.084-.55h2.173v.55h-2.777V9.03h2.723v.55h-2.119v1.018h1.678v.55h-1.678v1.182z"/><path d="M36.672 9.029l.033-.01-.008-.024h-.025v.034zm.934 2.943l-.032.01.032.103.033-.103-.033-.01zm.935-2.943v-.034h-.025l-.008.024.033.01zm.63 0l.033.01.015-.044h-.047v.034zm-1.264 3.85v.035h.025l.008-.024-.033-.01zm-.604 0l-.033.01.008.025h.025v-.035zm-.934-2.913l.032-.01-.033-.102-.032.102.032.01zm-.935 2.913v.035h.025l.008-.024-.033-.01zm-.607 0l-.032.011.007.024h.025v-.035zm-1.264-3.85v-.034h-.048l.015.045.033-.011zm.633 0l.033-.01-.008-.024h-.025v.034zm.935 2.943l-.033.01.033.103.032-.103-.032-.01zm.934-2.943v-.034h-.025l-.008.024.033.01zm.574.01l.935 2.943.065-.02-.934-2.943-.066.02zm1 2.943l.934-2.943-.065-.02-.934 2.942.065.021zm.902-2.919h.63v-.068h-.63v.068zm.598-.045l-1.265 3.85.066.022 1.264-3.85-.065-.022zm-1.232 3.827h-.604v.069h.604v-.069zm-.571.024L36.4 9.956l-.065.02.934 2.914.066-.021zm-1-2.913l-.935 2.913.066.02.934-2.912-.065-.021zm-.902 2.889h-.607v.069h.607v-.069zm-.574.024l-1.265-3.85-.065.02 1.265 3.851.065-.021zm-1.297-3.806h.633v-.068h-.633v.068zm.6-.024l.935 2.943.066-.02-.935-2.943-.065.02zm1 2.943l.935-2.943-.066-.02-.934 2.942.066.021zm.902-2.919h.607v-.068h-.607v.068zm6.077 3.266h-.034v.034h.034v-.034zm2.173 0h.034v-.035h-.034v.035zm0 .55v.035h.034v-.035h-.034zm-2.777 0h-.034v.035h.034v-.035zm0-3.85v-.034h-.034v.034h.034zm2.723 0h.034v-.034h-.034v.034zm0 .55v.035h.034v-.035h-.034zm-2.119 0v-.034h-.034v.034h.034zm0 1.018h-.034v.034h.034v-.034zm1.679 0h.034v-.034h-.034v.034zm0 .55v.035h.034v-.034h-.034zm-1.679 0v-.034h-.034v.035h.034zm0 1.216h2.173v-.069h-2.173v.07zm2.138-.034v.55h.069v-.55h-.069zm.035.516h-2.777v.069h2.777v-.069zm-2.742.034V9.03h-.07v3.85h.07zm-.035-3.816h2.723v-.068h-2.723v.068zm2.689-.034v.55h.068v-.55h-.068zm.034.516h-2.119v.069h2.119v-.069zm-2.153.034v1.018h.069V9.58h-.069zm.034 1.052h1.679v-.068h-1.679v.068zm1.644-.034v.55h.069v-.55h-.069zm.035.516h-1.679v.069h1.679v-.069zm-1.713.035v1.18h.069v-1.18h-.069zm4.683 1.731h-.034v.035h.034v-.035zm0-3.85v-.034h-.034v.034h.034zm2.597 1.442l-.031-.015.03.015zm-.188.268l.021.027-.021-.027zm-.1.078l-.02-.027-.044.034.05.024.014-.03zm.06.038l-.02.028.002.001.017-.03zm.142.11l-.022.026.022-.026zm.174.185l-.028.02.028-.02zm.137.266l-.032.012.032-.012zm-2.218.94h-.034v.034h.035v-.034zm1.496-.18l.024.024-.024-.024zm0-.902l-.024.024.024-.024zm-1.495-.183v-.034h-.035v.034h.035zm0-1.538v-.035h-.035v.035h.035zm0 1.044h-.035v.034h.035v-.034zm1.334-.894l-.025.024.025-.024zm-.29 3.142h-1.65v.069h1.649v-.069zm-1.614.034V9.03h-.07v3.85h.07zm-.035-3.816h1.566v-.068H46.79v.068zm1.566 0c.303 0 .56.1.774.3l.047-.05a1.16 1.16 0 00-.821-.318v.068zm.774.3c.214.2.32.428.32.684h.068c0-.278-.115-.523-.341-.734l-.047.05zm.32.684a.9.9 0 01-.094.409l.062.03a.97.97 0 00.1-.44h-.069zm-.094.409a.752.752 0 01-.179.257l.043.053a.817.817 0 00.198-.28l-.062-.03zm-.178.256l-.1.078.043.054.099-.078-.042-.054zm-.094.136a.46.46 0 01.055.035l.04-.056a.525.525 0 00-.064-.04l-.03.061zm.057.036c.024.015.07.05.138.107l.044-.052a1.377 1.377 0 00-.147-.114l-.035.06zm.138.108a.91.91 0 01.168.178l.056-.04a.981.981 0 00-.18-.192l-.044.054zm.169.179c.047.064.092.15.132.257l.064-.024a1.14 1.14 0 00-.141-.274l-.055.04zm.132.258c.042.103.062.21.062.323h.07a.93.93 0 00-.068-.349l-.064.026zm.062.323c0 .297-.114.553-.343.77l.047.05c.243-.229.365-.502.365-.82h-.069zm-.343.77c-.23.215-.515.323-.86.323v.069c.36 0 .664-.114.907-.342l-.047-.05zm-1.904-.132h1.044v-.069h-1.044v.07zm1.044 0a.652.652 0 00.475-.19l-.048-.049a.583.583 0 01-.427.17v.07zm.475-.19a.647.647 0 00.193-.475h-.069c0 .17-.057.312-.172.427l.048.048zm.193-.475a.647.647 0 00-.193-.476l-.048.049a.579.579 0 01.172.427h.069zm-.192-.476a.642.642 0 00-.476-.192v.068c.172 0 .313.058.427.173l.049-.049zm-.476-.192h-1.044v.068h1.044v-.068zm-1.079.034v1.265h.069V11.09h-.069zm.996-1.573h-.962v.069h.962v-.069zm-.996.035v1.044h.069V9.553h-.069zm.035 1.078h.96v-.068h-.96v.068zm.96 0a.54.54 0 00.398-.157l-.048-.049a.47.47 0 01-.35.138v.068zm.398-.157a.541.541 0 00.16-.398h-.068c0 .14-.047.256-.14.349l.048.049zm.16-.398a.535.535 0 00-.16-.398l-.048.05c.093.091.14.206.14.348h.069zm-.16-.397a.536.536 0 00-.397-.16v.068c.142 0 .257.047.348.14l.05-.048zm5.762 3.2l-.032-.013-.02.048h.052v-.035zm1.595-3.85v-.034h-.023l-.01.02.033.014zm.604 0l.031-.013-.008-.021h-.023v.034zm1.595 3.85v.035h.051l-.02-.048-.031.013zm-.631 0l-.032.013.009.022h.023v-.035zm-.414-1.017l.032-.013-.009-.022h-.023v.035zm-1.705 0v-.035h-.023l-.009.022.032.013zm-.413 1.017v.035h.023l.008-.022-.031-.013zm1.267-3.163l.032-.012-.032-.08-.032.08.032.012zm-.634 1.595l-.032-.012-.018.047h.05v-.035zm1.265 0v.035h.05l-.018-.047-.032.012zm-2.498 1.582l1.595-3.85-.063-.027-1.595 3.85.063.027zm1.564-3.83h.604v-.068h-.604v.068zm.572-.02l1.595 3.85.063-.027-1.595-3.85-.063.026zm1.627 3.802h-.631v.069h.63v-.069zm-.6.021l-.413-1.017-.064.026.414 1.017.064-.026zm-.445-1.039H55.56v.07h1.705v-.07zm-1.737.022l-.413 1.017.063.026.414-1.017-.064-.026zm-.381.996h-.631v.069h.63v-.069zm1.235-3.141l-.634 1.595.064.025.634-1.595-.064-.025zm-.602 1.642h1.265v-.07H55.78v.07zm1.297-.047l-.631-1.595-.064.025.631 1.595.064-.025zm6.019 1.58v.035h.034v-.035h-.035zm-2.473 0h-.035v.035h.035v-.035zm0-3.85v-.034h-.035v.034h.035zm.604 0h.034v-.034h-.034v.034zm0 3.3h-.035v.034h.035v-.034zm1.869 0h.034v-.035h-.035v.035zm0 .516h-2.473v.069h2.473v-.069zm-2.44.034V9.03h-.068v3.85h.069zm-.033-3.816h.604v-.068h-.604v.068zm.57-.034v3.3h.068v-3.3h-.069zm.034 3.334h1.869v-.069h-1.87v.07zm1.834-.034v.55h.069v-.55h-.069zm1.628-3.3v-.034h-.035v.034h.035zm2.913 0h.034v-.034h-.034v.034zm0 .55v.035h.034v-.035h-.034zm-1.154 0v-.034h-.035v.034h.035zm0 3.3v.035h.034v-.035h-.034zm-.605 0h-.034v.035h.034v-.035zm0-3.3h.035v-.034h-.035v.034zm-1.154 0h-.035v.035h.035v-.035zm0-.516h2.913v-.068h-2.913v.068zm2.879-.034v.55h.068v-.55h-.068zm.034.516h-1.154v.069h1.154v-.069zm-1.189.034v3.3h.069v-3.3h-.069zm.035 3.266h-.605v.069h.605v-.069zm-.57.034v-3.3h-.069v3.3h.069zm-.035-3.334H64.69v.069h1.154v-.069zm-1.12.034v-.55h-.069v.55h.07zm5.796 2.75h-.034v.034h.034v-.034zm2.172 0h.035v-.035h-.035v.035zm0 .55v.035h.035v-.035h-.035zm-2.776 0h-.034v.035h.034v-.035zm0-3.85v-.034h-.034v.034h.034zm2.723 0h.034v-.034h-.034v.034zm0 .55v.035h.034v-.035h-.034zm-2.119 0v-.034h-.034v.034h.034zm0 1.018h-.034v.034h.034v-.034zm1.678 0h.035v-.034h-.035v.034zm0 .55v.035h.035v-.034h-.035zm-1.678 0v-.034h-.034v.035h.034zm0 1.216h2.172v-.069H70.52v.07zm2.138-.034v.55h.069v-.55h-.07zm.034.516h-2.776v.069h2.776v-.069zm-2.742.034V9.03h-.068v3.85h.068zm-.034-3.816h2.723v-.068h-2.723v.068zm2.688-.034v.55h.069v-.55h-.069zm.035.516h-2.119v.069h2.119v-.069zm-2.153.034v1.018h.068V9.58h-.068zm.034 1.052h1.678v-.068H70.52v.068zm1.644-.034v.55h.069v-.55h-.07zm.034.516H70.52v.069h1.678v-.069zm-1.712.035v1.18h.068v-1.18h-.068zm4.683 1.731h-.034v.035h.034v-.035zm0-3.85v-.034h-.034v.034h.034zm2.779 1.627l.032.013-.032-.013zm-.612.65l-.013-.032h-.001l.014.032zm-.078.035l-.014-.031-.035.015.02.033.029-.017zm.88 1.538v.035h.06l-.03-.052-.03.017zm-.66 0l-.03.017.01.018h.02v-.035zm-.824-1.484l.03-.017-.01-.018h-.02v.035zm-.88 0v-.035h-.035v.035h.034zm0 1.484v.035h.034v-.035h-.035zm1.465-3.117l-.024.024.024-.024zm-1.466-.183v-.034h-.034v.034h.034zm0 1.265h-.034v.034h.034v-.034zm-.57 2.035V9.03h-.068v3.85h.068zm-.034-3.816h1.622v-.068h-1.622v.068zm1.622 0c.348 0 .634.111.862.332l.048-.05a1.256 1.256 0 00-.91-.35v.068zm.862.332c.227.22.341.492.341.818h.069c0-.344-.12-.634-.362-.868l-.048.05zm.341.818c0 .154-.026.297-.078.43l.064.026c.055-.143.083-.294.083-.456h-.069zm-.078.43a.95.95 0 01-.186.312l.05.047c.079-.083.145-.194.2-.333l-.064-.026zm-.186.312a2.108 2.108 0 01-.222.203l.042.054c.077-.06.153-.13.23-.21l-.05-.047zm-.222.203a.804.804 0 01-.185.116l.026.064a.872.872 0 00.201-.126l-.042-.054zm-.186.117l-.078.034.028.063.078-.035-.028-.063zm-.094.083l.88 1.538.06-.034-.88-1.538-.06.034zm.91 1.487h-.66v.069h.66v-.069zm-.63.018l-.824-1.485-.06.033.824 1.485.06-.033zm-.854-1.503h-.88v.069h.88v-.069zm-.915.035v1.484h.069v-1.484h-.07zm.034 1.45h-.604v.069h.604v-.069zm1.49-2.157a.647.647 0 00.193-.475h-.069c0 .17-.057.312-.172.427l.049.048zm.193-.475a.641.641 0 00-.193-.475l-.048.049a.573.573 0 01.172.426h.07zm-.192-.475a.638.638 0 00-.473-.193v.069c.17 0 .31.057.424.172l.049-.048zm-.473-.193h-1.018v.069h1.018v-.069zm-1.052.034v1.265h.069V9.58h-.07zm.034 1.3h1.018v-.07h-1.018v.07zm1.018 0a.643.643 0 00.472-.19l-.048-.05a.574.574 0 01-.424.17v.07zm6.544-1.85v-.034H83.3v.034h.034zm.604 0h.035v-.034h-.035v.034zm0 3.85v.035h.035v-.035h-.035zm-.52 0l-.028.021.01.014h.018v-.035zm-2.146-2.776l.027-.021-.061-.08v.101h.034zm0 2.776v.035h.035v-.035h-.035zm-.604 0h-.034v.035h.034v-.035zm0-3.85v-.034h-.034v.034h.034zm.521 0l.027-.021-.01-.013h-.017v.034zm2.145 2.779l-.027.021.062.08v-.101h-.035zm0-2.745h.604v-.068h-.604v.068zm.57-.034v3.85h.069V9.03h-.069zm.034 3.816h-.52v.069h.52v-.069zm-.493.013l-2.146-2.776-.054.042L83.39 12.9l.055-.042zm-2.207-2.755v2.776h.069v-2.776h-.07zm.034 2.742h-.604v.069h.604v-.069zm-.57.034V9.03h-.068v3.85h.068zm-.034-3.816h.521v-.068h-.521v.068zm.494-.013l2.145 2.78.055-.043-2.146-2.779-.054.042zm2.207 2.758V9.029h-.07v2.779h.07zm2.88 1.071l-.032-.013-.02.048h.052v-.035zm1.595-3.85v-.034h-.023l-.01.02.032.014zm.604 0l.031-.013-.008-.021h-.023v.034zm1.595 3.85v.035h.051l-.02-.048-.031.013zm-.631 0l-.032.013.008.022h.024v-.035zm-.414-1.017l.032-.013-.009-.022h-.023v.035zm-1.705 0v-.035h-.023l-.009.022.032.013zm-.413 1.017v.035h.023l.008-.022-.031-.013zm1.267-3.163l.032-.012-.032-.08-.032.08.032.012zm-.634 1.595l-.032-.012-.018.047h.05v-.035zm1.265 0v.035h.05l-.018-.047-.032.012zm-2.498 1.582l1.595-3.85-.063-.027-1.595 3.85.063.027zm1.564-3.83h.604v-.068h-.604v.068zm.572-.02l1.595 3.85.063-.027-1.595-3.85-.063.026zm1.627 3.802h-.631v.069h.63v-.069zm-.6.021l-.413-1.017-.064.026.414 1.017.064-.026zm-.445-1.039h-1.705v.07h1.705v-.07zm-1.737.022l-.413 1.017.063.026.414-1.017-.064-.026zm-.381.996h-.631v.069h.63v-.069zm1.235-3.141l-.634 1.595.064.025.634-1.595-.064-.025zm-.602 1.642h1.265v-.07h-1.265v.07zm1.297-.047l-.631-1.595-.064.025.631 1.595.064-.025zm2.772-2.27v-.034h-.035v.034h.035zm2.913 0h.035v-.034h-.035v.034zm0 .55v.035h.035v-.035h-.035zm-1.154 0v-.034h-.035v.034h.035zm0 3.3v.035h.034v-.035h-.034zm-.604 0h-.035v.035h.035v-.035zm0-3.3h.034v-.034h-.034v.034zm-1.155 0h-.035v.035h.035v-.035zm0-.516h2.913v-.068h-2.913v.068zm2.88-.034v.55h.068v-.55h-.069zm.033.516h-1.154v.069h1.154v-.069zm-1.189.034v3.3h.07v-3.3h-.07zm.035 3.266h-.604v.069h.604v-.069zm-.57.034v-3.3h-.069v3.3h.07zm-.034-3.334h-1.155v.069h1.155v-.069zm-1.12.034v-.55h-.07v.55h.07zm5.191 3.3h-.034v.035h.034v-.035zm0-3.85v-.034h-.034v.034h.034zm.605 0h.034v-.034h-.034v.034zm0 3.85v.035h.034v-.035h-.034zm-.57 0V9.03h-.069v3.85h.069zm-.035-3.816h.605v-.068h-.605v.068zm.57-.034v3.85h.069V9.03h-.069zm.035 3.816h-.605v.069h.605v-.069zm3.875.034l-.032.013.009.022h.023v-.035zm-1.514-3.85v-.034h-.051l.02.047.031-.013zm.633 0l.032-.012-.008-.022h-.024v.034zm1.182 3.08l-.032.012.032.084.032-.084-.032-.012zm1.184-3.08v-.034h-.024l-.008.022.032.012zm.631 0l.032.013.018-.047h-.05v.034zm-1.512 3.85v.035h.024l.008-.022-.032-.013zm-.572-.012l-1.514-3.85-.064.025 1.514 3.85.064-.025zm-1.546-3.804h.633v-.068h-.633v.068zm.601-.022l1.182 3.08.064-.024-1.182-3.08-.064.024zm1.246 3.08l1.184-3.08-.064-.024-1.184 3.08.064.024zm1.152-3.058h.631v-.068h-.631v.068zm.599-.047l-1.512 3.85.064.026 1.512-3.85-.064-.026zm-1.48 3.829h-.604v.069h.604v-.069zm4.48-.516h-.034v.034h.034v-.034zm2.172 0h.034v-.035h-.034v.035zm0 .55v.035h.034v-.035h-.034zm-2.776 0h-.034v.035h.034v-.035zm0-3.85v-.034h-.034v.034h.034zm2.722 0h.035v-.034h-.035v.034zm0 .55v.035h.035v-.035h-.035zm-2.118 0v-.034h-.034v.034h.034zm0 1.018h-.034v.034h.034v-.034zm1.678 0h.034v-.034h-.034v.034zm0 .55v.035h.034v-.034h-.034zm-1.678 0v-.034h-.034v.035h.034zm0 1.216h2.172v-.069h-2.172v.07zm2.138-.034v.55h.068v-.55h-.068zm.034.516h-2.776v.069h2.776v-.069zm-2.741.034V9.03h-.069v3.85h.069zm-.035-3.816h2.722v-.068h-2.722v.068zm2.688-.034v.55h.069v-.55h-.069zm.034.516h-2.118v.069h2.118v-.069zm-2.152.034v1.018h.069V9.58h-.069zm.034 1.052h1.678v-.068h-1.678v.068zm1.643-.034v.55h.069v-.55h-.069zm.035.516h-1.678v.069h1.678v-.069zm-1.712.035v1.18h.069v-1.18h-.069z"/><path fill-rule="evenodd" clip-rule="evenodd" d="M8.694 15.291h2.968l1.677-1.705 1.678 1.705h2.956l-4.64-4.717-4.64 4.717zM.02 5.127l5 9.814 3.026-2.928-3.618-5.732L.02 5.127zm26.686-.001l-5 9.814-3.026-2.928 3.618-5.732 4.408-1.154zM13.335 1.334L8.347 8.176l1.332 2.243 3.656-3.605 3.657 3.605 1.331-2.243-4.988-6.842z"/></g></svg>