<svg width="134" height="51" viewBox="0 0 134 51" fill="none" xmlns="http://www.w3.org/2000/svg">
<path fill-rule="evenodd" clip-rule="evenodd" d="M3.85358 35.5812C3.49548 36.33 2.44838 36.3442 2.12053 35.5812C-0.676761 29.0732 -0.764523 21.4414 2.52 14.5534C8.57356 1.85799 23.8038 -3.53827 36.5102 2.5101C49.2155 8.55848 54.6164 23.7767 48.5629 36.4711C45.3933 43.1182 39.7059 47.7656 33.1823 49.8167C32.3783 50.0697 31.7064 49.2422 32.0686 48.4812L34.5633 43.2563C34.8376 42.6637 34.538 42.1435 33.9238 42.1435C33.3104 42.1415 32.6083 42.6495 32.3268 43.2512L28.9666 50.2934C28.8184 50.6028 28.5228 50.8175 28.1808 50.8538C27.8258 50.891 27.4687 50.9203 27.1106 50.9435C26.3711 50.9898 25.8819 50.2208 26.2017 49.5526L33.1803 34.926C33.4537 34.3364 33.155 33.8143 32.5407 33.8143C31.9253 33.8133 31.2253 34.3223 30.9449 34.922L23.6182 50.2682C23.4377 50.6482 23.0392 50.877 22.6206 50.8286C22.3048 50.7923 21.9891 50.7499 21.6733 50.7016C21.0247 50.6018 20.6766 49.9033 20.9591 49.3117L32.0293 26.107C32.3057 25.5153 32.006 24.9962 31.3917 24.9953C30.7784 24.9953 30.0773 25.5012 29.7948 26.1029L18.7681 49.1999C18.5552 49.6463 18.0489 49.8741 17.5788 49.7199C17.2913 49.6251 17.0048 49.5254 16.7193 49.4206C16.1786 49.221 15.9426 48.5971 16.1897 48.078L31.89 15.1763C32.1645 14.5837 31.8648 14.0636 31.2505 14.0636C30.6361 14.0636 29.9351 14.5696 29.6536 15.1713L14.3437 47.2445C14.0996 47.7576 13.4771 47.9681 12.9818 47.689C12.7186 47.5398 12.4593 47.3876 12.2031 47.2304C11.7744 46.9684 11.6251 46.423 11.8409 45.9695L24.175 20.1201C24.4515 19.5294 24.1519 19.0093 23.5386 19.0073C22.9252 19.0073 22.2231 19.5153 21.9407 20.117L10.3369 44.4244C10.0595 45.007 9.31197 45.1823 8.82476 44.7591C8.58666 44.5534 8.35363 44.3438 8.1247 44.1301C7.80994 43.8368 7.73024 43.3732 7.91485 42.9852L12.7438 32.8689C13.0181 32.2772 12.7186 31.7572 12.1043 31.7572C11.4919 31.7552 10.7898 32.2632 10.5074 32.8648L6.79916 40.6327C6.48443 41.2929 5.5937 41.4058 5.15488 40.8202C4.94405 40.539 4.73927 40.2537 4.54055 39.9655C4.34081 39.6752 4.31761 39.3013 4.46892 38.9838L10.8513 25.604C11.1278 25.0124 10.8282 24.4933 10.2138 24.4923C9.59846 24.4913 8.89944 24.9982 8.61793 25.5999L3.85358 35.5812Z" fill="#3C3D75"/>
<path fill-rule="evenodd" clip-rule="evenodd" d="M88.7912 20.8858C88.7912 19.8931 88.5814 19.2016 88.165 18.8116C87.747 18.4226 87.2519 18.2281 86.6795 18.2281C86.0839 18.2281 85.5823 18.4346 85.1772 18.8479C84.7712 19.2621 84.5687 19.751 84.5687 20.3184V26.91C85.3797 26.5089 86.0413 26.1067 86.555 25.7056C87.0662 25.3035 87.4906 24.8902 87.825 24.4659C88.206 23.9459 88.4625 23.4026 88.5935 22.8352C88.7245 22.2687 88.7912 21.6186 88.7912 20.8858ZM91.4736 31.1634C91.4736 31.8488 91.3482 32.4928 91.0982 33.0955C90.8483 33.6983 90.5018 34.2234 90.0613 34.6718C89.6184 35.1214 89.1007 35.4751 88.5035 35.7352C87.9078 35.9952 87.2639 36.1252 86.5726 36.1252C85.8805 36.1252 85.2367 35.9952 84.6402 35.7352C84.0438 35.4751 83.5253 35.1214 83.084 34.6718C82.6427 34.2234 82.297 33.6983 82.047 33.0955C81.7962 32.4928 81.67 31.8488 81.67 31.1634V20.3184C81.67 19.633 81.8018 18.99 82.0647 18.3873C82.326 17.7836 82.6845 17.2595 83.137 16.8099C83.5904 16.3615 84.1217 16.0066 84.7302 15.7466C85.3371 15.4866 85.9882 15.3566 86.6795 15.3566C87.3708 15.3566 88.0203 15.4805 88.6297 15.7295C89.2382 15.9774 89.7687 16.3312 90.2213 16.7918C90.6746 17.2534 91.0323 17.8138 91.2952 18.475C91.558 19.1372 91.6883 19.8931 91.6883 20.7438C91.6883 21.9966 91.5693 23.0539 91.3314 23.9156C91.0918 24.7784 90.722 25.5524 90.2213 26.2368C89.6489 26.9937 88.9046 27.673 87.985 28.2758C87.0662 28.8774 85.9272 29.5215 84.5687 30.2069V31.1634C84.5687 31.755 84.7527 32.2499 85.1233 32.652C85.4923 33.0532 85.9754 33.2548 86.5726 33.2548C87.145 33.2548 87.6224 33.0532 88.0035 32.652C88.3845 32.2499 88.575 31.755 88.575 31.1634C88.575 30.9728 88.6972 30.8046 88.8789 30.7441L90.2606 30.2875C90.8579 30.091 91.4736 30.5355 91.4736 31.1634ZM75.1951 18.2281C74.599 18.2281 74.0986 18.4346 73.6921 18.8479C73.2876 19.2621 73.0838 19.751 73.0838 20.3184V31.1644C73.0838 31.755 73.2876 32.2499 73.6921 32.652C74.0986 33.0532 74.599 33.2548 75.1951 33.2548C75.7681 33.2548 76.2624 33.0532 76.68 32.652C77.0976 32.2499 77.3065 31.755 77.3065 31.1644C77.3065 30.9728 77.4286 30.8046 77.6091 30.7441L78.9911 30.2875C79.5883 30.091 80.2046 30.5355 80.2046 31.1644C80.2046 31.8488 80.0735 32.4928 79.8102 33.0955C79.548 33.6983 79.1908 34.2234 78.7369 34.6718C78.2839 35.1214 77.7533 35.4751 77.1441 35.7352C76.5368 35.9952 75.8871 36.1252 75.1951 36.1252C74.5032 36.1252 73.8545 35.9952 73.2452 35.7352C72.6369 35.4751 72.1063 35.1214 71.6534 34.6718C71.2004 34.2234 70.8423 33.6983 70.58 33.0955C70.3168 32.4928 70.1857 31.8488 70.1857 31.1644V20.3184C70.1857 19.5393 70.3168 18.8418 70.58 18.2281C70.8423 17.6133 71.2004 17.0931 71.6534 16.6688C72.1063 16.2435 72.6369 15.9189 73.2452 15.6942C73.8545 15.4684 74.5032 15.3566 75.1951 15.3566C75.8871 15.3566 76.5368 15.4745 77.1441 15.7113C77.7533 15.9472 78.2839 16.2778 78.7369 16.7041C79.1908 17.1294 79.548 17.6495 79.8102 18.2633C80.0735 18.8772 80.2046 19.5625 80.2046 20.3184C80.2046 20.7881 79.8234 21.1691 79.3533 21.1691H78.1568C77.6878 21.1691 77.3065 20.7881 77.3065 20.3184C77.3065 19.751 77.0976 19.2621 76.68 18.8479C76.2624 18.4346 75.7681 18.2281 75.1951 18.2281ZM65.8218 35.2121C65.8218 35.7644 66.2686 36.2109 66.8214 36.2109H67.7202C68.272 36.2109 68.7199 35.7644 68.7199 35.2121V11.1819C68.7199 10.6295 68.272 10.182 67.7202 10.182H66.8214C66.2686 10.182 65.8218 10.6295 65.8218 11.1819V35.2121ZM130.466 26.0936V20.4223C130.466 19.8316 130.257 19.3357 129.841 18.9336C129.422 18.5325 128.928 18.3318 128.355 18.3318C127.76 18.3318 127.258 18.5325 126.854 18.9336C126.447 19.3357 126.244 19.8316 126.244 20.4223V26.0936C126.244 26.6833 126.447 27.1792 126.854 27.5813C127.258 27.9825 127.76 28.183 128.355 28.183C128.928 28.183 129.422 27.9825 129.841 27.5813C130.257 27.1792 130.466 26.6833 130.466 26.0936ZM133.364 18.2956V26.0936C133.364 27.4392 133 28.5257 132.274 29.3532C131.546 30.1797 130.359 30.6644 128.713 30.8066C127.95 30.8771 127.455 31.0485 127.228 31.3196C127.002 31.5918 126.888 31.881 126.888 32.1884C126.888 32.3779 126.961 32.5956 127.103 32.8445C127.246 33.0925 127.485 33.2406 127.819 33.287H132.567C133.293 33.287 133.778 34.0359 133.479 34.6971L133.067 35.6092C132.905 35.97 132.544 36.2008 132.149 36.1978L127.032 36.1575C125.601 36.1474 124.886 36.5475 124.886 37.3266C124.886 38.1078 125.601 38.4968 127.032 38.4968H129.994C130.755 38.4968 131.237 39.3102 130.871 39.9764L130.393 40.8493C130.217 41.1688 130.048 41.3673 129.683 41.3673H127.199C125.744 41.3673 124.378 41.0024 123.436 40.2697C122.494 39.537 122.023 38.5684 122.023 37.3629C122.023 36.4176 122.327 35.6032 122.935 34.9178C123.544 34.2324 124.348 33.7597 125.351 33.4996C125.015 33.3817 124.773 33.1932 124.618 32.9322C124.462 32.6732 124.384 32.389 124.384 32.0826C124.384 31.752 124.515 31.4325 124.779 31.125C125.04 30.8186 125.445 30.605 125.994 30.4881C124.229 29.5659 123.347 28.1014 123.347 26.0936V20.4223C123.347 19.7369 123.46 19.0928 123.686 18.4901C123.913 17.8884 124.229 17.3623 124.635 16.9138C125.04 16.4652 125.541 16.1105 126.138 15.8494C126.734 15.5894 127.401 15.4603 128.14 15.4603C128.904 15.4603 129.548 15.537 130.072 15.6912C130.597 15.8444 130.98 15.9915 131.218 16.1336H132.936C133.732 16.1336 134.209 17.0196 133.77 17.6838L133.364 18.2956ZM121.421 15.3727C121.827 15.3727 122.172 15.4261 122.458 15.5319C122.503 15.5491 122.548 15.5672 122.589 15.5843C122.955 15.7426 123.044 16.18 122.898 16.5519L122.416 17.7795C122.269 18.1545 121.824 18.2432 121.421 18.2432C120.825 18.2432 120.324 18.4508 119.917 18.864C119.513 19.2763 119.311 19.7671 119.311 20.3346V35.196C119.311 35.7483 118.862 36.1958 118.31 36.1958H117.412C116.86 36.1958 116.412 35.7483 116.412 35.196V16.5489C116.412 15.9976 116.86 15.55 117.412 15.55H117.736C118.11 15.55 118.452 15.7577 118.624 16.0893L118.987 16.7908C119.155 16.4602 119.442 16.1407 119.847 15.8333C120.253 15.5259 120.777 15.3727 121.421 15.3727ZM112.046 20.9232C112.046 19.9304 111.837 19.239 111.421 18.8499C111.002 18.4599 110.509 18.2653 109.936 18.2653C109.34 18.2653 108.838 18.4709 108.434 18.8842C108.027 19.2984 107.825 19.7883 107.825 20.3557V26.9474C108.636 26.5462 109.297 26.1441 109.811 25.7429C110.323 25.3408 110.746 24.9275 111.081 24.5022C111.461 23.9822 111.718 23.4389 111.849 22.8724C111.98 22.305 112.046 21.6549 112.046 20.9232ZM114.729 31.2007C114.729 31.886 114.604 32.529 114.353 33.1328C114.104 33.7355 113.758 34.2606 113.316 34.7092C112.875 35.1577 112.357 35.5124 111.761 35.7725C111.164 36.0325 110.52 36.1626 109.828 36.1626C109.137 36.1626 108.493 36.0325 107.896 35.7725C107.3 35.5124 106.781 35.1577 106.341 34.7092C105.899 34.2606 105.554 33.7355 105.303 33.1328C105.052 32.529 104.927 31.886 104.927 31.2007V20.3557C104.927 19.6693 105.059 19.0263 105.321 18.4236C105.583 17.8209 105.94 17.2958 106.393 16.8472C106.846 16.3987 107.378 16.0439 107.986 15.7829C108.594 15.5229 109.245 15.3929 109.936 15.3929C110.628 15.3929 111.278 15.5178 111.886 15.7658C112.494 16.0137 113.025 16.3685 113.478 16.8291C113.93 17.2897 114.289 17.8511 114.551 18.5123C114.814 19.1745 114.944 19.9303 114.944 20.781C114.944 22.0328 114.824 23.0911 114.586 23.9529C114.349 24.8157 113.979 25.5887 113.478 26.2741C112.905 27.03 112.159 27.7103 111.241 28.312C110.323 28.9137 109.185 29.5588 107.825 30.2442V31.2007C107.825 31.7923 108.009 32.2872 108.379 32.6893C108.748 33.0904 109.233 33.292 109.828 33.292C110.401 33.292 110.878 33.0904 111.259 32.6893C111.64 32.2872 111.832 31.7923 111.832 31.2007C111.832 31.0102 111.953 30.8408 112.135 30.7814L113.518 30.3248C114.115 30.1283 114.729 30.5718 114.729 31.2007ZM98.3071 18.6504C97.7106 18.6504 97.1857 18.856 96.7332 19.2702C96.2806 19.6835 96.0531 20.1743 96.0531 20.7407V31.2672C96.0531 31.8578 96.2806 32.3537 96.7332 32.7558C97.1857 33.157 97.7106 33.3586 98.3071 33.3586C98.8794 33.3586 99.3987 33.157 99.8633 32.7558C100.33 32.3537 100.561 31.8578 100.561 31.2672V20.7407C100.561 20.1743 100.33 19.6835 99.8633 19.2702C99.3987 18.856 98.8794 18.6504 98.3071 18.6504ZM103.46 31.2672C103.46 31.9516 103.34 32.5956 103.101 33.1983C102.862 33.8011 102.534 34.3262 102.117 34.7757C101.7 35.2252 101.205 35.579 100.633 35.838C100.06 36.099 99.4284 36.2291 98.7379 36.2291C97.9727 36.2291 97.3296 36.1101 96.8047 35.8743C96.2806 35.6384 95.9221 35.3894 95.7308 35.1295L95.3843 35.6455C95.1986 35.9207 94.8883 36.0869 94.5556 36.0869H94.156C93.603 36.0869 93.1561 35.6395 93.1561 35.0881V11.2202C93.1561 10.7898 93.4318 10.4068 93.8418 10.2717L94.7388 9.97538C95.3867 9.76175 96.0531 10.2435 96.0531 10.9249V16.7716C96.1737 16.5116 96.4832 16.2808 96.9832 16.0802C97.4847 15.8797 98.0563 15.7789 98.7001 15.7789C99.3931 15.7789 100.031 15.9089 100.615 16.1679C101.199 16.4289 101.7 16.7838 102.117 17.2322C102.534 17.6808 102.862 18.2069 103.101 18.8096C103.34 19.4113 103.46 20.0554 103.46 20.7407V31.2672Z" fill="#3C3D75"/>
<path fill-rule="evenodd" clip-rule="evenodd" d="M118.418 39.1216C118.418 39.4209 118.268 39.5399 117.794 39.5399C117.745 39.5399 117.524 39.5359 117.475 39.5308V38.6852C117.528 38.6811 117.763 38.6721 117.825 38.6721C118.205 38.6721 118.418 38.7961 118.418 39.0651V39.1216ZM119.299 41.2946C119.299 41.2815 119.293 41.2633 119.284 41.2462L118.602 40.0025C118.932 39.8766 119.185 39.5893 119.185 39.1216V39.0651C119.185 38.2841 118.593 38.0331 117.825 38.0331C117.5 38.0331 117.117 38.0593 116.91 38.0905C116.769 38.1127 116.707 38.152 116.707 38.3022V41.2604C116.707 41.3078 116.747 41.3481 116.796 41.3481H117.384C117.433 41.3481 117.475 41.3078 117.475 41.2604V40.1396C117.559 40.1396 117.699 40.1487 117.794 40.1487L117.844 40.1446L118.449 41.2604C118.471 41.3037 118.49 41.3481 118.54 41.3481H119.229C119.28 41.3481 119.299 41.3258 119.299 41.2946ZM116.137 41.2382V40.827C116.137 40.7796 116.096 40.7393 116.047 40.7393H115.13C114.918 40.7393 114.841 40.6697 114.841 40.44V39.9723H116.011C116.061 39.9723 116.102 39.9329 116.102 39.8835V39.4653C116.102 39.4169 116.061 39.3776 116.011 39.3776H114.841V38.9765C114.841 38.7467 114.918 38.6771 115.13 38.6771H116.047C116.096 38.6771 116.137 38.6368 116.137 38.5885V38.1782C116.137 38.1217 116.111 38.0996 116.047 38.0905C115.889 38.0683 115.663 38.0331 115.176 38.0331C114.594 38.0331 114.074 38.1742 114.074 38.9765V40.44C114.074 41.2422 114.588 41.3874 115.172 41.3874C115.659 41.3874 115.889 41.3521 116.047 41.3299C116.111 41.3209 116.137 41.2946 116.137 41.2382ZM113.762 38.6106V38.156C113.762 38.1077 113.717 38.0724 113.667 38.0724H111.428C111.378 38.0724 111.338 38.1077 111.338 38.156V38.6106C111.338 38.659 111.378 38.6942 111.428 38.6942H112.163V41.2604C112.163 41.3078 112.205 41.3481 112.255 41.3481H112.845C112.895 41.3481 112.936 41.3078 112.936 41.2604V38.6942H113.667C113.717 38.6942 113.762 38.659 113.762 38.6106ZM111.025 41.1797V38.156C111.025 38.1077 110.986 38.0724 110.935 38.0724H110.403C110.353 38.0724 110.313 38.1077 110.313 38.156V40.0206C110.313 40.0519 110.299 40.061 110.29 40.061C110.275 40.061 110.271 40.0519 110.254 40.0246L109.185 38.2095C109.129 38.1168 109.084 38.0724 108.993 38.0724H108.538C108.444 38.0724 108.366 38.147 108.366 38.2407V41.2604C108.366 41.3078 108.407 41.3481 108.457 41.3481H108.989C109.04 41.3481 109.08 41.3078 109.08 41.2604V39.4743C109.08 39.4481 109.09 39.4391 109.103 39.4391C109.116 39.4391 109.125 39.4481 109.143 39.4743L110.172 41.211C110.245 41.3299 110.313 41.3481 110.407 41.3481H110.849C110.944 41.3481 111.025 41.2724 111.025 41.1797ZM107.798 41.2382V40.827C107.798 40.7796 107.758 40.7393 107.707 40.7393H106.791C106.579 40.7393 106.502 40.6697 106.502 40.44V39.9723H107.671C107.721 39.9723 107.762 39.9329 107.762 39.8835V39.4653C107.762 39.4169 107.721 39.3776 107.671 39.3776H106.502V38.9765C106.502 38.7467 106.579 38.6771 106.791 38.6771H107.707C107.758 38.6771 107.798 38.6368 107.798 38.5885V38.1782C107.798 38.1217 107.771 38.0996 107.707 38.0905C107.549 38.0683 107.323 38.0331 106.836 38.0331C106.254 38.0331 105.735 38.1742 105.735 38.9765V40.44C105.735 41.2422 106.249 41.3874 106.831 41.3874C107.319 41.3874 107.549 41.3521 107.707 41.3299C107.771 41.3209 107.798 41.2946 107.798 41.2382ZM105.247 41.211V40.7836C105.247 40.7302 105.22 40.695 105.161 40.695H105.147C104.976 40.708 104.727 40.7302 104.48 40.7302C104.168 40.7302 103.919 40.572 103.919 39.9854V39.43C103.919 38.8435 104.168 38.6852 104.48 38.6852C104.727 38.6852 104.976 38.7084 105.147 38.7215H105.161C105.22 38.7215 105.247 38.6852 105.247 38.6328V38.2054C105.247 38.143 105.21 38.1258 105.147 38.1077C105.052 38.0774 104.79 38.0331 104.474 38.0331C103.788 38.0331 103.138 38.3808 103.138 39.43V39.9854C103.138 41.0346 103.788 41.3874 104.474 41.3874C104.79 41.3874 105.052 41.343 105.147 41.3127C105.21 41.2946 105.247 41.2724 105.247 41.211ZM100.551 39.942H99.8786L100.154 38.7245C100.163 38.6811 100.176 38.659 100.216 38.659C100.258 38.659 100.267 38.6811 100.276 38.7245L100.551 39.942ZM101.64 41.2765C101.64 41.2724 101.635 41.2644 101.635 41.2543L100.962 38.5219C100.858 38.0996 100.529 38.0331 100.216 38.0331C99.9059 38.0331 99.5707 38.0996 99.4678 38.5219L98.795 41.2543C98.795 41.2644 98.7902 41.2724 98.7902 41.2765C98.7902 41.3209 98.8223 41.3481 98.8674 41.3481H99.4992C99.5434 41.3481 99.5796 41.3127 99.59 41.2674L99.7524 40.5457H100.678L100.84 41.2674C100.849 41.3127 100.885 41.3481 100.931 41.3481H101.562C101.608 41.3481 101.64 41.3209 101.64 41.2765ZM98.3883 41.2855V38.2276C98.3883 38.1348 98.3208 38.0724 98.2259 38.0724H97.8015C97.7066 38.0724 97.6431 38.1168 97.6029 38.1913L96.9124 39.4482C96.8939 39.4834 96.8803 39.5056 96.8626 39.5056C96.8441 39.5056 96.8312 39.4834 96.8128 39.4482L96.1223 38.1913C96.0813 38.1168 96.0194 38.0724 95.9229 38.0724H95.4993C95.4044 38.0724 95.3361 38.1308 95.3361 38.2225V41.2855C95.3361 41.3349 95.3771 41.3481 95.4141 41.3481H96.0097C96.0499 41.3481 96.0813 41.3078 96.0813 41.2604V39.4209C96.0813 39.3907 96.0949 39.3867 96.1038 39.3867C96.1166 39.3867 96.1263 39.3958 96.1399 39.4169L96.5467 40.1446C96.578 40.197 96.6231 40.2192 96.6817 40.2192H97.0427C97.1013 40.2192 97.1472 40.197 97.1793 40.1446L97.5844 39.4169C97.5989 39.3958 97.607 39.3867 97.6206 39.3867C97.6303 39.3867 97.6431 39.3907 97.6431 39.4209V41.2604C97.6431 41.3078 97.6753 41.3481 97.7155 41.3481H98.3119C98.3481 41.3481 98.3883 41.3349 98.3883 41.2855ZM94.7179 40.1174V38.156C94.7179 38.1077 94.6721 38.0724 94.6231 38.0724H94.0355C93.9865 38.0724 93.9447 38.1077 93.9447 38.156V40.1174C93.9447 40.5679 93.8193 40.7574 93.4125 40.7574C93.0066 40.7574 92.8844 40.5679 92.8844 40.1174V38.156C92.8844 38.1077 92.8442 38.0724 92.7944 38.0724H92.2027C92.1537 38.0724 92.1127 38.1077 92.1127 38.156V40.1174C92.1127 41.1233 92.6955 41.3874 93.4125 41.3874C94.1303 41.3874 94.7179 41.1233 94.7179 40.1174ZM90.7261 39.942H90.0541L90.3298 38.7245C90.3378 38.6811 90.3515 38.659 90.3933 38.659C90.4335 38.659 90.4423 38.6811 90.452 38.7245L90.7261 39.942ZM91.8153 41.2765C91.8153 41.2724 91.8105 41.2644 91.8105 41.2543L91.1368 38.5219C91.0324 38.0996 90.7036 38.0331 90.3933 38.0331C90.0806 38.0331 89.7478 38.0996 89.6433 38.5219L88.9697 41.2543C88.9697 41.2644 88.9649 41.2724 88.9649 41.2765C88.9649 41.3209 88.9978 41.3481 89.042 41.3481H89.6747C89.7189 41.3481 89.7567 41.3127 89.7655 41.2674L89.9271 40.5457H90.8531L91.0155 41.2674C91.0235 41.3127 91.0613 41.3481 91.1055 41.3481H91.7381C91.7823 41.3481 91.8153 41.3209 91.8153 41.2765ZM87.8371 39.1216C87.8371 39.4209 87.6876 39.5399 87.2149 39.5399C87.1643 39.5399 86.9432 39.5359 86.8926 39.5308V38.6852C86.948 38.6811 87.1812 38.6721 87.2455 38.6721C87.6249 38.6721 87.8371 38.7961 87.8371 39.0651V39.1216ZM88.7165 41.2946C88.7165 41.2815 88.7125 41.2633 88.7036 41.2462L88.0212 40.0025C88.3515 39.8766 88.6048 39.5893 88.6048 39.1216V39.0651C88.6048 38.2841 88.0131 38.0331 87.2455 38.0331C86.9199 38.0331 86.5365 38.0593 86.3291 38.0905C86.19 38.1127 86.1249 38.152 86.1249 38.3022V41.2604C86.1249 41.3078 86.1667 41.3481 86.2157 41.3481H86.8025C86.8524 41.3481 86.8926 41.3078 86.8926 41.2604V40.1396C86.9794 40.1396 87.1185 40.1487 87.2149 40.1487L87.2639 40.1446L87.8692 41.2604C87.8917 41.3037 87.9094 41.3481 87.9577 41.3481H88.649C88.6996 41.3481 88.7165 41.3258 88.7165 41.2946ZM85.6973 38.6106V38.156C85.6973 38.1077 85.6506 38.0724 85.6016 38.0724H83.3621C83.3123 38.0724 83.2721 38.1077 83.2721 38.156V38.6106C83.2721 38.659 83.3123 38.6942 83.3621 38.6942H84.0984V41.2604C84.0984 41.3078 84.1394 41.3481 84.1885 41.3481H84.7801C84.8299 41.3481 84.8701 41.3078 84.8701 41.2604V38.6942H85.6016C85.6506 38.6942 85.6973 38.659 85.6973 38.6106ZM81.8863 41.2382V40.827C81.8863 40.7796 81.8461 40.7393 81.7954 40.7393H81.0189C80.8059 40.7393 80.7303 40.6697 80.7303 40.44V38.1611C80.7303 38.1127 80.6902 38.0724 80.6395 38.0724H80.0493C79.9988 38.0724 79.9585 38.1127 79.9585 38.1611V40.44C79.9585 41.2422 80.4771 41.3874 81.0591 41.3874C81.2979 41.3874 81.6459 41.3612 81.7954 41.3299C81.8589 41.3168 81.8863 41.2946 81.8863 41.2382ZM78.5584 39.942H77.8865L78.1619 38.7245C78.17 38.6811 78.1841 38.659 78.2245 38.659C78.2658 38.659 78.2749 38.6811 78.2839 38.7245L78.5584 39.942ZM79.6458 41.2765C79.6458 41.2724 79.6418 41.2644 79.6418 41.2543L78.9689 38.5219C78.865 38.0996 78.5362 38.0331 78.2245 38.0331C77.9127 38.0331 77.5788 38.0996 77.475 38.5219L76.8021 41.2543C76.8021 41.2644 76.7971 41.2724 76.7971 41.2765C76.7971 41.3209 76.8283 41.3481 76.8747 41.3481H77.5072C77.5516 41.3481 77.5879 41.3127 77.596 41.2674L77.7594 40.5457H78.6855L78.8478 41.2674C78.8559 41.3127 78.8923 41.3481 78.9376 41.3481H79.5702C79.6145 41.3481 79.6458 41.3209 79.6458 41.2765ZM76.9151 38.6106V38.156C76.9151 38.1077 76.8707 38.0724 76.8202 38.0724H74.5808C74.5303 38.0724 74.4901 38.1077 74.4901 38.156V38.6106C74.4901 38.659 74.5303 38.6942 74.5808 38.6942H75.3162V41.2604C75.3162 41.3078 75.3576 41.3481 75.407 41.3481H75.9981C76.0476 41.3481 76.0899 41.3078 76.0899 41.2604V38.6942H76.8202C76.8707 38.6942 76.9151 38.659 76.9151 38.6106ZM74.1793 41.1797V38.156C74.1793 38.1077 74.138 38.0724 74.0885 38.0724H73.5559C73.5054 38.0724 73.4651 38.1077 73.4651 38.156V40.0206C73.4651 40.0519 73.452 40.061 73.4429 40.061C73.4298 40.061 73.4247 40.0519 73.4076 40.0246L72.3363 38.2095C72.2829 38.1168 72.2375 38.0724 72.1477 38.0724H71.6907C71.5959 38.0724 71.5192 38.147 71.5192 38.2407V41.2604C71.5192 41.3078 71.5596 41.3481 71.609 41.3481H72.1426C72.192 41.3481 72.2324 41.3078 72.2324 41.2604V39.4743C72.2324 39.4481 72.2415 39.4391 72.2556 39.4391C72.2698 39.4391 72.2778 39.4481 72.296 39.4743L73.3259 41.211C73.3976 41.3299 73.4651 41.3481 73.561 41.3481H74.0028C74.0976 41.3481 74.1793 41.2724 74.1793 41.1797ZM70.9503 41.2382V40.827C70.9503 40.7796 70.9099 40.7393 70.8605 40.7393H69.9435C69.7317 40.7393 69.655 40.6697 69.655 40.44V39.9723H70.8241C70.8736 39.9723 70.915 39.9329 70.915 39.8835V39.4653C70.915 39.4169 70.8736 39.3776 70.8241 39.3776H69.655V38.9765C69.655 38.7467 69.7317 38.6771 69.9435 38.6771H70.8605C70.9099 38.6771 70.9503 38.6368 70.9503 38.5885V38.1782C70.9503 38.1217 70.923 38.0996 70.8605 38.0905C70.7021 38.0683 70.4762 38.0331 69.989 38.0331C69.4059 38.0331 68.8874 38.1742 68.8874 38.9765V40.44C68.8874 41.2422 69.4018 41.3874 69.9849 41.3874C70.4721 41.3874 70.7021 41.3521 70.8605 41.3299C70.923 41.3209 70.9503 41.2946 70.9503 41.2382ZM67.582 39.9945C67.582 40.5891 67.3208 40.7484 66.9142 40.7484C66.8013 40.7484 66.657 40.7444 66.5935 40.7393V38.6811C66.657 38.6771 66.8013 38.6721 66.9142 38.6721C67.3208 38.6721 67.582 38.8313 67.582 39.426V39.9945ZM68.3548 39.9945V39.426C68.3548 38.4957 67.813 38.0331 66.9142 38.0331C66.54 38.0331 66.1385 38.0683 65.9518 38.0996C65.8661 38.1127 65.8218 38.152 65.8218 38.2538V41.1666C65.8218 41.2674 65.8661 41.3078 65.9518 41.3209C66.1385 41.3521 66.54 41.3874 66.9142 41.3874C67.813 41.3874 68.3548 40.9237 68.3548 39.9945Z" fill="#3C3D75"/>
</svg>
