<svg width="368" height="435" viewBox="0 0 368 435" fill="none" xmlns="http://www.w3.org/2000/svg" xmlns:xlink="http://www.w3.org/1999/xlink">
<g filter="url(#filter0_i)">
<path d="M99.1214 121.114C119.797 114.998 114.559 140.464 136.075 141.857C165.646 143.77 166.038 156.465 191.764 147.126C217.489 137.786 217.418 128.646 243.072 128.646C268.727 128.646 293.215 176.907 292.827 223.603C292.462 267.607 342.393 321.168 306.556 346.708C280.169 365.513 224.094 344.544 191.764 346.708C127.828 350.986 65.5637 384.428 50.204 322.217C44.1165 297.561 56.0209 298.445 58.4599 265.562C60.8402 233.472 51.2534 217.561 61.2923 186.989C69.9243 160.701 72.5886 128.961 99.1214 121.114Z" fill="#FF9090"/>
</g>
<mask id="mask0" mask-type="alpha" maskUnits="userSpaceOnUse" x="48" y="120" width="272" height="240">
<path d="M99.1214 121.548C119.797 115.433 114.559 140.899 136.075 142.291C165.646 144.205 166.038 156.9 191.764 147.561C217.489 138.221 217.418 129.081 243.072 129.081C268.727 129.081 293.215 177.342 292.827 224.037C292.462 268.042 342.393 321.603 306.556 347.143C280.169 365.948 224.094 344.979 191.764 347.143C127.828 351.421 65.5637 384.862 50.204 322.652C44.1165 297.996 56.0209 298.88 58.4599 265.997C60.8402 233.907 51.2534 217.996 61.2923 187.423C69.9243 161.135 72.5886 129.396 99.1214 121.548Z" fill="#FF9090"/>
</mask>
<g mask="url(#mask0)">
<rect x="183.491" y="-7.97522" width="524.849" height="233.819" transform="rotate(90 183.491 -7.97522)" fill="url(#pattern0)" fill-opacity="0.05"/>
<rect x="418.139" y="-36.1661" width="524.849" height="234.648" transform="rotate(90 418.139 -36.1661)" fill="url(#pattern1)" fill-opacity="0.05"/>
</g>
<g filter="url(#filter1_d)">
<path d="M145.891 232.133C144.323 208.072 206.548 220.61 206.548 220.61C206.548 220.61 158.935 221.915 158.935 232.133C158.935 246.482 203.022 237.028 202.417 258.222C201.822 279.098 167.632 270.832 167.632 282.789C167.632 293.008 198.504 286.703 198.504 303.443C198.504 320.184 171.11 316.27 169.153 324.967C167.196 333.663 182.198 339.968 182.198 339.968C182.198 339.968 161.979 337.576 160.457 324.967C158.221 306.438 183.72 313.009 183.72 304.748C183.72 294.747 155.406 302.099 154.587 282.789C153.75 263.048 186.112 265.179 186.112 258.222C186.112 251.265 147.197 252.185 145.891 232.133Z" fill="#33386F"/>
</g>
<g filter="url(#filter2_d)">
<path d="M160.024 179.088L153.742 199.37H195.023L187.664 179.088H160.024Z" fill="#222757"/>
</g>
<g filter="url(#filter3_d)">
<path d="M135.44 88.3925C149.123 83.8837 160.092 92.8156 171.614 95.6303C171.614 95.6303 194.101 83.8946 207.788 88.3925C230.977 96.0131 227.807 125.183 220.974 148.103C214.887 168.52 203.616 181.985 203.616 181.985C203.616 181.985 198.275 187.817 171.614 187.817C144.953 187.817 142.12 181.985 142.12 181.985C142.12 181.985 132.103 169.071 124.743 151.713C115.342 129.541 112.706 95.8835 135.44 88.3925Z" fill="#F2F2F2"/>
</g>
<path d="M175.458 47.1511H146.108L143.212 56.316H144.414H177.557H178.76L175.458 47.1511Z" fill="#FF9090"/>
<path d="M203.201 61.3147H178.761V70.4795H203.201V61.3147Z" fill="#FF9090"/>
<path d="M205.976 70.4796H166.65V111.305H205.976V70.4796Z" fill="#6CB2C3"/>
<path d="M208.711 35.5394C208.711 34.9514 208.234 34.4749 207.646 34.4749C207.058 34.4749 206.582 34.9514 206.582 35.5394C206.582 35.9673 206.838 36.3309 207.202 36.5V44.5189H208.091V36.5C208.455 36.3309 208.711 35.9673 208.711 35.5394Z" fill="#FF9090"/>
<path d="M212.089 50.3403H203.202V98.1085H212.089V50.3403Z" fill="#6CB2C3"/>
<path d="M212.089 50.3403L207.645 34.7878L203.202 50.3403" fill="#FF9090"/>
<path d="M207.645 34.7878L203.202 50.3403H207.645V34.7878Z" fill="#FF9090"/>
<path d="M207.645 60.6826C206.974 60.6826 206.43 61.2267 206.43 61.8977V64.4382H208.86V61.8977C208.86 61.2264 208.316 60.6826 207.645 60.6826Z" fill="#3C3D75"/>
<path d="M207.645 66.7227C206.974 66.7227 206.43 67.2667 206.43 67.9377V70.4783H208.86V67.9377C208.86 67.2664 208.316 66.7227 207.645 66.7227Z" fill="#3C3D75"/>
<path d="M187.542 76.6853C186.871 76.6853 186.327 77.2294 186.327 77.9003V80.4409H188.757V77.9003C188.757 77.2294 188.213 76.6853 187.542 76.6853Z" fill="#3C3D75"/>
<path d="M194.499 76.6853C193.828 76.6853 193.284 77.2294 193.284 77.9003V80.4409H195.714V77.9003C195.714 77.2294 195.17 76.6853 194.499 76.6853Z" fill="#3C3D75"/>
<path d="M178.76 56.3157H143.212V97.1408H178.76V56.3157Z" fill="#6CB2C3"/>
<path d="M143.282 65.8148H129.85L128.498 74.9797H129.059H143.282V65.8148Z" fill="#FF9090"/>
<g filter="url(#filter4_d)">
<path d="M143.282 74.946H128.498V115.819H143.282V74.946Z" fill="#6CB2C3"/>
</g>
<path d="M164.272 22.3521C164.272 21.7642 163.796 21.2876 163.208 21.2876C162.62 21.2876 162.143 21.7642 162.143 22.3521C162.143 22.7801 162.399 23.1436 162.763 23.3127V31.3317H163.652V23.313C164.016 23.1436 164.272 22.7801 164.272 22.3521Z" fill="#FF9090"/>
<path d="M167.65 37.1531H158.763V84.9212H167.65V37.1531Z" fill="#6CB2C3"/>
<path d="M163.206 37.1531H158.763V84.9212H163.206V37.1531Z" fill="#6CB2C3"/>
<path d="M167.65 37.153L163.206 21.6006L158.763 37.153" fill="#FF9090"/>
<path d="M163.206 21.6006L158.763 37.153H163.206V21.6006Z" fill="#FF9090"/>
<path d="M163.208 47.4954C162.537 47.4954 161.993 48.0394 161.993 48.7104V51.251H164.423V48.7104C164.423 48.0391 163.879 47.4954 163.208 47.4954Z" fill="#3C3D75"/>
<path d="M163.208 53.5355C162.537 53.5355 161.993 54.0796 161.993 54.7506V57.2912H164.423V54.7506C164.423 54.0793 163.879 53.5355 163.208 53.5355Z" fill="#3C3D75"/>
<path d="M173.104 60.3051C172.433 60.3051 171.889 60.8491 171.889 61.5201V64.0607H174.319V61.5201C174.319 60.8488 173.775 60.3051 173.104 60.3051Z" fill="#3C3D75"/>
<path d="M173.103 66.3455C172.432 66.3455 171.888 66.8895 171.888 67.5605V70.1011H174.318V67.5605C174.318 66.8892 173.774 66.3455 173.103 66.3455Z" fill="#3C3D75"/>
<path d="M173.103 72.386C172.432 72.386 171.888 72.93 171.888 73.601V76.1416H174.318V73.601C174.318 72.9298 173.774 72.386 173.103 72.386Z" fill="#3C3D75"/>
<g filter="url(#filter5_d)">
<path d="M156.542 79.3667C151.764 84.0299 146.729 77.8856 140.99 79.3667C136.654 80.4857 128.77 102.973 123.215 110.472L120.91 112.931C133.936 127.761 153.025 137.133 174.316 137.133C193.898 137.133 212.826 128.844 225.68 116.036C227.202 105.166 216.782 81.8834 215.671 77.9953C214.56 74.1072 204.68 73.9975 203.199 74.9232C199.902 76.9839 194.868 99.3627 187.647 99.3627C183.389 99.3627 179.385 74.5066 176.538 72.7014C172.088 69.8795 160.313 75.6869 156.542 79.3667Z" fill="#F2F2F2"/>
</g>
<path d="M148.499 120.167L225.462 109.297C225.462 109.297 226.766 114.514 225.896 123.646C224.848 134.656 219.374 151.474 219.374 151.474H148.499V120.167Z" fill="#F2F2F2"/>
<path d="M148.411 60.1622C147.74 60.1622 147.196 60.7063 147.196 61.3773V63.9179H149.626V61.3773C149.626 60.706 149.082 60.1622 148.411 60.1622Z" fill="#3C3D75"/>
<path d="M148.41 66.2026C147.739 66.2026 147.195 66.7467 147.195 67.4177V69.9583H149.625V67.4177C149.625 66.7464 149.081 66.2026 148.41 66.2026Z" fill="#3C3D75"/>
<path d="M153.748 60.1621C153.077 60.1621 152.533 60.7062 152.533 61.3771V63.9177H154.963V61.3771C154.963 60.7059 154.419 60.1621 153.748 60.1621Z" fill="#3C3D75"/>
<path d="M153.748 66.2026C153.077 66.2026 152.533 66.7467 152.533 67.4177V69.9583H154.963V67.4177C154.963 66.7464 154.419 66.2026 153.748 66.2026Z" fill="#3C3D75"/>
<path d="M200.052 98.7412C198.137 93.4364 198.676 83.2649 201.563 76.7092C198.311 82.873 193.764 98.9264 187.647 98.9264C186.527 98.9264 185.456 97.3267 184.424 94.9147C186.235 99.9609 187.317 99.9565 194.312 105.116C204.496 112.627 206.148 129.881 214.157 133.429C215.059 132.821 216.474 133.08 217.347 132.432C212.786 128.642 202.069 104.327 200.052 98.7412Z" fill="#D2D1D2"/>
<path d="M177.544 137.84C168.446 129.597 166.134 108.518 163.208 105.592C158.579 100.963 151.174 105.962 147.656 98.9265C145.503 94.6209 145.064 84.8551 136.547 85.5958L135.708 85.8052C130.159 92.1222 127.799 89.4839 121.411 100.037C115.023 110.591 118.734 130.264 118.734 130.264C131.76 145.094 153.08 137.92 174.372 137.92C175.436 137.92 176.491 137.886 177.544 137.84Z" fill="#D2D1D2"/>
<path d="M216.976 77.9941C216.331 75.7365 212.732 74.7581 209.535 74.5112C211.228 74.7309 209.931 75.9357 211.864 77.369C213.808 78.8104 215.133 79.3658 215.234 82.5596C215.325 85.4343 213.72 122.072 218.919 132.493C217.922 132.493 219.915 132.85 225.099 131.255C225.497 127.467 229.684 113.953 225.099 103.387C221.658 95.4593 217.575 80.0905 216.976 77.9941Z" fill="#D2D1D2"/>
<path d="M189.16 117.867C186.374 114.863 186.846 119.617 188.142 122.483C189.024 124.433 191.96 131.141 195.265 136.047C197.679 136.047 200.669 135.647 203.859 134.65C198.7 130.072 192.493 121.46 189.16 117.867Z" fill="#D2D1D2"/>
<g filter="url(#filter6_d)">
<rect x="148.357" y="193.088" width="50.614" height="15.7944" rx="7.89722" fill="#33386F"/>
</g>
<mask id="mask1" mask-type="alpha" maskUnits="userSpaceOnUse" x="48" y="21" width="272" height="339">
<path d="M99.1214 121.114C119.797 114.998 114.559 140.464 136.075 141.857C165.646 143.77 166.038 156.465 191.764 147.126C217.489 137.786 217.418 128.646 243.072 128.646C268.727 128.646 293.215 176.907 292.827 223.603C292.462 267.607 342.393 321.168 306.556 346.708C280.169 365.513 224.094 344.544 191.764 346.708C127.828 350.986 65.5637 384.428 50.204 322.217C44.1165 297.561 56.0209 298.445 58.4599 265.562C60.8402 233.472 51.2534 217.561 61.2923 186.989C69.9243 160.701 72.5886 128.961 99.1214 121.114Z" fill="#FF9090"/>
<path d="M160.024 179.088L153.742 199.37H195.023L187.664 179.088H160.024Z" fill="#222757"/>
<path d="M135.44 88.3925C149.123 83.8837 160.092 92.8156 171.614 95.6303C171.614 95.6303 194.101 83.8946 207.788 88.3925C230.977 96.0131 227.807 125.183 220.974 148.103C214.887 168.52 203.616 181.985 203.616 181.985C203.616 181.985 198.275 187.817 171.614 187.817C144.953 187.817 142.121 181.985 142.121 181.985C142.121 181.985 132.103 169.071 124.743 151.713C115.342 129.541 112.706 95.8835 135.44 88.3925Z" fill="#F2F2F2"/>
<path d="M177.557 47.1511L144.414 47.1511H143.212V56.316H144.414H177.557H178.76V47.1511L177.557 47.1511Z" fill="#FF9090"/>
<path d="M203.201 61.3147H178.761V70.4795H203.201V61.3147Z" fill="#FF9090"/>
<path d="M205.976 70.4797H166.649V111.305H205.976V70.4797Z" fill="#3C3D75"/>
<path d="M203.201 70.4797H178.761V72.6307H203.201V70.4797Z" fill="#3C3D75"/>
<path d="M208.711 35.5394C208.711 34.9514 208.234 34.4749 207.646 34.4749C207.058 34.4749 206.582 34.9514 206.582 35.5394C206.582 35.9673 206.838 36.3309 207.202 36.5V44.5189H208.091V36.5C208.455 36.3309 208.711 35.9673 208.711 35.5394Z" fill="#FF9090"/>
<path d="M212.089 50.3403H203.202V98.1085H212.089V50.3403Z" fill="#2C2D63"/>
<path d="M207.645 50.3403H203.202V98.1085H207.645V50.3403Z" fill="#2C2D63"/>
<path d="M212.089 50.3403L207.645 34.7878L203.202 50.3403" fill="#FF9090"/>
<path d="M212.089 56.0684H203.202V58.2207H212.089V56.0684Z" fill="#2C2D63"/>
<path d="M212.089 50.3403H203.202V52.4927H212.089V50.3403Z" fill="#2C2D63"/>
<path d="M207.645 34.7878L203.202 50.3403H207.645V34.7878Z" fill="#FF9090"/>
<path d="M207.645 60.6826C206.974 60.6826 206.43 61.2267 206.43 61.8977V64.4382H208.86V61.8977C208.86 61.2264 208.316 60.6826 207.645 60.6826Z" fill="#6CB2C3"/>
<path d="M207.645 66.7227C206.974 66.7227 206.43 67.2667 206.43 67.9377V70.4783H208.86V67.9377C208.86 67.2664 208.316 66.7227 207.645 66.7227Z" fill="#6CB2C3"/>
<path d="M194.313 70.4785H185.425V118.247H194.313V70.4785Z" fill="#2C2D63"/>
<path d="M189.869 70.4785H185.425V118.247H189.869V70.4785Z" fill="#2C2D63"/>
<path d="M194.313 76.2065H185.425V78.3589H194.313V76.2065Z" fill="#2C2D63"/>
<path d="M194.313 70.4783H185.425V72.6306H194.313V70.4783Z" fill="#2C2D63"/>
<path d="M189.871 80.8206C189.2 80.8206 188.656 81.3646 188.656 82.0356V84.5762H191.086V82.0356C191.086 81.3646 190.542 80.8206 189.871 80.8206Z" fill="#6CB2C3"/>
<path d="M189.871 86.8611C189.2 86.8611 188.656 87.4051 188.656 88.0761V90.6167H191.086V88.0761C191.086 87.4051 190.542 86.8611 189.871 86.8611Z" fill="#6CB2C3"/>
<path d="M178.76 56.3157H143.212V97.1408H178.76V56.3157Z" fill="#3C3D75"/>
<path d="M178.76 56.3157H143.212V58.3522H178.76V56.3157Z" fill="#3C3D75"/>
<path d="M164.272 22.3521C164.272 21.7642 163.796 21.2876 163.208 21.2876C162.62 21.2876 162.143 21.7642 162.143 22.3521C162.143 22.7801 162.399 23.1436 162.763 23.3127V31.3317H163.652V23.313C164.017 23.1436 164.272 22.7801 164.272 22.3521Z" fill="#FF9090"/>
<path d="M167.65 37.1531H158.763V84.9212H167.65V37.1531Z" fill="#2C2D63"/>
<path d="M163.206 37.1531H158.763V84.9212H163.206V37.1531Z" fill="#2C2D63"/>
<path d="M167.65 37.153L163.206 21.6006L158.763 37.153" fill="#FF9090"/>
<path d="M167.65 42.8811H158.763V45.0334H167.65V42.8811Z" fill="#2C2D63"/>
<path d="M167.65 37.1531H158.763V39.3054H167.65V37.1531Z" fill="#2C2D63"/>
<path d="M163.206 21.6006L158.763 37.153H163.206V21.6006Z" fill="#FF9090"/>
<path d="M163.208 47.4954C162.537 47.4954 161.993 48.0394 161.993 48.7104V51.251H164.423V48.7104C164.423 48.0391 163.879 47.4954 163.208 47.4954Z" fill="#6CB2C3"/>
<path d="M163.208 53.5355C162.537 53.5355 161.993 54.0796 161.993 54.7506V57.2912H164.423V54.7506C164.423 54.0793 163.879 53.5355 163.208 53.5355Z" fill="#6CB2C3"/>
<path d="M173.104 60.3051C172.433 60.3051 171.888 60.8491 171.888 61.5201V64.0607H174.319V61.5201C174.319 60.8488 173.774 60.3051 173.104 60.3051Z" fill="#6CB2C3"/>
<path d="M173.103 66.3455C172.432 66.3455 171.888 66.8895 171.888 67.5605V70.1011H174.318V67.5605C174.318 66.8892 173.774 66.3455 173.103 66.3455Z" fill="#6CB2C3"/>
<path d="M173.103 72.386C172.432 72.386 171.888 72.93 171.888 73.601V76.1416H174.318V73.601C174.318 72.9298 173.774 72.386 173.103 72.386Z" fill="#6CB2C3"/>
<path d="M156.542 79.3667C151.764 84.0299 146.729 77.8856 140.99 79.3667C136.654 80.4857 128.77 102.973 123.215 110.472L120.91 112.931C133.936 127.761 153.025 137.133 174.316 137.133C193.898 137.133 211.623 129.212 224.478 116.405C220.974 111.027 216.782 81.8834 215.671 77.9953C214.56 74.1072 204.68 73.9975 203.199 74.9232C199.902 76.9839 194.868 99.3627 187.647 99.3627C183.389 99.3627 179.385 74.5066 176.538 72.7014C172.088 69.8795 160.313 75.6869 156.542 79.3667Z" fill="#F2F2F2"/>
<path d="M200.052 99.1775C198.137 93.8727 198.677 83.7011 201.563 77.1455C198.311 83.3093 193.764 99.3627 187.647 99.3627C186.528 99.3627 185.456 97.763 184.425 95.351C186.236 100.397 187.318 100.393 194.313 105.552C204.496 113.064 206.415 129.744 214.424 133.292C215.327 132.684 216.741 132.943 217.614 132.295C213.054 128.505 202.069 104.763 200.052 99.1775Z" fill="#D2D1D2"/>
<path d="M177.544 138.276C168.446 130.033 166.135 108.954 163.209 106.028C158.58 101.399 151.174 106.398 147.656 99.3627C145.503 95.0572 145.064 85.2914 136.547 86.0321L135.709 86.2415C130.16 92.5585 127.799 89.9201 121.411 100.474C115.023 111.027 118.734 130.701 118.734 130.701C131.761 145.531 153.08 138.356 174.372 138.356C175.436 138.356 176.492 138.322 177.544 138.276Z" fill="#D2D1D2"/>
<path d="M215.672 77.9956C215.027 75.738 211.428 74.7596 208.231 74.5127C209.924 74.7324 208.627 75.9371 210.56 77.3705C212.504 78.8118 213.829 79.3673 213.93 82.5611C214.021 85.4358 212.416 122.074 217.615 132.495C216.618 132.495 219.807 132.694 224.991 131.099C225.389 127.312 228.38 113.955 223.795 103.389C220.354 95.4608 216.271 80.092 215.672 77.9956Z" fill="#D2D1D2"/>
<path d="M189.16 118.303C186.374 115.299 186.846 120.054 188.142 122.919C189.024 124.869 191.961 131.577 195.265 136.483C197.679 136.483 200.67 136.083 203.859 135.086C198.7 130.508 192.493 121.896 189.16 118.303Z" fill="#D2D1D2"/>
<path d="M148.411 60.1622C147.74 60.1622 147.196 60.7063 147.196 61.3773V63.9179H149.626V61.3773C149.626 60.706 149.082 60.1622 148.411 60.1622Z" fill="#6CB2C3"/>
<path d="M148.41 66.2026C147.739 66.2026 147.195 66.7467 147.195 67.4177V69.9583H149.625V67.4177C149.625 66.7464 149.081 66.2026 148.41 66.2026Z" fill="#6CB2C3"/>
<path d="M153.748 60.1621C153.077 60.1621 152.533 60.7062 152.533 61.3771V63.9177H154.963V61.3771C154.963 60.7059 154.419 60.1621 153.748 60.1621Z" fill="#6CB2C3"/>
<path d="M153.748 66.2026C153.077 66.2026 152.533 66.7467 152.533 67.4177V69.9583H154.963V67.4177C154.963 66.7464 154.419 66.2026 153.748 66.2026Z" fill="#6CB2C3"/>
<path d="M159.587 234.827C166.5 246.785 206.63 241.147 206.765 258.272C206.899 275.398 158.239 273.294 158.239 280.371C158.239 281.149 158.249 281.776 158.266 282.279C158.974 282.259 158.402 286.298 158.266 282.279C158.257 282.279 158.248 282.28 158.239 282.281C157.396 282.421 149.975 282.34 146.37 282.281C144.69 263.251 190.742 265.355 190.686 258.272C190.626 250.626 146.37 254.617 146.37 232.568C146.37 209.173 206.765 221.262 206.765 221.262C206.765 221.262 152.674 222.87 159.587 234.827Z" fill="#33386F"/>
<path d="M206.765 304.181C206.624 286.205 161.075 292.39 158.239 280.348L146.37 280.348C145.264 302.369 190.626 296.535 190.686 304.181C190.742 311.264 146.37 309.086 146.37 328.19C146.37 335.402 154.152 341.925 154.152 341.925C154.994 341.785 148.934 328.217 158.239 324.749C167.543 321.282 206.899 321.306 206.765 304.181Z" fill="#33386F"/>
<rect x="148.357" y="193.088" width="50.614" height="15.7944" rx="7.89722" fill="#33386F"/>
</mask>
<g mask="url(#mask1)">
<rect x="183.491" y="-70.9752" width="524.849" height="233.819" transform="rotate(90 183.491 -70.9752)" fill="url(#pattern2)" fill-opacity="0.05"/>
<rect x="418.139" y="-99.1661" width="524.849" height="234.648" transform="rotate(90 418.139 -99.1661)" fill="url(#pattern3)" fill-opacity="0.05"/>
</g>
<defs>
<filter id="filter0_i" x="48.4909" y="120.167" width="281.018" height="243.337" filterUnits="userSpaceOnUse" color-interpolation-filters="sRGB">
<feFlood flood-opacity="0" result="BackgroundImageFix"/>
<feBlend mode="normal" in="SourceGraphic" in2="BackgroundImageFix" result="shape"/>
<feColorMatrix in="SourceAlpha" type="matrix" values="0 0 0 0 0 0 0 0 0 0 0 0 0 0 0 0 0 0 127 0" result="hardAlpha"/>
<feOffset dx="10" dy="4"/>
<feGaussianBlur stdDeviation="5"/>
<feComposite in2="hardAlpha" operator="arithmetic" k2="-1" k3="1"/>
<feColorMatrix type="matrix" values="0 0 0 0 0 0 0 0 0 0 0 0 0 0 0 0 0 0 0.4 0"/>
<feBlend mode="normal" in2="shape" result="effect1_innerShadow"/>
</filter>
<pattern id="pattern0" patternContentUnits="objectBoundingBox" width="1" height="1">
<use xlink:href="#image0" transform="translate(0 -0.341755) scale(0.003125 0.00701463)"/>
</pattern>
<pattern id="pattern1" patternContentUnits="objectBoundingBox" width="1" height="1">
<use xlink:href="#image0" transform="translate(0 -0.338781) scale(0.003125 0.00698984)"/>
</pattern>
<filter id="filter1_d" x="145.861" y="216.345" width="75.6864" height="132.623" filterUnits="userSpaceOnUse" color-interpolation-filters="sRGB">
<feFlood flood-opacity="0" result="BackgroundImageFix"/>
<feColorMatrix in="SourceAlpha" type="matrix" values="0 0 0 0 0 0 0 0 0 0 0 0 0 0 0 0 0 0 127 0"/>
<feOffset dx="10" dy="4"/>
<feGaussianBlur stdDeviation="2.5"/>
<feColorMatrix type="matrix" values="0 0 0 0 0 0 0 0 0 0 0 0 0 0 0 0 0 0 0.4 0"/>
<feBlend mode="normal" in2="BackgroundImageFix" result="effect1_dropShadow"/>
<feBlend mode="normal" in="SourceGraphic" in2="effect1_dropShadow" result="shape"/>
</filter>
<filter id="filter2_d" x="153.742" y="173.088" width="61.2809" height="40.2815" filterUnits="userSpaceOnUse" color-interpolation-filters="sRGB">
<feFlood flood-opacity="0" result="BackgroundImageFix"/>
<feColorMatrix in="SourceAlpha" type="matrix" values="0 0 0 0 0 0 0 0 0 0 0 0 0 0 0 0 0 0 127 0"/>
<feOffset dx="10" dy="4"/>
<feGaussianBlur stdDeviation="5"/>
<feColorMatrix type="matrix" values="0 0 0 0 0 0 0 0 0 0 0 0 0 0 0 0 0 0 0.4 0"/>
<feBlend mode="normal" in2="BackgroundImageFix" result="effect1_dropShadow"/>
<feBlend mode="normal" in="SourceGraphic" in2="effect1_dropShadow" result="shape"/>
</filter>
<filter id="filter3_d" x="117.847" y="81.1431" width="128.12" height="120.674" filterUnits="userSpaceOnUse" color-interpolation-filters="sRGB">
<feFlood flood-opacity="0" result="BackgroundImageFix"/>
<feColorMatrix in="SourceAlpha" type="matrix" values="0 0 0 0 0 0 0 0 0 0 0 0 0 0 0 0 0 0 127 0"/>
<feOffset dx="10" dy="4"/>
<feGaussianBlur stdDeviation="5"/>
<feColorMatrix type="matrix" values="0 0 0 0 0 0 0 0 0 0 0 0 0 0 0 0 0 0 0.4 0"/>
<feBlend mode="normal" in2="BackgroundImageFix" result="effect1_dropShadow"/>
<feBlend mode="normal" in="SourceGraphic" in2="effect1_dropShadow" result="shape"/>
</filter>
<filter id="filter4_d" x="123.498" y="68.946" width="34.7838" height="60.873" filterUnits="userSpaceOnUse" color-interpolation-filters="sRGB">
<feFlood flood-opacity="0" result="BackgroundImageFix"/>
<feColorMatrix in="SourceAlpha" type="matrix" values="0 0 0 0 0 0 0 0 0 0 0 0 0 0 0 0 0 0 127 0"/>
<feOffset dx="5" dy="4"/>
<feGaussianBlur stdDeviation="5"/>
<feColorMatrix type="matrix" values="0 0 0 0 0 0 0 0 0 0 0 0 0 0 0 0 0 0 0.4 0"/>
<feBlend mode="normal" in2="BackgroundImageFix" result="effect1_dropShadow"/>
<feBlend mode="normal" in="SourceGraphic" in2="effect1_dropShadow" result="shape"/>
</filter>
<filter id="filter5_d" x="115.91" y="65.9531" width="124.922" height="85.1797" filterUnits="userSpaceOnUse" color-interpolation-filters="sRGB">
<feFlood flood-opacity="0" result="BackgroundImageFix"/>
<feColorMatrix in="SourceAlpha" type="matrix" values="0 0 0 0 0 0 0 0 0 0 0 0 0 0 0 0 0 0 127 0"/>
<feOffset dx="5" dy="4"/>
<feGaussianBlur stdDeviation="5"/>
<feColorMatrix type="matrix" values="0 0 0 0 0 0 0 0 0 0 0 0 0 0 0 0 0 0 0.4 0"/>
<feBlend mode="normal" in2="BackgroundImageFix" result="effect1_dropShadow"/>
<feBlend mode="normal" in="SourceGraphic" in2="effect1_dropShadow" result="shape"/>
</filter>
<filter id="filter6_d" x="148.357" y="187.088" width="70.614" height="35.7944" filterUnits="userSpaceOnUse" color-interpolation-filters="sRGB">
<feFlood flood-opacity="0" result="BackgroundImageFix"/>
<feColorMatrix in="SourceAlpha" type="matrix" values="0 0 0 0 0 0 0 0 0 0 0 0 0 0 0 0 0 0 127 0"/>
<feOffset dx="10" dy="4"/>
<feGaussianBlur stdDeviation="5"/>
<feColorMatrix type="matrix" values="0 0 0 0 0 0 0 0 0 0 0 0 0 0 0 0 0 0 0.4 0"/>
<feBlend mode="normal" in2="BackgroundImageFix" result="effect1_dropShadow"/>
<feBlend mode="normal" in="SourceGraphic" in2="effect1_dropShadow" result="shape"/>
</filter>
<pattern id="pattern2" patternContentUnits="objectBoundingBox" width="1" height="1">
<use xlink:href="#image0" transform="translate(0 -0.341755) scale(0.003125 0.00701463)"/>
</pattern>
<pattern id="pattern3" patternContentUnits="objectBoundingBox" width="1" height="1">
<use xlink:href="#image0" transform="translate(0 -0.338781) scale(0.003125 0.00698984)"/>
</pattern>
</defs>
</svg>
