<svg width="368" height="435" viewBox="0 0 368 435" fill="none" xmlns="http://www.w3.org/2000/svg" xmlns:xlink="http://www.w3.org/1999/xlink">
<g clip-path="url(#clip0)">
<g filter="url(#filter0_d)">
<path d="M124.976 74.3168C109.276 85.6335 105.741 118.149 90.6618 143.464C83.9151 154.791 75.299 163.175 67.4106 171.21C56.4355 182.39 45.3943 199.871 46.6197 221.11C47.8451 242.349 73.4221 263.418 96.3015 271.239C119.181 279.06 137.262 273.115 160.643 284.575C170.603 289.457 174.946 294.475 184.943 299.279C207.78 310.254 230.952 319.803 255.255 324.993C260.193 326.047 285.799 330.751 294.84 318.826C307.27 302.431 278.468 284.938 260.277 271.339C244.733 259.719 214.966 243.546 226.097 225.412C237.198 207.328 260.223 223.173 282.444 234.703C302.124 244.915 328.493 262.566 339.174 245.555C347.644 232.067 333.299 214.032 323.894 202.43C306.503 180.976 271.847 155.655 271.847 155.655C271.847 155.655 257.699 145.522 248.723 139.006C224.726 121.586 222.769 99.2474 198.804 81.7841C177.3 66.115 149.187 56.8653 124.976 74.3168Z" fill="white"/>
</g>
<mask id="mask0" mask-type="alpha" maskUnits="userSpaceOnUse" x="27" y="45" width="348" height="329">
<path d="M124.978 74.3165C109.278 85.6332 105.742 118.149 90.6636 143.464C83.9168 154.79 75.3007 163.174 67.4123 171.21C56.4372 182.39 45.396 199.871 46.6214 221.11C47.8469 242.348 73.4238 263.418 96.3032 271.239C119.183 279.059 137.263 273.115 160.645 284.575C170.604 289.457 174.948 294.474 184.945 299.279C207.781 310.253 230.954 319.803 255.257 324.992C260.195 326.046 285.801 330.75 294.841 318.826C307.272 302.43 278.47 284.938 260.278 271.339C244.735 259.719 214.968 243.545 226.099 225.412C237.2 207.328 260.224 223.173 282.445 234.703C302.125 244.915 328.494 262.566 339.176 245.555C347.645 232.066 333.301 214.032 323.896 202.429C306.505 180.975 271.848 155.654 271.848 155.654C271.848 155.654 257.701 145.522 248.725 139.006C224.727 121.586 222.771 99.247 198.806 81.7837C177.302 66.1146 149.189 56.865 124.978 74.3165Z" fill="#F9F7F7"/>
</mask>
<g mask="url(#mask0)">
<rect x="141.494" y="83.0193" width="267.099" height="119.44" transform="rotate(90 141.494 83.0193)" fill="url(#pattern0)" fill-opacity="0.05"/>
<rect x="260.512" y="68.6727" width="267.099" height="119.018" transform="rotate(90 260.512 68.6727)" fill="url(#pattern1)" fill-opacity="0.05"/>
<rect x="379.53" y="72.8922" width="267.099" height="119.018" transform="rotate(90 379.53 72.8922)" fill="url(#pattern2)" fill-opacity="0.05"/>
</g>
<mask id="mask1" mask-type="alpha" maskUnits="userSpaceOnUse" x="103" y="103" width="131" height="131">
<circle r="47.3286" transform="matrix(-0.517684 0.855572 0.855572 0.517684 168.133 168.441)" fill="#C4C4C4"/>
</mask>
<g mask="url(#mask1)">
<mask id="mask2" mask-type="alpha" maskUnits="userSpaceOnUse" x="-29" y="122" width="373" height="314">
<path d="M343.984 298.012L54.5768 122.899L-28.325 259.91L261.083 435.023L343.984 298.012Z" fill="#C4C4C4"/>
</mask>
<g mask="url(#mask2)">
<g filter="url(#filter1_d)">
<path d="M43.7433 198.862C36.5894 231 63.4283 257.62 97.0652 269.171C116.604 275.88 138.956 284.471 160.462 292.546C192.112 304.43 227.018 319.459 245.703 322.882C267.273 326.834 280.916 328.651 286.932 318.55C292.517 309.173 287.584 300.606 278.299 293.705C266.272 284.765 256.315 275.444 241.997 264.427C223.238 249.993 207.448 235.056 216.142 220.459C221.165 212.027 233.439 209.77 266.705 223.591C287.514 230.702 300.296 235.73 310.852 239.905C318.386 242.885 331.507 244.881 338.857 232.734C347.763 218.016 295.002 179.871 277.18 166.433C262.261 155.183 250.927 144.875 243.051 137.283C221.922 116.919 217.991 108.491 198.732 91.0169C180.192 74.1947 140.71 53.9072 112.113 84.0716C92.5667 104.69 101.609 119.555 88.6437 141.324C75.5398 163.325 51.9169 162.143 43.7433 198.862Z" fill="white"/>
</g>
<g filter="url(#filter2_i)">
<path d="M150.664 92.5045C124.57 107.441 128.578 133.467 113.988 157.279C100.364 179.515 74.4526 190.377 73.3887 216.92C72.523 238.515 96.4765 255.104 107.601 260.23C153.388 281.332 182.591 288.51 225.073 308.556C252.683 321.585 281.682 323.302 282.114 311.497C282.547 299.693 245.193 275.144 229.264 264.009C213.335 252.875 197.684 232.534 208.353 214.62C217.575 199.137 242.641 207.176 259.768 212.794C274.476 217.619 324.991 240.799 331.226 230.331C339.473 216.484 281.612 182.08 250.9 156.049C215.291 125.87 174.157 79.0569 150.664 92.5045Z" fill="#FD9394"/>
</g>
<g filter="url(#filter3_i)">
<path d="M144.396 267.925C150.435 269.146 200.756 283.052 200.756 283.052L162.562 234.332C162.562 234.332 145.734 148.113 130.908 169.63C123.742 180.03 118.862 182.715 105.393 190.359C99.6406 193.623 89.3783 199.619 84.6269 215.47C79.5265 232.487 95.4334 247.779 106.903 250.131C111.579 251.09 118.573 252.208 123.369 255.012C131.16 259.568 136.792 266.387 144.396 267.925Z" fill="#FF9090"/>
</g>
<g filter="url(#filter4_i)">
<path d="M139.043 256.933C145.607 263.229 185.593 270.416 185.593 270.416L144.086 200.748C144.086 200.748 134.685 186.219 123.094 190.577C117.007 192.865 110.825 191.209 105.721 198.865C86.3618 227.905 107.453 242.524 117.148 245.976C122.991 248.057 128.172 246.838 131.694 248.494C134.424 249.777 135.554 253.587 139.043 256.933Z" fill="#FF9090"/>
</g>
<g filter="url(#filter5_i)">
<path d="M221.099 138.571C224.937 143.396 242.609 163.767 262.962 182.608C281.456 199.729 200.403 170.251 200.403 170.251C200.403 170.251 115.974 194.971 129.247 172.686C138.467 157.205 136.41 152.389 136.818 136.853C136.992 130.219 136.691 119.868 147.443 109.102C159.816 96.7138 181.114 104.176 188.432 113.323C200.785 128.764 213.29 128.757 221.099 138.571Z" fill="#FF9090"/>
</g>
<g filter="url(#filter6_i)">
<path d="M213.633 141.291C222.104 144.245 242.233 174.171 242.233 174.171L162.837 169.238C162.837 169.238 136.017 168.083 138.348 156.074C139.422 150.541 142.928 141.296 145.305 132.406C153.819 100.562 183.969 115.974 189.558 124.374C193.321 130.029 199.048 138.073 202.364 138.901C205.679 139.728 209.736 139.931 213.633 141.291Z" fill="#FF9090"/>
</g>
<g filter="url(#filter7_i)">
<path d="M196.217 238.46C199.484 245.153 192.967 252.441 210.965 270.44C218.695 278.171 187.992 254.402 187.992 254.402L166.958 226.048L168.437 193.73L201.471 168.104C201.471 168.104 273.045 196.047 257.596 192.149C242.148 188.25 230.187 192.081 223.433 192.766C216.678 193.451 212.229 189.468 207.562 191.176C201.039 193.563 201.7 201.017 197.287 208.426C192.477 216.502 184.943 216.206 186.998 225.701C188.273 231.588 193.54 232.975 196.217 238.46Z" fill="#FF9090"/>
</g>
<g filter="url(#filter8_i)">
<path d="M155.421 125.008C140.397 133.519 141.676 152.615 132.906 167.339C123.585 182.99 108.459 190.591 103.535 203.866C95.4127 225.761 122.497 242.091 137.735 237.284C142.482 235.787 148.567 233.483 152.044 238.034C155.521 242.586 154.675 251.525 187.099 274.545C219.524 297.566 282.678 319.194 282.678 319.194C282.678 319.194 283.766 317.759 284.918 316.618C286.856 314.699 286.867 313.346 286.867 313.346C286.867 313.346 231.17 289.744 203.624 262.843C182.714 242.424 172.997 225.402 187.261 201.817C202.191 177.129 225.183 181.061 253.683 190.791C285.908 201.792 322.265 231.157 322.265 231.157C322.265 231.157 324.253 230.654 324.795 229.035C325.336 227.417 325.737 225.86 325.737 225.86C325.737 225.86 289.631 195.434 259.954 180.262L259.631 180.097C242.519 171.348 217.767 158.695 202.306 159.241C194.226 159.526 195.6 150.844 195.095 144.708C193.999 131.394 174.853 114.002 155.421 125.008Z" fill="#FF9090"/>
</g>
<path d="M123.892 195.315C126.837 188.107 132.985 182.84 132.985 182.84C132.985 182.84 128.248 188.292 125.538 195.343C122.967 202.03 123.138 214.368 133.719 222.198C145.72 231.079 170.091 231.389 181.682 245.331L182.46 248.538C168.769 233.307 147.985 233.395 132.904 223.94C123.036 217.754 120.262 204.202 123.892 195.315Z" fill="#E4140D"/>
<path d="M149.113 152.683C144.805 157.239 141.955 167.468 141.955 167.468C141.955 167.468 145.733 157.756 150.319 153.424C155.669 148.371 166.938 142.154 178.747 149.406C190.958 156.904 195.809 175.293 215.345 182.368L216.872 181.665C198.081 173.407 195.515 157.937 179.646 147.895C169.263 141.325 155.502 145.925 149.113 152.683Z" fill="#E4140D"/>
<path d="M190.267 265.264C214.935 298.689 284.183 314.802 284.183 314.802L285.53 313.414C285.53 313.414 215.567 297.818 191.179 264.183C178.121 246.173 184.633 224.847 163.244 219.102C156.553 217.305 151.868 221.519 145.313 219.213C140.862 217.647 135.351 212.405 135.351 212.405C135.351 212.405 140.335 218.114 144.567 220.098C150.727 222.985 155.168 219.101 161.669 220.971C182.799 227.049 177.16 247.504 190.267 265.264Z" fill="#E4160E"/>
<path d="M162.461 213.255C163.369 216.812 166.755 220.861 166.755 220.861L171.232 223.593C171.232 223.593 164.667 217.343 163.918 212.796C163.073 207.669 168.776 205.283 167.352 200.25C166.34 196.672 161.618 192.447 161.618 192.447C161.618 192.447 165.663 197.195 166.353 200.589C167.408 205.78 161.145 208.108 162.461 213.255Z" fill="#E4160E"/>
<path d="M157.51 218.943C159.818 220.729 163.784 221.609 163.784 221.609L167.707 221.129C167.707 221.129 160.824 220.425 158.108 217.941C155.045 215.14 157.09 210.849 153.745 208.39C151.368 206.642 146.553 206.306 146.553 206.306C146.553 206.306 151.246 207.302 153.347 209.092C156.562 211.831 154.17 216.359 157.51 218.943Z" fill="#E4160E"/>
<g filter="url(#filter9_d)">
<path d="M190.367 264.986C218.276 295.906 285.573 314.6 285.573 314.6L287.213 313.288C287.213 313.288 219.345 294.221 191.329 263.371C181.179 252.195 177.741 236.121 173.015 225.119C170.879 220.147 170.418 214.117 166.504 213.066C159.813 211.269 155.128 215.483 148.573 213.176C144.122 211.61 138.611 206.368 138.611 206.368C138.611 206.368 143.595 212.078 147.827 214.062C153.987 216.949 158.428 213.065 164.929 214.935C168.38 215.928 168.717 221.627 170.853 226.167C175.915 236.927 179.784 253.261 190.367 264.986Z" fill="#6896A2"/>
<path d="M165.721 207.219C166.63 210.776 167.238 216.71 167.238 216.71L170.872 218.942C170.872 218.942 167.927 211.306 167.178 206.76C166.333 201.633 172.036 199.247 170.613 194.214C169.601 190.636 164.878 186.411 164.878 186.411C164.878 186.411 168.924 191.159 169.614 194.553C170.669 199.744 164.406 202.072 165.721 207.219Z" fill="#6896A2"/>
<path d="M160.771 212.907C163.079 214.693 167.045 215.573 167.045 215.573L169.602 215.747C169.602 215.747 164.084 214.39 161.369 211.906C158.306 209.104 160.35 204.813 157.006 202.354C154.629 200.606 149.814 200.271 149.814 200.271C149.814 200.271 154.507 201.266 156.608 203.056C159.823 205.795 157.43 210.324 160.771 212.907Z" fill="#6896A2"/>
</g>
<path d="M239.863 179.205C280.53 183.478 326.669 230.942 326.669 230.942L325.757 231.951C325.757 231.951 280.126 184.477 239.427 180.555C217.635 178.455 203.619 191.157 187.803 175.492C182.856 170.592 183.971 164.345 178.667 159.825C175.066 156.756 167.844 154.656 167.844 154.656C167.844 154.656 175.186 156.056 179.024 158.72C184.611 162.597 183.646 168.462 188.557 173.16C204.517 188.428 218.255 176.934 239.863 179.205Z" fill="#E4160E"/>
<path d="M182.507 177.821C185.951 176.782 191.082 177.646 191.082 177.646L195.672 180.138C195.672 180.138 187.063 177.639 182.872 179.326C178.147 181.229 179.085 187.422 174.141 188.773C170.626 189.733 164.66 187.796 164.66 187.796C164.66 187.796 170.715 188.875 173.91 187.729C178.797 185.976 177.522 179.325 182.507 177.821Z" fill="#E4160E"/>
<path d="M184.718 170.586C187.401 171.676 190.178 174.676 190.178 174.676L191.795 178.339C191.795 178.339 187.664 172.708 184.188 171.622C180.267 170.397 177.729 174.385 173.949 172.739C171.263 171.569 168.504 167.55 168.504 167.55C168.504 167.55 171.753 171.123 174.332 172.031C178.278 173.42 180.837 169.007 184.718 170.586Z" fill="#E4160E"/>
<g filter="url(#filter10_d)">
<path d="M240.255 177.662C274.029 184.271 326.061 231.972 326.061 231.972L326.809 234.178C326.809 234.178 272.777 186.372 239.819 179.012C218.317 174.21 207.029 186.089 184.813 181.026C178.093 179.494 180.982 169.879 175.678 165.359C172.077 162.29 164.854 160.19 164.854 160.19C164.854 160.19 172.196 161.59 176.035 164.254C181.621 168.13 178.986 177.338 185.567 178.693C206.607 183.028 218.834 173.469 240.255 177.662Z" fill="#6896A2"/>
<path d="M179.518 183.354C182.962 182.315 190.494 180.287 190.494 180.287L196.773 182.289C196.773 182.289 184.074 183.172 179.884 184.859C175.158 186.762 176.096 192.955 171.152 194.306C167.637 195.266 161.671 193.329 161.671 193.329C161.671 193.329 167.726 194.408 170.921 193.262C175.808 191.509 174.533 184.858 179.518 183.354Z" fill="#6896A2"/>
<path d="M171.345 177.563C175.291 178.952 177.85 174.539 181.731 176.117L181.2 177.153C177.28 175.929 174.741 179.917 170.962 178.271C168.276 177.101 165.517 173.081 165.517 173.081C165.517 173.081 168.765 176.655 171.345 177.563Z" fill="#6896A2"/>
</g>
</g>
<mask id="mask3" mask-type="alpha" maskUnits="userSpaceOnUse" x="54" y="-16" width="369" height="318">
<path d="M341.86 301.498L54.7272 122.566L135.729 -15.6112L422.862 163.321L341.86 301.498Z" fill="#C4C4C4"/>
</mask>
<g mask="url(#mask3)">
<g filter="url(#filter11_d)">
<path d="M115.949 77.5488C140.658 56.1908 176.34 67.964 202.035 92.8482C216.961 107.302 234.834 123.414 251.864 139.003C276.928 161.946 306.246 186.357 317.909 201.569C331.373 219.131 339.293 230.556 333.277 240.657C327.692 250.034 317.928 249.576 307.597 244.432C294.215 237.767 281.461 233.142 265.202 225.383C243.902 215.216 223.541 207.954 214.847 222.551C209.825 230.984 213.557 243.07 241.06 266.566C256.925 281.976 267.247 291.135 275.791 298.689C281.888 304.081 289.723 314.953 282.542 327.203C273.84 342.047 216.069 312.316 196.071 302.53C179.331 294.338 165.076 288.933 154.797 285.375C127.224 275.832 118.047 276.211 93.8627 267.007C70.5804 258.147 34.5503 232.063 47.5797 192.339C56.4856 165.187 73.6507 166.415 86.6162 144.646C99.7203 122.645 87.7185 101.951 115.949 77.5488Z" fill="white"/>
</g>
<g filter="url(#filter12_i)">
<path d="M72.8387 223.091C73.7484 192.689 98.3095 184.207 112.303 160.029C125.37 137.451 122.811 109.106 145.467 95.8227C163.901 85.0155 189.493 98.8523 199.131 106.475C238.799 137.851 258.621 160.778 295.834 189.671C320.02 208.449 334.984 233.729 324.889 239.6C314.794 245.472 276.035 223.281 258.926 214.127C241.818 204.973 216.808 200.345 206.138 218.259C196.916 233.743 215.569 252.549 228.423 265.342C239.461 276.328 283.138 310.989 276.903 321.458C268.655 335.305 211.777 299.25 174.811 283.719C131.952 265.713 72.0197 250.462 72.8387 223.091Z" fill="#FD9394"/>
</g>
<g filter="url(#filter13_i)">
<path d="M222.929 135.991C226.798 140.854 262.296 179.649 262.296 179.649L202.065 167.927C202.065 167.927 119.05 192.835 130.932 169.509C136.675 158.235 136.751 152.6 137.163 136.938C137.338 130.25 137.802 118.237 149.422 106.603C161.895 94.1137 182.62 101.317 189.998 110.538C193.005 114.298 197.229 120.068 201.902 123.079C209.493 127.969 218.056 129.867 222.929 135.991Z" fill="#FF9090"/>
</g>
<g filter="url(#filter14_i)">
<path d="M210.856 136.282C219.395 139.26 244.233 171.881 244.233 171.881L164.193 166.908C164.193 166.908 147.155 165.202 145.573 152.755C144.743 146.218 140.426 141.428 144.734 133.283C161.073 102.388 183.617 114.566 191.131 121.68C195.66 125.968 197.003 131.194 200.082 133.592C202.469 135.451 206.317 134.699 210.856 136.282Z" fill="#FF9090"/>
</g>
<g filter="url(#filter15_i)">
<path d="M145.728 265.036C151.718 266.247 177.692 272.679 203.577 282.231C227.098 290.911 163.747 231.713 163.747 231.713C163.747 231.713 146.1 144.31 132.827 166.594C123.606 182.075 118.451 182.461 105.09 190.043C99.3838 193.281 90.216 197.817 85.8194 212.485C80.76 229.365 97.1587 245.052 108.536 247.385C127.74 251.323 133.541 262.571 145.728 265.036Z" fill="#FF9090"/>
</g>
<g filter="url(#filter16_i)">
<path d="M144.632 257.058C151.143 263.304 186.592 267.508 186.592 267.508L145.419 198.4C145.419 198.4 131.956 174.819 122.564 182.492C118.238 186.027 111.802 193.473 105.152 199.739C81.3311 222.184 108.775 242.139 118.697 243.265C125.376 244.022 135.053 245.437 137.314 248.034C139.576 250.63 141.637 254.185 144.632 257.058Z" fill="#FF9090"/>
</g>
<g filter="url(#filter17_i)">
<path d="M221.296 196.274C228.651 196.104 231.981 186.859 256.038 194.685C266.37 198.046 231.38 181.474 231.38 181.474L196.883 175.726L169.381 192.064L162.37 233.671C162.37 233.671 219.981 285.058 209.407 272.976C198.832 260.895 196.619 248.36 194.08 241.968C191.541 235.576 186 233.425 185.322 228.434C184.375 221.46 191.184 218.593 195.597 211.184C200.407 203.108 196.65 196.47 205.886 193.909C211.613 192.321 215.268 196.413 221.296 196.274Z" fill="#FF9090"/>
</g>
<g filter="url(#filter18_i)">
<path d="M103.397 212.274C103.843 194.811 121.092 187.093 129.862 172.369C139.184 156.719 138.79 139.586 148.081 128.994C163.406 111.522 190.227 128.294 193.111 144.229C194.01 149.193 194.826 155.735 200.41 156.748C205.995 157.761 213.398 152.849 248.535 171.317C283.672 189.785 331.863 236.533 331.863 236.533C331.863 236.533 331.117 238.178 330.657 239.743C329.883 242.377 328.708 243.015 328.708 243.015C328.708 243.015 282.257 203.89 246.002 191.611C218.482 182.291 199.123 181.456 185.176 205.236C170.577 230.128 184.683 248.977 206.405 270.088C230.965 293.958 273.461 313.016 273.461 313.016C273.461 313.016 273.946 315.037 272.786 316.276C271.626 317.514 270.453 318.597 270.453 318.597C270.453 318.597 227.148 300.259 200.134 280.617L199.84 280.403C184.263 269.078 161.732 252.696 155.028 238.538C151.525 231.14 144.59 236.407 139.004 238.803C126.882 244 102.821 234.859 103.397 212.274Z" fill="#FF9090"/>
</g>
<path d="M150.077 151.273C145.157 157.268 143.418 165.242 143.418 165.242C143.418 165.242 145.974 158.452 150.865 152.74C155.504 147.323 166.344 141.746 178.087 147.625C191.406 154.293 202.994 176.065 220.537 180.014L223.696 179.224C204.053 173.986 194.479 155.255 179.229 146.083C169.25 140.083 156.141 143.881 150.077 151.273Z" fill="#E4140D"/>
<path d="M124.605 193.752C126.579 187.762 134.177 180.449 134.177 180.449C134.177 180.449 127.46 188.357 125.812 194.493C123.889 201.65 123.7 214.671 135.509 221.923C147.72 229.421 166.011 225.244 181.254 239.527L181.351 241.226C165.422 228.164 150.737 233.04 134.609 223.433C124.057 217.147 121.678 202.636 124.605 193.752Z" fill="#E4140D"/>
<path d="M241.911 178.478C282.519 185.138 328.731 239.928 328.731 239.928L328.146 241.784C328.146 241.784 282.053 186.111 241.39 179.8C219.618 176.421 204.043 192.181 189.099 175.614C184.424 170.432 185.924 164.262 180.868 159.439C177.435 156.163 170.304 153.642 170.304 153.642C170.304 153.642 177.598 155.472 181.294 158.357C186.673 162.555 185.347 168.352 189.997 173.33C205.111 189.509 220.334 174.939 241.911 178.478Z" fill="#E4160E"/>
<path d="M183.636 177.626C187.161 176.792 192.264 177.956 192.264 177.956L196.726 180.713C196.726 180.713 188.225 177.712 183.912 179.15C179.048 180.771 179.615 187.007 174.564 188.065C170.974 188.816 165.096 186.531 165.096 186.531C165.096 186.531 171.116 187.965 174.396 187.009C179.414 185.547 178.536 178.834 183.636 177.626Z" fill="#E4160E"/>
<path d="M186.297 170.534C188.926 171.781 191.535 174.938 191.535 174.938L192.938 178.689C192.938 178.689 189.128 172.826 185.701 171.537C181.835 170.084 179.042 173.915 175.344 172.05C172.715 170.724 170.187 166.549 170.187 166.549C170.187 166.549 173.234 170.308 175.771 171.366C179.653 172.985 182.492 168.73 186.297 170.534Z" fill="#E4160E"/>
<g filter="url(#filter19_d)">
<path d="M241.714 178.699C281.643 189.437 329.199 241.273 329.199 241.273L328.817 243.357C328.817 243.357 280.669 191.181 240.752 180.313C226.29 176.376 210.674 180.749 198.883 181.608C193.555 181.996 188.082 184.382 185.347 181.35C180.672 176.168 182.172 169.998 177.116 165.175C173.683 161.9 166.552 159.378 166.552 159.378C166.552 159.378 173.846 161.208 177.542 164.093C182.921 168.291 181.595 174.088 186.246 179.066C188.714 181.709 193.842 179.364 198.794 179.177C210.529 178.733 226.573 174.627 241.714 178.699Z" fill="#6896A2"/>
<path d="M179.884 183.361C183.408 182.527 188.866 180.318 188.866 180.318L192.501 182.549C192.501 182.549 184.473 183.447 180.16 184.885C175.296 186.506 175.863 192.742 170.812 193.8C167.222 194.551 161.344 192.266 161.344 192.266C161.344 192.266 167.364 193.7 170.644 192.744C175.661 191.282 174.783 184.569 179.884 183.361Z" fill="#6896A2"/>
<path d="M182.545 176.27C185.175 177.516 187.784 180.674 187.784 180.674L189.124 182.892C189.124 182.892 185.377 178.561 181.949 177.273C178.084 175.82 175.291 179.65 171.593 177.785C168.964 176.459 166.435 172.285 166.435 172.285C166.435 172.285 169.483 176.043 172.02 177.101C175.901 178.72 178.741 174.466 182.545 176.27Z" fill="#6896A2"/>
</g>
<path d="M189.88 263.041C212.493 297.627 275.318 317.076 275.318 317.076L275.774 315.787C275.774 315.787 213.177 296.8 190.856 262.022C178.904 243.401 183.474 224.897 162.466 217.949C155.895 215.776 150.964 219.681 144.559 217.01C140.21 215.197 135.024 209.677 135.024 209.677C135.024 209.677 139.655 215.629 143.761 217.844C149.736 221.067 154.404 217.476 160.782 219.71C181.51 226.973 177.865 244.665 189.88 263.041Z" fill="#E4160E"/>
<path d="M162.037 212.106C162.73 215.686 165.866 219.899 165.866 219.899L170.171 222.87C170.171 222.87 163.993 216.288 163.519 211.736C162.985 206.603 168.822 204.571 167.704 199.497C166.909 195.89 162.449 191.425 162.449 191.425C162.449 191.425 166.202 196.369 166.686 199.774C167.427 204.983 161.034 206.925 162.037 212.106Z" fill="#E4160E"/>
<path d="M156.753 217.454C158.95 219.36 162.856 220.464 162.856 220.464L166.802 220.218C166.802 220.218 159.972 219.118 157.411 216.496C154.522 213.539 156.821 209.404 153.631 206.77C151.363 204.898 146.576 204.283 146.576 204.283C146.576 204.283 151.201 205.545 153.191 207.443C156.235 210.346 153.574 214.697 156.753 217.454Z" fill="#E4160E"/>
<g filter="url(#filter20_d)">
<path d="M188.717 264.112C210.167 291.414 275.934 316.052 275.934 316.052L278.206 315.701C278.206 315.701 211.418 289.313 189.693 263.093C175.519 245.987 180.638 230.32 165.905 212.693C161.448 207.361 154.403 214.424 147.998 211.754C143.649 209.941 138.463 204.421 138.463 204.421C138.463 204.421 143.094 210.373 147.2 212.588C153.175 215.811 159.982 209.166 164.221 214.454C177.772 231.362 175.113 246.796 188.717 264.112Z" fill="#6896A2"/>
<path d="M165.477 206.848C166.17 210.428 167.899 218.143 167.899 218.143L172.561 222.86C172.561 222.86 167.433 211.03 166.959 206.478C166.425 201.345 172.262 199.313 171.144 194.239C170.349 190.632 165.889 186.167 165.889 186.167C165.889 186.167 169.642 191.111 170.126 194.516C170.867 199.725 164.474 201.667 165.477 206.848Z" fill="#6896A2"/>
<path d="M156.629 202.188C159.674 205.091 157.013 209.442 160.192 212.199L160.849 211.241C157.96 208.284 160.26 204.149 157.069 201.515C154.801 199.643 150.014 199.028 150.014 199.028C150.014 199.028 154.64 200.29 156.629 202.188Z" fill="#6896A2"/>
</g>
</g>
<g filter="url(#filter21_f)">
<path d="M125.197 183.563C128.892 177.145 140.955 174.095 140.955 174.095C140.955 174.095 138.083 160.431 142.823 153.97C147.936 147 155.954 144.627 164.407 147.759C175.983 152.05 180.937 162.485 183.709 175.035C186.52 187.758 184.974 201.126 184.974 201.126C184.974 201.126 172.548 209.162 162.094 211.326C148.443 214.153 137.481 214.931 129.294 206.713C122.683 200.076 120.732 191.318 125.197 183.563Z" fill="#FF585B"/>
</g>
<g filter="url(#filter22_di)">
<path d="M136.88 184.628C139.257 180.498 147.79 179.008 147.79 179.008C147.79 179.008 145.172 169.743 148.222 165.585C151.512 161.1 156.67 159.572 162.108 161.587C169.554 164.346 172.741 171.06 174.523 179.135C176.33 187.321 177.273 197.113 177.273 197.113C177.273 197.113 167.34 201.094 160.614 202.488C151.832 204.308 144.78 204.81 139.513 199.522C135.261 195.253 134.007 189.618 136.88 184.628Z" fill="#FD002E"/>
</g>
<mask id="mask4" mask-type="alpha" maskUnits="userSpaceOnUse" x="135" y="160" width="43" height="44">
<path d="M136.878 184.629C139.256 180.499 147.789 179.009 147.789 179.009C147.789 179.009 145.17 169.744 148.22 165.586C151.51 161.101 156.668 159.574 162.106 161.589C169.553 164.348 172.739 171.062 174.521 179.137C176.328 187.322 177.271 197.114 177.271 197.114C177.271 197.114 167.338 201.096 160.613 202.489C151.83 204.309 144.778 204.811 139.512 199.524C135.259 195.254 134.005 189.619 136.878 184.629Z" fill="#C80902"/>
</mask>
<g mask="url(#mask4)">
<g filter="url(#filter23_f)">
<path d="M167.464 193.625C163.457 196.192 150.502 201.254 150.502 201.254L163.586 202.406L179.07 197.101C179.07 197.101 171.472 191.059 167.464 193.625Z" fill="#C90225" fill-opacity="0.7"/>
</g>
<g filter="url(#filter24_f)">
<path d="M143.4 182.518C140.356 183.746 136.297 186.895 136.297 186.895C136.297 186.895 138.874 182.451 141.546 180.721C143.524 179.442 147.236 178.559 147.236 178.559C147.236 178.559 145.765 174.904 145.915 172.541C146.094 169.75 148.709 166.057 148.709 166.057C148.709 166.057 148.632 170.368 148.999 173.118C149.402 176.136 152.362 178.234 150.804 180.75C149.272 183.223 146.135 181.415 143.4 182.518Z" fill="#E0012A"/>
<path d="M143.4 182.518C140.356 183.746 136.297 186.895 136.297 186.895C136.297 186.895 138.874 182.451 141.546 180.721C143.524 179.442 147.236 178.559 147.236 178.559C147.236 178.559 145.765 174.904 145.915 172.541C146.094 169.75 148.709 166.057 148.709 166.057C148.709 166.057 148.632 170.368 148.999 173.118C149.402 176.136 152.362 178.234 150.804 180.75C149.272 183.223 146.135 181.415 143.4 182.518Z" stroke="black"/>
</g>
<g filter="url(#filter25_f)">
<path d="M160.477 172.08C162.722 174.741 163.255 180.4 163.255 180.4C163.255 180.4 162.27 178.176 160.982 177.777C158.74 177.083 160.116 181.758 158.058 182.686C155.526 183.828 153.16 182.387 151.012 180.423C148.889 178.482 147.82 176.471 148.17 173.74C148.576 170.568 150.64 168.213 153.893 168.038C156.83 167.879 158.535 169.779 160.477 172.08Z" fill="white" fill-opacity="0.6"/>
</g>
<g filter="url(#filter26_f)">
<path d="M151.728 184.275C153.761 186.688 154.24 191.822 154.24 191.822C154.24 191.822 153.349 189.805 152.181 189.444C150.15 188.816 151.393 193.057 149.527 193.901C147.23 194.94 145.086 193.634 143.141 191.854C141.218 190.094 140.251 188.27 140.57 185.792C140.941 182.912 142.814 180.774 145.763 180.612C148.426 180.466 149.97 182.188 151.728 184.275Z" fill="white" fill-opacity="0.6"/>
</g>
</g>
<rect x="144.448" y="104.544" width="267.099" height="119.44" transform="rotate(90 144.448 104.544)" fill="url(#pattern3)" fill-opacity="0.05"/>
<rect x="263.466" y="90.1973" width="267.099" height="119.018" transform="rotate(90 263.466 90.1973)" fill="url(#pattern4)" fill-opacity="0.05"/>
</g>
<rect width="10.3225" height="55.4383" rx="5.16126" transform="matrix(-0.260367 0.96551 0.96551 0.260367 213.002 173.864)" fill="#6CB2C3"/>
<rect width="17.7488" height="82.7291" rx="8.87438" transform="matrix(-0.260367 0.96551 0.96551 0.260367 239.438 177.251)" fill="#3C3D75"/>
<g filter="url(#filter27_d)">
<path fill-rule="evenodd" clip-rule="evenodd" d="M196.467 217.708C168.466 233.815 132.709 224.173 116.603 196.171C100.496 168.17 110.138 132.414 138.14 116.307C166.141 100.2 201.898 109.842 218.004 137.844C234.111 165.845 224.469 201.602 196.467 217.708ZM190.032 206.519C168.21 219.071 140.344 211.557 127.792 189.735C115.24 167.913 122.755 140.048 144.576 127.495C166.398 114.943 194.264 122.458 206.816 144.279C219.368 166.101 211.853 193.967 190.032 206.519Z" fill="#3C3D75"/>
</g>
<mask id="mask5" mask-type="alpha" maskUnits="userSpaceOnUse" x="87" y="87" width="233" height="160">
<rect width="10.3225" height="55.4383" rx="5.16126" transform="matrix(-0.260367 0.96551 0.96551 0.260367 213.002 173.867)" fill="#6CB2C3"/>
<rect width="17.7488" height="82.7291" rx="8.87438" transform="matrix(-0.260367 0.96551 0.96551 0.260367 239.439 177.254)" fill="#3C3D75"/>
<path fill-rule="evenodd" clip-rule="evenodd" d="M196.468 217.711C168.466 233.818 132.71 224.176 116.603 196.174C100.496 168.173 110.139 132.416 138.14 116.309C166.141 100.203 201.898 109.845 218.005 137.846C234.111 165.848 224.469 201.604 196.468 217.711ZM190.033 206.522C168.211 219.074 140.345 211.559 127.793 189.738C115.241 167.916 122.756 140.05 144.577 127.498C166.399 114.946 194.264 122.46 206.817 144.282C219.369 166.104 211.854 193.969 190.033 206.522Z" fill="#3C3D75"/>
</mask>
<g mask="url(#mask5)">
<rect x="147.403" y="51.3655" width="267.099" height="119.44" transform="rotate(90 147.403 51.3655)" fill="url(#pattern5)" fill-opacity="0.05"/>
<rect x="266.421" y="37.0189" width="267.099" height="119.018" transform="rotate(90 266.421 37.0189)" fill="url(#pattern6)" fill-opacity="0.05"/>
<rect x="385.438" y="41.2385" width="267.099" height="119.018" transform="rotate(90 385.438 41.2385)" fill="url(#pattern7)" fill-opacity="0.05"/>
</g>
<g filter="url(#filter28_d)">
<path d="M278.23 168.45C276.879 161.716 273.887 156.488 273.887 156.488C273.887 156.488 279.952 157.813 283.754 157.838C291.119 157.885 314.255 156.812 326.503 172.796C330.56 178.091 336.183 194.543 328.568 207.496C325.415 212.859 313.109 221.658 306.227 234.602C301.008 244.418 282.672 279.844 274.768 288.77C274.768 288.77 270.155 296.364 263.71 293.533C258.396 291.2 265.235 277.733 265.235 277.733C265.235 277.733 256.947 292.656 249.635 288.926C240.871 284.456 252.383 270.852 252.383 270.852C252.383 270.852 236.199 285.488 228.612 277.16C219.997 267.703 240.786 257.69 240.786 257.69C240.786 257.69 235.212 256.469 231.999 254.45C228.787 252.432 225.787 248.954 227.087 244.982C229.075 238.91 240.684 240.279 245.203 238.034C247.256 237.014 251.266 234.262 256.129 228.318C266.834 215.233 270.244 206.245 275.71 189.547C278.02 182.49 279.798 176.262 278.23 168.45Z" fill="#6CB2C3"/>
</g>
<mask id="mask6" mask-type="alpha" maskUnits="userSpaceOnUse" x="193" y="140" width="168" height="166">
<path d="M279.643 166.004C278.292 159.27 273.054 156.554 273.054 156.554C273.054 156.554 279.952 157.813 283.753 157.837C291.118 157.885 314.255 156.812 326.502 172.796C330.559 178.091 336.182 194.543 328.567 207.496C325.414 212.858 313.109 221.658 306.227 234.601C301.007 244.418 282.671 279.844 274.768 288.77C274.768 288.77 270.154 296.364 263.709 293.533C258.395 291.2 265.235 277.733 265.235 277.733C265.235 277.733 256.946 292.656 249.634 288.926C240.87 284.456 252.382 270.852 252.382 270.852C252.382 270.852 236.198 285.488 228.611 277.16C219.997 267.703 240.785 257.69 240.785 257.69C240.785 257.69 235.211 256.469 231.999 254.45C228.786 252.432 225.787 248.954 227.087 244.982C229.074 238.91 240.683 240.279 245.202 238.034C247.255 237.014 251.265 234.262 256.128 228.318C266.833 215.232 270.244 206.245 275.709 189.547C278.019 182.49 281.211 173.816 279.643 166.004Z" fill="#E35931"/>
</mask>
<g mask="url(#mask6)">
<rect x="217.463" y="96.5247" width="267.099" height="119.44" transform="rotate(90 217.463 96.5247)" fill="url(#pattern8)" fill-opacity="0.05"/>
<rect x="336.481" y="82.1781" width="267.099" height="119.018" transform="rotate(90 336.481 82.1781)" fill="url(#pattern9)" fill-opacity="0.05"/>
<rect x="455.499" y="86.3976" width="267.099" height="119.018" transform="rotate(90 455.499 86.3976)" fill="url(#pattern10)" fill-opacity="0.05"/>
<g filter="url(#filter29_f)">
<rect x="221.932" y="313.394" width="66.0119" height="51.282" transform="rotate(-114.883 221.932 313.394)" fill="#313131" fill-opacity="0.2"/>
</g>
<g filter="url(#filter30_f)">
<rect x="311.282" y="249.291" width="66.0119" height="21.6331" transform="rotate(-148.628 311.282 249.291)" fill="#313131" fill-opacity="0.2"/>
</g>
<g filter="url(#filter31_f)">
<rect x="287.148" y="287.58" width="74.1962" height="21.6331" transform="rotate(-136.6 287.148 287.58)" fill="white" fill-opacity="0.15"/>
</g>
<g filter="url(#filter32_f)">
<rect x="326.753" y="172.399" width="66.0119" height="21.6331" transform="rotate(-170.152 326.753 172.399)" fill="#313131" fill-opacity="0.2"/>
</g>
</g>
<g filter="url(#filter33_d)">
<path d="M70.4329 255.867C62.9455 254.551 56.0173 242.785 56.0173 242.785C56.0173 242.785 56.9154 249.864 57.0467 254.065C57.301 262.204 55.1586 288.634 73.177 301.746C79.1464 306.09 93.9018 314.1 111.621 303.109C117.467 299.483 126.864 285.651 140.994 277.702C151.711 271.674 190.398 250.472 200.057 241.501C200.057 241.501 207.551 233.599 204.735 228.354C201.51 222.348 189.942 226.966 189.942 226.966C189.942 226.966 202.421 219.784 199.54 213.721C194.907 203.968 182.348 212.798 182.348 212.798C182.348 212.798 193.833 195.786 185.948 190.798C173.983 183.23 164.742 204.768 164.742 204.768C164.742 204.768 163.643 198.638 160.917 195.143C158.788 192.411 154.776 188.773 150.309 189.965C146.304 191.034 145.185 201.706 143.119 210.169C141.47 216.924 139.542 221.993 134.041 225.492C118.267 235.528 108.088 237.304 90.3162 245.168C82.2461 248.739 79.1174 257.392 70.4329 255.867Z" fill="#FF9090"/>
</g>
<mask id="mask7" mask-type="alpha" maskUnits="userSpaceOnUse" x="38" y="155" width="179" height="183">
<path d="M70.4329 255.867C62.9455 254.551 56.0173 242.785 56.0173 242.785C56.0173 242.785 56.9154 249.864 57.0467 254.065C57.301 262.204 55.1586 288.634 73.177 301.746C79.1464 306.09 93.9018 314.1 111.621 303.109C117.467 299.483 126.864 285.651 140.994 277.702C151.711 271.674 190.398 250.472 200.057 241.501C200.057 241.501 207.551 233.599 204.735 228.354C201.51 222.348 189.942 226.966 189.942 226.966C189.942 226.966 202.421 219.784 199.54 213.721C194.907 203.968 182.348 212.798 182.348 212.798C182.348 212.798 193.833 195.786 185.948 190.798C173.983 183.23 164.742 204.768 164.742 204.768C164.742 204.768 163.643 198.638 160.917 195.143C158.788 192.411 154.776 188.773 150.309 189.965C146.304 191.034 145.185 201.706 143.119 210.169C141.47 216.924 139.542 221.993 134.041 225.492C118.267 235.528 108.088 237.304 90.3162 245.168C82.2461 248.739 79.1174 257.392 70.4329 255.867Z" fill="#F3A712"/>
</mask>
<g mask="url(#mask7)">
<rect x="68.4791" y="98.2133" width="267.099" height="119.44" transform="rotate(90 68.4791 98.2133)" fill="url(#pattern11)" fill-opacity="0.05"/>
<rect x="187.497" y="83.8666" width="267.099" height="119.018" transform="rotate(90 187.497 83.8666)" fill="url(#pattern12)" fill-opacity="0.05"/>
<rect x="306.515" y="88.0862" width="267.099" height="119.018" transform="rotate(90 306.515 88.0862)" fill="url(#pattern13)" fill-opacity="0.05"/>
<g filter="url(#filter34_f)">
<rect x="163.853" y="250.775" width="80.1854" height="41.58" transform="rotate(-86.674 163.853 250.775)" fill="white" fill-opacity="0.2"/>
</g>
<g filter="url(#filter35_f)">
<rect x="48.0278" y="311.837" width="80.1854" height="35.2974" transform="rotate(-86.674 48.0278 311.837)" fill="black" fill-opacity="0.2"/>
</g>
</g>
</g>
<defs>
<filter id="filter0_d" x="24.1178" y="44.556" width="357.272" height="338.097" filterUnits="userSpaceOnUse" color-interpolation-filters="sRGB">
<feFlood flood-opacity="0" result="BackgroundImageFix"/>
<feColorMatrix in="SourceAlpha" type="matrix" values="0 0 0 0 0 0 0 0 0 0 0 0 0 0 0 0 0 0 127 0"/>
<feOffset dx="2" dy="4"/>
<feGaussianBlur stdDeviation="2.5"/>
<feColorMatrix type="matrix" values="0 0 0 0 0 0 0 0 0 0 0 0 0 0 0 0 0 0 0.4 0"/>
<feBlend mode="normal" in2="BackgroundImageFix" result="effect1_dropShadow"/>
<feBlend mode="normal" in="SourceGraphic" in2="effect1_dropShadow" result="shape"/>
</filter>
<pattern id="pattern0" patternContentUnits="objectBoundingBox" width="1" height="1">
<use xlink:href="#image0" transform="translate(0 -0.338597) scale(0.003125 0.00698831)"/>
</pattern>
<pattern id="pattern1" patternContentUnits="objectBoundingBox" width="1" height="1">
<use xlink:href="#image0" transform="translate(0 -0.34157) scale(0.003125 0.00701309)"/>
</pattern>
<pattern id="pattern2" patternContentUnits="objectBoundingBox" width="1" height="1">
<use xlink:href="#image0" transform="translate(0 -0.34157) scale(0.003125 0.00701309)"/>
</pattern>
<filter id="filter1_d" x="37.5802" y="62.5775" width="317.281" height="277.452" filterUnits="userSpaceOnUse" color-interpolation-filters="sRGB">
<feFlood flood-opacity="0" result="BackgroundImageFix"/>
<feColorMatrix in="SourceAlpha" type="matrix" values="0 0 0 0 0 0 0 0 0 0 0 0 0 0 0 0 0 0 127 0"/>
<feOffset dx="5" dy="4"/>
<feGaussianBlur stdDeviation="5"/>
<feColorMatrix type="matrix" values="0 0 0 0 0 0 0 0 0 0 0 0 0 0 0 0 0 0 0.3 0"/>
<feBlend mode="normal" in2="BackgroundImageFix" result="effect1_dropShadow"/>
<feBlend mode="normal" in="SourceGraphic" in2="effect1_dropShadow" result="shape"/>
</filter>
<filter id="filter2_i" x="73.3658" y="90.1336" width="263.656" height="233.287" filterUnits="userSpaceOnUse" color-interpolation-filters="sRGB">
<feFlood flood-opacity="0" result="BackgroundImageFix"/>
<feBlend mode="normal" in="SourceGraphic" in2="BackgroundImageFix" result="shape"/>
<feColorMatrix in="SourceAlpha" type="matrix" values="0 0 0 0 0 0 0 0 0 0 0 0 0 0 0 0 0 0 127 0" result="hardAlpha"/>
<feOffset dx="5" dy="4"/>
<feGaussianBlur stdDeviation="5"/>
<feComposite in2="hardAlpha" operator="arithmetic" k2="-1" k3="1"/>
<feColorMatrix type="matrix" values="0 0 0 0 0 0 0 0 0 0 0 0 0 0 0 0 0 0 0.3 0"/>
<feBlend mode="normal" in2="shape" result="effect1_innerShadow"/>
</filter>
<filter id="filter3_i" x="83.6467" y="166.182" width="117.109" height="120.871" filterUnits="userSpaceOnUse" color-interpolation-filters="sRGB">
<feFlood flood-opacity="0" result="BackgroundImageFix"/>
<feBlend mode="normal" in="SourceGraphic" in2="BackgroundImageFix" result="shape"/>
<feColorMatrix in="SourceAlpha" type="matrix" values="0 0 0 0 0 0 0 0 0 0 0 0 0 0 0 0 0 0 127 0" result="hardAlpha"/>
<feOffset dy="4"/>
<feGaussianBlur stdDeviation="5"/>
<feComposite in2="hardAlpha" operator="arithmetic" k2="-1" k3="1"/>
<feColorMatrix type="matrix" values="0 0 0 0 0 0 0 0 0 0 0 0 0 0 0 0 0 0 0.4 0"/>
<feBlend mode="normal" in2="shape" result="effect1_innerShadow"/>
</filter>
<filter id="filter4_i" x="97.8176" y="189.761" width="87.7756" height="84.655" filterUnits="userSpaceOnUse" color-interpolation-filters="sRGB">
<feFlood flood-opacity="0" result="BackgroundImageFix"/>
<feBlend mode="normal" in="SourceGraphic" in2="BackgroundImageFix" result="shape"/>
<feColorMatrix in="SourceAlpha" type="matrix" values="0 0 0 0 0 0 0 0 0 0 0 0 0 0 0 0 0 0 127 0" result="hardAlpha"/>
<feOffset dy="4"/>
<feGaussianBlur stdDeviation="5"/>
<feComposite in2="hardAlpha" operator="arithmetic" k2="-1" k3="1"/>
<feColorMatrix type="matrix" values="0 0 0 0 0 0 0 0 0 0 0 0 0 0 0 0 0 0 0.4 0"/>
<feBlend mode="normal" in2="shape" result="effect1_innerShadow"/>
</filter>
<filter id="filter5_i" x="127.831" y="102.582" width="137.875" height="89.3723" filterUnits="userSpaceOnUse" color-interpolation-filters="sRGB">
<feFlood flood-opacity="0" result="BackgroundImageFix"/>
<feBlend mode="normal" in="SourceGraphic" in2="BackgroundImageFix" result="shape"/>
<feColorMatrix in="SourceAlpha" type="matrix" values="0 0 0 0 0 0 0 0 0 0 0 0 0 0 0 0 0 0 127 0" result="hardAlpha"/>
<feOffset dy="4"/>
<feGaussianBlur stdDeviation="5"/>
<feComposite in2="hardAlpha" operator="arithmetic" k2="-1" k3="1"/>
<feColorMatrix type="matrix" values="0 0 0 0 0 0 0 0 0 0 0 0 0 0 0 0 0 0 0.4 0"/>
<feBlend mode="normal" in2="shape" result="effect1_innerShadow"/>
</filter>
<filter id="filter6_i" x="138.204" y="113.176" width="104.029" height="64.9949" filterUnits="userSpaceOnUse" color-interpolation-filters="sRGB">
<feFlood flood-opacity="0" result="BackgroundImageFix"/>
<feBlend mode="normal" in="SourceGraphic" in2="BackgroundImageFix" result="shape"/>
<feColorMatrix in="SourceAlpha" type="matrix" values="0 0 0 0 0 0 0 0 0 0 0 0 0 0 0 0 0 0 127 0" result="hardAlpha"/>
<feOffset dy="4"/>
<feGaussianBlur stdDeviation="5"/>
<feComposite in2="hardAlpha" operator="arithmetic" k2="-1" k3="1"/>
<feColorMatrix type="matrix" values="0 0 0 0 0 0 0 0 0 0 0 0 0 0 0 0 0 0 0.4 0"/>
<feBlend mode="normal" in2="shape" result="effect1_innerShadow"/>
</filter>
<filter id="filter7_i" x="162.958" y="168.104" width="96.8217" height="107.883" filterUnits="userSpaceOnUse" color-interpolation-filters="sRGB">
<feFlood flood-opacity="0" result="BackgroundImageFix"/>
<feBlend mode="normal" in="SourceGraphic" in2="BackgroundImageFix" result="shape"/>
<feColorMatrix in="SourceAlpha" type="matrix" values="0 0 0 0 0 0 0 0 0 0 0 0 0 0 0 0 0 0 127 0" result="hardAlpha"/>
<feOffset dx="-4" dy="4"/>
<feGaussianBlur stdDeviation="5"/>
<feComposite in2="hardAlpha" operator="arithmetic" k2="-1" k3="1"/>
<feColorMatrix type="matrix" values="0 0 0 0 0 0 0 0 0 0 0 0 0 0 0 0 0 0 0.4 0"/>
<feBlend mode="normal" in2="shape" result="effect1_innerShadow"/>
</filter>
<filter id="filter8_i" x="102.047" y="121.522" width="228.689" height="201.672" filterUnits="userSpaceOnUse" color-interpolation-filters="sRGB">
<feFlood flood-opacity="0" result="BackgroundImageFix"/>
<feBlend mode="normal" in="SourceGraphic" in2="BackgroundImageFix" result="shape"/>
<feColorMatrix in="SourceAlpha" type="matrix" values="0 0 0 0 0 0 0 0 0 0 0 0 0 0 0 0 0 0 127 0" result="hardAlpha"/>
<feOffset dx="5" dy="4"/>
<feGaussianBlur stdDeviation="5"/>
<feComposite in2="hardAlpha" operator="arithmetic" k2="-1" k3="1"/>
<feColorMatrix type="matrix" values="0 0 0 0 0 0 0 0 0 0 0 0 0 0 0 0 0 0 0.3 0"/>
<feBlend mode="normal" in2="shape" result="effect1_innerShadow"/>
</filter>
<filter id="filter9_d" x="134.611" y="186.411" width="156.601" height="136.189" filterUnits="userSpaceOnUse" color-interpolation-filters="sRGB">
<feFlood flood-opacity="0" result="BackgroundImageFix"/>
<feColorMatrix in="SourceAlpha" type="matrix" values="0 0 0 0 0 0 0 0 0 0 0 0 0 0 0 0 0 0 127 0"/>
<feOffset dy="4"/>
<feGaussianBlur stdDeviation="2"/>
<feColorMatrix type="matrix" values="0 0 0 0 0 0 0 0 0 0 0 0 0 0 0 0 0 0 0.25 0"/>
<feBlend mode="normal" in2="BackgroundImageFix" result="effect1_dropShadow"/>
<feBlend mode="normal" in="SourceGraphic" in2="effect1_dropShadow" result="shape"/>
</filter>
<filter id="filter10_d" x="157.671" y="160.19" width="173.139" height="81.9882" filterUnits="userSpaceOnUse" color-interpolation-filters="sRGB">
<feFlood flood-opacity="0" result="BackgroundImageFix"/>
<feColorMatrix in="SourceAlpha" type="matrix" values="0 0 0 0 0 0 0 0 0 0 0 0 0 0 0 0 0 0 127 0"/>
<feOffset dy="4"/>
<feGaussianBlur stdDeviation="2"/>
<feColorMatrix type="matrix" values="0 0 0 0 0 0 0 0 0 0 0 0 0 0 0 0 0 0 0.25 0"/>
<feBlend mode="normal" in2="BackgroundImageFix" result="effect1_dropShadow"/>
<feBlend mode="normal" in="SourceGraphic" in2="effect1_dropShadow" result="shape"/>
</filter>
<filter id="filter11_d" x="39.8177" y="60.4293" width="310.501" height="284.851" filterUnits="userSpaceOnUse" color-interpolation-filters="sRGB">
<feFlood flood-opacity="0" result="BackgroundImageFix"/>
<feColorMatrix in="SourceAlpha" type="matrix" values="0 0 0 0 0 0 0 0 0 0 0 0 0 0 0 0 0 0 127 0"/>
<feOffset dx="5" dy="4"/>
<feGaussianBlur stdDeviation="5"/>
<feColorMatrix type="matrix" values="0 0 0 0 0 0 0 0 0 0 0 0 0 0 0 0 0 0 0.4 0"/>
<feBlend mode="normal" in2="BackgroundImageFix" result="effect1_dropShadow"/>
<feBlend mode="normal" in="SourceGraphic" in2="effect1_dropShadow" result="shape"/>
</filter>
<filter id="filter12_i" x="72.8304" y="91.8483" width="260.252" height="236.714" filterUnits="userSpaceOnUse" color-interpolation-filters="sRGB">
<feFlood flood-opacity="0" result="BackgroundImageFix"/>
<feBlend mode="normal" in="SourceGraphic" in2="BackgroundImageFix" result="shape"/>
<feColorMatrix in="SourceAlpha" type="matrix" values="0 0 0 0 0 0 0 0 0 0 0 0 0 0 0 0 0 0 127 0" result="hardAlpha"/>
<feOffset dx="5" dy="4"/>
<feGaussianBlur stdDeviation="5"/>
<feComposite in2="hardAlpha" operator="arithmetic" k2="-1" k3="1"/>
<feColorMatrix type="matrix" values="0 0 0 0 0 0 0 0 0 0 0 0 0 0 0 0 0 0 0.3 0"/>
<feBlend mode="normal" in2="shape" result="effect1_innerShadow"/>
</filter>
<filter id="filter13_i" x="129.768" y="99.9257" width="132.528" height="83.7229" filterUnits="userSpaceOnUse" color-interpolation-filters="sRGB">
<feFlood flood-opacity="0" result="BackgroundImageFix"/>
<feBlend mode="normal" in="SourceGraphic" in2="BackgroundImageFix" result="shape"/>
<feColorMatrix in="SourceAlpha" type="matrix" values="0 0 0 0 0 0 0 0 0 0 0 0 0 0 0 0 0 0 127 0" result="hardAlpha"/>
<feOffset dy="4"/>
<feGaussianBlur stdDeviation="5"/>
<feComposite in2="hardAlpha" operator="arithmetic" k2="-1" k3="1"/>
<feColorMatrix type="matrix" values="0 0 0 0 0 0 0 0 0 0 0 0 0 0 0 0 0 0 0.4 0"/>
<feBlend mode="normal" in2="shape" result="effect1_innerShadow"/>
</filter>
<filter id="filter14_i" x="142.851" y="113.227" width="101.382" height="62.6538" filterUnits="userSpaceOnUse" color-interpolation-filters="sRGB">
<feFlood flood-opacity="0" result="BackgroundImageFix"/>
<feBlend mode="normal" in="SourceGraphic" in2="BackgroundImageFix" result="shape"/>
<feColorMatrix in="SourceAlpha" type="matrix" values="0 0 0 0 0 0 0 0 0 0 0 0 0 0 0 0 0 0 127 0" result="hardAlpha"/>
<feOffset dy="4"/>
<feGaussianBlur stdDeviation="5"/>
<feComposite in2="hardAlpha" operator="arithmetic" k2="-1" k3="1"/>
<feColorMatrix type="matrix" values="0 0 0 0 0 0 0 0 0 0 0 0 0 0 0 0 0 0 0.4 0"/>
<feBlend mode="normal" in2="shape" result="effect1_innerShadow"/>
</filter>
<filter id="filter15_i" x="84.8757" y="162.957" width="123.937" height="124.143" filterUnits="userSpaceOnUse" color-interpolation-filters="sRGB">
<feFlood flood-opacity="0" result="BackgroundImageFix"/>
<feBlend mode="normal" in="SourceGraphic" in2="BackgroundImageFix" result="shape"/>
<feColorMatrix in="SourceAlpha" type="matrix" values="0 0 0 0 0 0 0 0 0 0 0 0 0 0 0 0 0 0 127 0" result="hardAlpha"/>
<feOffset dy="4"/>
<feGaussianBlur stdDeviation="5"/>
<feComposite in2="hardAlpha" operator="arithmetic" k2="-1" k3="1"/>
<feColorMatrix type="matrix" values="0 0 0 0 0 0 0 0 0 0 0 0 0 0 0 0 0 0 0.4 0"/>
<feBlend mode="normal" in2="shape" result="effect1_innerShadow"/>
</filter>
<filter id="filter16_i" x="95.6838" y="180.956" width="90.9082" height="90.5512" filterUnits="userSpaceOnUse" color-interpolation-filters="sRGB">
<feFlood flood-opacity="0" result="BackgroundImageFix"/>
<feBlend mode="normal" in="SourceGraphic" in2="BackgroundImageFix" result="shape"/>
<feColorMatrix in="SourceAlpha" type="matrix" values="0 0 0 0 0 0 0 0 0 0 0 0 0 0 0 0 0 0 127 0" result="hardAlpha"/>
<feOffset dy="4"/>
<feGaussianBlur stdDeviation="5"/>
<feComposite in2="hardAlpha" operator="arithmetic" k2="-1" k3="1"/>
<feColorMatrix type="matrix" values="0 0 0 0 0 0 0 0 0 0 0 0 0 0 0 0 0 0 0.4 0"/>
<feBlend mode="normal" in2="shape" result="effect1_innerShadow"/>
</filter>
<filter id="filter17_i" x="158.37" y="175.726" width="99.5759" height="103.089" filterUnits="userSpaceOnUse" color-interpolation-filters="sRGB">
<feFlood flood-opacity="0" result="BackgroundImageFix"/>
<feBlend mode="normal" in="SourceGraphic" in2="BackgroundImageFix" result="shape"/>
<feColorMatrix in="SourceAlpha" type="matrix" values="0 0 0 0 0 0 0 0 0 0 0 0 0 0 0 0 0 0 127 0" result="hardAlpha"/>
<feOffset dx="-4" dy="4"/>
<feGaussianBlur stdDeviation="5"/>
<feComposite in2="hardAlpha" operator="arithmetic" k2="-1" k3="1"/>
<feColorMatrix type="matrix" values="0 0 0 0 0 0 0 0 0 0 0 0 0 0 0 0 0 0 0.4 0"/>
<feBlend mode="normal" in2="shape" result="effect1_innerShadow"/>
</filter>
<filter id="filter18_i" x="103.387" y="121.567" width="233.476" height="201.03" filterUnits="userSpaceOnUse" color-interpolation-filters="sRGB">
<feFlood flood-opacity="0" result="BackgroundImageFix"/>
<feBlend mode="normal" in="SourceGraphic" in2="BackgroundImageFix" result="shape"/>
<feColorMatrix in="SourceAlpha" type="matrix" values="0 0 0 0 0 0 0 0 0 0 0 0 0 0 0 0 0 0 127 0" result="hardAlpha"/>
<feOffset dx="5" dy="4"/>
<feGaussianBlur stdDeviation="5"/>
<feComposite in2="hardAlpha" operator="arithmetic" k2="-1" k3="1"/>
<feColorMatrix type="matrix" values="0 0 0 0 0 0 0 0 0 0 0 0 0 0 0 0 0 0 0.3 0"/>
<feBlend mode="normal" in2="shape" result="effect1_innerShadow"/>
</filter>
<filter id="filter19_d" x="157.344" y="159.378" width="175.856" height="91.9786" filterUnits="userSpaceOnUse" color-interpolation-filters="sRGB">
<feFlood flood-opacity="0" result="BackgroundImageFix"/>
<feColorMatrix in="SourceAlpha" type="matrix" values="0 0 0 0 0 0 0 0 0 0 0 0 0 0 0 0 0 0 127 0"/>
<feOffset dy="4"/>
<feGaussianBlur stdDeviation="2"/>
<feColorMatrix type="matrix" values="0 0 0 0 0 0 0 0 0 0 0 0 0 0 0 0 0 0 0.25 0"/>
<feBlend mode="normal" in2="BackgroundImageFix" result="effect1_dropShadow"/>
<feBlend mode="normal" in="SourceGraphic" in2="effect1_dropShadow" result="shape"/>
</filter>
<filter id="filter20_d" x="134.463" y="186.167" width="147.743" height="137.886" filterUnits="userSpaceOnUse" color-interpolation-filters="sRGB">
<feFlood flood-opacity="0" result="BackgroundImageFix"/>
<feColorMatrix in="SourceAlpha" type="matrix" values="0 0 0 0 0 0 0 0 0 0 0 0 0 0 0 0 0 0 127 0"/>
<feOffset dy="4"/>
<feGaussianBlur stdDeviation="2"/>
<feColorMatrix type="matrix" values="0 0 0 0 0 0 0 0 0 0 0 0 0 0 0 0 0 0 0.25 0"/>
<feBlend mode="normal" in2="BackgroundImageFix" result="effect1_dropShadow"/>
<feBlend mode="normal" in="SourceGraphic" in2="effect1_dropShadow" result="shape"/>
</filter>
<filter id="filter21_f" x="72.787" y="96.401" width="162.611" height="166.89" filterUnits="userSpaceOnUse" color-interpolation-filters="sRGB">
<feFlood flood-opacity="0" result="BackgroundImageFix"/>
<feBlend mode="normal" in="SourceGraphic" in2="BackgroundImageFix" result="shape"/>
<feGaussianBlur stdDeviation="25" result="effect1_foregroundBlur"/>
</filter>
<filter id="filter22_di" x="120.329" y="145.714" width="71.9446" height="73.0396" filterUnits="userSpaceOnUse" color-interpolation-filters="sRGB">
<feFlood flood-opacity="0" result="BackgroundImageFix"/>
<feColorMatrix in="SourceAlpha" type="matrix" values="0 0 0 0 0 0 0 0 0 0 0 0 0 0 0 0 0 0 127 0"/>
<feOffset/>
<feGaussianBlur stdDeviation="7.5"/>
<feColorMatrix type="matrix" values="0 0 0 0 0 0 0 0 0 0 0 0 0 0 0 0 0 0 0.4 0"/>
<feBlend mode="normal" in2="BackgroundImageFix" result="effect1_dropShadow"/>
<feBlend mode="normal" in="SourceGraphic" in2="effect1_dropShadow" result="shape"/>
<feColorMatrix in="SourceAlpha" type="matrix" values="0 0 0 0 0 0 0 0 0 0 0 0 0 0 0 0 0 0 127 0" result="hardAlpha"/>
<feOffset dx="-2"/>
<feGaussianBlur stdDeviation="5"/>
<feComposite in2="hardAlpha" operator="arithmetic" k2="-1" k3="1"/>
<feColorMatrix type="matrix" values="0 0 0 0 0 0 0 0 0 0 0 0 0 0 0 0 0 0 0.25 0"/>
<feBlend mode="normal" in2="shape" result="effect2_innerShadow"/>
</filter>
<filter id="filter23_f" x="120.502" y="162.991" width="88.5679" height="69.4158" filterUnits="userSpaceOnUse" color-interpolation-filters="sRGB">
<feFlood flood-opacity="0" result="BackgroundImageFix"/>
<feBlend mode="normal" in="SourceGraphic" in2="BackgroundImageFix" result="shape"/>
<feGaussianBlur stdDeviation="15" result="effect1_foregroundBlur"/>
</filter>
<filter id="filter24_f" x="105.868" y="134.448" width="75.8822" height="82.8465" filterUnits="userSpaceOnUse" color-interpolation-filters="sRGB">
<feFlood flood-opacity="0" result="BackgroundImageFix"/>
<feBlend mode="normal" in="SourceGraphic" in2="BackgroundImageFix" result="shape"/>
<feGaussianBlur stdDeviation="15" result="effect1_foregroundBlur"/>
</filter>
<filter id="filter25_f" x="118.104" y="138.028" width="75.1506" height="75.062" filterUnits="userSpaceOnUse" color-interpolation-filters="sRGB">
<feFlood flood-opacity="0" result="BackgroundImageFix"/>
<feBlend mode="normal" in="SourceGraphic" in2="BackgroundImageFix" result="shape"/>
<feGaussianBlur stdDeviation="15" result="effect1_foregroundBlur"/>
</filter>
<filter id="filter26_f" x="120.51" y="160.603" width="53.7303" height="53.6664" filterUnits="userSpaceOnUse" color-interpolation-filters="sRGB">
<feFlood flood-opacity="0" result="BackgroundImageFix"/>
<feBlend mode="normal" in="SourceGraphic" in2="BackgroundImageFix" result="shape"/>
<feGaussianBlur stdDeviation="10" result="effect1_foregroundBlur"/>
</filter>
<pattern id="pattern3" patternContentUnits="objectBoundingBox" width="1" height="1">
<use xlink:href="#image0" transform="translate(0 -0.338597) scale(0.003125 0.00698831)"/>
</pattern>
<pattern id="pattern4" patternContentUnits="objectBoundingBox" width="1" height="1">
<use xlink:href="#image0" transform="translate(0 -0.34157) scale(0.003125 0.00701309)"/>
</pattern>
<filter id="filter27_d" x="77.4388" y="81.1428" width="179.729" height="179.729" filterUnits="userSpaceOnUse" color-interpolation-filters="sRGB">
<feFlood flood-opacity="0" result="BackgroundImageFix"/>
<feColorMatrix in="SourceAlpha" type="matrix" values="0 0 0 0 0 0 0 0 0 0 0 0 0 0 0 0 0 0 127 0"/>
<feOffset dy="4"/>
<feGaussianBlur stdDeviation="5"/>
<feColorMatrix type="matrix" values="0 0 0 0 0 0 0 0 0 0 0 0 0 0 0 0 0 0 0.4 0"/>
<feBlend mode="normal" in2="BackgroundImageFix" result="effect1_dropShadow"/>
<feBlend mode="normal" in="SourceGraphic" in2="effect1_dropShadow" result="shape"/>
</filter>
<pattern id="pattern5" patternContentUnits="objectBoundingBox" width="1" height="1">
<use xlink:href="#image0" transform="translate(0 -0.338597) scale(0.003125 0.00698831)"/>
</pattern>
<pattern id="pattern6" patternContentUnits="objectBoundingBox" width="1" height="1">
<use xlink:href="#image0" transform="translate(0 -0.34157) scale(0.003125 0.00701309)"/>
</pattern>
<pattern id="pattern7" patternContentUnits="objectBoundingBox" width="1" height="1">
<use xlink:href="#image0" transform="translate(0 -0.34157) scale(0.003125 0.00701309)"/>
</pattern>
<filter id="filter28_d" x="190.489" y="139.696" width="176.834" height="174.639" filterUnits="userSpaceOnUse" color-interpolation-filters="sRGB">
<feFlood flood-opacity="0" result="BackgroundImageFix"/>
<feColorMatrix in="SourceAlpha" type="matrix" values="0 0 0 0 0 0 0 0 0 0 0 0 0 0 0 0 0 0 127 0"/>
<feOffset dx="2" dy="4"/>
<feGaussianBlur stdDeviation="2.5"/>
<feColorMatrix type="matrix" values="0 0 0 0 0 0 0 0 0 0 0 0 0 0 0 0 0 0 0.4 0"/>
<feBlend mode="normal" in2="BackgroundImageFix" result="effect1_dropShadow"/>
<feBlend mode="normal" in="SourceGraphic" in2="effect1_dropShadow" result="shape"/>
</filter>
<pattern id="pattern8" patternContentUnits="objectBoundingBox" width="1" height="1">
<use xlink:href="#image0" transform="translate(0 -0.338597) scale(0.003125 0.00698831)"/>
</pattern>
<pattern id="pattern9" patternContentUnits="objectBoundingBox" width="1" height="1">
<use xlink:href="#image0" transform="translate(0 -0.34157) scale(0.003125 0.00701309)"/>
</pattern>
<pattern id="pattern10" patternContentUnits="objectBoundingBox" width="1" height="1">
<use xlink:href="#image0" transform="translate(0 -0.34157) scale(0.003125 0.00701309)"/>
</pattern>
<filter id="filter29_f" x="114.157" y="151.932" width="234.297" height="241.462" filterUnits="userSpaceOnUse" color-interpolation-filters="sRGB">
<feFlood flood-opacity="0" result="BackgroundImageFix"/>
<feBlend mode="normal" in="SourceGraphic" in2="BackgroundImageFix" result="shape"/>
<feGaussianBlur stdDeviation="40" result="effect1_foregroundBlur"/>
</filter>
<filter id="filter30_f" x="174.921" y="116.455" width="227.623" height="212.836" filterUnits="userSpaceOnUse" color-interpolation-filters="sRGB">
<feFlood flood-opacity="0" result="BackgroundImageFix"/>
<feBlend mode="normal" in="SourceGraphic" in2="BackgroundImageFix" result="shape"/>
<feGaussianBlur stdDeviation="40" result="effect1_foregroundBlur"/>
</filter>
<filter id="filter31_f" x="153.24" y="140.882" width="228.773" height="226.698" filterUnits="userSpaceOnUse" color-interpolation-filters="sRGB">
<feFlood flood-opacity="0" result="BackgroundImageFix"/>
<feBlend mode="normal" in="SourceGraphic" in2="BackgroundImageFix" result="shape"/>
<feGaussianBlur stdDeviation="40" result="effect1_foregroundBlur"/>
</filter>
<filter id="filter32_f" x="181.714" y="59.794" width="228.739" height="192.605" filterUnits="userSpaceOnUse" color-interpolation-filters="sRGB">
<feFlood flood-opacity="0" result="BackgroundImageFix"/>
<feBlend mode="normal" in="SourceGraphic" in2="BackgroundImageFix" result="shape"/>
<feGaussianBlur stdDeviation="40" result="effect1_foregroundBlur"/>
</filter>
<filter id="filter33_d" x="31.8026" y="155.332" width="187.626" height="192.838" filterUnits="userSpaceOnUse" color-interpolation-filters="sRGB">
<feFlood flood-opacity="0" result="BackgroundImageFix"/>
<feColorMatrix in="SourceAlpha" type="matrix" values="0 0 0 0 0 0 0 0 0 0 0 0 0 0 0 0 0 0 127 0"/>
<feOffset dx="-2" dy="6"/>
<feGaussianBlur stdDeviation="2.5"/>
<feColorMatrix type="matrix" values="0 0 0 0 0 0 0 0 0 0 0 0 0 0 0 0 0 0 0.4 0"/>
<feBlend mode="normal" in2="BackgroundImageFix" result="effect1_dropShadow"/>
<feBlend mode="normal" in="SourceGraphic" in2="effect1_dropShadow" result="shape"/>
</filter>
<pattern id="pattern11" patternContentUnits="objectBoundingBox" width="1" height="1">
<use xlink:href="#image0" transform="translate(0 -0.338597) scale(0.003125 0.00698831)"/>
</pattern>
<pattern id="pattern12" patternContentUnits="objectBoundingBox" width="1" height="1">
<use xlink:href="#image0" transform="translate(0 -0.34157) scale(0.003125 0.00701309)"/>
</pattern>
<pattern id="pattern13" patternContentUnits="objectBoundingBox" width="1" height="1">
<use xlink:href="#image0" transform="translate(0 -0.34157) scale(0.003125 0.00701309)"/>
</pattern>
<filter id="filter34_f" x="83.8534" y="90.7241" width="206.162" height="242.463" filterUnits="userSpaceOnUse" color-interpolation-filters="sRGB">
<feFlood flood-opacity="0" result="BackgroundImageFix"/>
<feBlend mode="normal" in="SourceGraphic" in2="BackgroundImageFix" result="shape"/>
<feGaussianBlur stdDeviation="40" result="effect1_foregroundBlur"/>
</filter>
<filter id="filter35_f" x="-31.9722" y="151.786" width="199.89" height="242.098" filterUnits="userSpaceOnUse" color-interpolation-filters="sRGB">
<feFlood flood-opacity="0" result="BackgroundImageFix"/>
<feBlend mode="normal" in="SourceGraphic" in2="BackgroundImageFix" result="shape"/>
<feGaussianBlur stdDeviation="40" result="effect1_foregroundBlur"/>
</filter>
<clipPath id="clip0">
<rect width="368" height="435" fill="white"/>
</clipPath>
</defs>
</svg>
