<svg width="368" height="435" viewBox="0 0 368 435" fill="none" xmlns="http://www.w3.org/2000/svg" xmlns:xlink="http://www.w3.org/1999/xlink">
<g filter="url(#filter0_f)">
<path d="M57.4418 300.344L78.2094 321.756L145.92 314.19L151.188 296.863L105.794 278.588L57.4418 300.344Z" fill="#646464" fill-opacity="0.3"/>
</g>
<g filter="url(#filter1_f)">
<path d="M210.508 299.496L231.276 320.908L298.986 313.342L304.254 296.015L258.861 277.74L210.508 299.496Z" fill="#646464" fill-opacity="0.3"/>
</g>
<path d="M99.7579 286.606C99.7579 286.606 58.7065 288.051 58.7065 298.136C58.7065 317.197 104.241 318.325 104.241 318.325C104.241 318.325 148.561 317.152 148.561 298.136C148.561 286.605 99.7579 286.606 99.7579 286.606Z" fill="#D9D9D9"/>
<path d="M254.936 286.147C254.936 286.147 213.885 287.593 213.885 297.678C213.885 316.739 259.42 317.866 259.42 317.866C259.42 317.866 303.74 316.693 303.74 297.678C303.74 286.147 254.936 286.147 254.936 286.147Z" fill="#D9D9D9"/>
<g filter="url(#filter2_d)">
<path d="M74.0647 266.486L73.2648 329.263H134.456L134.456 256.894C134.456 256.894 149.046 234.67 154.053 220.902C157.253 212.106 160.518 206.493 162.052 197.311C163.159 190.689 161.328 188.15 163.252 181.716C164.513 177.501 169.497 175.876 168.051 171.72C167.217 169.321 164.383 168.005 160.852 167.322C155.839 166.352 152.321 168.385 148.454 171.72C143.11 176.33 144.84 182.836 141.255 188.914C139.253 192.309 136.856 196.112 136.856 196.112C136.856 196.112 135.106 193.382 134.856 191.313C134.329 186.948 134.177 184.258 135.656 180.117C139.655 168.922 141.33 161.286 143.655 148.928C145.664 138.25 147.718 132.131 146.454 121.339C145.524 113.391 148.444 103.026 140.455 102.545C135.091 102.223 133.65 104.353 130.857 108.943C127.835 113.908 129.992 118.932 128.457 124.537C127.438 128.257 125.802 129.995 124.858 133.734C123.894 137.546 124.779 139.962 123.658 143.73C122.402 147.947 119.939 149.583 118.458 153.727C116.748 158.514 116.059 166.522 116.059 166.522C116.059 166.522 113.659 148.929 112.859 132.535C112.582 126.857 109.936 123.629 108.46 118.139C106.337 110.246 107.66 106.544 105.26 99.3466C103.866 95.1644 100.004 92.185 95.6617 92.9485C92.5469 93.4961 90.4624 94.9479 89.6623 97.3469C88.8622 99.746 90.1835 110 90.4624 118.139C90.687 124.694 90.1343 128.073 91.2621 134.534C91.8744 138.041 92.8621 141.369 92.8621 144.93V168.121C92.8621 168.121 91.6038 156.628 89.6623 149.328C87.9332 142.827 86.0201 139.371 84.0633 132.934C81.6582 125.023 82.4633 125.337 80.0637 114.941C79.0897 110.721 75.1823 107.533 71.6648 108.543C68.1474 109.553 65.7494 111.314 65.2657 114.941C64.4659 120.938 65.8999 125.733 66.8657 132.934C67.5557 138.079 67.8201 141.379 68.4653 146.529C69.072 151.372 70.6207 153.65 70.865 158.525C71.0212 161.644 70.865 163.399 70.865 166.522V181.716L61.2662 189.714C61.2662 189.714 49.2682 183.316 42.4689 178.118C34.0787 171.704 22.4717 161.724 17.6723 168.121C14.486 172.369 16.5512 176.942 20.0721 180.917C32.4702 194.912 50.0681 205.308 50.0681 205.308C50.0681 205.308 60.0666 243.294 69.6653 260.888C71.0764 263.475 74.0647 266.486 74.0647 266.486Z" fill="#F3DBD0"/>
</g>
<path d="M53.2803 193.99C51.2455 196.595 52.1698 197.771 49.9938 199.198C47.8178 200.625 43.0176 197.945 38.9863 194.823C34.9549 191.7 30.5857 188.575 24.8835 182.966C22.025 180.154 19.7735 176.818 21.5755 173.354C22.947 170.718 24.9064 170.556 28.0109 171.236C32.3961 172.196 37.8656 178.275 44.9261 182.966C49.5253 186.022 57.8353 188.069 56.1914 190.764C54.7448 193.134 54.9901 191.801 53.2803 193.99Z" fill="#FF9090"/>
<path d="M74.6066 110.644C72.0626 110.064 69.7305 110.644 68.2465 112.976C66.51 115.704 66.9866 118.328 67.3985 121.666C67.7474 124.493 68.9218 128.928 69.5074 133.747C70.1034 138.652 69.5741 141.818 70.3665 146.688C70.9409 150.218 71.3983 150.829 72.2746 154.307C73.2787 158.293 73.1004 160.404 73.1004 167.823C73.1004 172.09 77.0707 170.86 79.7397 169.97C82.4087 169.081 87.115 166.72 88.3317 163.723C89.6588 160.454 88.2429 153.816 86.4788 146.688C84.9799 140.631 82.5722 136.656 81.1787 130.568C80.163 126.131 79.7397 123.997 78.8467 119.334C78.0248 115.043 78.5056 111.534 74.6066 110.644Z" fill="#6CB2C3"/>
<path d="M100.683 96.4432C98.5989 94.4754 95.2941 94.5297 93.0508 96.4433C89.6588 99.3367 92.7105 111.093 92.6268 120.182C92.5836 124.875 92.3096 126.001 92.6268 130.678C92.938 135.267 93.9466 137.485 94.7469 142.014C96.2966 150.784 94.7436 151.741 95.5949 163.421C95.8422 166.815 99.1374 168.466 103.015 168.296C106.292 168.152 108.532 167.943 111.15 165.959C116.457 161.937 109.576 145.411 108.947 130.678C108.706 125.029 106.115 125.25 105.171 116.721C104.189 107.849 104.499 100.046 100.683 96.4432Z" fill="#FF9090"/>
<path d="M161.952 178.046C162.885 173.858 163.145 172.179 161.316 171.264C159.486 170.348 153.694 169.644 149.231 174.443C144.683 179.334 146.039 183.295 143.295 189.704C141.148 194.72 140.904 194.784 139.607 198.103C137.282 204.054 136.692 204.834 135.034 209.09C133.833 212.171 133.331 214.927 135.034 220.014C137.526 227.458 138.633 229.804 141.811 228.916C144.537 228.154 144.347 227.122 146.263 223.617C148.042 220.365 147.584 221.121 150.08 214.927C151.335 211.812 152.924 208.483 153.799 205.24C155.104 200.408 155.023 199.665 156.223 194.805C158.068 187.341 160.279 185.551 161.952 178.046Z" fill="#6CB2C3"/>
<g filter="url(#filter3_d)">
<path d="M122.718 254.233C130.546 250.456 134.604 243.819 134.604 234.485C134.604 227.923 130.546 224.013 130.546 217.451C130.546 217.451 133.207 187.299 130.546 183.668C127.884 180.038 125.462 180.086 122.156 177.031C118.954 174.072 120.16 171.668 116.14 169.979C111.502 168.03 108.57 171.594 103.277 171.223C99.3188 170.946 95.9831 169.091 92.0743 169.979C87.5102 171.016 78.0325 178.263 68.4238 188.024C62.1616 194.386 56.0305 202.882 57.221 211.047C58.8805 222.429 68.4238 251.285 74.4402 259.997C76.1965 262.54 81.2864 264.353 85.0206 264.353C93.5756 264.353 95.6699 260.364 103.932 258.145C111.17 256.202 114.891 258.009 122.718 254.233Z" fill="#FF9090"/>
</g>
<mask id="mask0" mask-type="alpha" maskUnits="userSpaceOnUse" x="57" y="169" width="78" height="96">
<path d="M122.867 254.404C134.989 250.491 134.396 234.278 134.396 234.278C134.396 234.278 131.691 224.109 130.695 217.623C129.358 208.929 131.699 200.676 131.699 200.676C131.699 200.676 132.257 192.296 131.699 189.891C130.87 186.318 130.695 183.876 130.695 183.876C130.695 183.876 125.611 180.258 122.305 177.203C119.103 174.244 120.309 171.84 116.289 170.151C111.651 168.202 108.719 171.766 103.426 171.395C99.4679 171.118 96.1322 169.263 92.2233 170.151C87.6592 171.188 78.1815 178.434 68.5728 188.196C62.3106 194.558 56.1795 203.053 57.37 211.219C59.0295 222.601 68.5728 251.457 74.5892 260.169C76.3455 262.712 81.4354 264.524 85.1697 264.524C93.7247 264.524 95.8189 260.536 104.081 258.317C111.319 256.374 110.745 258.317 122.867 254.404Z" fill="#F9676B"/>
</mask>
<g mask="url(#mask0)">
<g filter="url(#filter4_f)">
<rect width="26.6881" height="69.2245" transform="matrix(0.207708 0.978191 -0.978209 0.207621 134.52 245.961)" fill="black" fill-opacity="0.1"/>
</g>
<g filter="url(#filter5_f)">
<rect width="12.5125" height="128.09" transform="matrix(0.207708 0.978191 -0.978209 0.207621 160.944 194.869)" fill="#797979" fill-opacity="0.25"/>
</g>
<g filter="url(#filter6_f)">
<rect width="17.1711" height="88.0991" transform="matrix(0.442418 0.896809 -0.896886 0.442262 131.257 209.802)" fill="white" fill-opacity="0.2"/>
</g>
<g filter="url(#filter7_f)">
<rect width="17.1711" height="88.0991" transform="matrix(0.442418 0.896809 -0.896886 0.442262 120.054 153.801)" fill="white" fill-opacity="0.2"/>
</g>
</g>
<path d="M76.4641 205.709C76.2265 202.225 77.1403 198.785 80.4635 197.712C82.737 196.977 84.9628 197.052 86.4627 198.911C87.9334 200.734 87.0486 202.641 86.4627 204.909C85.517 208.569 83.9346 210.264 81.3906 210.264C78.8465 210.264 76.6736 208.781 76.4641 205.709Z" fill="white"/>
<path d="M101.66 192.113C98.4074 194.666 101.66 200.91 102.86 202.109C105.096 204.345 108.837 200.764 109.659 197.711C110.405 194.939 109.446 192.16 106.86 190.913C104.73 189.887 103.519 190.654 101.66 192.113Z" fill="white"/>
<path d="M93.2618 232.899C88.7075 232.64 84.0631 225.701 84.0631 225.701C84.0631 225.701 85.6292 238.566 93.2618 239.296C100.894 240.027 104.06 223.302 104.06 223.302C104.06 223.302 98.895 233.219 93.2618 232.899Z" fill="white"/>
<g filter="url(#filter8_d)">
<path d="M229.346 292.386C229.789 303.93 229.346 321.968 229.346 321.968H289.676C289.676 321.968 283.525 279.708 280.452 249.742C279.762 243.011 279.685 231.685 279.685 231.685C279.685 231.685 294.671 212.807 302.722 201.361C304.859 198.323 307.736 194.804 307.736 194.804C307.736 194.804 323.501 191.443 333.096 187.505C340.863 184.317 350.388 181.742 351.541 177.132C352.406 173.672 351.821 171.426 348.852 169.448C344.24 166.375 335.349 171.575 326.948 173.674C319.261 175.595 311.577 176.802 305.43 174.442C301.971 173.114 297.361 169.448 297.361 169.448C297.361 169.448 298.25 162.976 299.667 159.075C301.757 153.319 304.189 150.319 306.966 144.861C312.023 134.921 318.494 124.883 317.343 118.736C316.508 114.278 314.577 113.308 310.04 113.358C303.246 113.433 302.665 121.535 298.898 127.188C295.803 131.833 293.619 134.122 290.444 138.714C286.491 144.431 280.838 153.697 280.838 153.697L277.763 152.544C277.763 152.544 279.044 140.949 280.838 133.719C282.825 125.706 285.076 121.551 287.754 113.742C290.479 105.798 296.207 97.9906 294.671 93.3803C293.25 89.1148 288.906 86.8493 284.296 88.386C279.556 89.9661 276.214 98.7834 271.999 106.058C268.4 112.271 266.48 115.866 263.93 122.578C260.634 131.252 258.166 145.629 258.166 145.629L254.708 143.324C254.708 143.324 254.786 136.461 253.939 132.183C253.174 128.319 251.248 125.364 251.248 121.425C251.248 112.589 249.876 110.875 249.328 103.369C248.835 96.6206 249.327 97.2222 248.174 88.386C247.714 84.8591 243.637 81.4233 240.105 81.8549C236.418 82.3058 233.414 86.2149 233.189 89.9227C231.65 115.279 232.803 127.957 233.189 150.239C233.259 154.314 233.36 156.757 232.036 160.612C230.057 166.374 222.429 172.906 222.429 172.906C222.429 172.906 219.449 166.965 218.202 162.917C216.066 155.981 217.526 152.814 215.512 146.781C214.358 143.324 212.054 139.866 207.827 138.329C204.882 137.259 202.712 137.238 200.526 139.482C197.385 142.706 201.197 145.864 200.142 150.239C199.292 153.764 197.463 154.766 196.682 158.307C195.13 165.347 198.661 169.692 200.142 176.747C200.897 180.347 201.092 182.42 202.063 185.968C204.263 194.005 206.741 198.132 210.517 205.561C213.899 212.213 220.124 222.081 220.124 222.081C220.124 222.081 228.284 264.715 229.346 292.386Z" fill="#F3DBD0"/>
</g>
<path d="M213.892 348.035L213.892 297.449C213.883 297.266 213.892 297.166 213.892 297.166L213.892 297.449C213.993 299.381 216.216 310.512 254.064 310.512C300.068 310.512 303.994 297.165 303.994 297.165L305.263 349.609L213.892 348.035Z" fill="#F8F8F8"/>
<path d="M202.012 146.465C201.713 142.248 203.246 141.62 203.928 141.166C205.2 140.318 211.56 140.53 212.832 146.465C213.825 151.096 214.126 155.911 215.376 161.09C218.067 172.231 221.365 172.323 221.61 175.278C221.909 178.894 221.61 182.073 219.688 186.804C217.605 191.93 213.468 195.875 209.864 194.791C206.26 193.706 205.689 188.554 204.564 184.193C203.515 180.125 203.104 179.983 202.012 175.927C201.418 173.72 199.052 164.435 199.052 162.149C199.052 156.427 202.868 158.546 202.012 146.465Z" fill="#FF9090"/>
<path d="M235.658 89.8724C236.375 86.7643 237.416 84.457 240.605 84.3616C243.908 84.2628 245.913 86.6285 246.541 89.8724C247.813 96.443 247.262 98.788 248.025 104.921C248.549 109.132 248.815 111.072 249.085 115.307C249.304 118.751 249.625 122 250.26 125.392C250.979 129.226 251.657 130.781 252.477 134.595C253.423 138.996 253.517 142.434 250.993 145.617C248.303 149.008 242.443 153.671 237.849 151.976C235.392 151.069 235.093 146.786 235.093 138.834V126.965C235.093 123.14 235.494 120.171 235.093 116.367C234.636 112.04 234.245 109.272 234.245 104.921C234.245 98.4699 234.506 94.8668 235.658 89.8724Z" fill="#3C3D75"/>
<path d="M280.846 94.9593C282.838 91.9592 284.772 90.2076 288.291 90.9321C291.36 91.564 292.545 93.6385 292.545 96.7834C292.545 100.342 289.565 103.262 287.457 108.313C284.307 115.86 282.355 119.484 280.249 127.389C278.291 134.739 277.602 142.83 276.429 144.402C274.294 147.261 272.201 146.212 268.791 145.187C265.981 144.342 264.901 144.725 263.323 142.242C261.327 139.1 262.54 134.935 263.925 129.72C265.312 124.496 266.384 120.84 268.791 116.002L268.921 115.742C272.865 107.816 274.533 104.465 280.846 94.9593Z" fill="#3C3D75"/>
<path d="M311.258 184.525C309.337 181.369 308.111 181.4 308.658 179.106C309.204 176.813 315.879 177.522 322.438 176.563C329.888 175.473 335.919 172.784 342.154 171.052C345.304 170.177 349.668 170.254 350.404 173.44C350.81 175.198 350.42 176.48 349.364 177.943C347.454 180.59 339.814 182.92 331.554 186.313C325.688 188.722 318.198 190.764 314.575 188.742C312.212 187.424 312.665 186.836 311.258 184.525Z" fill="#6CB2C3"/>
<g filter="url(#filter9_d)">
<path d="M237.03 162.917C241.391 155.873 244.712 152.107 252.785 150.239C263.696 147.714 283.302 155.959 295.823 169.448C299.032 172.906 301.017 175.914 303.11 179.086L303.123 179.106C305.669 182.964 305.945 184.917 304.418 189.28C303.26 192.586 300.426 196.057 298.27 198.818C295.165 202.793 292.554 206.469 289.79 210.687C284.408 218.899 276.433 227.843 276.433 227.843C276.433 227.843 269.196 233.313 263.925 233.579C254.778 234.041 252.694 230.556 243.947 227.843C235.284 225.157 232.356 225.953 225.502 220.013C218.34 213.807 215.979 209.263 217.284 199.878C218.228 193.095 220.764 188.38 225.502 180.973C230.638 172.943 232.034 170.985 237.03 162.917Z" fill="#FF9090"/>
</g>
<path d="M301.45 150.28C297.689 156.046 298.694 156.215 296.974 159.818C295.766 162.35 293.109 161.67 290.213 158.97C287.428 156.373 283.719 155.557 284.913 151.976C285.337 150.704 285.394 150.646 287.752 147.165C291.463 141.686 293.393 139.046 297.422 133.323C300.667 128.713 300.92 127.177 303.994 121.03C305.986 117.047 308.66 112.975 312.685 114.883C315.243 116.096 315.979 119.31 315.442 122.09C314.171 128.661 312.757 129.63 309.93 135.443C306.486 142.524 304.63 145.405 301.45 150.28Z" fill="#FF9090"/>
<path d="M250.569 177.198C250.145 174.655 251.377 172.626 253.937 171.753C255.525 171.212 256.775 171.58 258.164 172.521C259.613 173.503 260.894 174.666 260.47 176.363C260.086 177.9 258.164 181.861 253.937 180.589C252.718 180.222 250.922 179.318 250.569 177.198Z" fill="white"/>
<path d="M270.846 183.663C271.115 181.335 273.129 180.095 275.457 179.821C278.064 179.514 280.23 180.848 281.221 183.278C281.959 185.09 281.528 187.341 280.068 188.273C277.493 189.916 276.221 190.128 273.465 188.856C271.698 188.041 270.66 185.268 270.846 183.663Z" fill="white"/>
<path d="M253.169 204.024C249.495 201.806 246.636 195.188 246.636 195.188C246.636 195.188 245.809 201.655 247.601 204.793C249.135 207.479 250.62 208.421 253.553 209.403C258.684 211.12 266.618 204.793 266.618 204.793C266.618 204.793 257.672 206.743 253.169 204.024Z" fill="white"/>
<path d="M123.369 150.743C121.693 155.495 118.354 165.402 119.29 168.391C120.226 171.38 121.217 172.917 123.369 175.193C126.356 178.351 129.81 181.383 133.392 178.921C136.248 176.958 141.325 153.441 143.718 135.231C144.236 131.288 143.378 128.077 143.12 124.102C142.805 119.242 144.017 114.659 141.624 111.287C140.1 109.14 139.248 109.179 136.838 109.601C133.653 110.158 132.916 112.434 131.453 115.671C129.699 119.55 131.163 122.568 130.256 126.8C129.517 130.247 128.172 131.773 127.475 135.231C126.851 138.324 127.455 140.28 126.666 143.324C125.889 146.321 124.393 147.842 123.369 150.743Z" fill="#3C3D75"/>
<path d="M58.3564 298.03L58.3564 351.002L151.67 353.007L149.601 298.03C149.601 298.03 146.476 313.91 100.471 313.91C60.3884 313.91 58.3564 298.03 58.3564 298.03Z" fill="#F8F8F8"/>
<mask id="mask1" mask-type="alpha" maskUnits="userSpaceOnUse" x="16" y="81" width="336" height="241">
<path d="M57.4418 300.344L78.2094 321.756L145.92 314.19L151.188 296.863L105.794 278.588L57.4418 300.344Z" fill="#646464" fill-opacity="0.3"/>
<path d="M210.508 299.496L231.276 320.908L298.986 313.342L304.254 296.015L258.861 277.74L210.508 299.496Z" fill="#646464" fill-opacity="0.3"/>
<path d="M99.7579 286.606C99.7579 286.606 58.7065 288.051 58.7065 298.136C58.7065 317.197 104.241 318.325 104.241 318.325C104.241 318.325 148.561 317.152 148.561 298.136C148.561 286.605 99.7579 286.606 99.7579 286.606Z" fill="#D9D9D9"/>
<path d="M254.936 286.147C254.936 286.147 213.885 287.593 213.885 297.678C213.885 316.739 259.42 317.866 259.42 317.866C259.42 317.866 303.74 316.693 303.74 297.678C303.74 286.147 254.936 286.147 254.936 286.147Z" fill="#D9D9D9"/>
<path d="M69.6653 260.888C71.0764 263.475 74.0647 266.486 74.0647 266.486L73.4739 312.85C73.4739 312.85 91.4283 317.255 103.439 317.301C115.69 317.349 134.456 312.85 134.456 312.85V256.894C134.456 256.894 149.046 234.67 154.053 220.902C157.253 212.106 160.518 206.493 162.052 197.311C163.159 190.689 161.328 188.15 163.252 181.716C164.513 177.501 169.497 175.876 168.051 171.72C167.217 169.321 164.383 168.005 160.852 167.322C155.839 166.352 152.321 168.385 148.454 171.72C143.11 176.33 144.84 182.836 141.255 188.914C139.253 192.309 136.856 196.112 136.856 196.112C136.856 196.112 135.106 193.382 134.856 191.313C134.329 186.948 134.177 184.258 135.656 180.117C139.655 168.922 141.33 161.286 143.655 148.928C145.664 138.25 147.718 132.131 146.454 121.339C145.524 113.391 148.444 103.026 140.455 102.545C135.091 102.223 133.65 104.353 130.857 108.943C127.835 113.908 129.992 118.932 128.457 124.537C127.438 128.257 125.802 129.995 124.858 133.734C123.894 137.546 124.779 139.962 123.658 143.73C122.402 147.948 119.939 149.583 118.458 153.727C116.748 158.514 116.059 166.522 116.059 166.522C116.059 166.522 113.659 148.929 112.859 132.535C112.582 126.857 109.936 123.629 108.46 118.139C106.337 110.246 107.66 106.544 105.26 99.3466C103.866 95.1644 100.004 92.185 95.6617 92.9485C92.5469 93.4961 90.4624 94.9479 89.6623 97.3469C88.8622 99.746 90.1835 110 90.4624 118.139C90.687 124.694 90.1343 128.073 91.2621 134.534C91.8744 138.041 92.8621 141.369 92.8621 144.93V168.121C92.8621 168.121 91.6038 156.628 89.6623 149.328C87.9332 142.827 86.0201 139.371 84.0633 132.934C81.6582 125.023 82.4633 125.337 80.0637 114.941C79.0897 110.721 75.1823 107.533 71.6648 108.543C68.1474 109.553 65.7494 111.314 65.2657 114.941C64.4659 120.938 65.8999 125.733 66.8657 132.934C67.5557 138.079 67.8201 141.379 68.4653 146.529C69.072 151.372 70.6207 153.65 70.865 158.525C71.0212 161.644 70.865 163.399 70.865 166.522V181.716L61.2662 189.714C61.2662 189.714 49.2682 183.316 42.4689 178.118C34.0787 171.704 22.4717 161.724 17.6723 168.121C14.486 172.369 16.5512 176.942 20.0721 180.917C32.4702 194.912 50.0681 205.308 50.0681 205.308C50.0681 205.308 60.0666 243.294 69.6653 260.888Z" fill="#F3DBD0"/>
<path d="M53.2803 193.99C51.2455 196.595 52.1698 197.771 49.9938 199.198C47.8178 200.625 43.0176 197.945 38.9863 194.823C34.9549 191.7 30.5857 188.575 24.8835 182.966C22.025 180.154 19.7735 176.818 21.5755 173.354C22.947 170.718 24.9064 170.556 28.0109 171.236C32.3961 172.196 37.8656 178.275 44.9261 182.966C49.5253 186.022 57.8353 188.069 56.1914 190.764C54.7448 193.134 54.9901 191.801 53.2803 193.99Z" fill="#FF9090"/>
<path d="M74.6066 110.644C72.0626 110.064 69.7305 110.644 68.2465 112.976C66.51 115.704 66.9866 118.328 67.3985 121.666C67.7474 124.493 68.9218 128.928 69.5074 133.747C70.1034 138.652 69.5741 141.818 70.3665 146.688C70.9409 150.218 71.3983 150.829 72.2746 154.307C73.2787 158.293 73.1004 160.404 73.1004 167.823C73.1004 172.09 77.0707 170.86 79.7397 169.97C82.4087 169.081 87.115 166.72 88.3317 163.723C89.6588 160.454 88.2429 153.816 86.4788 146.688C84.9799 140.631 82.5722 136.656 81.1787 130.568C80.163 126.131 79.7397 123.997 78.8467 119.334C78.0248 115.043 78.5056 111.534 74.6066 110.644Z" fill="#6CB2C3"/>
<path d="M100.683 96.4433C98.5989 94.4756 95.2941 94.5298 93.0508 96.4434C89.6588 99.3369 92.7105 111.093 92.6268 120.182C92.5836 124.876 92.3096 126.001 92.6268 130.678C92.938 135.267 93.9466 137.485 94.7469 142.014C96.2966 150.785 94.7436 151.741 95.5949 163.421C95.8422 166.815 99.1374 168.467 103.015 168.296C106.292 168.152 108.532 167.943 111.15 165.959C116.457 161.938 109.576 145.411 108.947 130.678C108.706 125.029 106.115 125.25 105.171 116.721C104.189 107.849 104.499 100.046 100.683 96.4433Z" fill="#FF9090"/>
<path d="M161.952 178.046C162.885 173.858 163.145 172.179 161.316 171.264C159.486 170.348 153.694 169.644 149.231 174.443C144.683 179.334 146.039 183.295 143.295 189.704C141.148 194.72 140.904 194.784 139.607 198.103C137.282 204.054 136.692 204.834 135.034 209.09C133.833 212.171 133.331 214.927 135.034 220.014C137.526 227.458 138.633 229.804 141.811 228.916C144.537 228.154 144.347 227.122 146.263 223.617C148.042 220.365 147.584 221.121 150.08 214.927C151.335 211.812 152.924 208.483 153.799 205.24C155.104 200.408 155.023 199.665 156.223 194.805C158.068 187.341 160.279 185.551 161.952 178.046Z" fill="#6CB2C3"/>
<path d="M122.718 254.233C130.546 250.456 134.604 243.819 134.604 234.485C134.604 227.923 130.546 224.013 130.546 217.451C130.546 217.451 133.207 187.299 130.546 183.668C127.884 180.038 125.462 180.086 122.156 177.031C118.954 174.072 120.16 171.668 116.14 169.979C111.502 168.03 108.57 171.594 103.277 171.223C99.3188 170.946 95.9831 169.091 92.0743 169.979C87.5102 171.016 78.0325 178.263 68.4238 188.024C62.1616 194.386 56.0305 202.882 57.221 211.047C58.8805 222.429 68.4238 251.285 74.4402 259.997C76.1965 262.54 81.2864 264.353 85.0206 264.353C93.5756 264.353 95.6699 260.364 103.932 258.145C111.17 256.202 114.891 258.009 122.718 254.233Z" fill="#FF9090"/>
<mask id="mask2" maskUnits="userSpaceOnUse" x="57" y="169" width="78" height="96">
<path d="M122.867 254.404C134.989 250.491 134.396 234.278 134.396 234.278C134.396 234.278 131.691 224.109 130.695 217.623C129.358 208.929 131.699 200.676 131.699 200.676C131.699 200.676 132.257 192.296 131.699 189.891C130.87 186.318 130.695 183.876 130.695 183.876C130.695 183.876 125.611 180.258 122.305 177.203C119.103 174.244 120.309 171.84 116.289 170.151C111.651 168.202 108.719 171.766 103.426 171.395C99.4679 171.118 96.1322 169.263 92.2233 170.151C87.6592 171.188 78.1815 178.434 68.5728 188.196C62.3106 194.558 56.1795 203.053 57.37 211.219C59.0295 222.601 68.5728 251.457 74.5892 260.169C76.3455 262.712 81.4354 264.524 85.1697 264.524C93.7247 264.524 95.8189 260.536 104.081 258.317C111.319 256.374 110.745 258.317 122.867 254.404Z" fill="#F9676B"/>
</mask>
<g mask="url(#mask2)">
<rect width="26.6881" height="69.2245" transform="matrix(0.207708 0.978191 -0.978209 0.207621 134.52 245.961)" fill="black" fill-opacity="0.1"/>
<rect width="12.5125" height="128.09" transform="matrix(0.207708 0.978191 -0.978209 0.207621 160.944 194.869)" fill="#797979" fill-opacity="0.25"/>
<rect width="17.1711" height="88.0991" transform="matrix(0.442418 0.896809 -0.896886 0.442262 131.257 209.802)" fill="white" fill-opacity="0.2"/>
<rect width="17.1711" height="88.0991" transform="matrix(0.442418 0.896809 -0.896886 0.442262 120.054 153.801)" fill="white" fill-opacity="0.2"/>
</g>
<path d="M76.4641 205.709C76.2265 202.225 77.1403 198.785 80.4635 197.712C82.737 196.977 84.9628 197.052 86.4627 198.911C87.9334 200.734 87.0486 202.641 86.4627 204.909C85.517 208.569 83.9346 210.264 81.3906 210.264C78.8465 210.264 76.6736 208.781 76.4641 205.709Z" fill="white"/>
<path d="M101.66 192.113C98.4074 194.666 101.66 200.91 102.86 202.109C105.096 204.345 108.837 200.764 109.659 197.711C110.405 194.939 109.446 192.16 106.86 190.913C104.73 189.887 103.519 190.654 101.66 192.113Z" fill="white"/>
<path d="M93.2618 232.899C88.7075 232.64 84.0631 225.701 84.0631 225.701C84.0631 225.701 85.6292 238.566 93.2618 239.296C100.894 240.027 104.06 223.302 104.06 223.302C104.06 223.302 98.895 233.219 93.2618 232.899Z" fill="white"/>
<path d="M220.124 222.081C220.124 222.081 228.284 264.715 229.346 292.386C229.579 298.459 229.567 306.33 229.503 312.426C229.346 314.122 245.705 317.399 260.745 316.666C275.113 315.965 288.32 312.426 288.32 312.426C286.33 298.221 282.623 270.913 280.452 249.742C279.762 243.011 279.685 231.685 279.685 231.685C279.685 231.685 294.671 212.807 302.722 201.361C304.859 198.323 307.736 194.804 307.736 194.804C307.736 194.804 323.501 191.443 333.096 187.505C340.863 184.317 350.388 181.742 351.541 177.132C352.406 173.672 351.821 171.426 348.852 169.448C344.24 166.375 335.349 171.575 326.948 173.674C319.261 175.595 311.577 176.802 305.431 174.442C301.971 173.114 297.361 169.448 297.361 169.448C297.361 169.448 298.25 162.976 299.667 159.075C301.757 153.319 304.189 150.319 306.966 144.861C312.023 134.921 318.494 124.883 317.343 118.736C316.508 114.278 314.577 113.308 310.04 113.358C303.246 113.433 302.665 121.535 298.898 127.188C295.803 131.833 293.619 134.122 290.444 138.714C286.491 144.431 280.838 153.697 280.838 153.697L277.763 152.544C277.763 152.544 279.044 140.949 280.838 133.719C282.825 125.706 285.076 121.551 287.754 113.742C290.479 105.798 296.207 97.9906 294.671 93.3803C293.25 89.1148 288.906 86.8493 284.296 88.386C279.556 89.9661 276.214 98.7834 271.999 106.058C268.4 112.271 266.48 115.866 263.93 122.578C260.634 131.252 258.166 145.629 258.166 145.629L254.708 143.324C254.708 143.324 254.786 136.461 253.939 132.183C253.174 128.319 251.248 125.364 251.248 121.425C251.248 112.589 249.876 110.875 249.328 103.369C248.835 96.6206 249.327 97.2222 248.174 88.386C247.714 84.8591 243.637 81.4233 240.105 81.8549C236.418 82.3058 233.414 86.2149 233.189 89.9227C231.65 115.279 232.803 127.957 233.189 150.239C233.259 154.314 233.36 156.757 232.036 160.612C230.057 166.374 222.429 172.906 222.429 172.906C222.429 172.906 219.449 166.965 218.202 162.917C216.066 155.981 217.526 152.814 215.512 146.781C214.358 143.324 212.054 139.866 207.827 138.329C204.882 137.259 202.712 137.238 200.526 139.482C197.385 142.706 201.197 145.864 200.142 150.239C199.292 153.764 197.463 154.766 196.682 158.307C195.13 165.347 198.661 169.692 200.142 176.747C200.897 180.347 201.092 182.42 202.063 185.968C204.263 194.005 206.741 198.132 210.517 205.561C213.899 212.214 220.124 222.081 220.124 222.081Z" fill="#F3DBD0"/>
<path d="M202.012 146.465C201.713 142.248 203.246 141.62 203.928 141.166C205.2 140.318 211.56 140.53 212.832 146.465C213.825 151.096 214.126 155.911 215.376 161.09C218.067 172.231 221.365 172.323 221.61 175.278C221.909 178.894 221.61 182.073 219.688 186.804C217.605 191.93 213.468 195.875 209.864 194.791C206.26 193.706 205.689 188.554 204.564 184.193C203.515 180.125 203.104 179.983 202.012 175.927C201.418 173.72 199.052 164.435 199.052 162.149C199.052 156.427 202.868 158.546 202.012 146.465Z" fill="#FF9090"/>
<path d="M235.658 89.8725C236.375 86.7644 237.416 84.4571 240.605 84.3617C243.908 84.263 245.913 86.6286 246.541 89.8725C247.813 96.4431 247.262 98.7881 248.025 104.921C248.549 109.132 248.815 111.072 249.085 115.307C249.304 118.751 249.625 122 250.26 125.392C250.979 129.226 251.657 130.782 252.477 134.595C253.423 138.996 253.517 142.434 250.993 145.617C248.303 149.008 242.443 153.671 237.849 151.976C235.392 151.069 235.093 146.786 235.093 138.834V126.965C235.093 123.14 235.494 120.171 235.093 116.367C234.636 112.04 234.245 109.272 234.245 104.921C234.245 98.47 234.506 94.8669 235.658 89.8725Z" fill="#3C3D75"/>
<path d="M280.846 94.9594C282.838 91.9593 284.772 90.2077 288.291 90.9322C291.36 91.5641 292.545 93.6386 292.545 96.7835C292.545 100.342 289.565 103.263 287.457 108.313C284.307 115.86 282.355 119.484 280.249 127.389C278.291 134.739 277.602 142.83 276.429 144.402C274.294 147.261 272.201 146.212 268.791 145.187C265.981 144.342 264.901 144.725 263.323 142.242C261.327 139.101 262.54 134.936 263.925 129.72C265.312 124.496 266.384 120.84 268.791 116.003L268.921 115.742C272.865 107.816 274.533 104.465 280.846 94.9594Z" fill="#3C3D75"/>
<path d="M311.258 184.525C309.337 181.369 308.111 181.4 308.658 179.106C309.204 176.813 315.879 177.522 322.438 176.563C329.888 175.473 335.919 172.784 342.154 171.052C345.304 170.177 349.668 170.254 350.404 173.44C350.81 175.198 350.42 176.48 349.364 177.943C347.454 180.59 339.814 182.92 331.554 186.313C325.688 188.722 318.198 190.764 314.575 188.742C312.212 187.424 312.665 186.836 311.258 184.525Z" fill="#6CB2C3"/>
<path d="M237.03 162.917C241.391 155.873 244.712 152.107 252.785 150.239C263.696 147.714 283.302 155.959 295.823 169.448C299.032 172.906 301.017 175.914 303.11 179.086L303.123 179.106C305.669 182.964 305.945 184.917 304.418 189.28C303.26 192.586 300.426 196.057 298.27 198.818C295.165 202.793 292.554 206.469 289.79 210.687C284.408 218.899 276.433 227.843 276.433 227.843C276.433 227.843 269.196 233.313 263.925 233.579C254.778 234.041 252.694 230.556 243.947 227.843C235.284 225.157 232.356 225.953 225.502 220.013C218.34 213.807 215.979 209.263 217.284 199.878C218.228 193.095 220.764 188.38 225.502 180.973C230.638 172.943 232.034 170.985 237.03 162.917Z" fill="#FF9090"/>
<path d="M301.45 150.28C297.689 156.046 298.694 156.215 296.974 159.818C295.766 162.35 293.109 161.67 290.213 158.97C287.428 156.373 283.719 155.557 284.913 151.976C285.337 150.704 285.394 150.646 287.752 147.165C291.463 141.686 293.393 139.046 297.422 133.323C300.667 128.713 300.92 127.177 303.994 121.03C305.986 117.047 308.66 112.975 312.685 114.883C315.243 116.096 315.979 119.31 315.442 122.09C314.171 128.661 312.757 129.63 309.93 135.443C306.486 142.524 304.63 145.405 301.45 150.28Z" fill="#FF9090"/>
<path d="M250.569 177.198C250.145 174.655 251.377 172.626 253.937 171.753C255.525 171.212 256.775 171.58 258.164 172.521C259.613 173.503 260.894 174.666 260.47 176.363C260.086 177.9 258.164 181.861 253.937 180.589C252.718 180.222 250.922 179.318 250.569 177.198Z" fill="white"/>
<path d="M270.846 183.663C271.115 181.335 273.129 180.095 275.457 179.821C278.064 179.514 280.23 180.848 281.221 183.279C281.959 185.09 281.528 187.341 280.068 188.273C277.493 189.916 276.221 190.128 273.465 188.856C271.698 188.041 270.66 185.268 270.846 183.663Z" fill="white"/>
<path d="M253.169 204.024C249.495 201.806 246.636 195.188 246.636 195.188C246.636 195.188 245.809 201.655 247.601 204.793C249.135 207.479 250.62 208.421 253.553 209.403C258.684 211.12 266.618 204.793 266.618 204.793C266.618 204.793 257.672 206.743 253.169 204.024Z" fill="white"/>
<path d="M123.369 150.743C121.693 155.495 118.354 165.402 119.29 168.391C120.226 171.38 121.217 172.917 123.369 175.193C126.356 178.351 129.81 181.383 133.392 178.921C136.248 176.958 141.325 153.441 143.718 135.231C144.236 131.288 143.378 128.077 143.12 124.102C142.805 119.242 144.017 114.659 141.624 111.287C140.1 109.14 139.248 109.179 136.838 109.601C133.653 110.158 132.916 112.434 131.453 115.671C129.699 119.55 131.163 122.568 130.256 126.8C129.517 130.247 128.172 131.773 127.475 135.231C126.851 138.324 127.455 140.28 126.666 143.324C125.889 146.321 124.393 147.842 123.369 150.743Z" fill="#3C3D75"/>
</mask>
<g mask="url(#mask1)">
<rect x="128.031" y="71.6443" width="268.337" height="119.994" transform="rotate(90 128.031 71.6443)" fill="url(#pattern0)" fill-opacity="0.05"/>
<rect x="247.601" y="57.2312" width="268.337" height="119.57" transform="rotate(90 247.601 57.2312)" fill="url(#pattern1)" fill-opacity="0.05"/>
<rect x="367.17" y="61.4703" width="268.337" height="119.57" transform="rotate(90 367.17 61.4703)" fill="url(#pattern2)" fill-opacity="0.05"/>
</g>
<defs>
<filter id="filter0_f" x="37.4418" y="258.588" width="133.746" height="83.1677" filterUnits="userSpaceOnUse" color-interpolation-filters="sRGB">
<feFlood flood-opacity="0" result="BackgroundImageFix"/>
<feBlend mode="normal" in="SourceGraphic" in2="BackgroundImageFix" result="shape"/>
<feGaussianBlur stdDeviation="10" result="effect1_foregroundBlur"/>
</filter>
<filter id="filter1_f" x="190.508" y="257.74" width="133.746" height="83.1677" filterUnits="userSpaceOnUse" color-interpolation-filters="sRGB">
<feFlood flood-opacity="0" result="BackgroundImageFix"/>
<feBlend mode="normal" in="SourceGraphic" in2="BackgroundImageFix" result="shape"/>
<feGaussianBlur stdDeviation="10" result="effect1_foregroundBlur"/>
</filter>
<filter id="filter2_d" x="13.0938" y="91.8289" width="162.218" height="246.434" filterUnits="userSpaceOnUse" color-interpolation-filters="sRGB">
<feFlood flood-opacity="0" result="BackgroundImageFix"/>
<feColorMatrix in="SourceAlpha" type="matrix" values="0 0 0 0 0 0 0 0 0 0 0 0 0 0 0 0 0 0 127 0"/>
<feOffset dx="2" dy="4"/>
<feGaussianBlur stdDeviation="2.5"/>
<feColorMatrix type="matrix" values="0 0 0 0 0 0 0 0 0 0 0 0 0 0 0 0 0 0 0.4 0"/>
<feBlend mode="normal" in2="BackgroundImageFix" result="effect1_dropShadow"/>
<feBlend mode="normal" in="SourceGraphic" in2="effect1_dropShadow" result="shape"/>
</filter>
<filter id="filter3_d" x="54.0717" y="168.392" width="87.532" height="104.96" filterUnits="userSpaceOnUse" color-interpolation-filters="sRGB">
<feFlood flood-opacity="0" result="BackgroundImageFix"/>
<feColorMatrix in="SourceAlpha" type="matrix" values="0 0 0 0 0 0 0 0 0 0 0 0 0 0 0 0 0 0 127 0"/>
<feOffset dx="2" dy="4"/>
<feGaussianBlur stdDeviation="2.5"/>
<feColorMatrix type="matrix" values="0 0 0 0 0 0 0 0 0 0 0 0 0 0 0 0 0 0 0.4 0"/>
<feBlend mode="normal" in2="BackgroundImageFix" result="effect1_dropShadow"/>
<feBlend mode="normal" in="SourceGraphic" in2="effect1_dropShadow" result="shape"/>
</filter>
<filter id="filter4_f" x="16.8036" y="195.961" width="173.259" height="140.478" filterUnits="userSpaceOnUse" color-interpolation-filters="sRGB">
<feFlood flood-opacity="0" result="BackgroundImageFix"/>
<feBlend mode="normal" in="SourceGraphic" in2="BackgroundImageFix" result="shape"/>
<feGaussianBlur stdDeviation="25" result="effect1_foregroundBlur"/>
</filter>
<filter id="filter5_f" x="-14.3551" y="144.869" width="227.898" height="138.834" filterUnits="userSpaceOnUse" color-interpolation-filters="sRGB">
<feFlood flood-opacity="0" result="BackgroundImageFix"/>
<feBlend mode="normal" in="SourceGraphic" in2="BackgroundImageFix" result="shape"/>
<feGaussianBlur stdDeviation="25" result="effect1_foregroundBlur"/>
</filter>
<filter id="filter6_f" x="-47.7582" y="109.802" width="286.612" height="254.362" filterUnits="userSpaceOnUse" color-interpolation-filters="sRGB">
<feFlood flood-opacity="0" result="BackgroundImageFix"/>
<feBlend mode="normal" in="SourceGraphic" in2="BackgroundImageFix" result="shape"/>
<feGaussianBlur stdDeviation="50" result="effect1_foregroundBlur"/>
</filter>
<filter id="filter7_f" x="-58.9612" y="53.8008" width="286.612" height="254.362" filterUnits="userSpaceOnUse" color-interpolation-filters="sRGB">
<feFlood flood-opacity="0" result="BackgroundImageFix"/>
<feBlend mode="normal" in="SourceGraphic" in2="BackgroundImageFix" result="shape"/>
<feGaussianBlur stdDeviation="50" result="effect1_foregroundBlur"/>
</filter>
<filter id="filter8_d" x="193.296" y="80.8181" width="165.61" height="250.149" filterUnits="userSpaceOnUse" color-interpolation-filters="sRGB">
<feFlood flood-opacity="0" result="BackgroundImageFix"/>
<feColorMatrix in="SourceAlpha" type="matrix" values="0 0 0 0 0 0 0 0 0 0 0 0 0 0 0 0 0 0 127 0"/>
<feOffset dx="2" dy="4"/>
<feGaussianBlur stdDeviation="2.5"/>
<feColorMatrix type="matrix" values="0 0 0 0 0 0 0 0 0 0 0 0 0 0 0 0 0 0 0.4 0"/>
<feBlend mode="normal" in2="BackgroundImageFix" result="effect1_dropShadow"/>
<feBlend mode="normal" in="SourceGraphic" in2="effect1_dropShadow" result="shape"/>
</filter>
<filter id="filter9_d" x="211.942" y="148.786" width="98.4131" height="93.8346" filterUnits="userSpaceOnUse" color-interpolation-filters="sRGB">
<feFlood flood-opacity="0" result="BackgroundImageFix"/>
<feColorMatrix in="SourceAlpha" type="matrix" values="0 0 0 0 0 0 0 0 0 0 0 0 0 0 0 0 0 0 127 0"/>
<feOffset dy="4"/>
<feGaussianBlur stdDeviation="2.5"/>
<feColorMatrix type="matrix" values="0 0 0 0 0 0 0 0 0 0 0 0 0 0 0 0 0 0 0.4 0"/>
<feBlend mode="normal" in2="BackgroundImageFix" result="effect1_dropShadow"/>
<feBlend mode="normal" in="SourceGraphic" in2="effect1_dropShadow" result="shape"/>
</filter>
<pattern id="pattern0" patternContentUnits="objectBoundingBox" width="1" height="1">
<use xlink:href="#image0" transform="translate(0 -0.338597) scale(0.003125 0.0069883)"/>
</pattern>
<pattern id="pattern1" patternContentUnits="objectBoundingBox" width="1" height="1">
<use xlink:href="#image0" transform="translate(0 -0.34157) scale(0.003125 0.00701309)"/>
</pattern>
<pattern id="pattern2" patternContentUnits="objectBoundingBox" width="1" height="1">
<use xlink:href="#image0" transform="translate(0 -0.34157) scale(0.003125 0.00701309)"/>
</pattern>
</defs>
</svg>
