<svg width="368" height="435" viewBox="0 0 368 435" fill="none" xmlns="http://www.w3.org/2000/svg" xmlns:xlink="http://www.w3.org/1999/xlink">
<g clip-path="url(#clip0)">
<g filter="url(#filter0_i)">
<path d="M173.983 125.206C161.362 125.585 114.725 128.562 114.725 128.562L176.786 141.939L236.08 129.027C236.08 129.027 188.507 124.769 173.983 125.206Z" fill="#FF9090"/>
</g>
<path d="M143.631 66.0839C143.631 66.0839 120.597 60.7841 105.746 61.8302C101.106 62.1571 98.3158 62.5853 93.931 63.3384C74.8039 66.6233 51.1528 80.5113 45.1506 88.1245C34.0045 102.262 33.097 113.699 28.4761 131.099C26.9224 136.949 25.5391 149.482 23.8349 157.837C21.96 163.287 20.0359 165.547 18.8278 166.48C18.0527 166.895 17.5882 167.129 17.5882 167.129C17.5882 167.129 18.0654 167.069 18.8278 166.48C21.9994 164.783 30.3706 160.062 33.3873 155.994C38.404 149.228 39.0434 142.031 43.9261 135.168C57.6028 115.944 79.13 120.056 91.4521 99.9373C98.5708 88.3139 96.7186 75.2429 108.984 68.1011C117.312 63.2522 142.164 71.8357 142.164 71.8357L143.631 66.0839Z" fill="#6CB2C3"/>
<g filter="url(#filter1_i)">
<path d="M50.3249 129.289C59.7333 120.747 68.2833 121.904 79.7965 113.62C97.632 100.786 94.0839 89.4572 99.3671 79.8078C105.13 69.2825 109.942 67.6266 109.942 67.6266C109.942 67.6266 103.442 68.9283 96.2865 77.8472C90.382 85.2067 87.718 90.9892 77.3285 100.23C68.4539 108.123 57.2273 109.231 51.7966 110.848C39.632 114.468 33.3787 117.979 28.5756 135.17C26.3817 143.023 25.095 150.644 24.0945 156.572C22.8814 163.759 16.8703 167.605 16.8703 167.605C16.8703 167.605 29.27 161.509 33.2309 156.607C41.1398 146.818 41.0072 137.748 50.3249 129.289Z" fill="#E0C1B3"/>
</g>
<g filter="url(#filter2_i)">
<path d="M104.551 37.7916C112.298 44.1712 129.685 51.6358 129.685 51.6358L125.555 54.7583L107.127 44.9513C107.127 44.9513 87.8693 46.2332 75.9968 49.4841C55.5047 55.0954 41.7647 67.7828 25.539 67.263C16.7673 66.982 11.7945 66.1014 3.71889 62.6655C-2.24059 60.13 -15.8892 51.079 -15.8892 51.079C-15.8892 51.079 -2.5117 51.1543 5.65555 44.1418C11.7977 38.8681 12.4747 32.6448 19.601 28.8037C26.3862 25.1464 31.5245 27.102 39.0454 25.4136C45.5399 23.9557 48.8518 21.1587 55.5058 20.9915C62.035 20.8273 65.3422 24.2527 71.8708 24.4396C78.1248 24.6186 80.9954 21.6334 87.0704 23.1297C95.7042 25.2564 97.687 32.1393 104.551 37.7916Z" fill="#6CB2C3"/>
</g>
<g filter="url(#filter3_i)">
<path d="M82.6693 40.2329C77.857 41.7944 49.8793 60.1486 49.8793 60.1486C49.8793 60.1486 72.7103 51.1311 85.4117 47.9428C94.4678 45.6695 114.791 49.0108 114.791 49.0108C114.791 49.0108 99.7745 40.3924 94.5214 39.6165C89.5164 38.8773 86.6031 38.9564 82.6693 40.2329Z" fill="#E0C1B3"/>
</g>
<g filter="url(#filter4_i)">
<path d="M185.227 115.816C181.063 126.408 167.941 143.388 167.941 143.388L173.756 144.207L186.619 124.332C186.619 124.332 199.379 111.65 213.22 109.827C241.423 106.113 263.989 110.949 279.786 101.493C288.326 96.3811 292.77 92.7681 298.882 84.9127C303.392 79.1156 315.654 60.2944 315.654 60.2944C315.654 60.2944 295.542 69.4192 286.755 67.6183C277.761 65.7749 273.661 59.9794 264.481 60.0986C255.74 60.212 251.724 64.9817 243.339 67.4521C236.098 69.5855 231.274 68.6378 224.586 72.1384C218.024 75.5734 216.633 80.791 210.264 84.5735C204.164 88.197 199.673 86.8196 194.476 91.6502C187.09 98.5155 188.917 106.431 185.227 115.816Z" fill="#6CB2C3"/>
</g>
<g filter="url(#filter5_i)">
<path d="M211.68 103.133C228.176 99.8994 251.739 107.853 251.739 107.853C251.739 107.853 224.931 108.129 210.584 111.967C200.354 114.704 186.423 124.493 186.423 124.493C186.423 124.493 193.388 113.911 198.168 110.248C202.722 106.757 207.077 104.035 211.68 103.133Z" fill="#E0C1B3"/>
</g>
<g filter="url(#filter6_i)">
<path d="M106.311 17.6847C87.7648 -1.16683 55.8318 -25.5087 55.8318 -25.5087L34.5709 -25.5901C34.5709 -25.5901 78.4237 1.33343 99.357 24.5859C128.294 56.7287 142.304 73.0386 156.838 110.806C160.505 120.333 164.866 135.682 164.866 135.682L174.421 135.718C174.421 135.718 169.115 118.642 164.972 107.971C160.347 96.0589 151.708 78.0587 151.708 78.0587C151.708 78.0587 213.197 62.5857 249.303 44.7487C297.411 20.9829 346.791 -23.2008 346.791 -23.2008L334.13 -23.2492C334.13 -23.2492 287.403 14.3166 244.316 36.8463C208.552 55.547 146.247 69.4378 146.247 69.4378C146.247 69.4378 124.215 35.8828 106.311 17.6847Z" fill="#6CB2C3"/>
</g>
<g filter="url(#filter7_i)">
<path d="M99.4323 129.697C120.236 121.542 150.897 134.195 173.949 134.283C198.673 134.377 226.102 114.654 261.62 134.619C297.138 154.583 291.379 223.838 278.35 257.471C265.321 291.105 255.721 302.774 244.438 317.064C236.582 327.016 226.934 334.198 213.318 334.145C199.701 334.093 191.239 328.215 173.685 328.021C154.926 327.814 144.041 333.88 131.234 333.831C118.428 333.782 110.865 325.801 102.54 316.521C94.2147 307.241 76.1759 276.5 72.7033 247.581C72.7033 247.581 88.7145 258.179 106.607 252.514C124.499 246.849 123.197 230.395 123.591 230.125C124.967 229.183 129.669 230.541 135.001 220.756C140.743 206.461 131.349 201.326 131.745 200.543C137.221 196.19 137.192 188.746 136.317 184.283C135.356 179.376 132.672 174.173 123.818 170.703C123.821 169.919 126.424 156.005 109.585 148.88C97.0511 144.321 77.406 152.3 74.9708 154.448C78.0437 144.842 88.0908 134.143 99.4323 129.697Z" fill="#FF9090"/>
</g>
<g filter="url(#filter8_i)">
<path d="M99.0245 163.684C95.208 153.094 74.9717 154.209 74.9717 154.209C74.9717 154.209 98.4344 141.604 113.697 150.661C127.003 158.556 123.818 170.703 123.818 170.703C123.818 170.703 134.852 173.295 136.705 185.461C138.289 195.861 132.366 200.773 132.366 200.773C132.366 200.773 139.568 208.025 136.579 218.408C133.59 228.791 125.615 230.131 123.654 230.124C123.654 230.124 123.46 242.567 113.91 250.634C108.867 254.894 98.1979 257.024 87.926 254.229C78.1872 251.58 72.9423 247.607 72.9423 247.607C72.9423 247.607 90.37 250.541 96.4479 240.531C104.195 227.772 96.5295 219.215 96.5295 219.215C96.5295 219.215 104.733 217.154 106.457 209.743C108.446 201.191 102.13 197.172 102.13 197.172C102.13 197.172 107.928 193.01 106.545 186.728C104.406 177.019 98.9736 176.998 98.9736 176.998C98.9736 176.998 101.29 169.969 99.0245 163.684Z" fill="#E0C1B3"/>
</g>
<mask id="mask0" mask-type="alpha" maskUnits="userSpaceOnUse" x="72" y="125" width="217" height="210">
<path d="M99.4325 129.699C120.237 121.544 150.897 134.197 173.949 134.285C198.673 134.38 226.102 114.657 261.62 134.621C297.138 154.586 291.379 223.84 278.35 257.474C265.321 291.107 255.721 302.776 244.438 317.067C236.582 327.018 226.934 334.2 213.318 334.148C199.701 334.096 191.24 328.218 173.685 328.024C154.926 327.817 144.041 333.883 131.235 333.834C118.428 333.785 110.865 325.804 102.54 316.524C94.2148 307.244 76.1761 276.502 72.7034 247.583C72.7034 247.583 88.7147 258.181 106.607 252.516C124.499 246.851 123.197 230.397 123.591 230.128C124.967 229.185 129.669 230.543 135.001 220.758C140.743 206.463 131.349 201.328 131.745 200.545C137.221 196.192 137.192 188.748 136.318 184.285C135.356 179.379 132.672 174.175 123.818 170.705C123.821 169.921 126.424 156.007 109.585 148.882C97.0513 144.324 77.4061 152.302 74.971 154.45C78.0439 144.844 88.091 134.146 99.4325 129.699Z" fill="#F76F8E"/>
</mask>
<g mask="url(#mask0)">
<g filter="url(#filter9_f)">
<path d="M166.263 150.26C172.448 134.198 183.498 123.85 203.372 115.829C243.202 99.7518 267.305 133.918 283.884 161.471C303.559 194.171 290.442 245.799 268.542 260.15C256.648 267.943 246.385 269.554 231.909 269.991C190.627 271.237 207.431 227.609 192.536 200.125C182.035 180.749 157.721 172.44 166.263 150.26Z" fill="#FC8081"/>
</g>
<g filter="url(#filter10_f)">
<path d="M20.8627 340.062C27.0483 324 38.0983 313.652 57.9716 305.63C97.8019 289.553 121.905 323.72 138.484 351.273C158.159 383.972 145.042 435.601 123.142 449.951C111.248 457.745 100.985 459.356 86.5093 459.793C45.2269 461.038 62.031 417.411 47.136 389.926C36.6355 370.551 12.3212 362.242 20.8627 340.062Z" fill="black" fill-opacity="0.2"/>
</g>
<g filter="url(#filter11_f)">
<path d="M-0.927445 41.3661C5.25811 25.304 16.3082 14.956 36.1815 6.93441C76.0118 -9.14264 100.115 25.0235 116.694 52.5769C136.369 85.2764 123.252 136.905 101.352 151.255C89.4578 159.049 79.1944 160.66 64.7192 161.097C23.4367 162.342 40.2409 118.715 25.3458 91.2302C14.8454 71.8546 -9.46894 63.5458 -0.927445 41.3661Z" fill="black" fill-opacity="0.2"/>
</g>
</g>
<mask id="mask1" mask-type="alpha" maskUnits="userSpaceOnUse" x="-17" y="-26" width="364" height="361">
<path d="M173.983 125.206C161.362 125.585 114.725 128.562 114.725 128.562L176.786 141.939L236.08 129.027C236.08 129.027 188.507 124.769 173.983 125.206Z" fill="#FF9090"/>
<path d="M143.631 66.0839C143.631 66.0839 120.597 60.7841 105.746 61.8302C101.106 62.1571 98.3158 62.5853 93.931 63.3384C74.8039 66.6233 51.1528 80.5113 45.1506 88.1245C34.0045 102.262 33.097 113.699 28.4761 131.099C26.9224 136.949 25.5391 149.482 23.8349 157.837C21.96 163.287 20.0359 165.547 18.8278 166.48C18.0527 166.895 17.5882 167.129 17.5882 167.129C17.5882 167.129 18.0654 167.069 18.8278 166.48C21.9994 164.783 30.3706 160.062 33.3873 155.994C38.404 149.228 39.0434 142.031 43.9261 135.168C57.6028 115.944 79.13 120.056 91.4521 99.9373C98.5708 88.3139 96.7186 75.2429 108.984 68.1011C117.312 63.2522 142.164 71.8357 142.164 71.8357L143.631 66.0839Z" fill="#6CB2C3"/>
<path d="M50.3249 129.289C59.7333 120.747 68.2833 121.904 79.7965 113.62C97.632 100.786 94.0839 89.4572 99.3671 79.8078C105.13 69.2825 109.942 67.6266 109.942 67.6266C109.942 67.6266 103.442 68.9283 96.2865 77.8472C90.382 85.2067 87.718 90.9892 77.3285 100.23C68.4539 108.123 57.2273 109.231 51.7966 110.848C39.632 114.468 33.3787 117.979 28.5756 135.17C26.3817 143.023 25.095 150.644 24.0945 156.572C22.8814 163.759 16.8703 167.605 16.8703 167.605C16.8703 167.605 29.27 161.509 33.2309 156.607C41.1398 146.818 41.0072 137.748 50.3249 129.289Z" fill="#E0C1B3"/>
<path d="M104.551 37.7916C112.298 44.1712 129.685 51.6358 129.685 51.6358L125.555 54.7583L107.127 44.9513C107.127 44.9513 87.8693 46.2332 75.9968 49.4841C55.5047 55.0954 41.7647 67.7828 25.539 67.263C16.7673 66.982 11.7945 66.1014 3.71889 62.6655C-2.24059 60.13 -15.8892 51.079 -15.8892 51.079C-15.8892 51.079 -2.5117 51.1543 5.65555 44.1418C11.7977 38.8681 12.4747 32.6448 19.601 28.8037C26.3862 25.1464 31.5245 27.102 39.0454 25.4136C45.5399 23.9557 48.8518 21.1587 55.5058 20.9915C62.035 20.8273 65.3422 24.2527 71.8708 24.4396C78.1248 24.6186 80.9954 21.6334 87.0704 23.1297C95.7042 25.2564 97.687 32.1393 104.551 37.7916Z" fill="#6CB2C3"/>
<path d="M82.6693 40.2329C77.857 41.7944 49.8793 60.1486 49.8793 60.1486C49.8793 60.1486 72.7103 51.1311 85.4117 47.9428C94.4678 45.6695 114.791 49.0108 114.791 49.0108C114.791 49.0108 99.7745 40.3924 94.5214 39.6165C89.5164 38.8773 86.6031 38.9564 82.6693 40.2329Z" fill="#E0C1B3"/>
<path d="M185.227 115.816C181.063 126.408 167.941 143.388 167.941 143.388L173.756 144.207L186.619 124.332C186.619 124.332 199.379 111.65 213.22 109.827C241.423 106.113 263.989 110.949 279.786 101.493C288.326 96.3811 292.77 92.7681 298.882 84.9127C303.392 79.1156 315.654 60.2944 315.654 60.2944C315.654 60.2944 295.542 69.4192 286.755 67.6183C277.761 65.7749 273.661 59.9794 264.481 60.0986C255.74 60.212 251.724 64.9817 243.339 67.4521C236.098 69.5855 231.274 68.6378 224.586 72.1384C218.024 75.5734 216.633 80.791 210.264 84.5735C204.164 88.197 199.673 86.8196 194.476 91.6502C187.09 98.5155 188.917 106.431 185.227 115.816Z" fill="#6CB2C3"/>
<path d="M211.68 103.133C228.176 99.8994 251.739 107.853 251.739 107.853C251.739 107.853 224.931 108.129 210.584 111.967C200.354 114.704 186.423 124.493 186.423 124.493C186.423 124.493 193.388 113.911 198.168 110.248C202.722 106.757 207.077 104.035 211.68 103.133Z" fill="#E0C1B3"/>
<path d="M106.311 17.6847C87.7648 -1.16683 55.8318 -25.5087 55.8318 -25.5087L34.5709 -25.5901C34.5709 -25.5901 78.4237 1.33343 99.357 24.5859C128.294 56.7287 142.304 73.0386 156.838 110.806C160.505 120.333 164.866 135.682 164.866 135.682L174.421 135.718C174.421 135.718 169.115 118.642 164.972 107.971C160.347 96.0589 151.708 78.0587 151.708 78.0587C151.708 78.0587 213.197 62.5857 249.303 44.7487C297.411 20.9829 346.791 -23.2008 346.791 -23.2008L334.13 -23.2492C334.13 -23.2492 287.403 14.3166 244.316 36.8463C208.552 55.547 146.247 69.4378 146.247 69.4378C146.247 69.4378 124.215 35.8828 106.311 17.6847Z" fill="#6CB2C3"/>
<path d="M99.4323 129.697C120.236 121.542 150.897 134.195 173.949 134.283C198.673 134.377 226.102 114.654 261.62 134.619C297.138 154.583 291.379 223.838 278.35 257.471C265.321 291.105 255.721 302.774 244.438 317.064C236.582 327.016 226.934 334.198 213.318 334.145C199.701 334.093 191.239 328.215 173.685 328.021C154.926 327.814 144.041 333.88 131.234 333.831C118.428 333.782 110.865 325.801 102.54 316.521C94.2147 307.241 76.1759 276.5 72.7033 247.581C72.7033 247.581 88.7145 258.179 106.607 252.514C124.499 246.849 123.197 230.395 123.591 230.125C124.967 229.183 129.669 230.541 135.001 220.756C140.743 206.461 131.349 201.326 131.745 200.543C137.221 196.19 137.192 188.746 136.317 184.283C135.356 179.376 132.672 174.173 123.818 170.703C123.821 169.919 126.424 156.005 109.585 148.88C97.0511 144.321 77.406 152.3 74.9708 154.448C78.0437 144.842 88.0908 134.143 99.4323 129.697Z" fill="#FF9090"/>
<path d="M99.0245 163.684C95.208 153.094 74.9717 154.209 74.9717 154.209C74.9717 154.209 98.4344 141.604 113.697 150.661C127.003 158.556 123.818 170.703 123.818 170.703C123.818 170.703 134.852 173.295 136.705 185.461C138.289 195.861 132.366 200.773 132.366 200.773C132.366 200.773 139.568 208.025 136.579 218.408C133.59 228.791 125.615 230.131 123.654 230.124C123.654 230.124 123.46 242.567 113.91 250.634C108.867 254.894 98.1979 257.024 87.926 254.229C78.1872 251.58 72.9423 247.607 72.9423 247.607C72.9423 247.607 90.37 250.541 96.4479 240.531C104.195 227.772 96.5295 219.215 96.5295 219.215C96.5295 219.215 104.733 217.154 106.457 209.743C108.446 201.191 102.13 197.172 102.13 197.172C102.13 197.172 107.928 193.01 106.545 186.728C104.406 177.019 98.9736 176.998 98.9736 176.998C98.9736 176.998 101.29 169.969 99.0245 163.684Z" fill="#E0C1B3"/>
</mask>
<g mask="url(#mask1)">
<rect x="225.964" y="-73.3815" width="471.23" height="200.131" transform="rotate(105.219 225.964 -73.3815)" fill="url(#pattern0)" fill-opacity="0.05"/>
<rect x="413.852" y="1.2699" width="449.229" height="200.84" transform="rotate(105.219 413.852 1.2699)" fill="url(#pattern1)" fill-opacity="0.05"/>
</g>
</g>
<defs>
<filter id="filter0_i" x="114.675" y="124.938" width="121.419" height="21.2276" filterUnits="userSpaceOnUse" color-interpolation-filters="sRGB">
<feFlood flood-opacity="0" result="BackgroundImageFix"/>
<feBlend mode="normal" in="SourceGraphic" in2="BackgroundImageFix" result="shape"/>
<feColorMatrix in="SourceAlpha" type="matrix" values="0 0 0 0 0 0 0 0 0 0 0 0 0 0 0 0 0 0 127 0" result="hardAlpha"/>
<feOffset dy="4"/>
<feGaussianBlur stdDeviation="5"/>
<feComposite in2="hardAlpha" operator="arithmetic" k2="-1" k3="1"/>
<feColorMatrix type="matrix" values="0 0 0 0 0 0 0 0 0 0 0 0 0 0 0 0 0 0 0.4 0"/>
<feBlend mode="normal" in2="shape" result="effect1_innerShadow"/>
</filter>
<filter id="filter1_i" x="16.8703" y="51.4424" width="103.072" height="136.347" filterUnits="userSpaceOnUse" color-interpolation-filters="sRGB">
<feFlood flood-opacity="0" result="BackgroundImageFix"/>
<feBlend mode="normal" in="SourceGraphic" in2="BackgroundImageFix" result="shape"/>
<feColorMatrix in="SourceAlpha" type="matrix" values="0 0 0 0 0 0 0 0 0 0 0 0 0 0 0 0 0 0 127 0" result="hardAlpha"/>
<feOffset dx="10" dy="4"/>
<feGaussianBlur stdDeviation="5"/>
<feComposite in2="hardAlpha" operator="arithmetic" k2="-1" k3="1"/>
<feColorMatrix type="matrix" values="0 0 0 0 0 0 0 0 0 0 0 0 0 0 0 0 0 0 0.4 0"/>
<feBlend mode="normal" in2="shape" result="effect1_innerShadow"/>
</filter>
<filter id="filter2_i" x="-16.9013" y="-12.7037" width="156.931" height="130.931" filterUnits="userSpaceOnUse" color-interpolation-filters="sRGB">
<feFlood flood-opacity="0" result="BackgroundImageFix"/>
<feBlend mode="normal" in="SourceGraphic" in2="BackgroundImageFix" result="shape"/>
<feColorMatrix in="SourceAlpha" type="matrix" values="0 0 0 0 0 0 0 0 0 0 0 0 0 0 0 0 0 0 127 0" result="hardAlpha"/>
<feOffset dx="10" dy="4"/>
<feGaussianBlur stdDeviation="5"/>
<feComposite in2="hardAlpha" operator="arithmetic" k2="-1" k3="1"/>
<feColorMatrix type="matrix" values="0 0 0 0 0 0 0 0 0 0 0 0 0 0 0 0 0 0 0.4 0"/>
<feBlend mode="normal" in2="shape" result="effect1_innerShadow"/>
</filter>
<filter id="filter3_i" x="49.1083" y="28.4132" width="65.6828" height="54.9586" filterUnits="userSpaceOnUse" color-interpolation-filters="sRGB">
<feFlood flood-opacity="0" result="BackgroundImageFix"/>
<feBlend mode="normal" in="SourceGraphic" in2="BackgroundImageFix" result="shape"/>
<feColorMatrix in="SourceAlpha" type="matrix" values="0 0 0 0 0 0 0 0 0 0 0 0 0 0 0 0 0 0 127 0" result="hardAlpha"/>
<feOffset dy="4"/>
<feGaussianBlur stdDeviation="2"/>
<feComposite in2="hardAlpha" operator="arithmetic" k2="-1" k3="1"/>
<feColorMatrix type="matrix" values="0 0 0 0 0 0 0 0 0 0 0 0 0 0 0 0 0 0 0.25 0"/>
<feBlend mode="normal" in2="shape" result="effect1_innerShadow"/>
</filter>
<filter id="filter4_i" x="167.938" y="59.7273" width="157.716" height="89.0215" filterUnits="userSpaceOnUse" color-interpolation-filters="sRGB">
<feFlood flood-opacity="0" result="BackgroundImageFix"/>
<feBlend mode="normal" in="SourceGraphic" in2="BackgroundImageFix" result="shape"/>
<feColorMatrix in="SourceAlpha" type="matrix" values="0 0 0 0 0 0 0 0 0 0 0 0 0 0 0 0 0 0 127 0" result="hardAlpha"/>
<feOffset dx="10" dy="4"/>
<feGaussianBlur stdDeviation="5"/>
<feComposite in2="hardAlpha" operator="arithmetic" k2="-1" k3="1"/>
<feColorMatrix type="matrix" values="0 0 0 0 0 0 0 0 0 0 0 0 0 0 0 0 0 0 0.4 0"/>
<feBlend mode="normal" in2="shape" result="effect1_innerShadow"/>
</filter>
<filter id="filter5_i" x="186.423" y="102.229" width="65.3367" height="26.5134" filterUnits="userSpaceOnUse" color-interpolation-filters="sRGB">
<feFlood flood-opacity="0" result="BackgroundImageFix"/>
<feBlend mode="normal" in="SourceGraphic" in2="BackgroundImageFix" result="shape"/>
<feColorMatrix in="SourceAlpha" type="matrix" values="0 0 0 0 0 0 0 0 0 0 0 0 0 0 0 0 0 0 127 0" result="hardAlpha"/>
<feOffset dy="4"/>
<feGaussianBlur stdDeviation="2"/>
<feComposite in2="hardAlpha" operator="arithmetic" k2="-1" k3="1"/>
<feColorMatrix type="matrix" values="0 0 0 0 0 0 0 0 0 0 0 0 0 0 0 0 0 0 0.25 0"/>
<feBlend mode="normal" in2="shape" result="effect1_innerShadow"/>
</filter>
<filter id="filter6_i" x="33.9556" y="-25.5901" width="322.84" height="165.966" filterUnits="userSpaceOnUse" color-interpolation-filters="sRGB">
<feFlood flood-opacity="0" result="BackgroundImageFix"/>
<feBlend mode="normal" in="SourceGraphic" in2="BackgroundImageFix" result="shape"/>
<feColorMatrix in="SourceAlpha" type="matrix" values="0 0 0 0 0 0 0 0 0 0 0 0 0 0 0 0 0 0 127 0" result="hardAlpha"/>
<feOffset dx="10" dy="4"/>
<feGaussianBlur stdDeviation="5"/>
<feComposite in2="hardAlpha" operator="arithmetic" k2="-1" k3="1"/>
<feColorMatrix type="matrix" values="0 0 0 0 0 0 0 0 0 0 0 0 0 0 0 0 0 0 0.4 0"/>
<feBlend mode="normal" in2="shape" result="effect1_innerShadow"/>
</filter>
<filter id="filter7_i" x="67.374" y="125.085" width="221.338" height="213.346" filterUnits="userSpaceOnUse" color-interpolation-filters="sRGB">
<feFlood flood-opacity="0" result="BackgroundImageFix"/>
<feBlend mode="normal" in="SourceGraphic" in2="BackgroundImageFix" result="shape"/>
<feColorMatrix in="SourceAlpha" type="matrix" values="0 0 0 0 0 0 0 0 0 0 0 0 0 0 0 0 0 0 127 0" result="hardAlpha"/>
<feOffset dx="-5" dy="4"/>
<feGaussianBlur stdDeviation="5"/>
<feComposite in2="hardAlpha" operator="arithmetic" k2="-1" k3="1"/>
<feColorMatrix type="matrix" values="0 0 0 0 0 0 0 0 0 0 0 0 0 0 0 0 0 0 0.5 0"/>
<feBlend mode="normal" in2="shape" result="effect1_innerShadow"/>
</filter>
<filter id="filter8_i" x="67.9125" y="147.282" width="69.6451" height="112.361" filterUnits="userSpaceOnUse" color-interpolation-filters="sRGB">
<feFlood flood-opacity="0" result="BackgroundImageFix"/>
<feBlend mode="normal" in="SourceGraphic" in2="BackgroundImageFix" result="shape"/>
<feColorMatrix in="SourceAlpha" type="matrix" values="0 0 0 0 0 0 0 0 0 0 0 0 0 0 0 0 0 0 127 0" result="hardAlpha"/>
<feOffset dx="-5" dy="4"/>
<feGaussianBlur stdDeviation="5"/>
<feComposite in2="hardAlpha" operator="arithmetic" k2="-1" k3="1"/>
<feColorMatrix type="matrix" values="0 0 0 0 0 0 0 0 0 0 0 0 0 0 0 0 0 0 0.4 0"/>
<feBlend mode="normal" in2="shape" result="effect1_innerShadow"/>
</filter>
<filter id="filter9_f" x="55.4828" y="-2.34387" width="355.167" height="384.771" filterUnits="userSpaceOnUse" color-interpolation-filters="sRGB">
<feFlood flood-opacity="0" result="BackgroundImageFix"/>
<feBlend mode="normal" in="SourceGraphic" in2="BackgroundImageFix" result="shape"/>
<feGaussianBlur stdDeviation="50" result="effect1_foregroundBlur"/>
</filter>
<filter id="filter10_f" x="-69.9171" y="207.458" width="315.167" height="344.771" filterUnits="userSpaceOnUse" color-interpolation-filters="sRGB">
<feFlood flood-opacity="0" result="BackgroundImageFix"/>
<feBlend mode="normal" in="SourceGraphic" in2="BackgroundImageFix" result="shape"/>
<feGaussianBlur stdDeviation="40" result="effect1_foregroundBlur"/>
</filter>
<filter id="filter11_f" x="-91.7073" y="-91.2383" width="315.167" height="344.771" filterUnits="userSpaceOnUse" color-interpolation-filters="sRGB">
<feFlood flood-opacity="0" result="BackgroundImageFix"/>
<feBlend mode="normal" in="SourceGraphic" in2="BackgroundImageFix" result="shape"/>
<feGaussianBlur stdDeviation="40" result="effect1_foregroundBlur"/>
</filter>
<pattern id="pattern0" patternContentUnits="objectBoundingBox" width="1" height="1">
<use xlink:href="#image0" transform="translate(0 -0.382979) scale(0.003125 0.00735816)"/>
</pattern>
<pattern id="pattern1" patternContentUnits="objectBoundingBox" width="1" height="1">
<use xlink:href="#image0" transform="translate(0 -0.338781) scale(0.003125 0.00698984)"/>
</pattern>
<clipPath id="clip0">
<rect width="368" height="435" fill="white"/>
</clipPath>
</defs>
</svg>
