<svg width="345" height="259" viewBox="0 0 345 259" fill="none" xmlns="http://www.w3.org/2000/svg">
<path d="M126.202 -68.1745C123.884 -74.7459 119 -84.4999 119 -84.4999L99.5783 -74.1361C99.5783 -74.1361 104.289 -65.6763 106.712 -59.9795C120.546 -27.4523 94.9128 -3.17214 122.799 28.6616C144.546 53.4879 177.801 25.8537 202.954 47.2223C230.811 70.8881 203.467 113.575 232.667 135.563C261.195 157.046 299.908 123.821 325.705 139.95C344.027 151.406 333.89 176.959 352.112 188.575C362.567 195.24 382.573 197.527 382.573 197.527L383.203 168.765C383.203 168.765 376.505 169.101 369.091 166.405C349.062 159.123 356.927 135.058 339.942 122.186C314.728 103.078 282.099 133.723 255.117 117.203C221.37 96.5401 252.844 45.2142 220.931 21.8183C195.036 2.83363 162.531 27.5751 141.821 8.74866C119.095 -11.91 136.42 -39.2118 126.202 -68.1745Z" fill="#3B417F"/>
<path d="M86.5536 -28.9757C84.2353 -35.5471 79.3513 -45.3011 79.3513 -45.3011L59.9299 -34.9374C59.9299 -34.9374 64.6401 -26.4776 67.0631 -20.7808C80.8976 11.7465 54.8967 41.784 82.7826 73.6177C104.53 98.444 137.785 70.8098 162.938 92.1784C190.795 115.844 163.451 158.531 192.65 180.519C221.179 202.002 259.892 168.777 285.689 184.906C304.011 196.362 301.318 229.933 319.539 241.548C329.994 248.213 350 250.5 350 250.5L350.631 221.738C350.631 221.738 343.932 222.074 336.518 219.379C316.49 212.097 316.911 180.015 299.926 167.143C274.711 148.034 242.083 178.679 215.101 162.159C181.354 141.496 212.828 90.1704 180.915 66.7745C155.019 47.7898 122.515 72.5313 101.805 53.7048C79.0788 33.0462 96.7713 -0.0130479 86.5536 -28.9757Z" fill="#3B417F"/>
<path d="M180.544 -32.2288C158.638 -57.2222 208.902 -97.2611 208.902 -97.2611L145.061 -113.042C145.061 -113.042 160.111 -87.6535 161.403 -78.5241C164.652 -55.5539 141.667 -23.9301 165.975 -8.5678C184.53 3.15827 218.056 -17.466 243.896 0.320115C276.556 22.8005 239.327 76.6544 282.292 98.1859C307.71 110.924 336.336 83.5065 360.176 98.9979C378.251 110.743 375.177 141.661 385.482 147.892C392.295 152.012 405.154 155.317 405.154 155.317L405.964 124.956C405.964 124.956 400.49 126.679 393.528 122.077C381.838 114.352 387.154 88.1411 366.401 77.7406C341.125 65.0739 315.84 95.4507 292.548 79.4258C263.519 59.454 294.368 6.0843 259.544 -17.7811C236.145 -33.8174 197.098 -13.3412 180.544 -32.2288Z" fill="#3B417F"/>
</svg>
