<svg width="120" height="159" fill="none" xmlns="http://www.w3.org/2000/svg"><g filter="url(#filter0_d)"><path d="M34.373 129.473l99.509-7.402v13.57l-98.276 3.289-1.233-9.457z" fill="#3C3D75"/></g><g filter="url(#filter1_d)"><path d="M172.533 13.864v8.774a6.854 6.854 0 01-2.467 5.267h-31.662a1.644 1.644 0 01-1.644-1.645c0-.908-.737-1.644-1.645-1.644H24.503V14.263a10 10 0 016.99-9.536l7.166-2.263A10 10 0 0141.67 2h115.892a10 10 0 013.511.637l4.972 1.864a10 10 0 016.488 9.363z" fill="#3C3D75"/></g><g filter="url(#filter2_d)"><path d="M118.216 85.312c-.047-13.222-.114-36.437-.061-50.42.022-5.63-4.541-10.275-10.171-10.275H15.987c-5.523 0-9.987 4.478-9.987 10v50.726c0 5.523 4.477 10 10 10h2.616c5.523 0 10-4.477 10-10V58.056c0-5.523 4.473-10 9.996-10h46.62c5.522 0 9.997 4.477 9.997 10v27.287c0 5.523 4.477 10 10 10h2.982c5.54 0 10.025-4.491 10.005-10.031z" fill="#FF9090"/></g><g filter="url(#filter3_d)"><path d="M61.255 139.877l-.095-.971a10 10 0 00-9.952-9.024H33.672c-5.831 0-10.426 4.969-9.97 10.782l.076.971a10 10 0 009.97 9.218h17.555c5.908 0 10.529-5.096 9.952-10.976z" fill="#6CB2C3"/></g><g filter="url(#filter4_d)"><path d="M56.577 111.376l-9.046 18.093h4.112l10.28-18.093h-5.346z" fill="#3C3D75"/></g><g filter="url(#filter5_d)"><path d="M43.417 109.733L40.95 129.06l-3.7.822 1.644-20.149h4.523z" fill="#3C3D75"/></g><g filter="url(#filter6_d)"><path d="M37.72 113.435h23.379l6.168-11.925-.268-.107a10.01 10.01 0 00-3.714-.715H45.756a10 10 0 00-7.808 3.753l-2.843 3.554a3.349 3.349 0 002.615 5.44z" fill="#6CB2C3"/></g><g filter="url(#filter7_d)"><path d="M71.79 66.97c-2.348-.683-3.316 2.306-5.756 2.467-2.889.19-4.178-3.155-6.99-2.468-2.218.542-4.524 1.419-4.524 3.701 0 5.757 1.645 7.222 4.935 9.458 3.344 2.272 10.28 1.233 10.28 1.233l2.334 2.853a10 10 0 01.135 12.495l-2.47 3.156 1.234 4.112 6.046-8.274a8.172 8.172 0 00-.49-10.25l-4.734-5.325s2.578-3.08 2.879-4.935c.549-3.388.418-7.265-2.879-8.224z" fill="#3C3D75"/></g><g filter="url(#filter8_d)"><path d="M67.268 101.509c.686-.411 2.139-1.316 2.468-1.645l1.644 2.879.047.468a10 10 0 01-1.71 6.661l-2.449 3.562-5.65 7.909a5.64 5.64 0 01-6.686 1.959l12.336-21.793z" fill="#3C3D75"/></g><defs><filter id="filter0_d" x="28.373" y="116.071" width="119.509" height="36.859" filterUnits="userSpaceOnUse" color-interpolation-filters="sRGB"><feFlood flood-opacity="0" result="BackgroundImageFix"/><feColorMatrix in="SourceAlpha" values="0 0 0 0 0 0 0 0 0 0 0 0 0 0 0 0 0 0 127 0"/><feOffset dx="4" dy="4"/><feGaussianBlur stdDeviation="5"/><feColorMatrix values="0 0 0 0 0 0 0 0 0 0 0 0 0 0 0 0 0 0 0.25 0"/><feBlend in2="BackgroundImageFix" result="effect1_dropShadow"/><feBlend in="SourceGraphic" in2="effect1_dropShadow" result="shape"/></filter><filter id="filter1_d" x="18.503" y="-4" width="168.03" height="45.905" filterUnits="userSpaceOnUse" color-interpolation-filters="sRGB"><feFlood flood-opacity="0" result="BackgroundImageFix"/><feColorMatrix in="SourceAlpha" values="0 0 0 0 0 0 0 0 0 0 0 0 0 0 0 0 0 0 127 0"/><feOffset dx="4" dy="4"/><feGaussianBlur stdDeviation="5"/><feColorMatrix values="0 0 0 0 0 0 0 0 0 0 0 0 0 0 0 0 0 0 0.25 0"/><feBlend in2="BackgroundImageFix" result="effect1_dropShadow"/><feBlend in="SourceGraphic" in2="effect1_dropShadow" result="shape"/></filter><filter id="filter2_d" x="0" y="18.617" width="132.216" height="90.726" filterUnits="userSpaceOnUse" color-interpolation-filters="sRGB"><feFlood flood-opacity="0" result="BackgroundImageFix"/><feColorMatrix in="SourceAlpha" values="0 0 0 0 0 0 0 0 0 0 0 0 0 0 0 0 0 0 127 0"/><feOffset dx="4" dy="4"/><feGaussianBlur stdDeviation="5"/><feColorMatrix values="0 0 0 0 0 0 0 0 0 0 0 0 0 0 0 0 0 0 0.25 0"/><feBlend in2="BackgroundImageFix" result="effect1_dropShadow"/><feBlend in="SourceGraphic" in2="effect1_dropShadow" result="shape"/></filter><filter id="filter3_d" x="17.671" y="123.882" width="57.633" height="40.971" filterUnits="userSpaceOnUse" color-interpolation-filters="sRGB"><feFlood flood-opacity="0" result="BackgroundImageFix"/><feColorMatrix in="SourceAlpha" values="0 0 0 0 0 0 0 0 0 0 0 0 0 0 0 0 0 0 127 0"/><feOffset dx="4" dy="4"/><feGaussianBlur stdDeviation="5"/><feColorMatrix values="0 0 0 0 0 0 0 0 0 0 0 0 0 0 0 0 0 0 0.25 0"/><feBlend in2="BackgroundImageFix" result="effect1_dropShadow"/><feBlend in="SourceGraphic" in2="effect1_dropShadow" result="shape"/></filter><filter id="filter4_d" x="41.531" y="105.376" width="34.392" height="38.093" filterUnits="userSpaceOnUse" color-interpolation-filters="sRGB"><feFlood flood-opacity="0" result="BackgroundImageFix"/><feColorMatrix in="SourceAlpha" values="0 0 0 0 0 0 0 0 0 0 0 0 0 0 0 0 0 0 127 0"/><feOffset dx="4" dy="4"/><feGaussianBlur stdDeviation="5"/><feColorMatrix values="0 0 0 0 0 0 0 0 0 0 0 0 0 0 0 0 0 0 0.25 0"/><feBlend in2="BackgroundImageFix" result="effect1_dropShadow"/><feBlend in="SourceGraphic" in2="effect1_dropShadow" result="shape"/></filter><filter id="filter5_d" x="31.249" y="103.733" width="26.168" height="40.148" filterUnits="userSpaceOnUse" color-interpolation-filters="sRGB"><feFlood flood-opacity="0" result="BackgroundImageFix"/><feColorMatrix in="SourceAlpha" values="0 0 0 0 0 0 0 0 0 0 0 0 0 0 0 0 0 0 127 0"/><feOffset dx="4" dy="4"/><feGaussianBlur stdDeviation="5"/><feColorMatrix values="0 0 0 0 0 0 0 0 0 0 0 0 0 0 0 0 0 0 0.25 0"/><feBlend in2="BackgroundImageFix" result="effect1_dropShadow"/><feBlend in="SourceGraphic" in2="effect1_dropShadow" result="shape"/></filter><filter id="filter6_d" x="28.371" y="94.688" width="52.895" height="32.747" filterUnits="userSpaceOnUse" color-interpolation-filters="sRGB"><feFlood flood-opacity="0" result="BackgroundImageFix"/><feColorMatrix in="SourceAlpha" values="0 0 0 0 0 0 0 0 0 0 0 0 0 0 0 0 0 0 127 0"/><feOffset dx="4" dy="4"/><feGaussianBlur stdDeviation="5"/><feColorMatrix values="0 0 0 0 0 0 0 0 0 0 0 0 0 0 0 0 0 0 0.25 0"/><feBlend in2="BackgroundImageFix" result="effect1_dropShadow"/><feBlend in="SourceGraphic" in2="effect1_dropShadow" result="shape"/></filter><filter id="filter7_d" x="48.52" y="60.868" width="44.068" height="57.109" filterUnits="userSpaceOnUse" color-interpolation-filters="sRGB"><feFlood flood-opacity="0" result="BackgroundImageFix"/><feColorMatrix in="SourceAlpha" values="0 0 0 0 0 0 0 0 0 0 0 0 0 0 0 0 0 0 127 0"/><feOffset dx="4" dy="4"/><feGaussianBlur stdDeviation="5"/><feColorMatrix values="0 0 0 0 0 0 0 0 0 0 0 0 0 0 0 0 0 0 0.25 0"/><feBlend in2="BackgroundImageFix" result="effect1_dropShadow"/><feBlend in="SourceGraphic" in2="effect1_dropShadow" result="shape"/></filter><filter id="filter8_d" x="48.933" y="93.864" width="36.544" height="43.842" filterUnits="userSpaceOnUse" color-interpolation-filters="sRGB"><feFlood flood-opacity="0" result="BackgroundImageFix"/><feColorMatrix in="SourceAlpha" values="0 0 0 0 0 0 0 0 0 0 0 0 0 0 0 0 0 0 127 0"/><feOffset dx="4" dy="4"/><feGaussianBlur stdDeviation="5"/><feColorMatrix values="0 0 0 0 0 0 0 0 0 0 0 0 0 0 0 0 0 0 0.25 0"/><feBlend in2="BackgroundImageFix" result="effect1_dropShadow"/><feBlend in="SourceGraphic" in2="effect1_dropShadow" result="shape"/></filter></defs></svg>