<svg width="211" height="211" fill="none" xmlns="http://www.w3.org/2000/svg"><path d="M69.103 33.337l12.375-21.64 12.753 4.9L80.825 40.04l-11.722-6.703z" fill="#3C3D75"/><g filter="url(#filter0_d)"><path d="M65.188-7.942l32.419-56.691 10.79 13.056-22.39 39.152C83.268-7.63 84.93-1.522 89.726 1.22l3.595 2.056c4.795 2.742 6.459 8.851 3.717 13.645L69.931 64.323l-7.28 1.221 22.364-39.108c2.742-4.794 1.078-10.904-3.716-13.645L68.904 5.703c-4.794-2.741-6.458-8.85-3.716-13.645z" fill="#6CB2C3"/></g><g filter="url(#filter1_d)"><ellipse cx="71.423" cy="51.627" rx="9.983" ry="15.388" transform="rotate(27.537 71.423 51.627)" fill="#3C3D75"/></g><g filter="url(#filter2_d)"><path d="M24.456 49.686L37.61 14.132l42.83 24.492s1.287 6.12-4.128 15.588c-4.64 8.115-11.083 11.012-11.083 11.012l-20.551 5.598-20.22-21.136z" fill="#6CB2C3"/></g><g filter="url(#filter3_d)"><path d="M106.943-49.91l-9.337-14.723 96.801-2.527a10 10 0 016.555 2.226l9.276 7.514a10 10 0 013.161 11.024l-46.14 134.069-11.722-6.703 35.858-117.06c1.955-6.38-2.769-12.848-9.442-12.927l-75.01-.892z" fill="#6CB2C3"/></g><g filter="url(#filter4_d)"><path d="M149.018 118.522c6.265-10.956 20.226-14.758 31.181-8.493l81.32 46.503a4.999 4.999 0 011.859 6.822l-17.724 30.994a5 5 0 01-6.822 1.858l-81.32-46.503c-10.956-6.265-14.759-20.225-8.494-31.181z" fill="#6CB2C3"/></g><g filter="url(#filter5_d)"><rect x="154.957" y="78.843" width="124.645" height="14.542" rx="5" transform="rotate(29.763 154.957 78.843)" fill="#6CB2C3"/></g><g filter="url(#filter6_d)"><path d="M47.7 83.318l-4.696-20.035s3.175-3.444 8.376-4.185c5.862-.835 10.95 3.869 10.95 3.869l3.15 18.553-17.78 1.798z" fill="#6CB2C3"/></g><ellipse cx="56.425" cy="81.847" rx="5.453" ry="9.078" transform="rotate(80.45 56.425 81.847)" fill="#3C3D75"/><g filter="url(#filter7_d)"><ellipse cx="31.698" cy="32.227" rx="12.464" ry="19.213" transform="rotate(27.537 31.698 32.227)" fill="#3C3D75"/></g><defs><filter id="filter0_d" x="56.651" y="-70.633" width="65.746" height="150.178" filterUnits="userSpaceOnUse" color-interpolation-filters="sRGB"><feFlood flood-opacity="0" result="BackgroundImageFix"/><feColorMatrix in="SourceAlpha" values="0 0 0 0 0 0 0 0 0 0 0 0 0 0 0 0 0 0 127 0"/><feOffset dx="4" dy="4"/><feGaussianBlur stdDeviation="5"/><feColorMatrix values="0 0 0 0 0 0 0 0 0 0 0 0 0 0 0 0 0 0 0.25 0"/><feBlend in2="BackgroundImageFix" result="effect1_dropShadow"/><feBlend in="SourceGraphic" in2="effect1_dropShadow" result="shape"/></filter><filter id="filter1_d" x="54.066" y="31.219" width="42.714" height="48.816" filterUnits="userSpaceOnUse" color-interpolation-filters="sRGB"><feFlood flood-opacity="0" result="BackgroundImageFix"/><feColorMatrix in="SourceAlpha" values="0 0 0 0 0 0 0 0 0 0 0 0 0 0 0 0 0 0 127 0"/><feOffset dx="4" dy="4"/><feGaussianBlur stdDeviation="5"/><feColorMatrix values="0 0 0 0 0 0 0 0 0 0 0 0 0 0 0 0 0 0 0.25 0"/><feBlend in2="BackgroundImageFix" result="effect1_dropShadow"/><feBlend in="SourceGraphic" in2="effect1_dropShadow" result="shape"/></filter><filter id="filter2_d" x="18.456" y="8.132" width="76.116" height="76.69" filterUnits="userSpaceOnUse" color-interpolation-filters="sRGB"><feFlood flood-opacity="0" result="BackgroundImageFix"/><feColorMatrix in="SourceAlpha" values="0 0 0 0 0 0 0 0 0 0 0 0 0 0 0 0 0 0 127 0"/><feOffset dx="4" dy="4"/><feGaussianBlur stdDeviation="5"/><feColorMatrix values="0 0 0 0 0 0 0 0 0 0 0 0 0 0 0 0 0 0 0.25 0"/><feBlend in2="BackgroundImageFix" result="effect1_dropShadow"/><feBlend in="SourceGraphic" in2="effect1_dropShadow" result="shape"/></filter><filter id="filter3_d" x="91.606" y="-73.164" width="136.337" height="174.837" filterUnits="userSpaceOnUse" color-interpolation-filters="sRGB"><feFlood flood-opacity="0" result="BackgroundImageFix"/><feColorMatrix in="SourceAlpha" values="0 0 0 0 0 0 0 0 0 0 0 0 0 0 0 0 0 0 127 0"/><feOffset dx="4" dy="4"/><feGaussianBlur stdDeviation="5"/><feColorMatrix values="0 0 0 0 0 0 0 0 0 0 0 0 0 0 0 0 0 0 0.25 0"/><feBlend in2="BackgroundImageFix" result="effect1_dropShadow"/><feBlend in="SourceGraphic" in2="effect1_dropShadow" result="shape"/></filter><filter id="filter4_d" x="140" y="101.011" width="138.038" height="109.856" filterUnits="userSpaceOnUse" color-interpolation-filters="sRGB"><feFlood flood-opacity="0" result="BackgroundImageFix"/><feColorMatrix in="SourceAlpha" values="0 0 0 0 0 0 0 0 0 0 0 0 0 0 0 0 0 0 127 0"/><feOffset dx="4" dy="4"/><feGaussianBlur stdDeviation="5"/><feColorMatrix values="0 0 0 0 0 0 0 0 0 0 0 0 0 0 0 0 0 0 0.25 0"/><feBlend in2="BackgroundImageFix" result="effect1_dropShadow"/><feBlend in="SourceGraphic" in2="effect1_dropShadow" result="shape"/></filter><filter id="filter5_d" x="143.56" y="74.665" width="131.778" height="90.856" filterUnits="userSpaceOnUse" color-interpolation-filters="sRGB"><feFlood flood-opacity="0" result="BackgroundImageFix"/><feColorMatrix in="SourceAlpha" values="0 0 0 0 0 0 0 0 0 0 0 0 0 0 0 0 0 0 127 0"/><feOffset dx="4" dy="4"/><feGaussianBlur stdDeviation="5"/><feColorMatrix values="0 0 0 0 0 0 0 0 0 0 0 0 0 0 0 0 0 0 0.25 0"/><feBlend in2="BackgroundImageFix" result="effect1_dropShadow"/><feBlend in="SourceGraphic" in2="effect1_dropShadow" result="shape"/></filter><filter id="filter6_d" x="37.004" y="52.999" width="42.476" height="44.319" filterUnits="userSpaceOnUse" color-interpolation-filters="sRGB"><feFlood flood-opacity="0" result="BackgroundImageFix"/><feColorMatrix in="SourceAlpha" values="0 0 0 0 0 0 0 0 0 0 0 0 0 0 0 0 0 0 127 0"/><feOffset dx="4" dy="4"/><feGaussianBlur stdDeviation="5"/><feColorMatrix values="0 0 0 0 0 0 0 0 0 0 0 0 0 0 0 0 0 0 0.25 0"/><feBlend in2="BackgroundImageFix" result="effect1_dropShadow"/><feBlend in="SourceGraphic" in2="effect1_dropShadow" result="shape"/></filter><filter id="filter7_d" x="11.518" y="8.237" width="48.36" height="55.979" filterUnits="userSpaceOnUse" color-interpolation-filters="sRGB"><feFlood flood-opacity="0" result="BackgroundImageFix"/><feColorMatrix in="SourceAlpha" values="0 0 0 0 0 0 0 0 0 0 0 0 0 0 0 0 0 0 127 0"/><feOffset dx="4" dy="4"/><feGaussianBlur stdDeviation="5"/><feColorMatrix values="0 0 0 0 0 0 0 0 0 0 0 0 0 0 0 0 0 0 0.25 0"/><feBlend in2="BackgroundImageFix" result="effect1_dropShadow"/><feBlend in="SourceGraphic" in2="effect1_dropShadow" result="shape"/></filter></defs></svg>