<svg width="942" height="792" viewBox="0 0 942 792" fill="none" xmlns="http://www.w3.org/2000/svg">
<mask id="mask0" mask-type="alpha" maskUnits="userSpaceOnUse" x="0" y="0" width="942" height="792">
<rect width="942" height="792" rx="30" fill="#33386F"/>
</mask>
<g mask="url(#mask0)">
<path d="M454.576 -161.315C449.697 -175.143 439.419 -195.669 439.419 -195.669L398.549 -173.86C398.549 -173.86 408.461 -156.058 413.56 -144.07C442.673 -75.6203 388.731 -24.526 447.414 42.4639C493.178 94.7077 563.158 36.5551 616.089 81.5225C674.711 131.324 617.169 221.154 678.616 267.424C738.651 312.631 820.117 242.714 874.403 276.656C912.96 300.763 891.628 354.537 929.973 378.981C951.974 393.006 994.074 397.818 994.074 397.818L1068.63 388.294C1068.63 388.294 985.503 352.519 965.703 332.328C934.303 300.307 940.106 266.362 904.363 239.275C851.303 199.063 782.64 263.552 725.861 228.787C654.845 185.305 721.077 77.2968 653.921 28.0632C599.427 -11.8876 531.025 40.1776 487.443 0.559803C439.619 -42.9136 476.077 -100.367 454.576 -161.315Z" fill="#3B417F"/>
<path d="M371.14 -78.8262C366.262 -92.6548 355.984 -113.181 355.984 -113.181L315.114 -91.3717C315.114 -91.3717 325.026 -73.5692 330.125 -61.581C359.238 6.86834 304.523 70.0784 363.205 137.068C408.97 189.312 478.949 131.159 531.881 176.127C590.502 225.928 532.96 315.758 594.407 362.028C654.442 407.235 735.908 337.318 790.194 371.26C805.08 380.567 813.375 396.812 820.155 414.657C825.323 428.261 818.562 378.183 842.102 393.19C823.887 386.567 868.767 420.812 860.197 402.171C848.936 377.677 840.451 349.26 820.155 333.879C767.094 293.667 698.431 358.156 641.652 323.391C570.636 279.91 636.868 171.901 569.712 122.668C515.218 82.7168 446.816 134.782 403.234 95.1642C355.411 51.6908 392.642 -17.878 371.14 -78.8262Z" fill="#3B417F"/>
<path d="M568.929 -85.6708C522.831 -138.266 628.604 -222.523 628.604 -222.523L494.26 -255.732C494.26 -255.732 525.93 -202.305 528.648 -183.093C535.487 -134.755 487.117 -68.2072 538.27 -35.8794C577.316 -11.2034 647.868 -54.6045 702.244 -17.1759C770.973 30.131 692.63 143.46 783.044 188.77C836.533 215.575 896.773 157.879 946.941 190.478C984.976 215.194 985.184 272.951 1000.19 293.369C1034.95 340.654 1140.57 340.654 1140.57 340.654L1142.28 276.762C1142.28 276.762 1050.74 293.369 1017.13 239.046C1001.61 213.971 1003.71 167.632 960.04 145.745C906.85 119.09 853.641 183.014 804.626 149.292C743.539 107.264 808.457 -5.04596 735.175 -55.2676C685.934 -89.0139 603.765 -45.9243 568.929 -85.6708Z" fill="#3B417F"/>
</g>
</svg>
