<svg width="762" height="667" viewBox="0 0 762 667" fill="none" xmlns="http://www.w3.org/2000/svg" xmlns:xlink="http://www.w3.org/1999/xlink">
<g clip-path="url(#clip0)">
<g filter="url(#filter0_d)">
<path d="M206.624 39.0849C169.424 65.8985 161.047 142.941 125.32 202.921C109.334 229.759 88.919 249.623 70.2283 268.663C44.224 295.153 18.0632 336.572 20.9667 386.895C23.8702 437.218 84.472 487.14 138.682 505.67C192.892 524.201 235.733 510.116 291.132 537.269C314.731 548.836 325.021 560.724 348.709 572.108C402.817 598.111 457.722 620.737 515.306 633.033C527.004 635.531 587.676 646.676 609.096 618.423C638.548 579.575 570.306 538.129 527.203 505.907C490.374 478.376 419.844 440.054 446.219 397.089C472.521 354.241 527.075 391.784 579.726 419.103C626.355 443.298 688.833 485.122 714.142 444.815C734.209 412.855 700.222 370.125 677.937 342.634C636.731 291.802 554.617 231.806 554.617 231.806C554.617 231.806 521.096 207.798 499.828 192.359C442.969 151.085 438.334 98.155 381.55 56.7777C330.6 19.6516 263.989 -2.26454 206.624 39.0849Z" fill="white"/>
</g>
<mask id="mask0" mask-type="alpha" maskUnits="userSpaceOnUse" x="20" y="16" width="701" height="622">
<path d="M206.628 39.0839C169.428 65.8975 161.051 142.94 125.324 202.92C109.338 229.758 88.9231 249.622 70.2323 268.662C44.2281 295.152 18.0672 336.571 20.9707 386.894C23.8743 437.217 84.476 487.139 138.686 505.669C192.896 524.2 235.737 510.115 291.136 537.268C314.735 548.835 325.025 560.723 348.713 572.107C402.821 598.11 457.726 620.736 515.31 633.032C527.008 635.53 587.68 646.675 609.1 618.422C638.552 579.574 570.31 538.128 527.207 505.906C490.378 478.375 419.849 440.053 446.223 397.088C472.525 354.24 527.079 391.783 579.73 419.102C626.359 443.297 688.837 485.121 714.146 444.815C734.213 412.854 700.226 370.124 677.941 342.633C636.735 291.801 554.621 231.805 554.621 231.805C554.621 231.805 521.1 207.797 499.832 192.358C442.973 151.084 438.338 98.154 381.554 56.7767C330.604 19.6506 263.993 -2.26552 206.628 39.0839Z" fill="#F9F7F7"/>
</mask>
<g mask="url(#mask0)">
<rect x="245.76" y="59.7045" width="632.861" height="283" transform="rotate(90 245.76 59.7045)" fill="url(#pattern0)" fill-opacity="0.05"/>
<rect x="527.76" y="25.7119" width="632.861" height="282" transform="rotate(90 527.76 25.7119)" fill="url(#pattern1)" fill-opacity="0.05"/>
<rect x="809.76" y="35.7097" width="632.861" height="282" transform="rotate(90 809.76 35.7097)" fill="url(#pattern2)" fill-opacity="0.05"/>
</g>
<mask id="mask1" mask-type="alpha" maskUnits="userSpaceOnUse" x="196" y="149" width="226" height="226">
<circle r="112.14" transform="matrix(-0.517684 0.855572 0.855572 0.517684 308.879 262.103)" fill="#C4C4C4"/>
</mask>
<g mask="url(#mask1)">
<mask id="mask2" mask-type="alpha" maskUnits="userSpaceOnUse" x="-157" y="154" width="883" height="740">
<path d="M725.539 569.106L39.8204 154.195L-156.606 478.828L529.113 893.738L725.539 569.106Z" fill="#C4C4C4"/>
</mask>
<g mask="url(#mask2)">
<g filter="url(#filter1_d)">
<path d="M14.1544 334.181C-2.79593 410.329 60.7959 473.402 140.495 500.77C186.789 516.668 239.75 537.022 290.707 556.156C365.697 584.314 448.404 619.923 492.675 628.034C543.784 637.397 576.108 641.702 590.363 617.769C603.596 595.551 591.907 575.252 569.909 558.901C541.41 537.719 517.82 515.633 483.894 489.529C439.447 455.331 402.035 419.938 422.635 385.353C434.535 365.373 463.618 360.027 542.437 392.775C591.742 409.622 622.027 421.537 647.039 431.428C664.89 438.488 695.979 443.218 713.393 414.438C734.494 379.564 609.485 289.185 567.258 257.343C531.908 230.688 505.054 206.264 486.391 188.276C436.33 140.027 427.015 120.058 381.384 78.6542C337.455 38.7958 243.906 -9.27315 176.149 62.1981C129.836 111.051 151.261 146.273 120.541 197.851C89.4927 249.981 33.5208 247.179 14.1544 334.181Z" fill="white"/>
</g>
<g filter="url(#filter2_i)">
<path d="M267.492 82.179C205.665 117.569 215.161 179.236 180.593 235.655C148.312 288.34 86.917 314.076 84.3962 376.967C82.3452 428.135 139.1 467.439 165.457 479.586C273.946 529.584 343.138 546.592 443.795 594.09C509.215 624.96 577.923 629.028 578.949 601.058C579.974 573.088 491.467 514.923 453.725 488.541C415.983 462.159 378.899 413.964 404.18 371.519C426.031 334.832 485.421 353.881 526.001 367.193C560.849 378.624 680.54 433.547 695.313 408.744C714.854 375.935 577.759 294.417 504.989 232.742C420.618 161.234 323.156 50.3164 267.492 82.179Z" fill="#FD9394"/>
</g>
<g filter="url(#filter3_i)">
<path d="M252.641 497.818C266.948 500.712 386.179 533.66 386.179 533.66L295.682 418.223C295.682 418.223 255.811 213.936 220.682 264.919C203.702 289.561 192.14 295.924 160.226 314.034C146.597 321.767 122.282 335.974 111.024 373.533C98.9388 413.851 136.629 450.085 163.804 455.658C174.884 457.929 191.455 460.579 202.819 467.223C221.278 478.016 234.622 494.175 252.641 497.818Z" fill="#FF9090"/>
</g>
<g filter="url(#filter4_i)">
<path d="M239.957 471.775C255.508 486.692 350.252 503.721 350.252 503.721L251.905 338.651C251.905 338.651 229.631 304.224 202.168 314.55C187.746 319.973 173.097 316.048 161.004 334.188C115.134 402.995 165.107 437.632 188.078 445.814C201.922 450.745 214.2 447.855 222.544 451.778C229.013 454.819 231.691 463.845 239.957 471.775Z" fill="#FF9090"/>
</g>
<g filter="url(#filter5_i)">
<path d="M434.379 191.33C443.473 202.76 485.346 251.027 533.568 295.669C577.388 336.236 385.342 266.39 385.342 266.39C385.342 266.39 185.297 324.961 216.745 272.161C238.593 235.48 233.718 224.07 234.685 187.259C235.098 171.539 234.385 147.014 259.86 121.506C289.176 92.1528 339.639 109.833 356.979 131.507C386.248 168.092 415.876 168.075 434.379 191.33Z" fill="#FF9090"/>
</g>
<g filter="url(#filter6_i)">
<path d="M416.69 197.773C436.76 204.773 484.454 275.679 484.454 275.679L296.333 263.991C296.333 263.991 232.786 261.254 238.309 232.8C240.854 219.691 249.161 197.785 254.793 176.722C274.967 101.269 346.403 137.787 359.646 157.69C368.561 171.088 382.132 190.15 389.987 192.11C397.842 194.071 407.455 194.552 416.69 197.773Z" fill="#FF9090"/>
</g>
<g filter="url(#filter7_i)">
<path d="M375.425 428.005C383.166 443.864 367.725 461.131 410.368 503.779C428.684 522.096 355.935 465.777 355.935 465.777L306.099 398.597L309.602 322.023L387.872 261.303C387.872 261.303 557.459 327.512 520.855 318.275C484.252 309.038 455.913 318.116 439.909 319.739C423.905 321.362 413.364 311.923 402.305 315.97C386.849 321.625 388.416 339.289 377.96 356.843C366.564 375.977 348.712 375.276 353.582 397.773C356.602 411.723 369.081 415.009 375.425 428.005Z" fill="#FF9090"/>
</g>
<g filter="url(#filter8_i)">
<path d="M278.764 159.193C243.164 179.358 246.196 224.603 225.417 259.491C203.331 296.573 167.492 314.585 155.824 346.038C136.58 397.916 200.752 436.607 236.858 425.219C248.105 421.671 262.523 416.212 270.762 426.996C279 437.781 276.994 458.96 353.821 513.505C430.649 568.05 580.285 619.294 580.285 619.294C580.285 619.294 582.863 615.894 585.592 613.192C590.183 608.645 590.21 605.439 590.21 605.439C590.21 605.439 458.243 549.517 392.974 485.777C343.432 437.397 320.406 397.066 354.203 341.183C389.579 282.688 444.056 292.004 511.585 315.057C587.938 341.124 674.082 410.7 674.082 410.7C674.082 410.7 678.792 409.508 680.075 405.674C681.358 401.839 682.307 398.15 682.307 398.15C682.307 398.15 596.759 326.058 526.443 290.111L525.677 289.72C485.132 268.991 426.486 239.009 389.852 240.303C370.708 240.979 373.963 220.408 372.766 205.87C370.169 174.323 324.804 133.115 278.764 159.193Z" fill="#FF9090"/>
</g>
<path d="M204.06 325.778C211.037 308.7 225.603 296.22 225.603 296.22C225.603 296.22 214.382 309.137 207.959 325.843C201.868 341.687 202.272 370.921 227.342 389.473C255.777 410.516 313.522 411.25 340.986 444.284L342.829 451.884C310.39 415.794 261.146 416.004 225.412 393.602C202.032 378.944 195.458 346.833 204.06 325.778Z" fill="#E4140D"/>
<path d="M263.819 224.766C253.612 235.562 246.859 259.797 246.859 259.797C246.859 259.797 255.811 236.785 266.678 226.521C279.352 214.55 306.054 199.819 334.033 217.001C362.966 234.768 374.46 278.338 420.749 295.1L424.367 293.436C379.845 273.869 373.765 237.214 336.165 213.422C311.564 197.854 278.958 208.752 263.819 224.766Z" fill="#E4140D"/>
<path d="M361.329 491.515C419.776 570.711 583.852 608.888 583.852 608.888L587.045 605.599C587.045 605.599 421.273 568.647 363.489 488.951C332.55 446.279 347.98 395.751 297.3 382.139C281.447 377.881 270.348 387.865 254.816 382.4C244.27 378.69 231.213 366.27 231.213 366.27C231.213 366.27 243.02 379.797 253.049 384.498C267.643 391.339 278.165 382.136 293.569 386.567C343.634 400.967 330.274 449.434 361.329 491.515Z" fill="#E4160E"/>
<path d="M295.446 368.285C297.6 376.713 305.622 386.306 305.622 386.306L316.229 392.779C316.229 392.779 300.674 377.969 298.898 367.197C296.896 355.049 310.409 349.396 307.036 337.47C304.639 328.993 293.449 318.983 293.449 318.983C293.449 318.983 303.035 330.232 304.669 338.273C307.169 350.573 292.33 356.089 295.446 368.285Z" fill="#E4160E"/>
<path d="M283.716 381.762C289.185 385.992 298.581 388.078 298.581 388.078L307.877 386.939C307.877 386.939 291.567 385.274 285.133 379.388C277.876 372.75 282.72 362.584 274.796 356.757C269.163 352.615 257.754 351.82 257.754 351.82C257.754 351.82 268.874 354.178 273.853 358.42C281.469 364.909 275.801 375.64 283.716 381.762Z" fill="#E4160E"/>
<g filter="url(#filter9_d)">
<path d="M361.567 490.855C427.694 564.117 587.145 608.409 587.145 608.409L591.031 605.302C591.031 605.302 430.226 560.124 363.845 487.029C339.797 460.548 331.651 422.463 320.451 396.395C315.39 384.615 314.299 370.328 305.024 367.836C289.171 363.578 278.072 373.563 262.539 368.098C251.994 364.387 238.936 351.967 238.936 351.967C238.936 351.967 250.744 365.494 260.772 370.195C275.367 377.036 285.889 367.833 301.293 372.264C309.471 374.616 310.267 388.121 315.329 398.879C327.324 424.372 336.491 463.075 361.567 490.855Z" fill="#6896A2"/>
<path d="M303.171 353.983C305.324 362.411 306.765 376.471 306.765 376.471L315.376 381.759C315.376 381.759 308.398 363.667 306.623 352.895C304.621 340.746 318.133 335.094 314.761 323.168C312.364 314.691 301.174 304.68 301.174 304.68C301.174 304.68 310.76 315.93 312.394 323.971C314.894 336.271 300.055 341.787 303.171 353.983Z" fill="#6896A2"/>
<path d="M291.441 367.46C296.911 371.691 306.307 373.777 306.307 373.777L312.366 374.19C312.366 374.19 299.292 370.973 292.858 365.087C285.602 358.449 290.445 348.282 282.521 342.456C276.888 338.314 265.479 337.519 265.479 337.519C265.479 337.519 276.599 339.877 281.578 344.119C289.194 350.608 283.527 361.339 291.441 367.46Z" fill="#6896A2"/>
</g>
<path d="M478.837 287.605C575.192 297.731 684.515 410.191 684.515 410.191L682.353 412.581C682.353 412.581 574.236 300.097 477.804 290.805C426.171 285.83 392.959 315.926 355.486 278.809C343.764 267.199 346.408 252.397 333.841 241.688C325.308 234.417 308.194 229.44 308.194 229.44C308.194 229.44 325.591 232.758 334.686 239.07C347.922 248.255 345.636 262.152 357.272 273.283C395.088 309.458 427.64 282.225 478.837 287.605Z" fill="#E4160E"/>
<path d="M342.938 284.328C351.1 281.865 363.257 283.912 363.257 283.912L374.132 289.816C374.132 289.816 353.733 283.895 343.805 287.893C332.608 292.402 334.831 307.075 323.115 310.276C314.788 312.552 300.652 307.962 300.652 307.962C300.652 307.962 314.999 310.518 322.569 307.802C334.149 303.649 331.128 287.891 342.938 284.328Z" fill="#E4160E"/>
<path d="M348.179 267.183C354.534 269.768 361.115 276.875 361.115 276.875L364.946 285.554C364.946 285.554 355.158 272.211 346.921 269.638C337.632 266.737 331.617 276.186 322.663 272.286C316.298 269.514 309.761 259.99 309.761 259.99C309.761 259.99 317.457 268.458 323.57 270.609C332.919 273.9 338.982 263.443 348.179 267.183Z" fill="#E4160E"/>
<g filter="url(#filter10_d)">
<path d="M479.767 283.949C559.791 299.61 683.074 412.632 683.074 412.632L684.848 417.859C684.848 417.859 556.826 304.589 478.733 287.149C427.787 275.772 401.043 303.918 348.404 291.921C332.48 288.292 339.326 265.509 326.759 254.8C318.227 247.528 301.113 242.552 301.113 242.552C301.113 242.552 318.51 245.87 327.605 252.182C340.841 261.367 334.597 283.182 350.19 286.394C400.043 296.665 429.014 274.017 479.767 283.949Z" fill="#6896A2"/>
<path d="M335.856 297.438C344.018 294.975 361.862 290.171 361.862 290.171L376.741 294.914C376.741 294.914 346.651 297.005 336.723 301.003C325.526 305.512 327.749 320.185 316.034 323.387C307.706 325.662 293.57 321.072 293.57 321.072C293.57 321.072 307.917 323.628 315.487 320.913C327.067 316.759 324.046 301.002 335.856 297.438Z" fill="#6896A2"/>
<path d="M316.49 283.716C325.84 287.007 331.903 276.55 341.099 280.29L339.842 282.745C330.553 279.844 324.538 289.293 315.583 285.393C309.219 282.62 302.682 273.097 302.682 273.097C302.682 273.097 310.378 281.564 316.49 283.716Z" fill="#6896A2"/>
</g>
</g>
<mask id="mask3" mask-type="alpha" maskUnits="userSpaceOnUse" x="40" y="-174" width="873" height="752">
<path d="M720.507 577.366L40.1781 153.407L232.104 -173.989L912.432 249.97L720.507 577.366Z" fill="#C4C4C4"/>
</mask>
<g mask="url(#mask3)">
<g filter="url(#filter11_d)">
<path d="M185.239 46.7438C243.784 -3.86168 328.327 24.0336 389.21 82.994C424.574 117.242 466.922 155.416 507.274 192.353C566.659 246.713 636.126 304.552 663.759 340.596C695.661 382.208 714.426 409.277 700.172 433.21C686.939 455.428 663.805 454.343 639.328 442.154C607.619 426.363 577.4 415.406 538.878 397.02C488.409 372.932 440.165 355.725 419.566 390.311C407.666 410.29 416.51 438.927 481.675 494.598C519.266 531.112 543.723 552.813 563.965 570.711C578.413 583.486 596.976 609.247 579.961 638.272C559.343 673.442 422.46 602.998 375.078 579.811C335.414 560.401 301.64 547.595 277.284 539.165C211.954 516.554 190.21 517.451 132.907 495.644C77.7422 474.65 -7.62723 412.848 23.2445 318.727C44.3461 254.392 85.0168 257.302 115.737 205.724C146.786 153.595 118.349 104.563 185.239 46.7438Z" fill="white"/>
</g>
<g filter="url(#filter12_i)">
<path d="M83.092 391.59C85.2474 319.556 143.442 299.458 176.598 242.172C207.56 188.676 201.495 121.514 255.177 90.0414C298.854 64.4351 359.492 97.2198 382.326 115.281C476.316 189.622 523.283 243.945 611.454 312.404C668.76 356.898 704.216 416.796 680.297 430.707C656.378 444.618 564.543 392.039 524.006 370.35C483.469 348.662 424.212 337.695 398.931 380.141C377.08 416.827 421.275 461.388 451.731 491.698C477.884 517.728 581.372 599.855 566.599 624.658C547.058 657.467 412.292 572.039 324.705 535.241C223.154 492.577 81.1514 456.443 83.092 391.59Z" fill="#FD9394"/>
</g>
<g filter="url(#filter13_i)">
<path d="M438.715 185.217C447.883 196.739 531.991 288.658 531.991 288.658L389.28 260.886C389.28 260.886 192.585 319.901 220.738 264.634C234.346 237.922 234.526 224.569 235.501 187.46C235.917 171.613 237.017 143.149 264.547 115.583C294.101 85.9922 343.207 103.059 360.688 124.909C367.814 133.817 377.821 147.488 388.893 154.622C406.879 166.21 427.169 170.706 438.715 185.217Z" fill="#FF9090"/>
</g>
<g filter="url(#filter14_i)">
<path d="M410.109 185.905C430.341 192.962 489.192 270.253 489.192 270.253L299.546 258.47C299.546 258.47 259.175 254.428 255.428 224.937C253.46 209.448 243.234 198.098 253.44 178.799C292.152 105.597 345.57 134.451 363.373 151.308C374.103 161.468 377.285 173.851 384.581 179.533C390.237 183.937 399.353 182.153 410.109 185.905Z" fill="#FF9090"/>
</g>
<g filter="url(#filter15_i)">
<path d="M255.793 490.973C269.986 493.843 331.53 509.083 392.861 531.716C448.593 552.283 298.489 412.019 298.489 412.019C298.489 412.019 256.675 204.926 225.227 257.726C203.379 294.408 191.163 295.323 159.506 313.287C145.987 320.958 124.265 331.706 113.848 366.461C101.86 406.455 140.715 443.624 167.672 449.152C213.173 458.482 226.918 485.134 255.793 490.973Z" fill="#FF9090"/>
</g>
<g filter="url(#filter16_i)">
<path d="M253.2 472.072C268.626 486.869 352.619 496.83 352.619 496.83L255.062 333.088C255.062 333.088 223.164 277.214 200.912 295.394C190.66 303.77 175.411 321.414 159.655 336.26C103.214 389.441 168.239 436.723 191.749 439.389C207.575 441.183 230.503 444.536 235.86 450.689C241.218 456.841 246.101 465.263 253.2 472.072Z" fill="#FF9090"/>
</g>
<g filter="url(#filter17_i)">
<path d="M434.844 328.05C452.271 327.646 460.161 305.742 517.161 324.284C541.644 332.248 458.738 292.982 458.738 292.982L377 279.365L311.839 318.075L295.227 416.658C295.227 416.658 431.729 538.414 406.674 509.788C381.619 481.162 376.377 451.462 370.36 436.316C364.343 421.171 351.216 416.075 349.609 404.25C347.365 387.725 363.498 380.931 373.954 363.376C385.35 344.242 376.449 328.514 398.332 322.447C411.901 318.684 420.563 328.38 434.844 328.05Z" fill="#FF9090"/>
</g>
<g filter="url(#filter18_i)">
<path d="M155.497 365.961C156.553 324.583 197.424 306.298 218.203 271.41C240.29 234.328 239.356 193.735 261.371 168.637C297.682 127.239 361.23 166.978 368.064 204.736C370.193 216.497 372.127 231.998 385.359 234.399C398.591 236.799 416.132 225.16 499.384 268.917C582.637 312.675 696.822 423.439 696.822 423.439C696.822 423.439 695.054 427.336 693.964 431.045C692.131 437.286 689.346 438.799 689.346 438.799C689.346 438.799 579.286 346.096 493.382 317.002C428.178 294.918 382.309 292.941 349.262 349.285C314.671 408.262 348.095 452.925 399.562 502.945C457.756 559.502 558.445 604.657 558.445 604.657C558.445 604.657 559.592 609.446 556.844 612.38C554.095 615.315 551.318 617.882 551.318 617.882C551.318 617.882 448.711 574.43 384.704 527.891L384.007 527.384C347.099 500.55 293.714 461.735 277.83 428.191C269.529 410.661 253.099 423.142 239.863 428.817C211.142 441.132 154.133 419.473 155.497 365.961Z" fill="#FF9090"/>
</g>
<path d="M266.1 221.424C254.445 235.629 250.324 254.523 250.324 254.523C250.324 254.523 256.379 238.434 267.968 224.9C278.959 212.065 304.644 198.852 332.468 212.781C364.026 228.58 391.482 280.166 433.049 289.522L440.534 287.651C393.992 275.24 371.306 230.859 335.173 209.128C311.531 194.91 280.47 203.91 266.1 221.424Z" fill="#E4140D"/>
<path d="M205.748 322.073C210.425 307.881 228.426 290.554 228.426 290.554C228.426 290.554 212.513 309.291 208.607 323.829C204.052 340.786 203.604 371.639 231.583 388.821C260.516 406.587 303.855 396.69 339.971 430.532L340.2 434.558C302.458 403.608 267.664 415.163 229.451 392.4C204.449 377.506 198.812 343.124 205.748 322.073Z" fill="#E4140D"/>
<path d="M483.691 285.884C579.909 301.664 689.402 431.482 689.402 431.482L688.017 435.881C688.017 435.881 578.804 303.969 482.458 289.016C430.872 281.01 393.967 318.351 358.559 279.098C347.483 266.819 351.037 252.201 339.057 240.772C330.924 233.012 314.027 227.038 314.027 227.038C314.027 227.038 331.309 231.374 340.066 238.209C352.81 248.156 349.67 261.892 360.689 273.687C396.498 312.021 432.567 277.499 483.691 285.884Z" fill="#E4160E"/>
<path d="M345.615 283.866C353.966 281.888 366.059 284.648 366.059 284.648L376.63 291.18C376.63 291.18 356.489 284.069 346.269 287.476C334.744 291.317 336.088 306.093 324.12 308.598C315.614 310.379 301.686 304.965 301.686 304.965C301.686 304.965 315.949 308.362 323.721 306.097C335.61 302.633 333.53 286.727 345.615 283.866Z" fill="#E4160E"/>
<path d="M351.919 267.062C358.149 270.016 364.332 277.497 364.332 277.497L367.656 286.385C367.656 286.385 358.629 272.491 350.507 269.438C341.347 265.996 334.73 275.072 325.968 270.652C319.739 267.51 313.748 257.62 313.748 257.62C313.748 257.62 320.969 266.525 326.981 269.032C336.177 272.868 342.904 262.788 351.919 267.062Z" fill="#E4160E"/>
<g filter="url(#filter19_d)">
<path d="M483.224 286.406C577.832 311.85 690.511 434.669 690.511 434.669L689.606 439.607C689.606 439.607 575.525 315.982 480.945 290.232C446.68 280.904 409.68 291.265 381.742 293.3C369.117 294.219 356.149 299.873 349.669 292.689C338.593 280.41 342.147 265.792 330.167 254.363C322.034 246.603 305.137 240.629 305.137 240.629C305.137 240.629 322.419 244.965 331.176 251.8C343.92 261.747 340.78 275.483 351.799 287.278C357.648 293.539 369.797 287.984 381.53 287.54C409.336 286.488 447.349 276.758 483.224 286.406Z" fill="#6896A2"/>
<path d="M336.726 297.455C345.077 295.477 358.009 290.243 358.009 290.243L366.62 295.531C366.62 295.531 347.6 297.658 337.38 301.064C325.855 304.906 327.199 319.682 315.231 322.187C306.725 323.968 292.797 318.554 292.797 318.554C292.797 318.554 307.06 321.95 314.832 319.686C326.721 316.222 324.641 300.316 336.726 297.455Z" fill="#6896A2"/>
<path d="M343.032 280.651C349.262 283.605 355.444 291.086 355.444 291.086L358.619 296.343C358.619 296.343 349.741 286.081 341.62 283.028C332.46 279.585 325.842 288.662 317.08 284.242C310.852 281.1 304.861 271.21 304.861 271.21C304.861 271.21 312.081 280.114 318.093 282.622C327.29 286.457 334.017 276.377 343.032 280.651Z" fill="#6896A2"/>
</g>
<path d="M360.412 486.247C413.991 568.193 562.846 614.277 562.846 614.277L563.927 611.223C563.927 611.223 415.61 566.234 362.723 483.832C334.405 439.711 345.232 395.868 295.456 379.407C279.886 374.257 268.204 383.508 253.027 377.181C242.723 372.885 230.435 359.806 230.435 359.806C230.435 359.806 241.408 373.909 251.137 379.157C265.294 386.794 276.353 378.284 291.465 383.579C340.579 400.786 331.943 442.706 360.412 486.247Z" fill="#E4160E"/>
<path d="M294.442 365.562C296.084 374.045 303.516 384.026 303.516 384.026L313.715 391.065C313.715 391.065 299.078 375.47 297.954 364.685C296.687 352.522 310.518 347.707 307.869 335.685C305.987 327.14 295.418 316.559 295.418 316.559C295.418 316.559 304.311 328.275 305.458 336.343C307.213 348.685 292.066 353.286 294.442 365.562Z" fill="#E4160E"/>
<path d="M281.922 378.233C287.128 382.748 296.382 385.366 296.382 385.366L305.731 384.781C305.731 384.781 289.549 382.175 283.48 375.962C276.635 368.956 282.083 359.159 274.523 352.918C269.149 348.482 257.807 347.026 257.807 347.026C257.807 347.026 268.767 350.015 273.482 354.512C280.694 361.392 274.39 371.7 281.922 378.233Z" fill="#E4160E"/>
<g filter="url(#filter20_d)">
<path d="M357.655 488.784C408.477 553.473 564.306 611.851 564.306 611.851L569.689 611.019C569.689 611.019 411.442 548.495 359.966 486.369C326.383 445.838 338.512 408.717 303.604 366.953C293.044 354.318 276.352 371.054 261.175 364.727C250.87 360.431 238.583 347.352 238.583 347.352C238.583 347.352 249.556 361.455 259.284 366.703C273.442 374.34 289.57 358.595 299.613 371.125C331.722 411.186 325.422 447.756 357.655 488.784Z" fill="#6896A2"/>
<path d="M302.59 353.103C304.232 361.586 308.328 379.864 308.328 379.864L319.374 391.041C319.374 391.041 307.225 363.012 306.102 352.227C304.835 340.064 318.665 335.249 316.016 323.227C314.134 314.682 303.565 304.101 303.565 304.101C303.565 304.101 312.458 315.817 313.605 323.885C315.36 336.227 300.213 340.828 302.59 353.103Z" fill="#6896A2"/>
<path d="M281.626 342.061C288.839 348.94 282.534 359.249 290.067 365.782L291.624 363.511C284.78 356.505 290.228 346.708 282.668 340.467C277.294 336.03 265.952 334.575 265.952 334.575C265.952 334.575 276.911 337.563 281.626 342.061Z" fill="#6896A2"/>
</g>
</g>
<g filter="url(#filter21_f)">
<path d="M207.15 297.932C215.904 282.726 244.487 275.498 244.487 275.498C244.487 275.498 237.682 243.124 248.913 227.814C261.027 211.3 280.025 205.678 300.052 213.1C327.48 223.264 339.22 247.989 345.788 277.727C352.446 307.871 348.783 339.545 348.783 339.545C348.783 339.545 319.343 358.586 294.574 363.714C262.228 370.411 236.255 372.256 216.856 352.783C201.192 337.059 196.571 316.307 207.15 297.932Z" fill="#FF585B"/>
</g>
<g filter="url(#filter22_di)">
<path d="M234.83 300.455C240.463 290.671 260.681 287.14 260.681 287.14C260.681 287.14 254.477 265.188 261.703 255.336C269.498 244.709 281.721 241.09 294.604 245.864C312.248 252.401 319.798 268.309 324.021 287.442C328.302 306.837 330.537 330.038 330.537 330.038C330.537 330.038 307.001 339.471 291.066 342.773C270.256 347.085 253.547 348.274 241.069 335.747C230.994 325.631 228.022 312.279 234.83 300.455Z" fill="#FD002E"/>
</g>
<mask id="mask4" mask-type="alpha" maskUnits="userSpaceOnUse" x="231" y="243" width="100" height="103">
<path d="M234.827 300.458C240.46 290.674 260.678 287.143 260.678 287.143C260.678 287.143 254.474 265.191 261.701 255.339C269.496 244.712 281.718 241.093 294.601 245.867C312.246 252.404 319.796 268.312 324.019 287.445C328.299 306.84 330.534 330.041 330.534 330.041C330.534 330.041 306.998 339.474 291.063 342.776C270.254 347.088 253.545 348.277 241.067 335.749C230.991 325.634 228.02 312.282 234.827 300.458Z" fill="#C80902"/>
</mask>
<g mask="url(#mask4)">
<g filter="url(#filter23_f)">
<path d="M307.298 321.774C297.802 327.855 267.107 339.85 267.107 339.85L298.109 342.58L334.796 330.01C334.796 330.01 316.794 315.694 307.298 321.774Z" fill="#C90225" fill-opacity="0.7"/>
</g>
<g filter="url(#filter24_f)">
<path d="M250.279 295.457C243.067 298.367 233.451 305.827 233.451 305.827C233.451 305.827 239.554 295.298 245.887 291.2C250.572 288.168 259.367 286.076 259.367 286.076C259.367 286.076 255.882 277.416 256.239 271.818C256.662 265.204 262.858 256.454 262.858 256.454C262.858 256.454 262.675 266.668 263.545 273.184C264.5 280.335 271.513 285.306 267.822 291.268C264.193 297.127 256.759 292.842 250.279 295.457Z" fill="#E0012A"/>
<path d="M250.279 295.457C243.067 298.367 233.451 305.827 233.451 305.827C233.451 305.827 239.554 295.298 245.887 291.2C250.572 288.168 259.367 286.076 259.367 286.076C259.367 286.076 255.882 277.416 256.239 271.818C256.662 265.204 262.858 256.454 262.858 256.454C262.858 256.454 262.675 266.668 263.545 273.184C264.5 280.335 271.513 285.306 267.822 291.268C264.193 297.127 256.759 292.842 250.279 295.457Z" stroke="black"/>
</g>
<g filter="url(#filter25_f)">
<path d="M290.74 270.726C296.06 277.031 297.324 290.439 297.324 290.439C297.324 290.439 294.989 285.169 291.938 284.224C286.626 282.58 289.886 293.655 285.011 295.854C279.01 298.56 273.404 295.146 268.315 290.493C263.284 285.894 260.753 281.128 261.581 274.659C262.544 267.142 267.433 261.562 275.141 261.147C282.1 260.772 286.139 265.273 290.74 270.726Z" fill="white" fill-opacity="0.6"/>
</g>
<g filter="url(#filter26_f)">
<path d="M270.014 299.619C274.832 305.336 275.966 317.502 275.966 317.502C275.966 317.502 273.854 312.722 271.088 311.867C266.274 310.379 269.22 320.427 264.799 322.426C259.356 324.888 254.277 321.794 249.667 317.576C245.11 313.407 242.819 309.084 243.576 303.213C244.455 296.39 248.892 291.323 255.88 290.94C262.19 290.593 265.848 294.674 270.014 299.619Z" fill="white" fill-opacity="0.6"/>
</g>
</g>
<rect x="252.76" y="110.705" width="632.861" height="283" transform="rotate(90 252.76 110.705)" fill="url(#pattern3)" fill-opacity="0.05"/>
<rect x="534.76" y="76.712" width="632.861" height="282" transform="rotate(90 534.76 76.712)" fill="url(#pattern4)" fill-opacity="0.05"/>
</g>
<rect width="24.4581" height="131.355" rx="12.229" transform="matrix(-0.260367 0.96551 0.96551 0.260367 415.192 274.952)" fill="#6CB2C3"/>
<rect width="42.0537" height="196.017" rx="21.0269" transform="matrix(-0.260367 0.96551 0.96551 0.260367 477.831 282.977)" fill="#3C3D75"/>
<g filter="url(#filter27_d)">
<path fill-rule="evenodd" clip-rule="evenodd" d="M376.017 378.836C309.671 416.999 224.949 394.152 186.786 327.806C148.623 261.46 171.469 176.739 237.815 138.576C304.161 100.412 388.883 123.259 427.046 189.605C465.209 255.951 442.363 340.672 376.017 378.836ZM360.768 352.323C309.064 382.064 243.04 364.26 213.299 312.556C183.558 260.851 201.362 194.827 253.066 165.086C304.771 135.345 370.795 153.15 400.536 204.854C430.277 256.558 412.472 322.582 360.768 352.323Z" fill="#3C3D75"/>
</g>
<mask id="mask5" mask-type="alpha" maskUnits="userSpaceOnUse" x="168" y="120" width="495" height="278">
<rect width="24.4581" height="131.355" rx="12.229" transform="matrix(-0.260367 0.96551 0.96551 0.260367 415.191 274.958)" fill="#6CB2C3"/>
<rect width="42.0537" height="196.017" rx="21.0269" transform="matrix(-0.260367 0.96551 0.96551 0.260367 477.83 282.984)" fill="#3C3D75"/>
<path fill-rule="evenodd" clip-rule="evenodd" d="M376.017 378.842C309.671 417.005 224.949 394.159 186.786 327.813C148.623 261.467 171.469 176.745 237.815 138.582C304.161 100.419 388.883 123.265 427.046 189.611C465.209 255.957 442.362 340.679 376.017 378.842ZM360.768 352.33C309.064 382.071 243.04 364.266 213.299 312.562C183.558 260.858 201.362 194.834 253.066 165.093C304.77 135.352 370.795 153.156 400.536 204.86C430.277 256.564 412.472 322.589 360.768 352.33Z" fill="#3C3D75"/>
</mask>
<g mask="url(#mask5)">
<rect x="259.76" y="-15.2955" width="632.861" height="283" transform="rotate(90 259.76 -15.2955)" fill="url(#pattern5)" fill-opacity="0.05"/>
<rect x="541.76" y="-49.2881" width="632.861" height="282" transform="rotate(90 541.76 -49.2881)" fill="url(#pattern6)" fill-opacity="0.05"/>
<rect x="823.76" y="-39.2902" width="632.861" height="282" transform="rotate(90 823.76 -39.2902)" fill="url(#pattern7)" fill-opacity="0.05"/>
</g>
</g>
<defs>
<filter id="filter0_d" x="5.74539" y="0.715576" width="739.498" height="660.582" filterUnits="userSpaceOnUse" color-interpolation-filters="sRGB">
<feFlood flood-opacity="0" result="BackgroundImageFix"/>
<feColorMatrix in="SourceAlpha" type="matrix" values="0 0 0 0 0 0 0 0 0 0 0 0 0 0 0 0 0 0 127 0"/>
<feOffset dx="5" dy="4"/>
<feGaussianBlur stdDeviation="10"/>
<feColorMatrix type="matrix" values="0 0 0 0 0 0 0 0 0 0 0 0 0 0 0 0 0 0 0.4 0"/>
<feBlend mode="normal" in2="BackgroundImageFix" result="effect1_dropShadow"/>
<feBlend mode="normal" in="SourceGraphic" in2="effect1_dropShadow" result="shape"/>
</filter>
<pattern id="pattern0" patternContentUnits="objectBoundingBox" width="1" height="1">
<use xlink:href="#image0" transform="translate(0 -0.338597) scale(0.003125 0.0069883)"/>
</pattern>
<pattern id="pattern1" patternContentUnits="objectBoundingBox" width="1" height="1">
<use xlink:href="#image0" transform="translate(0 -0.34157) scale(0.003125 0.00701308)"/>
</pattern>
<pattern id="pattern2" patternContentUnits="objectBoundingBox" width="1" height="1">
<use xlink:href="#image0" transform="translate(0 -0.34157) scale(0.003125 0.00701308)"/>
</pattern>
<filter id="filter1_d" x="6.39871" y="19.4866" width="724.374" height="630.003" filterUnits="userSpaceOnUse" color-interpolation-filters="sRGB">
<feFlood flood-opacity="0" result="BackgroundImageFix"/>
<feColorMatrix in="SourceAlpha" type="matrix" values="0 0 0 0 0 0 0 0 0 0 0 0 0 0 0 0 0 0 127 0"/>
<feOffset dx="5" dy="4"/>
<feGaussianBlur stdDeviation="5"/>
<feColorMatrix type="matrix" values="0 0 0 0 0 0 0 0 0 0 0 0 0 0 0 0 0 0 0.3 0"/>
<feBlend mode="normal" in2="BackgroundImageFix" result="effect1_dropShadow"/>
<feBlend mode="normal" in="SourceGraphic" in2="effect1_dropShadow" result="shape"/>
</filter>
<filter id="filter2_i" x="84.342" y="76.5615" width="617.857" height="547.271" filterUnits="userSpaceOnUse" color-interpolation-filters="sRGB">
<feFlood flood-opacity="0" result="BackgroundImageFix"/>
<feBlend mode="normal" in="SourceGraphic" in2="BackgroundImageFix" result="shape"/>
<feColorMatrix in="SourceAlpha" type="matrix" values="0 0 0 0 0 0 0 0 0 0 0 0 0 0 0 0 0 0 127 0" result="hardAlpha"/>
<feOffset dx="5" dy="4"/>
<feGaussianBlur stdDeviation="5"/>
<feComposite in2="hardAlpha" operator="arithmetic" k2="-1" k3="1"/>
<feColorMatrix type="matrix" values="0 0 0 0 0 0 0 0 0 0 0 0 0 0 0 0 0 0 0.3 0"/>
<feBlend mode="normal" in2="shape" result="effect1_innerShadow"/>
</filter>
<filter id="filter3_i" x="108.701" y="256.749" width="277.478" height="280.912" filterUnits="userSpaceOnUse" color-interpolation-filters="sRGB">
<feFlood flood-opacity="0" result="BackgroundImageFix"/>
<feBlend mode="normal" in="SourceGraphic" in2="BackgroundImageFix" result="shape"/>
<feColorMatrix in="SourceAlpha" type="matrix" values="0 0 0 0 0 0 0 0 0 0 0 0 0 0 0 0 0 0 127 0" result="hardAlpha"/>
<feOffset dy="4"/>
<feGaussianBlur stdDeviation="5"/>
<feComposite in2="hardAlpha" operator="arithmetic" k2="-1" k3="1"/>
<feColorMatrix type="matrix" values="0 0 0 0 0 0 0 0 0 0 0 0 0 0 0 0 0 0 0.4 0"/>
<feBlend mode="normal" in2="shape" result="effect1_innerShadow"/>
</filter>
<filter id="filter4_i" x="142.278" y="312.618" width="207.974" height="195.103" filterUnits="userSpaceOnUse" color-interpolation-filters="sRGB">
<feFlood flood-opacity="0" result="BackgroundImageFix"/>
<feBlend mode="normal" in="SourceGraphic" in2="BackgroundImageFix" result="shape"/>
<feColorMatrix in="SourceAlpha" type="matrix" values="0 0 0 0 0 0 0 0 0 0 0 0 0 0 0 0 0 0 127 0" result="hardAlpha"/>
<feOffset dy="4"/>
<feGaussianBlur stdDeviation="5"/>
<feComposite in2="hardAlpha" operator="arithmetic" k2="-1" k3="1"/>
<feColorMatrix type="matrix" values="0 0 0 0 0 0 0 0 0 0 0 0 0 0 0 0 0 0 0.4 0"/>
<feBlend mode="normal" in2="shape" result="effect1_innerShadow"/>
</filter>
<filter id="filter5_i" x="213.391" y="106.056" width="326.678" height="206.28" filterUnits="userSpaceOnUse" color-interpolation-filters="sRGB">
<feFlood flood-opacity="0" result="BackgroundImageFix"/>
<feBlend mode="normal" in="SourceGraphic" in2="BackgroundImageFix" result="shape"/>
<feColorMatrix in="SourceAlpha" type="matrix" values="0 0 0 0 0 0 0 0 0 0 0 0 0 0 0 0 0 0 127 0" result="hardAlpha"/>
<feOffset dy="4"/>
<feGaussianBlur stdDeviation="5"/>
<feComposite in2="hardAlpha" operator="arithmetic" k2="-1" k3="1"/>
<feColorMatrix type="matrix" values="0 0 0 0 0 0 0 0 0 0 0 0 0 0 0 0 0 0 0.4 0"/>
<feBlend mode="normal" in2="shape" result="effect1_innerShadow"/>
</filter>
<filter id="filter6_i" x="237.969" y="131.158" width="246.485" height="148.521" filterUnits="userSpaceOnUse" color-interpolation-filters="sRGB">
<feFlood flood-opacity="0" result="BackgroundImageFix"/>
<feBlend mode="normal" in="SourceGraphic" in2="BackgroundImageFix" result="shape"/>
<feColorMatrix in="SourceAlpha" type="matrix" values="0 0 0 0 0 0 0 0 0 0 0 0 0 0 0 0 0 0 127 0" result="hardAlpha"/>
<feOffset dy="4"/>
<feGaussianBlur stdDeviation="5"/>
<feComposite in2="hardAlpha" operator="arithmetic" k2="-1" k3="1"/>
<feColorMatrix type="matrix" values="0 0 0 0 0 0 0 0 0 0 0 0 0 0 0 0 0 0 0.4 0"/>
<feBlend mode="normal" in2="shape" result="effect1_innerShadow"/>
</filter>
<filter id="filter7_i" x="302.099" y="261.303" width="223.931" height="250.14" filterUnits="userSpaceOnUse" color-interpolation-filters="sRGB">
<feFlood flood-opacity="0" result="BackgroundImageFix"/>
<feBlend mode="normal" in="SourceGraphic" in2="BackgroundImageFix" result="shape"/>
<feColorMatrix in="SourceAlpha" type="matrix" values="0 0 0 0 0 0 0 0 0 0 0 0 0 0 0 0 0 0 127 0" result="hardAlpha"/>
<feOffset dx="-4" dy="4"/>
<feGaussianBlur stdDeviation="5"/>
<feComposite in2="hardAlpha" operator="arithmetic" k2="-1" k3="1"/>
<feColorMatrix type="matrix" values="0 0 0 0 0 0 0 0 0 0 0 0 0 0 0 0 0 0 0.4 0"/>
<feBlend mode="normal" in2="shape" result="effect1_innerShadow"/>
</filter>
<filter id="filter8_i" x="152.3" y="150.932" width="535.007" height="472.363" filterUnits="userSpaceOnUse" color-interpolation-filters="sRGB">
<feFlood flood-opacity="0" result="BackgroundImageFix"/>
<feBlend mode="normal" in="SourceGraphic" in2="BackgroundImageFix" result="shape"/>
<feColorMatrix in="SourceAlpha" type="matrix" values="0 0 0 0 0 0 0 0 0 0 0 0 0 0 0 0 0 0 127 0" result="hardAlpha"/>
<feOffset dx="5" dy="4"/>
<feGaussianBlur stdDeviation="5"/>
<feComposite in2="hardAlpha" operator="arithmetic" k2="-1" k3="1"/>
<feColorMatrix type="matrix" values="0 0 0 0 0 0 0 0 0 0 0 0 0 0 0 0 0 0 0.3 0"/>
<feBlend mode="normal" in2="shape" result="effect1_innerShadow"/>
</filter>
<filter id="filter9_d" x="234.936" y="304.68" width="360.094" height="311.729" filterUnits="userSpaceOnUse" color-interpolation-filters="sRGB">
<feFlood flood-opacity="0" result="BackgroundImageFix"/>
<feColorMatrix in="SourceAlpha" type="matrix" values="0 0 0 0 0 0 0 0 0 0 0 0 0 0 0 0 0 0 127 0"/>
<feOffset dy="4"/>
<feGaussianBlur stdDeviation="2"/>
<feColorMatrix type="matrix" values="0 0 0 0 0 0 0 0 0 0 0 0 0 0 0 0 0 0 0.25 0"/>
<feBlend mode="normal" in2="BackgroundImageFix" result="effect1_dropShadow"/>
<feBlend mode="normal" in="SourceGraphic" in2="effect1_dropShadow" result="shape"/>
</filter>
<filter id="filter10_d" x="289.57" y="242.552" width="399.279" height="183.307" filterUnits="userSpaceOnUse" color-interpolation-filters="sRGB">
<feFlood flood-opacity="0" result="BackgroundImageFix"/>
<feColorMatrix in="SourceAlpha" type="matrix" values="0 0 0 0 0 0 0 0 0 0 0 0 0 0 0 0 0 0 127 0"/>
<feOffset dy="4"/>
<feGaussianBlur stdDeviation="2"/>
<feColorMatrix type="matrix" values="0 0 0 0 0 0 0 0 0 0 0 0 0 0 0 0 0 0 0.25 0"/>
<feBlend mode="normal" in2="BackgroundImageFix" result="effect1_dropShadow"/>
<feBlend mode="normal" in="SourceGraphic" in2="effect1_dropShadow" result="shape"/>
</filter>
<filter id="filter11_d" x="11.7003" y="14.3972" width="708.309" height="647.535" filterUnits="userSpaceOnUse" color-interpolation-filters="sRGB">
<feFlood flood-opacity="0" result="BackgroundImageFix"/>
<feColorMatrix in="SourceAlpha" type="matrix" values="0 0 0 0 0 0 0 0 0 0 0 0 0 0 0 0 0 0 127 0"/>
<feOffset dx="5" dy="4"/>
<feGaussianBlur stdDeviation="5"/>
<feColorMatrix type="matrix" values="0 0 0 0 0 0 0 0 0 0 0 0 0 0 0 0 0 0 0.4 0"/>
<feBlend mode="normal" in2="BackgroundImageFix" result="effect1_dropShadow"/>
<feBlend mode="normal" in="SourceGraphic" in2="effect1_dropShadow" result="shape"/>
</filter>
<filter id="filter12_i" x="83.0723" y="80.6245" width="609.792" height="555.39" filterUnits="userSpaceOnUse" color-interpolation-filters="sRGB">
<feFlood flood-opacity="0" result="BackgroundImageFix"/>
<feBlend mode="normal" in="SourceGraphic" in2="BackgroundImageFix" result="shape"/>
<feColorMatrix in="SourceAlpha" type="matrix" values="0 0 0 0 0 0 0 0 0 0 0 0 0 0 0 0 0 0 127 0" result="hardAlpha"/>
<feOffset dx="5" dy="4"/>
<feGaussianBlur stdDeviation="5"/>
<feComposite in2="hardAlpha" operator="arithmetic" k2="-1" k3="1"/>
<feColorMatrix type="matrix" values="0 0 0 0 0 0 0 0 0 0 0 0 0 0 0 0 0 0 0.3 0"/>
<feBlend mode="normal" in2="shape" result="effect1_innerShadow"/>
</filter>
<filter id="filter13_i" x="217.981" y="99.7629" width="314.01" height="192.895" filterUnits="userSpaceOnUse" color-interpolation-filters="sRGB">
<feFlood flood-opacity="0" result="BackgroundImageFix"/>
<feBlend mode="normal" in="SourceGraphic" in2="BackgroundImageFix" result="shape"/>
<feColorMatrix in="SourceAlpha" type="matrix" values="0 0 0 0 0 0 0 0 0 0 0 0 0 0 0 0 0 0 127 0" result="hardAlpha"/>
<feOffset dy="4"/>
<feGaussianBlur stdDeviation="5"/>
<feComposite in2="hardAlpha" operator="arithmetic" k2="-1" k3="1"/>
<feColorMatrix type="matrix" values="0 0 0 0 0 0 0 0 0 0 0 0 0 0 0 0 0 0 0.4 0"/>
<feBlend mode="normal" in2="shape" result="effect1_innerShadow"/>
</filter>
<filter id="filter14_i" x="248.978" y="131.279" width="240.214" height="142.974" filterUnits="userSpaceOnUse" color-interpolation-filters="sRGB">
<feFlood flood-opacity="0" result="BackgroundImageFix"/>
<feBlend mode="normal" in="SourceGraphic" in2="BackgroundImageFix" result="shape"/>
<feColorMatrix in="SourceAlpha" type="matrix" values="0 0 0 0 0 0 0 0 0 0 0 0 0 0 0 0 0 0 127 0" result="hardAlpha"/>
<feOffset dy="4"/>
<feGaussianBlur stdDeviation="5"/>
<feComposite in2="hardAlpha" operator="arithmetic" k2="-1" k3="1"/>
<feColorMatrix type="matrix" values="0 0 0 0 0 0 0 0 0 0 0 0 0 0 0 0 0 0 0.4 0"/>
<feBlend mode="normal" in2="shape" result="effect1_innerShadow"/>
</filter>
<filter id="filter15_i" x="111.612" y="249.109" width="293.655" height="288.666" filterUnits="userSpaceOnUse" color-interpolation-filters="sRGB">
<feFlood flood-opacity="0" result="BackgroundImageFix"/>
<feBlend mode="normal" in="SourceGraphic" in2="BackgroundImageFix" result="shape"/>
<feColorMatrix in="SourceAlpha" type="matrix" values="0 0 0 0 0 0 0 0 0 0 0 0 0 0 0 0 0 0 127 0" result="hardAlpha"/>
<feOffset dy="4"/>
<feGaussianBlur stdDeviation="5"/>
<feComposite in2="hardAlpha" operator="arithmetic" k2="-1" k3="1"/>
<feColorMatrix type="matrix" values="0 0 0 0 0 0 0 0 0 0 0 0 0 0 0 0 0 0 0.4 0"/>
<feBlend mode="normal" in2="shape" result="effect1_innerShadow"/>
</filter>
<filter id="filter16_i" x="137.222" y="291.757" width="215.397" height="209.073" filterUnits="userSpaceOnUse" color-interpolation-filters="sRGB">
<feFlood flood-opacity="0" result="BackgroundImageFix"/>
<feBlend mode="normal" in="SourceGraphic" in2="BackgroundImageFix" result="shape"/>
<feColorMatrix in="SourceAlpha" type="matrix" values="0 0 0 0 0 0 0 0 0 0 0 0 0 0 0 0 0 0 127 0" result="hardAlpha"/>
<feOffset dy="4"/>
<feGaussianBlur stdDeviation="5"/>
<feComposite in2="hardAlpha" operator="arithmetic" k2="-1" k3="1"/>
<feColorMatrix type="matrix" values="0 0 0 0 0 0 0 0 0 0 0 0 0 0 0 0 0 0 0.4 0"/>
<feBlend mode="normal" in2="shape" result="effect1_innerShadow"/>
</filter>
<filter id="filter17_i" x="291.227" y="279.365" width="230.456" height="238.781" filterUnits="userSpaceOnUse" color-interpolation-filters="sRGB">
<feFlood flood-opacity="0" result="BackgroundImageFix"/>
<feBlend mode="normal" in="SourceGraphic" in2="BackgroundImageFix" result="shape"/>
<feColorMatrix in="SourceAlpha" type="matrix" values="0 0 0 0 0 0 0 0 0 0 0 0 0 0 0 0 0 0 127 0" result="hardAlpha"/>
<feOffset dx="-4" dy="4"/>
<feGaussianBlur stdDeviation="5"/>
<feComposite in2="hardAlpha" operator="arithmetic" k2="-1" k3="1"/>
<feColorMatrix type="matrix" values="0 0 0 0 0 0 0 0 0 0 0 0 0 0 0 0 0 0 0.4 0"/>
<feBlend mode="normal" in2="shape" result="effect1_innerShadow"/>
</filter>
<filter id="filter18_i" x="155.473" y="151.041" width="546.349" height="470.841" filterUnits="userSpaceOnUse" color-interpolation-filters="sRGB">
<feFlood flood-opacity="0" result="BackgroundImageFix"/>
<feBlend mode="normal" in="SourceGraphic" in2="BackgroundImageFix" result="shape"/>
<feColorMatrix in="SourceAlpha" type="matrix" values="0 0 0 0 0 0 0 0 0 0 0 0 0 0 0 0 0 0 127 0" result="hardAlpha"/>
<feOffset dx="5" dy="4"/>
<feGaussianBlur stdDeviation="5"/>
<feComposite in2="hardAlpha" operator="arithmetic" k2="-1" k3="1"/>
<feColorMatrix type="matrix" values="0 0 0 0 0 0 0 0 0 0 0 0 0 0 0 0 0 0 0.3 0"/>
<feBlend mode="normal" in2="shape" result="effect1_innerShadow"/>
</filter>
<filter id="filter19_d" x="288.797" y="240.629" width="405.715" height="206.978" filterUnits="userSpaceOnUse" color-interpolation-filters="sRGB">
<feFlood flood-opacity="0" result="BackgroundImageFix"/>
<feColorMatrix in="SourceAlpha" type="matrix" values="0 0 0 0 0 0 0 0 0 0 0 0 0 0 0 0 0 0 127 0"/>
<feOffset dy="4"/>
<feGaussianBlur stdDeviation="2"/>
<feColorMatrix type="matrix" values="0 0 0 0 0 0 0 0 0 0 0 0 0 0 0 0 0 0 0.25 0"/>
<feBlend mode="normal" in2="BackgroundImageFix" result="effect1_dropShadow"/>
<feBlend mode="normal" in="SourceGraphic" in2="effect1_dropShadow" result="shape"/>
</filter>
<filter id="filter20_d" x="234.583" y="304.101" width="339.107" height="315.75" filterUnits="userSpaceOnUse" color-interpolation-filters="sRGB">
<feFlood flood-opacity="0" result="BackgroundImageFix"/>
<feColorMatrix in="SourceAlpha" type="matrix" values="0 0 0 0 0 0 0 0 0 0 0 0 0 0 0 0 0 0 127 0"/>
<feOffset dy="4"/>
<feGaussianBlur stdDeviation="2"/>
<feColorMatrix type="matrix" values="0 0 0 0 0 0 0 0 0 0 0 0 0 0 0 0 0 0 0.25 0"/>
<feBlend mode="normal" in2="BackgroundImageFix" result="effect1_dropShadow"/>
<feBlend mode="normal" in="SourceGraphic" in2="effect1_dropShadow" result="shape"/>
</filter>
<filter id="filter21_f" x="151.439" y="159.881" width="248.35" height="258.489" filterUnits="userSpaceOnUse" color-interpolation-filters="sRGB">
<feFlood flood-opacity="0" result="BackgroundImageFix"/>
<feBlend mode="normal" in="SourceGraphic" in2="BackgroundImageFix" result="shape"/>
<feGaussianBlur stdDeviation="25" result="effect1_foregroundBlur"/>
</filter>
<filter id="filter22_di" x="216.154" y="228.794" width="129.383" height="131.977" filterUnits="userSpaceOnUse" color-interpolation-filters="sRGB">
<feFlood flood-opacity="0" result="BackgroundImageFix"/>
<feColorMatrix in="SourceAlpha" type="matrix" values="0 0 0 0 0 0 0 0 0 0 0 0 0 0 0 0 0 0 127 0"/>
<feOffset/>
<feGaussianBlur stdDeviation="7.5"/>
<feColorMatrix type="matrix" values="0 0 0 0 0 0 0 0 0 0 0 0 0 0 0 0 0 0 0.4 0"/>
<feBlend mode="normal" in2="BackgroundImageFix" result="effect1_dropShadow"/>
<feBlend mode="normal" in="SourceGraphic" in2="effect1_dropShadow" result="shape"/>
<feColorMatrix in="SourceAlpha" type="matrix" values="0 0 0 0 0 0 0 0 0 0 0 0 0 0 0 0 0 0 127 0" result="hardAlpha"/>
<feOffset dx="-2"/>
<feGaussianBlur stdDeviation="5"/>
<feComposite in2="hardAlpha" operator="arithmetic" k2="-1" k3="1"/>
<feColorMatrix type="matrix" values="0 0 0 0 0 0 0 0 0 0 0 0 0 0 0 0 0 0 0.25 0"/>
<feBlend mode="normal" in2="shape" result="effect2_innerShadow"/>
</filter>
<filter id="filter23_f" x="237.107" y="290.27" width="127.689" height="82.3097" filterUnits="userSpaceOnUse" color-interpolation-filters="sRGB">
<feFlood flood-opacity="0" result="BackgroundImageFix"/>
<feBlend mode="normal" in="SourceGraphic" in2="BackgroundImageFix" result="shape"/>
<feGaussianBlur stdDeviation="15" result="effect1_foregroundBlur"/>
</filter>
<filter id="filter24_f" x="203.022" y="224.845" width="96.3624" height="111.382" filterUnits="userSpaceOnUse" color-interpolation-filters="sRGB">
<feFlood flood-opacity="0" result="BackgroundImageFix"/>
<feBlend mode="normal" in="SourceGraphic" in2="BackgroundImageFix" result="shape"/>
<feGaussianBlur stdDeviation="15" result="effect1_foregroundBlur"/>
</filter>
<filter id="filter25_f" x="231.426" y="231.125" width="95.8977" height="95.6877" filterUnits="userSpaceOnUse" color-interpolation-filters="sRGB">
<feFlood flood-opacity="0" result="BackgroundImageFix"/>
<feBlend mode="normal" in="SourceGraphic" in2="BackgroundImageFix" result="shape"/>
<feGaussianBlur stdDeviation="15" result="effect1_foregroundBlur"/>
</filter>
<filter id="filter26_f" x="223.434" y="270.919" width="72.5324" height="72.3811" filterUnits="userSpaceOnUse" color-interpolation-filters="sRGB">
<feFlood flood-opacity="0" result="BackgroundImageFix"/>
<feBlend mode="normal" in="SourceGraphic" in2="BackgroundImageFix" result="shape"/>
<feGaussianBlur stdDeviation="10" result="effect1_foregroundBlur"/>
</filter>
<pattern id="pattern3" patternContentUnits="objectBoundingBox" width="1" height="1">
<use xlink:href="#image0" transform="translate(0 -0.338597) scale(0.003125 0.0069883)"/>
</pattern>
<pattern id="pattern4" patternContentUnits="objectBoundingBox" width="1" height="1">
<use xlink:href="#image0" transform="translate(0 -0.34157) scale(0.003125 0.00701308)"/>
</pattern>
<filter id="filter27_d" x="158.306" y="114.096" width="297.219" height="297.219" filterUnits="userSpaceOnUse" color-interpolation-filters="sRGB">
<feFlood flood-opacity="0" result="BackgroundImageFix"/>
<feColorMatrix in="SourceAlpha" type="matrix" values="0 0 0 0 0 0 0 0 0 0 0 0 0 0 0 0 0 0 127 0"/>
<feOffset dy="4"/>
<feGaussianBlur stdDeviation="5"/>
<feColorMatrix type="matrix" values="0 0 0 0 0 0 0 0 0 0 0 0 0 0 0 0 0 0 0.4 0"/>
<feBlend mode="normal" in2="BackgroundImageFix" result="effect1_dropShadow"/>
<feBlend mode="normal" in="SourceGraphic" in2="effect1_dropShadow" result="shape"/>
</filter>
<pattern id="pattern5" patternContentUnits="objectBoundingBox" width="1" height="1">
<use xlink:href="#image0" transform="translate(0 -0.338597) scale(0.003125 0.0069883)"/>
</pattern>
<pattern id="pattern6" patternContentUnits="objectBoundingBox" width="1" height="1">
<use xlink:href="#image0" transform="translate(0 -0.34157) scale(0.003125 0.00701308)"/>
</pattern>
<pattern id="pattern7" patternContentUnits="objectBoundingBox" width="1" height="1">
<use xlink:href="#image0" transform="translate(0 -0.34157) scale(0.003125 0.00701308)"/>
</pattern>
<clipPath id="clip0">
<rect width="762" height="667" fill="white"/>
</clipPath>
</defs>
</svg>
